<?xml version="1.0" encoding="utf-8" standalone="no"?>
<!DOCTYPE svg PUBLIC "-//W3C//DTD SVG 1.1//EN"
  "http://www.w3.org/Graphics/SVG/1.1/DTD/svg11.dtd">
<!-- Created with matplotlib (http://matplotlib.org/) -->
<svg height="280pt" version="1.1" viewBox="0 0 112 280" width="112pt" xmlns="http://www.w3.org/2000/svg" xmlns:xlink="http://www.w3.org/1999/xlink">
 <defs>
  <style type="text/css">
*{stroke-linecap:butt;stroke-linejoin:round;stroke-miterlimit:100000;}
  </style>
 </defs>
 <g id="figure_1">
  <g id="patch_1">
   <path d="M 0 280.542136 
L 112.542136 280.542136 
L 112.542136 0 
L 0 0 
z
" style="fill:#ffffff;"/>
  </g>
  <g id="axes_1">
   <g id="patch_2">
    <path d="M 12.591068 271.311068 
L 99.951068 271.311068 
L 99.951068 9.231068 
L 12.591068 9.231068 
z
" style="fill:#ffffff;"/>
   </g>
   <g id="patch_3">
    <path clip-path="url(#pc8e12873e1)" d="M 52.70399 259.136913 
Q 35.272065 224.273063 18.840141 191.409214 
" style="fill:none;stroke:#000000;stroke-linecap:round;stroke-width:2.0;"/>
    <path clip-path="url(#pc8e12873e1)" d="M 18.840141 202.589554 
L 18.840141 191.409214 
L 27.784413 198.117418 
L 18.840141 202.589554 
z
" style="stroke:#000000;stroke-linecap:round;stroke-width:2.0;"/>
   </g>
   <g id="patch_4">
    <path clip-path="url(#pc8e12873e1)" d="M 19.91328 176.628856 
Q 56.271647 140.270488 91.048876 105.49326 
" style="fill:none;stroke:#000000;stroke-linecap:round;stroke-width:2.0;"/>
    <path clip-path="url(#pc8e12873e1)" d="M 80.442274 109.028793 
L 91.048876 105.49326 
L 87.513342 116.099861 
L 80.442274 109.028793 
z
" style="stroke:#000000;stroke-linecap:round;stroke-width:2.0;"/>
   </g>
   <g id="patch_5">
    <path clip-path="url(#pc8e12873e1)" d="M 17.838145 91.136913 
Q 35.27007 56.273063 51.701995 23.409214 
" style="fill:none;stroke:#000000;stroke-linecap:round;stroke-width:2.0;"/>
    <path clip-path="url(#pc8e12873e1)" d="M 42.757723 30.117418 
L 51.701995 23.409214 
L 51.701995 34.589554 
L 42.757723 30.117418 
z
" style="stroke:#000000;stroke-linecap:round;stroke-width:2.0;"/>
   </g>
   <g id="patch_6">
    <path clip-path="url(#pc8e12873e1)" d="M 59.838145 259.136913 
Q 77.27007 224.273063 93.701995 191.409214 
" style="fill:none;stroke:#000000;stroke-linecap:round;stroke-width:2.0;"/>
    <path clip-path="url(#pc8e12873e1)" d="M 84.757723 198.117418 
L 93.701995 191.409214 
L 93.701995 202.589554 
L 84.757723 198.117418 
z
" style="stroke:#000000;stroke-linecap:round;stroke-width:2.0;"/>
   </g>
   <g id="patch_7">
    <path clip-path="url(#pc8e12873e1)" d="M 98.271068 174.290965 
Q 98.271068 140.268999 98.271068 108.4831 
" style="fill:none;stroke:#000000;stroke-linecap:round;stroke-width:2.0;"/>
    <path clip-path="url(#pc8e12873e1)" d="M 93.271068 118.4831 
L 98.271068 108.4831 
L 103.271068 118.4831 
L 93.271068 118.4831 
z
" style="stroke:#000000;stroke-linecap:round;stroke-width:2.0;"/>
   </g>
   <g id="patch_8">
    <path clip-path="url(#pc8e12873e1)" d="M 94.70399 91.136913 
Q 77.272065 56.273063 60.840141 23.409214 
" style="fill:none;stroke:#000000;stroke-linecap:round;stroke-width:2.0;"/>
    <path clip-path="url(#pc8e12873e1)" d="M 60.840141 34.589554 
L 60.840141 23.409214 
L 69.784413 30.117418 
L 60.840141 34.589554 
z
" style="stroke:#000000;stroke-linecap:round;stroke-width:2.0;"/>
   </g>
   <g id="patch_9">
    <path clip-path="url(#pc8e12873e1)" d="M 14.271068 174.290965 
Q 14.271068 140.268999 14.271068 108.4831 
" style="fill:none;stroke:#000000;stroke-linecap:round;stroke-width:2.0;"/>
    <path clip-path="url(#pc8e12873e1)" d="M 9.271068 118.4831 
L 14.271068 108.4831 
L 19.271068 118.4831 
L 9.271068 118.4831 
z
" style="stroke:#000000;stroke-linecap:round;stroke-width:2.0;"/>
   </g>
   <g id="matplotlib.axis_1"/>
   <g id="matplotlib.axis_2"/>
   <g id="PathCollection_1">
    <defs>
     <path d="M 0 7.071068 
C 1.875269 7.071068 3.673985 6.326016 5 5 
C 6.326016 3.673985 7.071068 1.875269 7.071068 0 
C 7.071068 -1.875269 6.326016 -3.673985 5 -5 
C 3.673985 -6.326016 1.875269 -7.071068 0 -7.071068 
C -1.875269 -7.071068 -3.673985 -6.326016 -5 -5 
C -6.326016 -3.673985 -7.071068 -1.875269 -7.071068 0 
C -7.071068 1.875269 -6.326016 3.673985 -5 5 
C -3.673985 6.326016 -1.875269 7.071068 0 7.071068 
z
" id="mab5ac04ed1" style="stroke:#000000;"/>
    </defs>
    <g>
     <use style="fill:#fec7b8;stroke:#000000;" x="56.2710678119" xlink:href="#mab5ac04ed1" y="266.271067812"/>
     <use style="fill:#fec7b8;stroke:#000000;" x="14.2710678119" xlink:href="#mab5ac04ed1" y="182.271067812"/>
     <use style="fill:#fec7b8;stroke:#000000;" x="98.2710678119" xlink:href="#mab5ac04ed1" y="182.271067812"/>
     <use style="fill:#fec7b8;stroke:#000000;" x="14.2710678119" xlink:href="#mab5ac04ed1" y="98.2710678119"/>
     <use style="fill:#fec7b8;stroke:#000000;" x="98.2710678119" xlink:href="#mab5ac04ed1" y="98.2710678119"/>
     <use style="fill:#fec7b8;stroke:#000000;" x="56.2710678119" xlink:href="#mab5ac04ed1" y="14.2710678119"/>
    </g>
   </g>
   <g id="text_1">
    <!-- 1 -->
    <defs>
     <path d="M 12.40625 8.296875 
L 28.515625 8.296875 
L 28.515625 63.921875 
L 10.984375 60.40625 
L 10.984375 69.390625 
L 28.421875 72.90625 
L 38.28125 72.90625 
L 38.28125 8.296875 
L 54.390625 8.296875 
L 54.390625 0 
L 12.40625 0 
z
" id="BitstreamVeraSans-Roman-31"/>
    </defs>
    <g transform="translate(53.0898178119 269.030442812)scale(0.1 -0.1)">
     <use xlink:href="#BitstreamVeraSans-Roman-31"/>
    </g>
   </g>
   <g id="text_2">
    <!-- 2 -->
    <defs>
     <path d="M 19.1875 8.296875 
L 53.609375 8.296875 
L 53.609375 0 
L 7.328125 0 
L 7.328125 8.296875 
Q 12.9375 14.109375 22.625 23.890625 
Q 32.328125 33.6875 34.8125 36.53125 
Q 39.546875 41.84375 41.421875 45.53125 
Q 43.3125 49.21875 43.3125 52.78125 
Q 43.3125 58.59375 39.234375 62.25 
Q 35.15625 65.921875 28.609375 65.921875 
Q 23.96875 65.921875 18.8125 64.3125 
Q 13.671875 62.703125 7.8125 59.421875 
L 7.8125 69.390625 
Q 13.765625 71.78125 18.9375 73 
Q 24.125 74.21875 28.421875 74.21875 
Q 39.75 74.21875 46.484375 68.546875 
Q 53.21875 62.890625 53.21875 53.421875 
Q 53.21875 48.921875 51.53125 44.890625 
Q 49.859375 40.875 45.40625 35.40625 
Q 44.1875 33.984375 37.640625 27.21875 
Q 31.109375 20.453125 19.1875 8.296875 
" id="BitstreamVeraSans-Roman-32"/>
    </defs>
    <g transform="translate(11.0898178119 185.030442812)scale(0.1 -0.1)">
     <use xlink:href="#BitstreamVeraSans-Roman-32"/>
    </g>
   </g>
   <g id="text_3">
    <!-- 3 -->
    <defs>
     <path d="M 40.578125 39.3125 
Q 47.65625 37.796875 51.625 33 
Q 55.609375 28.21875 55.609375 21.1875 
Q 55.609375 10.40625 48.1875 4.484375 
Q 40.765625 -1.421875 27.09375 -1.421875 
Q 22.515625 -1.421875 17.65625 -0.515625 
Q 12.796875 0.390625 7.625 2.203125 
L 7.625 11.71875 
Q 11.71875 9.328125 16.59375 8.109375 
Q 21.484375 6.890625 26.8125 6.890625 
Q 36.078125 6.890625 40.9375 10.546875 
Q 45.796875 14.203125 45.796875 21.1875 
Q 45.796875 27.640625 41.28125 31.265625 
Q 36.765625 34.90625 28.71875 34.90625 
L 20.21875 34.90625 
L 20.21875 43.015625 
L 29.109375 43.015625 
Q 36.375 43.015625 40.234375 45.921875 
Q 44.09375 48.828125 44.09375 54.296875 
Q 44.09375 59.90625 40.109375 62.90625 
Q 36.140625 65.921875 28.71875 65.921875 
Q 24.65625 65.921875 20.015625 65.03125 
Q 15.375 64.15625 9.8125 62.3125 
L 9.8125 71.09375 
Q 15.4375 72.65625 20.34375 73.4375 
Q 25.25 74.21875 29.59375 74.21875 
Q 40.828125 74.21875 47.359375 69.109375 
Q 53.90625 64.015625 53.90625 55.328125 
Q 53.90625 49.265625 50.4375 45.09375 
Q 46.96875 40.921875 40.578125 39.3125 
" id="BitstreamVeraSans-Roman-33"/>
    </defs>
    <g transform="translate(95.0898178119 185.030442812)scale(0.1 -0.1)">
     <use xlink:href="#BitstreamVeraSans-Roman-33"/>
    </g>
   </g>
   <g id="text_4">
    <!-- 4 -->
    <defs>
     <path d="M 37.796875 64.3125 
L 12.890625 25.390625 
L 37.796875 25.390625 
z
M 35.203125 72.90625 
L 47.609375 72.90625 
L 47.609375 25.390625 
L 58.015625 25.390625 
L 58.015625 17.1875 
L 47.609375 17.1875 
L 47.609375 0 
L 37.796875 0 
L 37.796875 17.1875 
L 4.890625 17.1875 
L 4.890625 26.703125 
z
" id="BitstreamVeraSans-Roman-34"/>
    </defs>
    <g transform="translate(11.0898178119 101.030442812)scale(0.1 -0.1)">
     <use xlink:href="#BitstreamVeraSans-Roman-34"/>
    </g>
   </g>
   <g id="text_5">
    <!-- 6 -->
    <defs>
     <path d="M 33.015625 40.375 
Q 26.375 40.375 22.484375 35.828125 
Q 18.609375 31.296875 18.609375 23.390625 
Q 18.609375 15.53125 22.484375 10.953125 
Q 26.375 6.390625 33.015625 6.390625 
Q 39.65625 6.390625 43.53125 10.953125 
Q 47.40625 15.53125 47.40625 23.390625 
Q 47.40625 31.296875 43.53125 35.828125 
Q 39.65625 40.375 33.015625 40.375 
M 52.59375 71.296875 
L 52.59375 62.3125 
Q 48.875 64.0625 45.09375 64.984375 
Q 41.3125 65.921875 37.59375 65.921875 
Q 27.828125 65.921875 22.671875 59.328125 
Q 17.53125 52.734375 16.796875 39.40625 
Q 19.671875 43.65625 24.015625 45.921875 
Q 28.375 48.1875 33.59375 48.1875 
Q 44.578125 48.1875 50.953125 41.515625 
Q 57.328125 34.859375 57.328125 23.390625 
Q 57.328125 12.15625 50.6875 5.359375 
Q 44.046875 -1.421875 33.015625 -1.421875 
Q 20.359375 -1.421875 13.671875 8.265625 
Q 6.984375 17.96875 6.984375 36.375 
Q 6.984375 53.65625 15.1875 63.9375 
Q 23.390625 74.21875 37.203125 74.21875 
Q 40.921875 74.21875 44.703125 73.484375 
Q 48.484375 72.75 52.59375 71.296875 
" id="BitstreamVeraSans-Roman-36"/>
    </defs>
    <g transform="translate(95.0898178119 101.030442812)scale(0.1 -0.1)">
     <use xlink:href="#BitstreamVeraSans-Roman-36"/>
    </g>
   </g>
   <g id="text_6">
    <!-- 12 -->
    <g transform="translate(49.9085678119 17.0304428119)scale(0.1 -0.1)">
     <use xlink:href="#BitstreamVeraSans-Roman-31"/>
     <use x="63.623046875" xlink:href="#BitstreamVeraSans-Roman-32"/>
    </g>
   </g>
  </g>
 </g>
 <defs>
  <clipPath id="pc8e12873e1">
   <rect height="262.08" width="87.36" x="12.5910678119" y="9.23106781187"/>
  </clipPath>
 </defs>
</svg>
