<?xml version="1.0" encoding="utf-8" standalone="no"?>
<!DOCTYPE svg PUBLIC "-//W3C//DTD SVG 1.1//EN"
  "http://www.w3.org/Graphics/SVG/1.1/DTD/svg11.dtd">
<!-- Created with matplotlib (http://matplotlib.org/) -->
<svg height="309pt" version="1.1" viewBox="0 0 564 309" width="564pt" xmlns="http://www.w3.org/2000/svg" xmlns:xlink="http://www.w3.org/1999/xlink">
 <defs>
  <style type="text/css">
*{stroke-linecap:butt;stroke-linejoin:round;stroke-miterlimit:100000;}
  </style>
 </defs>
 <g id="figure_1">
  <g id="patch_1">
   <path d="M 0 309.566037 
L 564.48 309.566037 
L 564.48 0 
L 0 0 
z
" style="fill:#ffffff;"/>
  </g>
  <g id="axes_1">
   <g id="patch_2">
    <path d="M 7.2 302.366037 
L 557.28 302.366037 
L 557.28 7.2 
L 7.2 7.2 
z
" style="fill:#ffffff;"/>
   </g>
   <g id="patch_3">
    <path clip-path="url(#p846f566690)" d="M 516.559215 269.280539 
Q 421.30432 193.688911 301.936278 193.51854 
" style="fill:none;stroke:#000000;stroke-linecap:round;stroke-width:2.0;"/>
    <path clip-path="url(#p846f566690)" d="M 311.929132 198.532808 
L 301.936278 193.51854 
L 311.943404 188.532818 
L 311.929132 198.532808 
z
" style="stroke:#000000;stroke-linecap:round;stroke-width:2.0;"/>
   </g>
   <g id="patch_4">
    <path clip-path="url(#p846f566690)" d="M 510.660742 279.760077 
Q 391.2927 279.589706 296.037805 203.998079 
" style="fill:none;stroke:#000000;stroke-linecap:round;stroke-width:2.0;"/>
    <path clip-path="url(#p846f566690)" d="M 500.667889 274.74581 
L 510.660742 279.760077 
L 500.653616 284.745799 
L 500.667889 274.74581 
z
" style="stroke:#000000;stroke-linecap:round;stroke-width:2.0;"/>
   </g>
   <g id="patch_5">
    <path clip-path="url(#p846f566690)" d="M 53.681324 200.029426 
Q 80.619192 122.882802 106.819921 47.847251 
" style="fill:none;stroke:#000000;stroke-linecap:round;stroke-width:2.0;"/>
    <path clip-path="url(#p846f566690)" d="M 98.802834 55.63996 
L 106.819921 47.847251 
L 108.243837 58.936546 
L 98.802834 55.63996 
z
" style="stroke:#000000;stroke-linecap:round;stroke-width:2.0;"/>
   </g>
   <g id="patch_6">
    <path clip-path="url(#p846f566690)" d="M 269.025352 180.202203 
Q 197.963465 111.634934 125.292446 41.515023 
" style="fill:none;stroke:#000000;stroke-linecap:round;stroke-width:2.0;"/>
    <path clip-path="url(#p846f566690)" d="M 265.300915 169.660449 
L 269.025352 180.202203 
L 258.357287 176.856701 
L 265.300915 169.660449 
z
" style="stroke:#000000;stroke-linecap:round;stroke-width:2.0;"/>
   </g>
   <g id="patch_7">
    <path clip-path="url(#p846f566690)" d="M 67.160433 214.160843 
Q 165.453583 204.739093 265.9726 195.103985 
" style="fill:none;stroke:#000000;stroke-linecap:round;stroke-width:2.0;"/>
    <path clip-path="url(#p846f566690)" d="M 77.591889 218.183868 
L 67.160433 214.160843 
L 76.637727 208.229493 
L 77.591889 218.183868 
z
" style="stroke:#000000;stroke-linecap:round;stroke-width:2.0;"/>
   </g>
   <g id="matplotlib.axis_1"/>
   <g id="matplotlib.axis_2"/>
   <g id="patch_8">
    <path clip-path="url(#p846f566690)" d="M 48.109311 276.64866 
C 56.153146 276.64866 63.86861 273.45281 69.55646 267.76496 
C 75.244311 262.077109 78.440161 254.361646 78.440161 246.317811 
C 78.440161 238.273975 75.244311 230.558512 69.55646 224.870661 
C 63.86861 219.182811 56.153146 215.986961 48.109311 215.986961 
C 40.065476 215.986961 32.350012 219.182811 26.662162 224.870661 
C 20.974311 230.558512 17.778462 238.273975 17.778462 246.317811 
C 17.778462 254.361646 20.974311 262.077109 26.662162 267.76496 
C 32.350012 273.45281 40.065476 276.64866 48.109311 276.64866 
L 48.109311 276.64866 
z
" style="fill:none;stroke:#000000;stroke-linejoin:miter;"/>
   </g>
   <g id="patch_9">
    <path d="M 48.109311 232.889335 
C 52.591873 232.889335 56.891444 231.108394 60.061094 227.938744 
C 63.230744 224.769094 65.011685 220.469523 65.011685 215.986961 
C 65.011685 211.504399 63.230744 207.204828 60.061094 204.035178 
C 56.891444 200.865528 52.591873 199.084587 48.109311 199.084587 
C 43.626749 199.084587 39.327178 200.865528 36.157528 204.035178 
C 32.987878 207.204828 31.206937 211.504399 31.206937 215.986961 
C 31.206937 220.469523 32.987878 224.769094 36.157528 227.938744 
C 39.327178 231.108394 43.626749 232.889335 48.109311 232.889335 
z
" style="fill:#fec7b8;stroke:#000000;stroke-linejoin:miter;"/>
   </g>
   <g id="patch_10">
    <path d="M 529.799165 296.689767 
C 534.281726 296.689767 538.581298 294.908826 541.750948 291.739176 
C 544.920598 288.569526 546.701538 284.269955 546.701538 279.787393 
C 546.701538 275.304831 544.920598 271.00526 541.750948 267.83561 
C 538.581298 264.66596 534.281726 262.885019 529.799165 262.885019 
C 525.316603 262.885019 521.017031 264.66596 517.847381 267.83561 
C 514.677731 271.00526 512.896791 275.304831 512.896791 279.787393 
C 512.896791 284.269955 514.677731 288.569526 517.847381 291.739176 
C 521.017031 294.908826 525.316603 296.689767 529.799165 296.689767 
z
" style="fill:#fec7b8;stroke:#000000;stroke-linejoin:miter;"/>
   </g>
   <g id="patch_11">
    <path d="M 282.797856 210.393598 
C 287.280418 210.393598 291.579989 208.612658 294.749639 205.443008 
C 297.919289 202.273358 299.70023 197.973786 299.70023 193.491224 
C 299.70023 189.008662 297.919289 184.709091 294.749639 181.539441 
C 291.579989 178.369791 287.280418 176.588851 282.797856 176.588851 
C 278.315294 176.588851 274.015723 178.369791 270.846073 181.539441 
C 267.676423 184.709091 265.895482 189.008662 265.895482 193.491224 
C 265.895482 197.973786 267.676423 202.273358 270.846073 205.443008 
C 274.015723 208.612658 278.315294 210.393598 282.797856 210.393598 
z
" style="fill:#fec7b8;stroke:#000000;stroke-linejoin:miter;"/>
   </g>
   <g id="patch_12">
    <path d="M 113.129073 46.681018 
C 117.611635 46.681018 121.911206 44.900077 125.080856 41.730427 
C 128.250506 38.560777 130.031447 34.261206 130.031447 29.778644 
C 130.031447 25.296082 128.250506 20.996511 125.080856 17.826861 
C 121.911206 14.657211 117.611635 12.87627 113.129073 12.87627 
C 108.646511 12.87627 104.34694 14.657211 101.17729 17.826861 
C 98.00764 20.996511 96.226699 25.296082 96.226699 29.778644 
C 96.226699 34.261206 98.00764 38.560777 101.17729 41.730427 
C 104.34694 44.900077 108.646511 46.681018 113.129073 46.681018 
z
" style="fill:#fec7b8;stroke:#000000;stroke-linejoin:miter;"/>
   </g>
   <g id="text_1">
    <!-- 0 -->
    <defs>
     <path d="M 31.78125 66.40625 
Q 24.171875 66.40625 20.328125 58.90625 
Q 16.5 51.421875 16.5 36.375 
Q 16.5 21.390625 20.328125 13.890625 
Q 24.171875 6.390625 31.78125 6.390625 
Q 39.453125 6.390625 43.28125 13.890625 
Q 47.125 21.390625 47.125 36.375 
Q 47.125 51.421875 43.28125 58.90625 
Q 39.453125 66.40625 31.78125 66.40625 
M 31.78125 74.21875 
Q 44.046875 74.21875 50.515625 64.515625 
Q 56.984375 54.828125 56.984375 36.375 
Q 56.984375 17.96875 50.515625 8.265625 
Q 44.046875 -1.421875 31.78125 -1.421875 
Q 19.53125 -1.421875 13.0625 8.265625 
Q 6.59375 17.96875 6.59375 36.375 
Q 6.59375 54.828125 13.0625 64.515625 
Q 19.53125 74.21875 31.78125 74.21875 
" id="BitstreamVeraSans-Roman-30"/>
    </defs>
    <g transform="translate(44.9280610559 218.746336061)scale(0.1 -0.1)">
     <use xlink:href="#BitstreamVeraSans-Roman-30"/>
    </g>
   </g>
   <g id="text_2">
    <!-- 1 -->
    <defs>
     <path d="M 12.40625 8.296875 
L 28.515625 8.296875 
L 28.515625 63.921875 
L 10.984375 60.40625 
L 10.984375 69.390625 
L 28.421875 72.90625 
L 38.28125 72.90625 
L 38.28125 8.296875 
L 54.390625 8.296875 
L 54.390625 0 
L 12.40625 0 
z
" id="BitstreamVeraSans-Roman-31"/>
    </defs>
    <g transform="translate(526.617914533 282.54676809)scale(0.1 -0.1)">
     <use xlink:href="#BitstreamVeraSans-Roman-31"/>
    </g>
   </g>
   <g id="text_3">
    <!-- 2 -->
    <defs>
     <path d="M 19.1875 8.296875 
L 53.609375 8.296875 
L 53.609375 0 
L 7.328125 0 
L 7.328125 8.296875 
Q 12.9375 14.109375 22.625 23.890625 
Q 32.328125 33.6875 34.8125 36.53125 
Q 39.546875 41.84375 41.421875 45.53125 
Q 43.3125 49.21875 43.3125 52.78125 
Q 43.3125 58.59375 39.234375 62.25 
Q 35.15625 65.921875 28.609375 65.921875 
Q 23.96875 65.921875 18.8125 64.3125 
Q 13.671875 62.703125 7.8125 59.421875 
L 7.8125 69.390625 
Q 13.765625 71.78125 18.9375 73 
Q 24.125 74.21875 28.421875 74.21875 
Q 39.75 74.21875 46.484375 68.546875 
Q 53.21875 62.890625 53.21875 53.421875 
Q 53.21875 48.921875 51.53125 44.890625 
Q 49.859375 40.875 45.40625 35.40625 
Q 44.1875 33.984375 37.640625 27.21875 
Q 31.109375 20.453125 19.1875 8.296875 
" id="BitstreamVeraSans-Roman-32"/>
    </defs>
    <g transform="translate(279.616605895 196.250599431)scale(0.1 -0.1)">
     <use xlink:href="#BitstreamVeraSans-Roman-32"/>
    </g>
   </g>
   <g id="text_4">
    <!-- 3 -->
    <defs>
     <path d="M 40.578125 39.3125 
Q 47.65625 37.796875 51.625 33 
Q 55.609375 28.21875 55.609375 21.1875 
Q 55.609375 10.40625 48.1875 4.484375 
Q 40.765625 -1.421875 27.09375 -1.421875 
Q 22.515625 -1.421875 17.65625 -0.515625 
Q 12.796875 0.390625 7.625 2.203125 
L 7.625 11.71875 
Q 11.71875 9.328125 16.59375 8.109375 
Q 21.484375 6.890625 26.8125 6.890625 
Q 36.078125 6.890625 40.9375 10.546875 
Q 45.796875 14.203125 45.796875 21.1875 
Q 45.796875 27.640625 41.28125 31.265625 
Q 36.765625 34.90625 28.71875 34.90625 
L 20.21875 34.90625 
L 20.21875 43.015625 
L 29.109375 43.015625 
Q 36.375 43.015625 40.234375 45.921875 
Q 44.09375 48.828125 44.09375 54.296875 
Q 44.09375 59.90625 40.109375 62.90625 
Q 36.140625 65.921875 28.71875 65.921875 
Q 24.65625 65.921875 20.015625 65.03125 
Q 15.375 64.15625 9.8125 62.3125 
L 9.8125 71.09375 
Q 15.4375 72.65625 20.34375 73.4375 
Q 25.25 74.21875 29.59375 74.21875 
Q 40.828125 74.21875 47.359375 69.109375 
Q 53.90625 64.015625 53.90625 55.328125 
Q 53.90625 49.265625 50.4375 45.09375 
Q 46.96875 40.921875 40.578125 39.3125 
" id="BitstreamVeraSans-Roman-33"/>
    </defs>
    <g transform="translate(109.947823199 32.5380188706)scale(0.1 -0.1)">
     <use xlink:href="#BitstreamVeraSans-Roman-33"/>
    </g>
   </g>
  </g>
 </g>
 <defs>
  <clipPath id="p846f566690">
   <rect height="295.166036961" width="550.08" x="7.2" y="7.2"/>
  </clipPath>
 </defs>
</svg>
