<?xml version="1.0" encoding="utf-8" standalone="no"?>
<!DOCTYPE svg PUBLIC "-//W3C//DTD SVG 1.1//EN"
  "http://www.w3.org/Graphics/SVG/1.1/DTD/svg11.dtd">
<!-- Created with matplotlib (http://matplotlib.org/) -->
<svg height="363pt" version="1.1" viewBox="0 0 564 363" width="564pt" xmlns="http://www.w3.org/2000/svg" xmlns:xlink="http://www.w3.org/1999/xlink">
 <defs>
  <style type="text/css">
*{stroke-linecap:butt;stroke-linejoin:round;stroke-miterlimit:100000;}
  </style>
 </defs>
 <g id="figure_1">
  <g id="patch_1">
   <path d="M 0 363.988235 
L 564.48 363.988235 
L 564.48 0 
L 0 0 
z
" style="fill:#ffffff;"/>
  </g>
  <g id="axes_1">
   <g id="patch_2">
    <path d="M 7.2 356.788235 
L 557.28 356.788235 
L 557.28 7.2 
L 7.2 7.2 
z
" style="fill:#ffffff;"/>
   </g>
   <g id="patch_3">
    <path clip-path="url(#pe8b90c43f4)" d="M 48.150752 154.246012 
Q 121.47194 218.16931 122.980253 313.195034 
" style="fill:none;stroke:#000000;stroke-linecap:round;stroke-width:2.0;"/>
    <path clip-path="url(#pe8b90c43f4)" d="M 127.820917 303.11694 
L 122.980253 313.195034 
L 117.822176 303.275647 
L 127.820917 303.11694 
z
" style="stroke:#000000;stroke-linecap:round;stroke-width:2.0;"/>
   </g>
   <g id="patch_4">
    <path clip-path="url(#pe8b90c43f4)" d="M 35.407176 162.417248 
Q 36.915489 257.442972 110.236678 321.36627 
" style="fill:none;stroke:#000000;stroke-linecap:round;stroke-width:2.0;"/>
    <path clip-path="url(#pe8b90c43f4)" d="M 30.566513 172.495342 
L 35.407176 162.417248 
L 40.565254 172.336636 
L 30.566513 172.495342 
z
" style="stroke:#000000;stroke-linecap:round;stroke-width:2.0;"/>
   </g>
   <g id="patch_5">
    <path clip-path="url(#pe8b90c43f4)" d="M 52.415166 142.827421 
Q 159.865379 142.592582 265.07953 142.362631 
" style="fill:none;stroke:#000000;stroke-linecap:round;stroke-width:2.0;"/>
    <path clip-path="url(#pe8b90c43f4)" d="M 255.068626 137.384499 
L 265.07953 142.362631 
L 255.090481 147.384475 
L 255.068626 137.384499 
z
" style="stroke:#000000;stroke-linecap:round;stroke-width:2.0;"/>
   </g>
   <g id="patch_6">
    <path clip-path="url(#pe8b90c43f4)" d="M 300.336161 135.014706 
Q 404.013726 86.780559 505.66389 39.489623 
" style="fill:none;stroke:#000000;stroke-linecap:round;stroke-width:2.0;"/>
    <path clip-path="url(#pe8b90c43f4)" d="M 494.487995 39.17439 
L 505.66389 39.489623 
L 498.706167 48.241199 
L 494.487995 39.17439 
z
" style="stroke:#000000;stroke-linecap:round;stroke-width:2.0;"/>
   </g>
   <g id="patch_7">
    <path clip-path="url(#pe8b90c43f4)" d="M 273.438657 155.533222 
Q 203.96226 237.533453 135.931343 317.82764 
" style="fill:none;stroke:#000000;stroke-linecap:round;stroke-width:2.0;"/>
    <path clip-path="url(#pe8b90c43f4)" d="M 146.210559 313.430174 
L 135.931343 317.82764 
L 138.5809 306.965787 
L 146.210559 313.430174 
z
" style="stroke:#000000;stroke-linecap:round;stroke-width:2.0;"/>
   </g>
   <g id="matplotlib.axis_1"/>
   <g id="matplotlib.axis_2"/>
   <g id="patch_8">
    <path clip-path="url(#pe8b90c43f4)" d="M 523.393528 77.857245 
C 529.574884 77.857245 535.503901 75.401366 539.87478 71.030487 
C 544.245659 66.659608 546.701538 60.730591 546.701538 54.549234 
C 546.701538 48.367878 544.245659 42.438861 539.87478 38.067982 
C 535.503901 33.697102 529.574884 31.241223 523.393528 31.241223 
C 517.212171 31.241223 511.283154 33.697102 506.912275 38.067982 
C 502.541396 42.438861 500.085517 48.367878 500.085517 54.549234 
C 500.085517 60.730591 502.541396 66.659608 506.912275 71.030487 
C 511.283154 75.401366 517.212171 77.857245 523.393528 77.857245 
L 523.393528 77.857245 
z
" style="fill:none;stroke:#000000;stroke-linejoin:miter;"/>
   </g>
   <g id="patch_9">
    <path d="M 35.096834 160.183643 
C 39.68972 160.183643 44.095112 158.35887 47.342773 155.111209 
C 50.590434 151.863548 52.415207 147.458157 52.415207 142.865271 
C 52.415207 138.272385 50.590434 133.866993 47.342773 130.619332 
C 44.095112 127.371671 39.68972 125.546898 35.096834 125.546898 
C 30.503948 125.546898 26.098556 127.371671 22.850895 130.619332 
C 19.603235 133.866993 17.778462 138.272385 17.778462 142.865271 
C 17.778462 147.458157 19.603235 151.863548 22.850895 155.111209 
C 26.098556 158.35887 30.503948 160.183643 35.096834 160.183643 
z
" style="fill:#fec7b8;stroke:#000000;stroke-linejoin:miter;"/>
   </g>
   <g id="patch_10">
    <path d="M 284.633924 159.638267 
C 289.22681 159.638267 293.632202 157.813494 296.879862 154.565833 
C 300.127523 151.318172 301.952296 146.91278 301.952296 142.319894 
C 301.952296 137.727008 300.127523 133.321616 296.879862 130.073955 
C 293.632202 126.826294 289.22681 125.001521 284.633924 125.001521 
C 280.041038 125.001521 275.635646 126.826294 272.387985 130.073955 
C 269.140324 133.321616 267.315551 137.727008 267.315551 142.319894 
C 267.315551 146.91278 269.140324 151.318172 272.387985 154.565833 
C 275.635646 157.813494 280.041038 159.638267 284.633924 159.638267 
z
" style="fill:#fec7b8;stroke:#000000;stroke-linejoin:miter;"/>
   </g>
   <g id="patch_11">
    <path d="M 523.393528 48.559596 
C 527.986414 48.559596 532.391805 46.734823 535.639466 43.487162 
C 538.887127 40.239501 540.7119 35.834109 540.7119 31.241223 
C 540.7119 26.648337 538.887127 22.242946 535.639466 18.995285 
C 532.391805 15.747624 527.986414 13.922851 523.393528 13.922851 
C 518.800641 13.922851 514.39525 15.747624 511.147589 18.995285 
C 507.899928 22.242946 506.075155 26.648337 506.075155 31.241223 
C 506.075155 35.834109 507.899928 40.239501 511.147589 43.487162 
C 514.39525 46.734823 518.800641 48.559596 523.393528 48.559596 
z
" style="fill:#fec7b8;stroke:#000000;stroke-linejoin:miter;"/>
   </g>
   <g id="patch_12">
    <path d="M 123.290595 350.065384 
C 127.883481 350.065384 132.288873 348.240611 135.536534 344.99295 
C 138.784195 341.745289 140.608968 337.339898 140.608968 332.747012 
C 140.608968 328.154125 138.784195 323.748734 135.536534 320.501073 
C 132.288873 317.253412 127.883481 315.428639 123.290595 315.428639 
C 118.697709 315.428639 114.292318 317.253412 111.044657 320.501073 
C 107.796996 323.748734 105.972223 328.154125 105.972223 332.747012 
C 105.972223 337.339898 107.796996 341.745289 111.044657 344.99295 
C 114.292318 348.240611 118.697709 350.065384 123.290595 350.065384 
z
" style="fill:#fec7b8;stroke:#000000;stroke-linejoin:miter;"/>
   </g>
   <g id="text_1">
    <!-- 1 -->
    <defs>
     <path d="M 12.40625 8.296875 
L 28.515625 8.296875 
L 28.515625 63.921875 
L 10.984375 60.40625 
L 10.984375 69.390625 
L 28.421875 72.90625 
L 38.28125 72.90625 
L 38.28125 8.296875 
L 54.390625 8.296875 
L 54.390625 0 
L 12.40625 0 
z
" id="BitstreamVeraSans-Roman-31"/>
    </defs>
    <g transform="translate(31.9155842074 145.624645647)scale(0.1 -0.1)">
     <use xlink:href="#BitstreamVeraSans-Roman-31"/>
    </g>
   </g>
   <g id="text_2">
    <!-- 2 -->
    <defs>
     <path d="M 19.1875 8.296875 
L 53.609375 8.296875 
L 53.609375 0 
L 7.328125 0 
L 7.328125 8.296875 
Q 12.9375 14.109375 22.625 23.890625 
Q 32.328125 33.6875 34.8125 36.53125 
Q 39.546875 41.84375 41.421875 45.53125 
Q 43.3125 49.21875 43.3125 52.78125 
Q 43.3125 58.59375 39.234375 62.25 
Q 35.15625 65.921875 28.609375 65.921875 
Q 23.96875 65.921875 18.8125 64.3125 
Q 13.671875 62.703125 7.8125 59.421875 
L 7.8125 69.390625 
Q 13.765625 71.78125 18.9375 73 
Q 24.125 74.21875 28.421875 74.21875 
Q 39.75 74.21875 46.484375 68.546875 
Q 53.21875 62.890625 53.21875 53.421875 
Q 53.21875 48.921875 51.53125 44.890625 
Q 49.859375 40.875 45.40625 35.40625 
Q 44.1875 33.984375 37.640625 27.21875 
Q 31.109375 20.453125 19.1875 8.296875 
" id="BitstreamVeraSans-Roman-32"/>
    </defs>
    <g transform="translate(281.452673678 145.079269026)scale(0.1 -0.1)">
     <use xlink:href="#BitstreamVeraSans-Roman-32"/>
    </g>
   </g>
   <g id="text_3">
    <!-- 3 -->
    <defs>
     <path d="M 40.578125 39.3125 
Q 47.65625 37.796875 51.625 33 
Q 55.609375 28.21875 55.609375 21.1875 
Q 55.609375 10.40625 48.1875 4.484375 
Q 40.765625 -1.421875 27.09375 -1.421875 
Q 22.515625 -1.421875 17.65625 -0.515625 
Q 12.796875 0.390625 7.625 2.203125 
L 7.625 11.71875 
Q 11.71875 9.328125 16.59375 8.109375 
Q 21.484375 6.890625 26.8125 6.890625 
Q 36.078125 6.890625 40.9375 10.546875 
Q 45.796875 14.203125 45.796875 21.1875 
Q 45.796875 27.640625 41.28125 31.265625 
Q 36.765625 34.90625 28.71875 34.90625 
L 20.21875 34.90625 
L 20.21875 43.015625 
L 29.109375 43.015625 
Q 36.375 43.015625 40.234375 45.921875 
Q 44.09375 48.828125 44.09375 54.296875 
Q 44.09375 59.90625 40.109375 62.90625 
Q 36.140625 65.921875 28.71875 65.921875 
Q 24.65625 65.921875 20.015625 65.03125 
Q 15.375 64.15625 9.8125 62.3125 
L 9.8125 71.09375 
Q 15.4375 72.65625 20.34375 73.4375 
Q 25.25 74.21875 29.59375 74.21875 
Q 40.828125 74.21875 47.359375 69.109375 
Q 53.90625 64.015625 53.90625 55.328125 
Q 53.90625 49.265625 50.4375 45.09375 
Q 46.96875 40.921875 40.578125 39.3125 
" id="BitstreamVeraSans-Roman-33"/>
    </defs>
    <g transform="translate(520.21227752 34.0005983406)scale(0.1 -0.1)">
     <use xlink:href="#BitstreamVeraSans-Roman-33"/>
    </g>
   </g>
   <g id="text_4">
    <!-- 4 -->
    <defs>
     <path d="M 37.796875 64.3125 
L 12.890625 25.390625 
L 37.796875 25.390625 
z
M 35.203125 72.90625 
L 47.609375 72.90625 
L 47.609375 25.390625 
L 58.015625 25.390625 
L 58.015625 17.1875 
L 47.609375 17.1875 
L 47.609375 0 
L 37.796875 0 
L 37.796875 17.1875 
L 4.890625 17.1875 
L 4.890625 26.703125 
z
" id="BitstreamVeraSans-Roman-34"/>
    </defs>
    <g transform="translate(120.109345356 335.506386583)scale(0.1 -0.1)">
     <use xlink:href="#BitstreamVeraSans-Roman-34"/>
    </g>
   </g>
  </g>
 </g>
 <defs>
  <clipPath id="pe8b90c43f4">
   <rect height="349.588234924" width="550.08" x="7.2" y="7.2"/>
  </clipPath>
 </defs>
</svg>
