<?xml version="1.0" encoding="utf-8"?>
<!-- Generator: Adobe Illustrator 16.0.0, SVG Export Plug-In . SVG Version: 6.00 Build 0)  -->
<!DOCTYPE svg PUBLIC "-//W3C//DTD SVG 1.1//EN" "http://www.w3.org/Graphics/SVG/1.1/DTD/svg11.dtd">
<svg version="1.1" id="Layer_1" xmlns="http://www.w3.org/2000/svg" xmlns:xlink="http://www.w3.org/1999/xlink" x="0px" y="0px"
	 width="564px" height="381px" viewBox="0 0 564 381" enable-background="new 0 0 564 381" xml:space="preserve">
<g id="figure_1">
	<g id="patch_1">
		<path fill="#FFFFFF" d="M0,381.12h564.48V0H0V381.12z"/>
	</g>
	<g id="axes_1">
		<g id="patch_2">
			<path fill="#FFFFFF" d="M7.2,373.92h550.08V7.2H7.2V373.92z"/>
		</g>
		<g id="PathCollection_1">
			<g>
				<defs>
					<rect id="SVGID_1_" x="7.2" y="7.2" width="550.08" height="366.72"/>
				</defs>
				<clipPath id="SVGID_2_">
					<use xlink:href="#SVGID_1_"  overflow="visible"/>
				</clipPath>
				<path clip-path="url(#SVGID_2_)" fill="#ADD8E6" d="M20.437,366.868h2.658h2.658h2.658h2.658h2.658h2.658h2.658H41.7h2.658
					h2.658h2.658h2.658h2.658h2.658h2.658h2.658h2.658h2.658h2.658h2.658h2.658h2.658h2.658h2.658h2.658h2.658H92.2h2.658h2.658
					h2.658h2.658h2.658h2.658h2.658h2.658h2.658h2.658h2.658h2.658h2.658h2.658h2.658h2.658h2.658h2.658h2.658h2.658h2.658h2.658
					h2.658h2.658h2.658h2.658h2.658h2.658h2.658h2.658h2.658h2.658h2.658h2.658h2.658h2.658h2.658h2.658h2.658h2.658h2.658h2.658
					h2.658h2.658h2.658h2.658h2.658h2.658h2.658h2.658h2.658h2.658h2.658h2.658h2.658h2.658h2.658h2.658h2.658h2.658h2.658h2.658
					h2.658h2.658h2.658h2.658h2.658h2.658h2.658h2.658h2.658h2.657h2.658h2.658h2.658h2.658h2.657h2.658h2.657h2.658h2.658h2.658
					h2.657h2.658h2.657h2.658h2.658h2.658h2.658h2.657h2.658h2.657h2.658h2.658h2.658h2.658h2.657h2.657h2.658h2.658h2.658h2.658
					h2.657h2.658h2.657h2.658h2.658h2.658h2.658h2.657h2.657h2.658h2.658h2.658h2.658h2.657h2.658h2.658h2.657h2.658h2.658h2.657
					h2.658h2.658h2.657h2.658h2.658h2.658h2.657h2.658h2.658h2.657h2.658h2.658h2.657h2.658h2.658h2.657h2.658h2.658h2.658h2.657
					h2.658h2.658h2.657h2.658h2.658h2.657h2.658h2.658h2.657h2.658h2.658h2.658h2.657h2.658h2.658h2.657h2.658h2.658h2.657h2.658
					h2.658h2.657h2.658h2.658h2.658h2.657h2.658h2.658h2.657v-1.772v-1.771v-1.772v-1.771v-1.772v-1.771v-1.772v-1.771v-1.772
					v-1.771v-1.772v-1.771v-1.772v-1.771v-1.771v-1.772v-1.771v-1.772v-1.771v-1.772v-1.771v-1.772v-1.771v-1.772v-1.771v-1.772
					v-1.771v-1.771v-1.772v-1.771v-1.772v-1.771v-1.772v-1.771v-1.772v-1.771v-1.771v-1.772v-1.772v-1.771v-1.771v-1.772v-1.772
					v-1.771v-1.771v-1.772v-1.771v-1.772v-1.771v-1.771v-1.772v-1.772v-1.771v-1.771v-1.772v-1.772v-1.771v-1.771v-1.772v-1.772
					v-1.771v-1.771v-1.771v-1.772v-1.772v-1.771v-1.771v-1.772v-1.772v-1.771v-1.771v-1.772v-1.772v-1.771v-1.771v-1.771v-1.772
					v-1.772v-1.771v-1.771v-1.772v-1.772v-1.771v-1.771v-1.772v-1.772v-1.771v-1.771v-1.771v-1.772v-1.772v-1.771v-1.771v-1.772
					v-1.772v-1.771v-1.771v-1.772v-1.772v-1.771v-1.771v-1.772v-1.772v-1.772v-1.772v-1.772v-1.772v-1.772v-1.772v-1.772v-1.772
					v-1.772v-1.772v-1.771v-1.772v-1.771v-1.772v-1.772v-1.772v-1.772v-1.772v-1.772v-1.772v-1.772v-1.772v-1.772v-1.772v-1.772
					v-1.771v-1.772v-1.772v-1.772V131.2v-1.772v-1.772v-1.772v-1.772v-1.772v-1.772v-1.772v-1.772v-1.771v-1.772v-1.772v-1.772
					v-1.772v-1.772v-1.772v-1.772v-1.772v-1.772v-1.772v-1.772v-1.772v-1.771v-1.772v-1.771v-1.772V85.13v-1.772v-1.772v-1.772
					v-1.772V76.27v-1.772v-1.772v-1.772v-1.771V67.41v-1.771v-1.772v-1.772v-1.772v-1.772v-1.772v-1.772v-1.772v-1.772v-1.772
					v-1.772v-1.772v-1.772v-1.771v-1.772V39.06v-1.772v-1.772v-1.772v-1.772V30.2v-1.772v-1.772v-1.772v-1.772V21.34v-1.771v-1.772
					v-1.772v-1.772h-2.657h-2.658h-2.658h-2.657h-2.658h-2.658h-2.658h-2.657h-2.658h-2.658h-2.657h-2.658h-2.658h-2.657h-2.658
					h-2.658h-2.657h-2.658h-2.658h-2.658h-2.657h-2.658h-2.658h-2.657h-2.658h-2.658h-2.657h-2.658h-2.658h-2.657h-2.658h-2.658
					h-2.658h-2.657h-2.658h-2.658h-2.657h-2.658h-2.658h-2.657h-2.658h-2.658h-2.657h-2.658h-2.658h-2.658h-2.657h-2.658h-2.658
					h-2.657h-2.658h-2.658h-2.657h-2.658h-2.658h-2.657h-2.658h-2.658h-2.658h-2.658h-2.657h-2.657h-2.658h-2.658h-2.658h-2.658
					h-2.657h-2.658h-2.657h-2.658h-2.658h-2.658h-2.658h-2.657h-2.657h-2.658h-2.658h-2.658h-2.658h-2.657h-2.658h-2.657h-2.658
					h-2.658h-2.658h-2.658h-2.657h-2.658h-2.657h-2.658h-2.658h-2.658h-2.657h-2.658h-2.657h-2.658h-2.658h-2.658h-2.658h-2.657
					h-2.658h-2.658h-2.658h-2.658h-2.658h-2.658h-2.658h-2.658h-2.658h-2.658h-2.658h-2.658h-2.658H243.7h-2.658h-2.658h-2.658
					h-2.658h-2.658h-2.658h-2.658h-2.658h-2.658h-2.658h-2.658h-2.658h-2.658h-2.658h-2.658h-2.658h-2.658h-2.658H193.2h-2.658
					h-2.658h-2.658h-2.658h-2.658h-2.658h-2.658h-2.658h-2.658h-2.658h-2.658h-2.658h-2.658h-2.658h-2.658h-2.658h-2.658h-2.658
					H142.7h-2.658h-2.658h-2.658h-2.658h-2.658h-2.658h-2.658h-2.658h-2.658h-2.658h-2.658h-2.658h-2.658h-2.658h-2.658h-2.658
					h-2.658h-2.658H92.2h-2.658h-2.658h-2.658h-2.658H78.91h-2.658h-2.658h-2.658h-2.658h-2.658h-2.658h-2.658h-2.658h-2.658h-2.658
					h-2.658h-2.658h-2.658H41.7h-2.658h-2.658h-2.658h-2.658H28.41h-2.658h-2.658h-2.658h-2.658v1.772v1.772v1.772v1.771v1.772
					v1.772v1.772v1.772V30.2v1.772v1.772v1.772v1.772v1.772v1.772v1.772v1.771v1.772v1.772v1.772v1.772v1.772v1.772v1.772v1.772
					v1.772v1.772v1.772v1.772v1.771v1.772v1.771v1.772v1.772v1.772v1.772v1.772v1.772v1.772v1.772v1.772v1.772v1.771v1.772v1.771
					v1.772v1.772v1.772v1.772v1.772v1.772v1.772v1.772v1.772v1.772v1.772v1.772v1.771v1.772v1.772v1.772v1.772v1.772v1.772v1.772
					v1.772v1.772v1.772v1.772v1.772v1.771v1.772v1.772v1.772v1.772v1.772v1.772v1.772v1.772v1.772v1.772v1.772v1.772v1.771v1.772
					v1.771v1.772v1.772v1.772v1.772v1.772v1.772v1.772v1.772v1.772v1.772v1.772v1.772v1.771v1.771v1.772v1.772v1.771v1.771v1.772
					v1.772v1.771v1.771v1.772v1.772v1.771v1.771v1.771v1.772v1.772v1.771v1.771v1.772v1.772v1.771v1.771v1.772v1.772v1.771v1.771
					v1.771v1.772v1.772v1.771v1.771v1.772v1.772v1.771v1.771v1.772v1.772v1.771v1.771v1.771v1.772v1.772v1.771v1.771v1.772v1.772
					v1.771v1.771v1.772v1.772v1.771v1.771v1.772v1.771v1.772v1.771v1.771v1.772v1.772v1.771v1.771v1.772v1.772v1.771v1.771v1.772
					v1.771v1.772v1.771v1.772v1.771v1.772v1.771v1.771v1.772v1.771v1.772v1.771v1.772v1.771v1.772v1.771v1.772v1.771v1.772v1.771
					v1.771v1.772v1.771v1.772v1.771v1.772v1.771v1.772v1.771v1.772v1.771v1.772v1.771v1.772H20.437z M186.556,340.289l-1.329-0.887
					h-2.658h-2.658h-2.658h-2.658h-2.658l-1.329-0.886l-1.329-0.886h-2.658h-2.658h-2.658l-1.329-0.886l-1.329-0.887h-2.658
					l-1.329-0.886l-1.329-0.886h-2.658l-1.329-0.886l-1.329-0.887h-2.658l-1.329-0.886l-1.329-0.886h-2.658l-1.329-0.886
					l-1.329-0.886h-2.658l-1.329-0.887l-1.329-0.886l-1.329-0.886l-1.329-0.886h-2.658l-1.329-0.887l-1.329-0.886l-1.329-0.886
					l-1.329-0.886l-1.329-0.887l-1.329-0.886l-1.329-0.886l-1.329-0.886l-1.329-0.886l-1.329-0.887l-1.329-0.886l-1.329-0.886
					l-1.329-0.886l-1.329-0.887l-1.329-0.886l-1.329-0.886l-1.329-0.886l-1.329-0.887l-1.329-0.886l-1.329-0.886l-1.329-0.886
					l-1.329-0.886l-1.329-0.887v-1.771l-1.329-0.887l-1.329-0.885L92.2,300.42l-1.329-0.886l-1.329-0.886l-1.329-0.887v-1.771
					l-1.329-0.886l-1.329-0.886l-1.329-0.887l-1.329-0.886v-1.772l-1.329-0.885l-1.329-0.887v-1.771l-1.329-0.887l-1.329-0.886
					v-1.771l-1.329-0.886l-1.329-0.887v-1.771l-1.329-0.887l-1.329-0.885v-1.772l-1.329-0.886l-1.329-0.887v-1.771l-1.329-0.886
					l-1.329-0.886v-1.772l-1.329-0.886l-1.329-0.887v-1.771v-1.771l-1.329-0.887l-1.329-0.886v-1.772v-1.771l-1.329-0.886
					l-1.329-0.886v-1.771v-1.772l-1.329-0.886l-1.329-0.887v-1.771v-1.771v-1.772l-1.329-0.886l-1.329-0.887v-1.771v-1.771v-1.772
					l-1.329-0.886l-1.329-0.887v-1.771v-1.771v-1.771l-1.329-0.887l-1.329-0.886v-1.772v-1.771v-1.771v-1.772v-1.772v-1.771
					l-1.329-0.886l-1.329-0.886v-1.772v-1.772v-1.771v-1.771v-1.771v-1.772v-1.772v-1.771v-1.771v-1.772v-1.772l-1.329-0.885
					l-1.329-0.887v-1.771v-1.772v-1.772v-1.771v-1.771v-1.772v-1.772l1.329-0.886l1.329-0.886v-1.772v-1.772v-1.772v-1.772v-1.772
					v-1.772v-1.772v-1.772v-1.772v-1.771v-1.772l1.329-0.886l1.329-0.886v-1.772v-1.772v-1.772v-1.772v-1.772v-1.772l1.329-0.886
					l1.329-0.886v-1.772v-1.772v-1.772l1.329-0.886l1.329-0.886v-1.772v-1.771v-1.772l1.329-0.886l1.329-0.886v-1.772V131.2v-1.772
					l1.329-0.886l1.329-0.886v-1.772v-1.772l1.329-0.886l1.329-0.886v-1.772v-1.772l1.329-0.886l1.329-0.886v-1.771v-1.772
					l1.329-0.886l1.329-0.886v-1.772l1.329-0.886l1.329-0.886v-1.772l1.329-0.886l1.329-0.886v-1.772l1.329-0.886l1.329-0.886
					v-1.772l1.329-0.886l1.329-0.886v-1.772l1.329-0.886l1.329-0.886v-1.771l1.329-0.886l1.329-0.886v-1.771l1.329-0.886
					l1.329-0.886l1.329-0.886l1.329-0.886v-1.772l1.329-0.886l1.329-0.886L92.2,80.7l1.329-0.886l1.329-0.886l1.329-0.886V76.27
					l1.329-0.886l1.329-0.886l1.329-0.886l1.329-0.886l1.329-0.886l1.329-0.886l1.329-0.886l1.329-0.886l1.329-0.886l1.329-0.886
					l1.329-0.886l1.329-0.886l1.329-0.886l1.329-0.886l1.329-0.886l1.329-0.886l1.329-0.886l1.329-0.886l1.329-0.886l1.329-0.886
					l1.329-0.886l1.329-0.886l1.329-0.886h2.658l1.329-0.886l1.329-0.886l1.329-0.886l1.329-0.886h2.658l1.329-0.886l1.329-0.886
					h2.658l1.329-0.886l1.329-0.886h2.658l1.329-0.886l1.329-0.886h2.658l1.329-0.886l1.329-0.886h2.658l1.329-0.886l1.329-0.886
					h2.658h2.658h2.658l1.329-0.886l1.329-0.886h2.658h2.658h2.658h2.658h2.658l1.329-0.886l1.329-0.886h2.658h2.658h2.658h2.658
					l1.329,0.886l1.329,0.886h2.658h2.658h2.658h2.658h2.658h2.658l1.329,0.886l1.329,0.886h2.658h2.658l1.329,0.886l1.329,0.886
					h2.658h2.658l1.329,0.886l1.329,0.886h2.658l1.329,0.886l1.329,0.886h2.658l1.329,0.886l1.329,0.886h2.658l1.329,0.886
					l1.329,0.886l1.329,0.886l1.329,0.886h2.658l1.329,0.886l1.329,0.886l1.329,0.886l1.329,0.886h2.658l1.329,0.886l1.329,0.886
					l1.329,0.886l1.329,0.886l1.329,0.886l1.329,0.886l1.329,0.886l1.329,0.886l1.329,0.886l1.329,0.886l1.329,0.886l1.329,0.886
					l1.329,0.886l-1.329,0.886l-1.329,0.886l-1.329,0.886l-1.329,0.886l-1.329,0.886l-1.329,0.886v1.772l-1.329,0.886l-1.329,0.886
					l-1.329,0.886l-1.329,0.886l-1.329,0.886l-1.329,0.886v1.772l-1.329,0.886l-1.329,0.886l-1.329,0.886l-1.329,0.886v1.772
					l-1.329,0.886l-1.329,0.886v1.772l-1.329,0.886l-1.329,0.886l-1.329,0.886l-1.329,0.886v1.772l-1.329,0.886l-1.329,0.886v1.772
					l-1.329,0.886l-1.329,0.886v1.772v1.772l-1.329,0.886l-1.329,0.886v1.772l-1.329,0.886l-1.329,0.886v1.772l-1.329,0.886
					l-1.329,0.886v1.771v1.772l-1.329,0.886l-1.329,0.886v1.772v1.772l-1.329,0.886l-1.329,0.886v1.772v1.772l-1.329,0.886
					l-1.329,0.886v1.772v1.772v1.772l-1.329,0.886l-1.329,0.886v1.771v1.772v1.772l-1.329,0.886l-1.329,0.886v1.772v1.772v1.772
					v1.772l-1.329,0.886l-1.329,0.886v1.772v1.772v1.772v1.772v1.771v1.772v1.771l-1.329,0.886l-1.329,0.886v1.772v1.772v1.772
					v1.772v1.772v1.772v1.772v1.772v1.772v1.772v1.772v1.771v1.771v1.772v1.772v1.771v1.771v1.772v1.772v1.771v1.771v1.772v1.772
					v1.771v1.771l1.329,0.887l1.329,0.885v1.772v1.772v1.771v1.771v1.772v1.772v1.771l1.329,0.886l1.329,0.886v1.772v1.772v1.771
					v1.771l1.329,0.887l1.329,0.885v1.772v1.772v1.771l1.329,0.887l1.329,0.885v1.772v1.772v1.771l1.329,0.886l1.329,0.886v1.772
					v1.772l1.329,0.885l1.329,0.887v1.771v1.771l1.329,0.887l1.329,0.886v1.772v1.771l1.329,0.887l1.329,0.885v1.772l1.329,0.886
					l1.329,0.887v1.771l1.329,0.886l1.329,0.886v1.772v1.772l1.329,0.885l1.329,0.887v1.771l1.329,0.887l1.329,0.886v1.771
					l1.329,0.886l1.329,0.887l1.329,0.886l1.329,0.886v1.771l1.329,0.887l1.329,0.886v1.772l1.329,0.886l1.329,0.886l1.329,0.886
					l1.329,0.886v1.772l1.329,0.886l1.329,0.887l1.329,0.885l1.329,0.887l1.329,0.886l1.329,0.886v1.772l1.329,0.886l1.329,0.886
					l1.329,0.886l1.329,0.887l1.329,0.886l1.329,0.886l-1.329,0.886l-1.329,0.887l-1.329,0.886l-1.329,0.886l-1.329,0.886
					l-1.329,0.887l-1.329,0.886l-1.329,0.886l-1.329,0.886l-1.329,0.886l-1.329,0.887l-1.329,0.886l-1.329,0.886h-2.658
					l-1.329,0.886l-1.329,0.887l-1.329,0.886l-1.329,0.886h-2.658l-1.329,0.886l-1.329,0.887l-1.329,0.886l-1.329,0.886h-2.658
					l-1.329,0.886l-1.329,0.886h-2.658l-1.329,0.887l-1.329,0.886h-2.658l-1.329,0.886l-1.329,0.886h-2.658h-2.658l-1.329,0.887
					l-1.329,0.886h-2.658h-2.658l-1.329,0.886l-1.329,0.886h-2.658h-2.658h-2.658h-2.658h-2.658h-2.658l-1.329,0.887l-1.329,0.886
					h-2.658H193.2h-2.658h-2.658L186.556,340.289z"/>
			</g>
		</g>
		<g id="PathCollection_2">
			<g>
				<defs>
					<rect id="SVGID_3_" x="7.2" y="7.2" width="550.08" height="366.72"/>
				</defs>
				<clipPath id="SVGID_4_">
					<use xlink:href="#SVGID_3_"  overflow="visible"/>
				</clipPath>
				<path clip-path="url(#SVGID_4_)" fill="#ADD8E6" d="M187.884,341.175h2.658h2.658h2.658h2.658l1.329-0.886l1.329-0.887h2.658
					h2.658h2.658h2.658h2.658h2.658l1.329-0.886l1.329-0.886h2.658h2.658l1.329-0.886l1.329-0.887h2.658h2.658l1.329-0.886
					l1.329-0.886h2.658l1.329-0.886l1.329-0.887h2.658l1.329-0.886l1.329-0.886h2.658l1.329-0.886l1.329-0.886l1.329-0.887
					l1.329-0.886h2.658l1.329-0.886l1.329-0.886l1.329-0.887l1.329-0.886h2.658l1.329-0.886l1.329-0.886l1.329-0.887l1.329-0.886
					l1.329-0.886l1.329-0.886l1.329-0.886l1.329-0.887l1.329-0.886l1.329-0.886l1.329-0.886l1.329-0.887l1.329-0.886l-1.329-0.886
					l-1.329-0.886l-1.329-0.887l-1.329-0.886l-1.329-0.886l-1.329-0.886v-1.772l-1.329-0.886l-1.329-0.886l-1.329-0.887
					l-1.329-0.885l-1.329-0.887l-1.329-0.886v-1.772l-1.329-0.886l-1.329-0.886l-1.329-0.886l-1.329-0.886v-1.772l-1.329-0.886
					l-1.329-0.887v-1.771l-1.329-0.886l-1.329-0.886l-1.329-0.887l-1.329-0.886v-1.771l-1.329-0.886l-1.329-0.887v-1.771
					l-1.329-0.887l-1.329-0.885v-1.772v-1.772l-1.329-0.886l-1.329-0.886v-1.771l-1.329-0.887l-1.329-0.886v-1.772l-1.329-0.885
					l-1.329-0.887v-1.771v-1.772l-1.329-0.886l-1.329-0.887v-1.771v-1.771l-1.329-0.887l-1.329-0.885v-1.772v-1.772l-1.329-0.886
					l-1.329-0.886v-1.771v-1.772v-1.772l-1.329-0.885l-1.329-0.887v-1.771v-1.772v-1.772l-1.329-0.885l-1.329-0.887v-1.771v-1.771
					v-1.772v-1.772l-1.329-0.886l-1.329-0.886v-1.771v-1.772v-1.772v-1.771v-1.771v-1.772v-1.772l-1.329-0.885l-1.329-0.887v-1.771
					v-1.771v-1.772v-1.772v-1.771v-1.771v-1.772v-1.772v-1.771v-1.771v-1.772v-1.772v-1.771v-1.771v-1.772v-1.772v-1.772v-1.772
					v-1.772v-1.772v-1.772v-1.772v-1.772v-1.772v-1.772l1.329-0.886l1.329-0.886v-1.771v-1.772v-1.771v-1.772v-1.772v-1.772v-1.772
					l1.329-0.886l1.329-0.886v-1.772v-1.772v-1.772v-1.772l1.329-0.886l1.329-0.886v-1.772v-1.772v-1.771l1.329-0.886l1.329-0.886
					v-1.772v-1.772V131.2l1.329-0.886l1.329-0.886v-1.772v-1.772l1.329-0.886l1.329-0.886v-1.772v-1.772l1.329-0.886l1.329-0.886
					v-1.772v-1.771l1.329-0.886l1.329-0.886v-1.772l1.329-0.886l1.329-0.886v-1.772l1.329-0.886l1.329-0.886v-1.772v-1.772
					l1.329-0.886l1.329-0.886v-1.772l1.329-0.886l1.329-0.886v-1.772l1.329-0.886l1.329-0.886l1.329-0.886l1.329-0.886v-1.772
					l1.329-0.886l1.329-0.886v-1.772l1.329-0.886l1.329-0.886l1.329-0.886l1.329-0.886v-1.772l1.329-0.886l1.329-0.886l1.329-0.886
					l1.329-0.886l1.329-0.886l1.329-0.886v-1.772l1.329-0.886l1.329-0.886l1.329-0.886l1.329-0.886l1.329-0.886l1.329-0.886
					l-1.329-0.886l-1.329-0.886l-1.329-0.886l-1.329-0.886l-1.329-0.886l-1.329-0.886l-1.329-0.886l-1.329-0.886l-1.329-0.886
					l-1.329-0.886l-1.329-0.886l-1.329-0.886l-1.329-0.886h-2.658l-1.329-0.886l-1.329-0.886l-1.329-0.886l-1.329-0.886h-2.658
					l-1.329-0.886l-1.329-0.886l-1.329-0.886l-1.329-0.886h-2.658l-1.329-0.886l-1.329-0.886h-2.658l-1.329-0.886l-1.329-0.886
					h-2.658l-1.329-0.886l-1.329-0.886h-2.658h-2.658l-1.329-0.886l-1.329-0.886h-2.658h-2.658l-1.329-0.886l-1.329-0.886h-2.658
					h-2.658h-2.658h-2.658h-2.658h-2.658l-1.329-0.886l-1.329-0.886h-2.658H193.2h-2.658h-2.658l-1.329,0.886l-1.329,0.886h-2.658
					h-2.658h-2.658h-2.658h-2.658l-1.329,0.886l-1.329,0.886h-2.658h-2.658h-2.658l-1.329,0.886l-1.329,0.886h-2.658l-1.329,0.886
					l-1.329,0.886h-2.658l-1.329,0.886l-1.329,0.886h-2.658l-1.329,0.886l-1.329,0.886h-2.658l-1.329,0.886l-1.329,0.886h-2.658
					l-1.329,0.886l-1.329,0.886l-1.329,0.886l-1.329,0.886h-2.658l-1.329,0.886l-1.329,0.886l-1.329,0.886l-1.329,0.886
					l-1.329,0.886l-1.329,0.886l-1.329,0.886l-1.329,0.886l-1.329,0.886l-1.329,0.886l-1.329,0.886l-1.329,0.886l-1.329,0.886
					l-1.329,0.886l-1.329,0.886l-1.329,0.886l-1.329,0.886l-1.329,0.886l-1.329,0.886l-1.329,0.886l-1.329,0.886l-1.329,0.886
					l-1.329,0.886v1.772l-1.329,0.886l-1.329,0.886L92.2,80.7l-1.329,0.886l-1.329,0.886l-1.329,0.886v1.772l-1.329,0.886
					l-1.329,0.886l-1.329,0.886l-1.329,0.886v1.771l-1.329,0.886l-1.329,0.886v1.771l-1.329,0.886l-1.329,0.886v1.772l-1.329,0.886
					l-1.329,0.886v1.772l-1.329,0.886l-1.329,0.886v1.772l-1.329,0.886l-1.329,0.886v1.772l-1.329,0.886l-1.329,0.886v1.772
					l-1.329,0.886l-1.329,0.886v1.772v1.771l-1.329,0.886l-1.329,0.886v1.772v1.772l-1.329,0.886l-1.329,0.886v1.772v1.772
					l-1.329,0.886l-1.329,0.886v1.772v1.772v1.772l-1.329,0.886l-1.329,0.886v1.772v1.771v1.772l-1.329,0.886l-1.329,0.886v1.772
					v1.772v1.772l-1.329,0.886l-1.329,0.886v1.772v1.772v1.772v1.772v1.772v1.772l-1.329,0.886l-1.329,0.886v1.772v1.771v1.772
					v1.772v1.772v1.772v1.772v1.772v1.772v1.772v1.772l-1.329,0.886l-1.329,0.886v1.772v1.772v1.771v1.771v1.772v1.772v1.771
					l1.329,0.887l1.329,0.885v1.772v1.772v1.771v1.771v1.772v1.772v1.771v1.771v1.771v1.772v1.772l1.329,0.886l1.329,0.886v1.771
					v1.772v1.772v1.771v1.771v1.772l1.329,0.886l1.329,0.887v1.771v1.771v1.771l1.329,0.887l1.329,0.886v1.772v1.771v1.771
					l1.329,0.887l1.329,0.886v1.772v1.771v1.771l1.329,0.887l1.329,0.886v1.772v1.771l1.329,0.886l1.329,0.886v1.771v1.772
					l1.329,0.886l1.329,0.887v1.771v1.771l1.329,0.887l1.329,0.886v1.772l1.329,0.886l1.329,0.886v1.771l1.329,0.887l1.329,0.886
					v1.772l1.329,0.885l1.329,0.887v1.771l1.329,0.887l1.329,0.886v1.771l1.329,0.886l1.329,0.887v1.771l1.329,0.887l1.329,0.885
					v1.772l1.329,0.886l1.329,0.887l1.329,0.886l1.329,0.886v1.771l1.329,0.887l1.329,0.886l1.329,0.886l1.329,0.887l1.329,0.885
					l1.329,0.887v1.771l1.329,0.887l1.329,0.886l1.329,0.886l1.329,0.886l1.329,0.886l1.329,0.887l1.329,0.886l1.329,0.886
					l1.329,0.886l1.329,0.887l1.329,0.886l1.329,0.886l1.329,0.886l1.329,0.887l1.329,0.886l1.329,0.886l1.329,0.886l1.329,0.886
					l1.329,0.887l1.329,0.886l1.329,0.886l1.329,0.886l1.329,0.887h2.658l1.329,0.886l1.329,0.886l1.329,0.886l1.329,0.887h2.658
					l1.329,0.886l1.329,0.886h2.658l1.329,0.886l1.329,0.886h2.658l1.329,0.887l1.329,0.886h2.658l1.329,0.886l1.329,0.886h2.658
					l1.329,0.887l1.329,0.886h2.658h2.658h2.658l1.329,0.886l1.329,0.886h2.658h2.658h2.658h2.658h2.658l1.329,0.887
					L187.884,341.175z M186.556,340.289l-1.329-0.887h-2.658h-2.658h-2.658h-2.658h-2.658l-1.329-0.886l-1.329-0.886h-2.658h-2.658
					h-2.658l-1.329-0.886l-1.329-0.887h-2.658l-1.329-0.886l-1.329-0.886h-2.658l-1.329-0.886l-1.329-0.887h-2.658l-1.329-0.886
					l-1.329-0.886h-2.658l-1.329-0.886l-1.329-0.886h-2.658l-1.329-0.887l-1.329-0.886l-1.329-0.886l-1.329-0.886h-2.658
					l-1.329-0.887l-1.329-0.886l-1.329-0.886l-1.329-0.886l-1.329-0.887l-1.329-0.886l-1.329-0.886l-1.329-0.886l-1.329-0.886
					l-1.329-0.887l-1.329-0.886l-1.329-0.886l-1.329-0.886l-1.329-0.887l-1.329-0.886l-1.329-0.886l-1.329-0.886l-1.329-0.887
					l-1.329-0.886l-1.329-0.886l-1.329-0.886l-1.329-0.886l-1.329-0.887v-1.771l-1.329-0.887l-1.329-0.885L92.2,300.42l-1.329-0.886
					l-1.329-0.886l-1.329-0.887v-1.771l-1.329-0.886l-1.329-0.886l-1.329-0.887l-1.329-0.886v-1.772l-1.329-0.885l-1.329-0.887
					v-1.771l-1.329-0.887l-1.329-0.886v-1.771l-1.329-0.886l-1.329-0.887v-1.771l-1.329-0.887l-1.329-0.885v-1.772l-1.329-0.886
					l-1.329-0.887v-1.771l-1.329-0.886l-1.329-0.886v-1.772l-1.329-0.886l-1.329-0.887v-1.771v-1.771l-1.329-0.887l-1.329-0.886
					v-1.772v-1.771l-1.329-0.886l-1.329-0.886v-1.771v-1.772l-1.329-0.886l-1.329-0.887v-1.771v-1.771v-1.772l-1.329-0.886
					l-1.329-0.887v-1.771v-1.771v-1.772l-1.329-0.886l-1.329-0.887v-1.771v-1.771v-1.771l-1.329-0.887l-1.329-0.886v-1.772v-1.771
					v-1.771v-1.772v-1.772v-1.771l-1.329-0.886l-1.329-0.886v-1.772v-1.772v-1.771v-1.771v-1.771v-1.772v-1.772v-1.771v-1.771
					v-1.772v-1.772l-1.329-0.885l-1.329-0.887v-1.771v-1.772v-1.772v-1.771v-1.771v-1.772v-1.772l1.329-0.886l1.329-0.886v-1.772
					v-1.772v-1.772v-1.772v-1.772v-1.772v-1.772v-1.772v-1.772v-1.771v-1.772l1.329-0.886l1.329-0.886v-1.772v-1.772v-1.772v-1.772
					v-1.772v-1.772l1.329-0.886l1.329-0.886v-1.772v-1.772v-1.772l1.329-0.886l1.329-0.886v-1.772v-1.771v-1.772l1.329-0.886
					l1.329-0.886v-1.772V131.2v-1.772l1.329-0.886l1.329-0.886v-1.772v-1.772l1.329-0.886l1.329-0.886v-1.772v-1.772l1.329-0.886
					l1.329-0.886v-1.771v-1.772l1.329-0.886l1.329-0.886v-1.772l1.329-0.886l1.329-0.886v-1.772l1.329-0.886l1.329-0.886v-1.772
					l1.329-0.886l1.329-0.886v-1.772l1.329-0.886l1.329-0.886v-1.772l1.329-0.886l1.329-0.886v-1.771l1.329-0.886l1.329-0.886
					v-1.771l1.329-0.886l1.329-0.886l1.329-0.886l1.329-0.886v-1.772l1.329-0.886l1.329-0.886L92.2,80.7l1.329-0.886l1.329-0.886
					l1.329-0.886V76.27l1.329-0.886l1.329-0.886l1.329-0.886l1.329-0.886l1.329-0.886l1.329-0.886l1.329-0.886l1.329-0.886
					l1.329-0.886l1.329-0.886l1.329-0.886l1.329-0.886l1.329-0.886l1.329-0.886l1.329-0.886l1.329-0.886l1.329-0.886l1.329-0.886
					l1.329-0.886l1.329-0.886l1.329-0.886l1.329-0.886l1.329-0.886h2.658l1.329-0.886l1.329-0.886l1.329-0.886l1.329-0.886h2.658
					l1.329-0.886l1.329-0.886h2.658l1.329-0.886l1.329-0.886h2.658l1.329-0.886l1.329-0.886h2.658l1.329-0.886l1.329-0.886h2.658
					l1.329-0.886l1.329-0.886h2.658h2.658h2.658l1.329-0.886l1.329-0.886h2.658h2.658h2.658h2.658h2.658l1.329-0.886l1.329-0.886
					h2.658h2.658h2.658h2.658l1.329,0.886l1.329,0.886h2.658h2.658h2.658h2.658h2.658h2.658l1.329,0.886l1.329,0.886h2.658h2.658
					l1.329,0.886l1.329,0.886h2.658h2.658l1.329,0.886l1.329,0.886h2.658l1.329,0.886l1.329,0.886h2.658l1.329,0.886l1.329,0.886
					h2.658l1.329,0.886l1.329,0.886l1.329,0.886l1.329,0.886h2.658l1.329,0.886l1.329,0.886l1.329,0.886l1.329,0.886h2.658
					l1.329,0.886l1.329,0.886l1.329,0.886l1.329,0.886l1.329,0.886l1.329,0.886l1.329,0.886l1.329,0.886l1.329,0.886l1.329,0.886
					l1.329,0.886l1.329,0.886l1.329,0.886l-1.329,0.886l-1.329,0.886l-1.329,0.886l-1.329,0.886l-1.329,0.886l-1.329,0.886v1.772
					l-1.329,0.886l-1.329,0.886l-1.329,0.886l-1.329,0.886l-1.329,0.886l-1.329,0.886v1.772l-1.329,0.886l-1.329,0.886l-1.329,0.886
					l-1.329,0.886v1.772l-1.329,0.886l-1.329,0.886v1.772l-1.329,0.886l-1.329,0.886l-1.329,0.886l-1.329,0.886v1.772l-1.329,0.886
					l-1.329,0.886v1.772l-1.329,0.886l-1.329,0.886v1.772v1.772l-1.329,0.886l-1.329,0.886v1.772l-1.329,0.886l-1.329,0.886v1.772
					l-1.329,0.886l-1.329,0.886v1.771v1.772l-1.329,0.886l-1.329,0.886v1.772v1.772l-1.329,0.886l-1.329,0.886v1.772v1.772
					l-1.329,0.886l-1.329,0.886v1.772v1.772v1.772l-1.329,0.886l-1.329,0.886v1.771v1.772v1.772l-1.329,0.886l-1.329,0.886v1.772
					v1.772v1.772v1.772l-1.329,0.886l-1.329,0.886v1.772v1.772v1.772v1.772v1.771v1.772v1.771l-1.329,0.886l-1.329,0.886v1.772
					v1.772v1.772v1.772v1.772v1.772v1.772v1.772v1.772v1.772v1.772v1.771v1.771v1.772v1.772v1.771v1.771v1.772v1.772v1.771v1.771
					v1.772v1.772v1.771v1.771l1.329,0.887l1.329,0.885v1.772v1.772v1.771v1.771v1.772v1.772v1.771l1.329,0.886l1.329,0.886v1.772
					v1.772v1.771v1.771l1.329,0.887l1.329,0.885v1.772v1.772v1.771l1.329,0.887l1.329,0.885v1.772v1.772v1.771l1.329,0.886
					l1.329,0.886v1.772v1.772l1.329,0.885l1.329,0.887v1.771v1.771l1.329,0.887l1.329,0.886v1.772v1.771l1.329,0.887l1.329,0.885
					v1.772l1.329,0.886l1.329,0.887v1.771l1.329,0.886l1.329,0.886v1.772v1.772l1.329,0.885l1.329,0.887v1.771l1.329,0.887
					l1.329,0.886v1.771l1.329,0.886l1.329,0.887l1.329,0.886l1.329,0.886v1.771l1.329,0.887l1.329,0.886v1.772l1.329,0.886
					l1.329,0.886l1.329,0.886l1.329,0.886v1.772l1.329,0.886l1.329,0.887l1.329,0.885l1.329,0.887l1.329,0.886l1.329,0.886v1.772
					l1.329,0.886l1.329,0.886l1.329,0.886l1.329,0.887l1.329,0.886l1.329,0.886l-1.329,0.886l-1.329,0.887l-1.329,0.886
					l-1.329,0.886l-1.329,0.886l-1.329,0.887l-1.329,0.886l-1.329,0.886l-1.329,0.886l-1.329,0.886l-1.329,0.887l-1.329,0.886
					l-1.329,0.886h-2.658l-1.329,0.886l-1.329,0.887l-1.329,0.886l-1.329,0.886h-2.658l-1.329,0.886l-1.329,0.887l-1.329,0.886
					l-1.329,0.886h-2.658l-1.329,0.886l-1.329,0.886h-2.658l-1.329,0.887l-1.329,0.886h-2.658l-1.329,0.886l-1.329,0.886h-2.658
					h-2.658l-1.329,0.887l-1.329,0.886h-2.658h-2.658l-1.329,0.886l-1.329,0.886h-2.658h-2.658h-2.658h-2.658h-2.658h-2.658
					l-1.329,0.887l-1.329,0.886h-2.658H193.2h-2.658h-2.658L186.556,340.289z"/>
			</g>
		</g>
		<g id="PathCollection_3">
			<g>
				<defs>
					<rect id="SVGID_5_" x="7.2" y="7.2" width="550.08" height="366.72"/>
				</defs>
				<clipPath id="SVGID_6_">
					<use xlink:href="#SVGID_5_"  overflow="visible"/>
				</clipPath>
				<path clip-path="url(#SVGID_6_)" fill="#FFFFFF" d="M187.884,341.175h2.658h2.658h2.658h2.658l1.329-0.886l1.329-0.887h2.658
					h2.658h2.658h2.658h2.658h2.658l1.329-0.886l1.329-0.886h2.658h2.658l1.329-0.886l1.329-0.887h2.658h2.658l1.329-0.886
					l1.329-0.886h2.658l1.329-0.886l1.329-0.887h2.658l1.329-0.886l1.329-0.886h2.658l1.329-0.886l1.329-0.886l1.329-0.887
					l1.329-0.886h2.658l1.329-0.886l1.329-0.886l1.329-0.887l1.329-0.886h2.658l1.329-0.886l1.329-0.886l1.329-0.887l1.329-0.886
					l1.329-0.886l1.329-0.886l1.329-0.886l1.329-0.887l1.329-0.886l1.329-0.886l1.329-0.886l1.329-0.887l1.329-0.886l-1.329-0.886
					l-1.329-0.886l-1.329-0.887l-1.329-0.886l-1.329-0.886l-1.329-0.886v-1.772l-1.329-0.886l-1.329-0.886l-1.329-0.887
					l-1.329-0.885l-1.329-0.887l-1.329-0.886v-1.772l-1.329-0.886l-1.329-0.886l-1.329-0.886l-1.329-0.886v-1.772l-1.329-0.886
					l-1.329-0.887v-1.771l-1.329-0.886l-1.329-0.886l-1.329-0.887l-1.329-0.886v-1.771l-1.329-0.886l-1.329-0.887v-1.771
					l-1.329-0.887l-1.329-0.885v-1.772v-1.772l-1.329-0.886l-1.329-0.886v-1.771l-1.329-0.887l-1.329-0.886v-1.772l-1.329-0.885
					l-1.329-0.887v-1.771v-1.772l-1.329-0.886l-1.329-0.887v-1.771v-1.771l-1.329-0.887l-1.329-0.885v-1.772v-1.772l-1.329-0.886
					l-1.329-0.886v-1.771v-1.772v-1.772l-1.329-0.885l-1.329-0.887v-1.771v-1.772v-1.772l-1.329-0.885l-1.329-0.887v-1.771v-1.771
					v-1.772v-1.772l-1.329-0.886l-1.329-0.886v-1.771v-1.772v-1.772v-1.771v-1.771v-1.772v-1.772l-1.329-0.885l-1.329-0.887v-1.771
					v-1.771v-1.772v-1.772v-1.771v-1.771v-1.772v-1.772v-1.771v-1.771v-1.772v-1.772v-1.771v-1.771v-1.772v-1.772v-1.772v-1.772
					v-1.772v-1.772v-1.772v-1.772v-1.772v-1.772v-1.772l1.329-0.886l1.329-0.886v-1.771v-1.772v-1.771v-1.772v-1.772v-1.772v-1.772
					l1.329-0.886l1.329-0.886v-1.772v-1.772v-1.772v-1.772l1.329-0.886l1.329-0.886v-1.772v-1.772v-1.771l1.329-0.886l1.329-0.886
					v-1.772v-1.772V131.2l1.329-0.886l1.329-0.886v-1.772v-1.772l1.329-0.886l1.329-0.886v-1.772v-1.772l1.329-0.886l1.329-0.886
					v-1.772v-1.771l1.329-0.886l1.329-0.886v-1.772l1.329-0.886l1.329-0.886v-1.772l1.329-0.886l1.329-0.886v-1.772v-1.772
					l1.329-0.886l1.329-0.886v-1.772l1.329-0.886l1.329-0.886v-1.772l1.329-0.886l1.329-0.886l1.329-0.886l1.329-0.886v-1.772
					l1.329-0.886l1.329-0.886v-1.772l1.329-0.886l1.329-0.886l1.329-0.886l1.329-0.886v-1.772l1.329-0.886l1.329-0.886l1.329-0.886
					l1.329-0.886l1.329-0.886l1.329-0.886v-1.772l1.329-0.886l1.329-0.886l1.329-0.886l1.329-0.886l1.329-0.886l1.329-0.886
					l-1.329-0.886l-1.329-0.886l-1.329-0.886l-1.329-0.886l-1.329-0.886l-1.329-0.886l-1.329-0.886l-1.329-0.886l-1.329-0.886
					l-1.329-0.886l-1.329-0.886l-1.329-0.886l-1.329-0.886h-2.658l-1.329-0.886l-1.329-0.886l-1.329-0.886l-1.329-0.886h-2.658
					l-1.329-0.886l-1.329-0.886l-1.329-0.886l-1.329-0.886h-2.658l-1.329-0.886l-1.329-0.886h-2.658l-1.329-0.886l-1.329-0.886
					h-2.658l-1.329-0.886l-1.329-0.886h-2.658h-2.658l-1.329-0.886l-1.329-0.886h-2.658h-2.658l-1.329-0.886l-1.329-0.886h-2.658
					h-2.658h-2.658h-2.658h-2.658h-2.658l-1.329-0.886l-1.329-0.886h-2.658H193.2h-2.658h-2.658l-1.329,0.886l-1.329,0.886h-2.658
					h-2.658h-2.658h-2.658h-2.658l-1.329,0.886l-1.329,0.886h-2.658h-2.658h-2.658l-1.329,0.886l-1.329,0.886h-2.658l-1.329,0.886
					l-1.329,0.886h-2.658l-1.329,0.886l-1.329,0.886h-2.658l-1.329,0.886l-1.329,0.886h-2.658l-1.329,0.886l-1.329,0.886h-2.658
					l-1.329,0.886l-1.329,0.886l-1.329,0.886l-1.329,0.886h-2.658l-1.329,0.886l-1.329,0.886l-1.329,0.886l-1.329,0.886
					l-1.329,0.886l-1.329,0.886l-1.329,0.886l-1.329,0.886l-1.329,0.886l-1.329,0.886l-1.329,0.886l-1.329,0.886l-1.329,0.886
					l-1.329,0.886l-1.329,0.886l-1.329,0.886l-1.329,0.886l-1.329,0.886l-1.329,0.886l-1.329,0.886l-1.329,0.886l-1.329,0.886
					l-1.329,0.886v1.772l-1.329,0.886l-1.329,0.886L92.2,80.7l-1.329,0.886l-1.329,0.886l-1.329,0.886v1.772l-1.329,0.886
					l-1.329,0.886l-1.329,0.886l-1.329,0.886v1.771l-1.329,0.886l-1.329,0.886v1.771l-1.329,0.886l-1.329,0.886v1.772l-1.329,0.886
					l-1.329,0.886v1.772l-1.329,0.886l-1.329,0.886v1.772l-1.329,0.886l-1.329,0.886v1.772l-1.329,0.886l-1.329,0.886v1.772
					l-1.329,0.886l-1.329,0.886v1.772v1.771l-1.329,0.886l-1.329,0.886v1.772v1.772l-1.329,0.886l-1.329,0.886v1.772v1.772
					l-1.329,0.886l-1.329,0.886v1.772v1.772v1.772l-1.329,0.886l-1.329,0.886v1.772v1.771v1.772l-1.329,0.886l-1.329,0.886v1.772
					v1.772v1.772l-1.329,0.886l-1.329,0.886v1.772v1.772v1.772v1.772v1.772v1.772l-1.329,0.886l-1.329,0.886v1.772v1.771v1.772
					v1.772v1.772v1.772v1.772v1.772v1.772v1.772v1.772l-1.329,0.886l-1.329,0.886v1.772v1.772v1.771v1.771v1.772v1.772v1.771
					l1.329,0.887l1.329,0.885v1.772v1.772v1.771v1.771v1.772v1.772v1.771v1.771v1.771v1.772v1.772l1.329,0.886l1.329,0.886v1.771
					v1.772v1.772v1.771v1.771v1.772l1.329,0.886l1.329,0.887v1.771v1.771v1.771l1.329,0.887l1.329,0.886v1.772v1.771v1.771
					l1.329,0.887l1.329,0.886v1.772v1.771v1.771l1.329,0.887l1.329,0.886v1.772v1.771l1.329,0.886l1.329,0.886v1.771v1.772
					l1.329,0.886l1.329,0.887v1.771v1.771l1.329,0.887l1.329,0.886v1.772l1.329,0.886l1.329,0.886v1.771l1.329,0.887l1.329,0.886
					v1.772l1.329,0.885l1.329,0.887v1.771l1.329,0.887l1.329,0.886v1.771l1.329,0.886l1.329,0.887v1.771l1.329,0.887l1.329,0.885
					v1.772l1.329,0.886l1.329,0.887l1.329,0.886l1.329,0.886v1.771l1.329,0.887l1.329,0.886l1.329,0.886l1.329,0.887l1.329,0.885
					l1.329,0.887v1.771l1.329,0.887l1.329,0.886l1.329,0.886l1.329,0.886l1.329,0.886l1.329,0.887l1.329,0.886l1.329,0.886
					l1.329,0.886l1.329,0.887l1.329,0.886l1.329,0.886l1.329,0.886l1.329,0.887l1.329,0.886l1.329,0.886l1.329,0.886l1.329,0.886
					l1.329,0.887l1.329,0.886l1.329,0.886l1.329,0.886l1.329,0.887h2.658l1.329,0.886l1.329,0.886l1.329,0.886l1.329,0.887h2.658
					l1.329,0.886l1.329,0.886h2.658l1.329,0.886l1.329,0.886h2.658l1.329,0.887l1.329,0.886h2.658l1.329,0.886l1.329,0.886h2.658
					l1.329,0.887l1.329,0.886h2.658h2.658h2.658l1.329,0.886l1.329,0.886h2.658h2.658h2.658h2.658h2.658l1.329,0.887
					L187.884,341.175z M186.556,340.289l-1.329-0.887h-2.658h-2.658h-2.658h-2.658h-2.658l-1.329-0.886l-1.329-0.886h-2.658h-2.658
					h-2.658l-1.329-0.886l-1.329-0.887h-2.658l-1.329-0.886l-1.329-0.886h-2.658l-1.329-0.886l-1.329-0.887h-2.658l-1.329-0.886
					l-1.329-0.886h-2.658l-1.329-0.886l-1.329-0.886h-2.658l-1.329-0.887l-1.329-0.886l-1.329-0.886l-1.329-0.886h-2.658
					l-1.329-0.887l-1.329-0.886l-1.329-0.886l-1.329-0.886l-1.329-0.887l-1.329-0.886l-1.329-0.886l-1.329-0.886l-1.329-0.886
					l-1.329-0.887l-1.329-0.886l-1.329-0.886l-1.329-0.886l-1.329-0.887l-1.329-0.886l-1.329-0.886l-1.329-0.886l-1.329-0.887
					l-1.329-0.886l-1.329-0.886l-1.329-0.886l-1.329-0.886l-1.329-0.887v-1.771l-1.329-0.887l-1.329-0.885L92.2,300.42l-1.329-0.886
					l-1.329-0.886l-1.329-0.887v-1.771l-1.329-0.886l-1.329-0.886l-1.329-0.887l-1.329-0.886v-1.772l-1.329-0.885l-1.329-0.887
					v-1.771l-1.329-0.887l-1.329-0.886v-1.771l-1.329-0.886l-1.329-0.887v-1.771l-1.329-0.887l-1.329-0.885v-1.772l-1.329-0.886
					l-1.329-0.887v-1.771l-1.329-0.886l-1.329-0.886v-1.772l-1.329-0.886l-1.329-0.887v-1.771v-1.771l-1.329-0.887l-1.329-0.886
					v-1.772v-1.771l-1.329-0.886l-1.329-0.886v-1.771v-1.772l-1.329-0.886l-1.329-0.887v-1.771v-1.771v-1.772l-1.329-0.886
					l-1.329-0.887v-1.771v-1.771v-1.772l-1.329-0.886l-1.329-0.887v-1.771v-1.771v-1.771l-1.329-0.887l-1.329-0.886v-1.772v-1.771
					v-1.771v-1.772v-1.772v-1.771l-1.329-0.886l-1.329-0.886v-1.772v-1.772v-1.771v-1.771v-1.771v-1.772v-1.772v-1.771v-1.771
					v-1.772v-1.772l-1.329-0.885l-1.329-0.887v-1.771v-1.772v-1.772v-1.771v-1.771v-1.772v-1.772l1.329-0.886l1.329-0.886v-1.772
					v-1.772v-1.772v-1.772v-1.772v-1.772v-1.772v-1.772v-1.772v-1.771v-1.772l1.329-0.886l1.329-0.886v-1.772v-1.772v-1.772v-1.772
					v-1.772v-1.772l1.329-0.886l1.329-0.886v-1.772v-1.772v-1.772l1.329-0.886l1.329-0.886v-1.772v-1.771v-1.772l1.329-0.886
					l1.329-0.886v-1.772V131.2v-1.772l1.329-0.886l1.329-0.886v-1.772v-1.772l1.329-0.886l1.329-0.886v-1.772v-1.772l1.329-0.886
					l1.329-0.886v-1.771v-1.772l1.329-0.886l1.329-0.886v-1.772l1.329-0.886l1.329-0.886v-1.772l1.329-0.886l1.329-0.886v-1.772
					l1.329-0.886l1.329-0.886v-1.772l1.329-0.886l1.329-0.886v-1.772l1.329-0.886l1.329-0.886v-1.771l1.329-0.886l1.329-0.886
					v-1.771l1.329-0.886l1.329-0.886l1.329-0.886l1.329-0.886v-1.772l1.329-0.886l1.329-0.886L92.2,80.7l1.329-0.886l1.329-0.886
					l1.329-0.886V76.27l1.329-0.886l1.329-0.886l1.329-0.886l1.329-0.886l1.329-0.886l1.329-0.886l1.329-0.886l1.329-0.886
					l1.329-0.886l1.329-0.886l1.329-0.886l1.329-0.886l1.329-0.886l1.329-0.886l1.329-0.886l1.329-0.886l1.329-0.886l1.329-0.886
					l1.329-0.886l1.329-0.886l1.329-0.886l1.329-0.886l1.329-0.886h2.658l1.329-0.886l1.329-0.886l1.329-0.886l1.329-0.886h2.658
					l1.329-0.886l1.329-0.886h2.658l1.329-0.886l1.329-0.886h2.658l1.329-0.886l1.329-0.886h2.658l1.329-0.886l1.329-0.886h2.658
					l1.329-0.886l1.329-0.886h2.658h2.658h2.658l1.329-0.886l1.329-0.886h2.658h2.658h2.658h2.658h2.658l1.329-0.886l1.329-0.886
					h2.658h2.658h2.658h2.658l1.329,0.886l1.329,0.886h2.658h2.658h2.658h2.658h2.658h2.658l1.329,0.886l1.329,0.886h2.658h2.658
					l1.329,0.886l1.329,0.886h2.658h2.658l1.329,0.886l1.329,0.886h2.658l1.329,0.886l1.329,0.886h2.658l1.329,0.886l1.329,0.886
					h2.658l1.329,0.886l1.329,0.886l1.329,0.886l1.329,0.886h2.658l1.329,0.886l1.329,0.886l1.329,0.886l1.329,0.886h2.658
					l1.329,0.886l1.329,0.886l1.329,0.886l1.329,0.886l1.329,0.886l1.329,0.886l1.329,0.886l1.329,0.886l1.329,0.886l1.329,0.886
					l1.329,0.886l1.329,0.886l1.329,0.886l-1.329,0.886l-1.329,0.886l-1.329,0.886l-1.329,0.886l-1.329,0.886l-1.329,0.886v1.772
					l-1.329,0.886l-1.329,0.886l-1.329,0.886l-1.329,0.886l-1.329,0.886l-1.329,0.886v1.772l-1.329,0.886l-1.329,0.886l-1.329,0.886
					l-1.329,0.886v1.772l-1.329,0.886l-1.329,0.886v1.772l-1.329,0.886l-1.329,0.886l-1.329,0.886l-1.329,0.886v1.772l-1.329,0.886
					l-1.329,0.886v1.772l-1.329,0.886l-1.329,0.886v1.772v1.772l-1.329,0.886l-1.329,0.886v1.772l-1.329,0.886l-1.329,0.886v1.772
					l-1.329,0.886l-1.329,0.886v1.771v1.772l-1.329,0.886l-1.329,0.886v1.772v1.772l-1.329,0.886l-1.329,0.886v1.772v1.772
					l-1.329,0.886l-1.329,0.886v1.772v1.772v1.772l-1.329,0.886l-1.329,0.886v1.771v1.772v1.772l-1.329,0.886l-1.329,0.886v1.772
					v1.772v1.772v1.772l-1.329,0.886l-1.329,0.886v1.772v1.772v1.772v1.772v1.771v1.772v1.771l-1.329,0.886l-1.329,0.886v1.772
					v1.772v1.772v1.772v1.772v1.772v1.772v1.772v1.772v1.772v1.772v1.771v1.771v1.772v1.772v1.771v1.771v1.772v1.772v1.771v1.771
					v1.772v1.772v1.771v1.771l1.329,0.887l1.329,0.885v1.772v1.772v1.771v1.771v1.772v1.772v1.771l1.329,0.886l1.329,0.886v1.772
					v1.772v1.771v1.771l1.329,0.887l1.329,0.885v1.772v1.772v1.771l1.329,0.887l1.329,0.885v1.772v1.772v1.771l1.329,0.886
					l1.329,0.886v1.772v1.772l1.329,0.885l1.329,0.887v1.771v1.771l1.329,0.887l1.329,0.886v1.772v1.771l1.329,0.887l1.329,0.885
					v1.772l1.329,0.886l1.329,0.887v1.771l1.329,0.886l1.329,0.886v1.772v1.772l1.329,0.885l1.329,0.887v1.771l1.329,0.887
					l1.329,0.886v1.771l1.329,0.886l1.329,0.887l1.329,0.886l1.329,0.886v1.771l1.329,0.887l1.329,0.886v1.772l1.329,0.886
					l1.329,0.886l1.329,0.886l1.329,0.886v1.772l1.329,0.886l1.329,0.887l1.329,0.885l1.329,0.887l1.329,0.886l1.329,0.886v1.772
					l1.329,0.886l1.329,0.886l1.329,0.886l1.329,0.887l1.329,0.886l1.329,0.886l-1.329,0.886l-1.329,0.887l-1.329,0.886
					l-1.329,0.886l-1.329,0.886l-1.329,0.887l-1.329,0.886l-1.329,0.886l-1.329,0.886l-1.329,0.886l-1.329,0.887l-1.329,0.886
					l-1.329,0.886h-2.658l-1.329,0.886l-1.329,0.887l-1.329,0.886l-1.329,0.886h-2.658l-1.329,0.886l-1.329,0.887l-1.329,0.886
					l-1.329,0.886h-2.658l-1.329,0.886l-1.329,0.886h-2.658l-1.329,0.887l-1.329,0.886h-2.658l-1.329,0.886l-1.329,0.886h-2.658
					h-2.658l-1.329,0.887l-1.329,0.886h-2.658h-2.658l-1.329,0.886l-1.329,0.886h-2.658h-2.658h-2.658h-2.658h-2.658h-2.658
					l-1.329,0.887l-1.329,0.886h-2.658H193.2h-2.658h-2.658L186.556,340.289z"/>
			</g>
		</g>
		<g id="PathCollection_4">
			<g>
				<defs>
					<rect id="SVGID_7_" x="7.2" y="7.2" width="550.08" height="366.72"/>
				</defs>
				<clipPath id="SVGID_8_">
					<use xlink:href="#SVGID_7_"  overflow="visible"/>
				</clipPath>
				<path clip-path="url(#SVGID_8_)" fill="none" d="M187.884,341.175h2.658h2.658h2.658h2.658l1.329-0.886l1.329-0.887h2.658h2.658
					h2.658h2.658h2.658h2.658l1.329-0.886l1.329-0.886h2.658h2.658l1.329-0.886l1.329-0.887h2.658h2.658l1.329-0.886l1.329-0.886
					h2.658l1.329-0.886l1.329-0.887h2.658l1.329-0.886l1.329-0.886h2.658l1.329-0.886l1.329-0.886l1.329-0.887l1.329-0.886h2.658
					l1.329-0.886l1.329-0.886l1.329-0.887l1.329-0.886h2.658l1.329-0.886l1.329-0.886l1.329-0.887l1.329-0.886l1.329-0.886
					l1.329-0.886l1.329-0.886l1.329-0.887l1.329-0.886l1.329-0.886l1.329-0.886l1.329-0.887l1.329-0.886l-1.329-0.886l-1.329-0.886
					l-1.329-0.887l-1.329-0.886l-1.329-0.886l-1.329-0.886v-1.772l-1.329-0.886l-1.329-0.886l-1.329-0.887l-1.329-0.885
					l-1.329-0.887l-1.329-0.886v-1.772l-1.329-0.886l-1.329-0.886l-1.329-0.886l-1.329-0.886v-1.772l-1.329-0.886l-1.329-0.887
					v-1.771l-1.329-0.886l-1.329-0.886l-1.329-0.887l-1.329-0.886v-1.771l-1.329-0.886l-1.329-0.887v-1.771l-1.329-0.887
					l-1.329-0.885v-1.772v-1.772l-1.329-0.886l-1.329-0.886v-1.771l-1.329-0.887l-1.329-0.886v-1.772l-1.329-0.885l-1.329-0.887
					v-1.771v-1.772l-1.329-0.886l-1.329-0.887v-1.771v-1.771l-1.329-0.887l-1.329-0.885v-1.772v-1.772l-1.329-0.886l-1.329-0.886
					v-1.771v-1.772v-1.772l-1.329-0.885l-1.329-0.887v-1.771v-1.772v-1.772l-1.329-0.885l-1.329-0.887v-1.771v-1.771v-1.772v-1.772
					l-1.329-0.886l-1.329-0.886v-1.771v-1.772v-1.772v-1.771v-1.771v-1.772v-1.772l-1.329-0.885l-1.329-0.887v-1.771v-1.771v-1.772
					v-1.772v-1.771v-1.771v-1.772v-1.772v-1.771v-1.771v-1.772v-1.772v-1.771v-1.771v-1.772v-1.772v-1.772v-1.772v-1.772v-1.772
					v-1.772v-1.772v-1.772v-1.772v-1.772l1.329-0.886l1.329-0.886v-1.771v-1.772v-1.771v-1.772v-1.772v-1.772v-1.772l1.329-0.886
					l1.329-0.886v-1.772v-1.772v-1.772v-1.772l1.329-0.886l1.329-0.886v-1.772v-1.772v-1.771l1.329-0.886l1.329-0.886v-1.772v-1.772
					V131.2l1.329-0.886l1.329-0.886v-1.772v-1.772l1.329-0.886l1.329-0.886v-1.772v-1.772l1.329-0.886l1.329-0.886v-1.772v-1.771
					l1.329-0.886l1.329-0.886v-1.772l1.329-0.886l1.329-0.886v-1.772l1.329-0.886l1.329-0.886v-1.772v-1.772l1.329-0.886
					l1.329-0.886v-1.772l1.329-0.886l1.329-0.886v-1.772l1.329-0.886l1.329-0.886l1.329-0.886l1.329-0.886v-1.772l1.329-0.886
					l1.329-0.886v-1.772l1.329-0.886l1.329-0.886l1.329-0.886l1.329-0.886v-1.772l1.329-0.886l1.329-0.886l1.329-0.886l1.329-0.886
					l1.329-0.886l1.329-0.886v-1.772l1.329-0.886l1.329-0.886l1.329-0.886l1.329-0.886l1.329-0.886l1.329-0.886l-1.329-0.886
					l-1.329-0.886l-1.329-0.886l-1.329-0.886l-1.329-0.886l-1.329-0.886l-1.329-0.886l-1.329-0.886l-1.329-0.886l-1.329-0.886
					l-1.329-0.886l-1.329-0.886l-1.329-0.886h-2.658l-1.329-0.886l-1.329-0.886l-1.329-0.886l-1.329-0.886h-2.658l-1.329-0.886
					l-1.329-0.886l-1.329-0.886l-1.329-0.886h-2.658l-1.329-0.886l-1.329-0.886h-2.658l-1.329-0.886l-1.329-0.886h-2.658
					l-1.329-0.886l-1.329-0.886h-2.658h-2.658l-1.329-0.886l-1.329-0.886h-2.658h-2.658l-1.329-0.886l-1.329-0.886h-2.658h-2.658
					h-2.658h-2.658h-2.658h-2.658l-1.329-0.886l-1.329-0.886h-2.658H193.2h-2.658h-2.658l-1.329,0.886l-1.329,0.886h-2.658h-2.658
					h-2.658h-2.658h-2.658l-1.329,0.886l-1.329,0.886h-2.658h-2.658h-2.658l-1.329,0.886l-1.329,0.886h-2.658l-1.329,0.886
					l-1.329,0.886h-2.658l-1.329,0.886l-1.329,0.886h-2.658l-1.329,0.886l-1.329,0.886h-2.658l-1.329,0.886l-1.329,0.886h-2.658
					l-1.329,0.886l-1.329,0.886l-1.329,0.886l-1.329,0.886h-2.658l-1.329,0.886l-1.329,0.886l-1.329,0.886l-1.329,0.886
					l-1.329,0.886l-1.329,0.886l-1.329,0.886l-1.329,0.886l-1.329,0.886l-1.329,0.886l-1.329,0.886l-1.329,0.886l-1.329,0.886
					l-1.329,0.886l-1.329,0.886l-1.329,0.886l-1.329,0.886l-1.329,0.886l-1.329,0.886l-1.329,0.886l-1.329,0.886l-1.329,0.886
					l-1.329,0.886v1.772l-1.329,0.886l-1.329,0.886L92.2,80.7l-1.329,0.886l-1.329,0.886l-1.329,0.886v1.772l-1.329,0.886
					l-1.329,0.886l-1.329,0.886l-1.329,0.886v1.771l-1.329,0.886l-1.329,0.886v1.771l-1.329,0.886l-1.329,0.886v1.772l-1.329,0.886
					l-1.329,0.886v1.772l-1.329,0.886l-1.329,0.886v1.772l-1.329,0.886l-1.329,0.886v1.772l-1.329,0.886l-1.329,0.886v1.772
					l-1.329,0.886l-1.329,0.886v1.772v1.771l-1.329,0.886l-1.329,0.886v1.772v1.772l-1.329,0.886l-1.329,0.886v1.772v1.772
					l-1.329,0.886l-1.329,0.886v1.772v1.772v1.772l-1.329,0.886l-1.329,0.886v1.772v1.771v1.772l-1.329,0.886l-1.329,0.886v1.772
					v1.772v1.772l-1.329,0.886l-1.329,0.886v1.772v1.772v1.772v1.772v1.772v1.772l-1.329,0.886l-1.329,0.886v1.772v1.771v1.772
					v1.772v1.772v1.772v1.772v1.772v1.772v1.772v1.772l-1.329,0.886l-1.329,0.886v1.772v1.772v1.771v1.771v1.772v1.772v1.771
					l1.329,0.887l1.329,0.885v1.772v1.772v1.771v1.771v1.772v1.772v1.771v1.771v1.771v1.772v1.772l1.329,0.886l1.329,0.886v1.771
					v1.772v1.772v1.771v1.771v1.772l1.329,0.886l1.329,0.887v1.771v1.771v1.771l1.329,0.887l1.329,0.886v1.772v1.771v1.771
					l1.329,0.887l1.329,0.886v1.772v1.771v1.771l1.329,0.887l1.329,0.886v1.772v1.771l1.329,0.886l1.329,0.886v1.771v1.772
					l1.329,0.886l1.329,0.887v1.771v1.771l1.329,0.887l1.329,0.886v1.772l1.329,0.886l1.329,0.886v1.771l1.329,0.887l1.329,0.886
					v1.772l1.329,0.885l1.329,0.887v1.771l1.329,0.887l1.329,0.886v1.771l1.329,0.886l1.329,0.887v1.771l1.329,0.887l1.329,0.885
					v1.772l1.329,0.886l1.329,0.887l1.329,0.886l1.329,0.886v1.771l1.329,0.887l1.329,0.886l1.329,0.886l1.329,0.887l1.329,0.885
					l1.329,0.887v1.771l1.329,0.887l1.329,0.886l1.329,0.886l1.329,0.886l1.329,0.886l1.329,0.887l1.329,0.886l1.329,0.886
					l1.329,0.886l1.329,0.887l1.329,0.886l1.329,0.886l1.329,0.886l1.329,0.887l1.329,0.886l1.329,0.886l1.329,0.886l1.329,0.886
					l1.329,0.887l1.329,0.886l1.329,0.886l1.329,0.886l1.329,0.887h2.658l1.329,0.886l1.329,0.886l1.329,0.886l1.329,0.887h2.658
					l1.329,0.886l1.329,0.886h2.658l1.329,0.886l1.329,0.886h2.658l1.329,0.887l1.329,0.886h2.658l1.329,0.886l1.329,0.886h2.658
					l1.329,0.887l1.329,0.886h2.658h2.658h2.658l1.329,0.886l1.329,0.886h2.658h2.658h2.658h2.658h2.658l1.329,0.887
					L187.884,341.175z"/>
			</g>
		</g>
		<g id="LineCollection_1">
			<g>
				<defs>
					<rect id="SVGID_9_" x="7.2" y="7.2" width="550.08" height="366.72"/>
				</defs>
				<clipPath id="SVGID_10_">
					<use xlink:href="#SVGID_9_"  overflow="visible"/>
				</clipPath>
				<path clip-path="url(#SVGID_10_)" fill="none" stroke="#ADD8E6" stroke-linejoin="round" stroke-miterlimit="10" d="
					M187.884,341.175h10.632l2.658-1.772h15.947l2.658-1.771h5.316l2.658-1.772h5.316l2.658-1.771h2.658l2.658-1.772h2.658
					l2.658-1.771h2.658l5.316-3.544h2.658l5.316-3.544h2.658l17.276-11.518l-7.974-5.315v-1.772l-7.974-5.315v-1.772l-5.316-3.543
					v-1.772l-2.658-1.772v-1.771l-5.316-3.544v-1.771l-2.658-1.772v-1.771l-2.658-1.771v-3.545l-2.658-1.771v-1.771l-2.658-1.772
					v-1.772l-2.658-1.771v-3.544l-2.658-1.772v-3.543l-2.658-1.771v-3.545l-2.658-1.771v-5.316l-2.658-1.771v-5.316l-2.658-1.771
					v-7.088l-2.658-1.771V214.48l-2.658-1.771v-44.298l2.658-1.772v-12.403l2.658-1.772v-7.088l2.658-1.772v-5.315l2.658-1.772
					V131.2l2.658-1.772v-3.544l2.658-1.772v-3.544l2.658-1.772v-3.543l2.658-1.772v-1.772l2.658-1.772v-1.772l2.658-1.772v-3.544
					l2.658-1.772v-1.772l2.658-1.772v-1.772l5.316-3.543v-1.772l2.658-1.771v-1.772l5.316-3.544v-1.772l7.974-5.316v-1.772
					l7.974-5.315l-17.276-11.518h-2.658l-5.316-3.543h-2.658l-5.316-3.544h-2.658l-2.658-1.772h-2.658l-2.658-1.772h-2.658
					l-2.658-1.772h-5.316l-2.658-1.772h-5.316l-2.658-1.772h-15.947l-2.658-1.772h-10.632l-2.658,1.772h-13.29l-2.658,1.772h-7.974
					l-2.658,1.772h-2.658l-2.658,1.772h-2.658l-2.658,1.772h-2.658l-2.658,1.772h-2.658l-2.658,1.772h-2.658l-5.315,3.543h-2.658
					L96.187,76.27v1.772l-7.974,5.316v1.772l-5.316,3.544v1.771l-2.658,1.772v1.771l-2.658,1.772v1.772l-2.658,1.772v1.772
					l-2.658,1.772v1.772l-2.658,1.772v1.772l-2.658,1.772v1.772l-2.658,1.772v3.543l-2.658,1.772v3.544l-2.658,1.772v3.544
					l-2.658,1.772v5.316l-2.658,1.772v5.315l-2.658,1.772v5.316l-2.658,1.772v10.632l-2.658,1.771v19.492l-2.658,1.772v12.403
					l2.658,1.771v19.492l2.658,1.771v10.632l2.658,1.772v5.314l2.658,1.772v5.315l2.658,1.772v5.315l2.658,1.772v3.544l2.658,1.771
					v3.544l2.658,1.772v3.543l2.658,1.772v1.772l2.658,1.771v1.771l2.658,1.772v1.772l2.658,1.771v1.771l2.658,1.772v1.771
					l2.658,1.772v1.771l2.658,1.771v1.772l5.316,3.544v1.771l7.974,5.316v1.771l30.566,20.378h2.658l5.315,3.544h2.658l2.658,1.771
					h2.658l2.658,1.771h2.658l2.658,1.772h2.658l2.658,1.771h2.658l2.658,1.772h7.974l2.658,1.771h13.29L187.884,341.175
					L187.884,341.175"/>
			</g>
		</g>
		<g id="LineCollection_2">
			<g>
				<defs>
					<rect id="SVGID_11_" x="7.2" y="7.2" width="550.08" height="366.72"/>
				</defs>
				<clipPath id="SVGID_12_">
					<use xlink:href="#SVGID_11_"  overflow="visible"/>
				</clipPath>
				<path clip-path="url(#SVGID_12_)" fill="none" stroke="#FFFFFF" stroke-linejoin="round" stroke-miterlimit="10" d="
					M187.884,341.175h10.632l2.658-1.772h15.947l2.658-1.771h5.316l2.658-1.772h5.316l2.658-1.771h2.658l2.658-1.772h2.658
					l2.658-1.771h2.658l5.316-3.544h2.658l5.316-3.544h2.658l17.276-11.518l-7.974-5.315v-1.772l-7.974-5.315v-1.772l-5.316-3.543
					v-1.772l-2.658-1.772v-1.771l-5.316-3.544v-1.771l-2.658-1.772v-1.771l-2.658-1.771v-3.545l-2.658-1.771v-1.771l-2.658-1.772
					v-1.772l-2.658-1.771v-3.544l-2.658-1.772v-3.543l-2.658-1.771v-3.545l-2.658-1.771v-5.316l-2.658-1.771v-5.316l-2.658-1.771
					v-7.088l-2.658-1.771V214.48l-2.658-1.771v-44.298l2.658-1.772v-12.403l2.658-1.772v-7.088l2.658-1.772v-5.315l2.658-1.772
					V131.2l2.658-1.772v-3.544l2.658-1.772v-3.544l2.658-1.772v-3.543l2.658-1.772v-1.772l2.658-1.772v-1.772l2.658-1.772v-3.544
					l2.658-1.772v-1.772l2.658-1.772v-1.772l5.316-3.543v-1.772l2.658-1.771v-1.772l5.316-3.544v-1.772l7.974-5.316v-1.772
					l7.974-5.315l-17.276-11.518h-2.658l-5.316-3.543h-2.658l-5.316-3.544h-2.658l-2.658-1.772h-2.658l-2.658-1.772h-2.658
					l-2.658-1.772h-5.316l-2.658-1.772h-5.316l-2.658-1.772h-15.947l-2.658-1.772h-10.632l-2.658,1.772h-13.29l-2.658,1.772h-7.974
					l-2.658,1.772h-2.658l-2.658,1.772h-2.658l-2.658,1.772h-2.658l-2.658,1.772h-2.658l-2.658,1.772h-2.658l-5.315,3.543h-2.658
					L96.187,76.27v1.772l-7.974,5.316v1.772l-5.316,3.544v1.771l-2.658,1.772v1.771l-2.658,1.772v1.772l-2.658,1.772v1.772
					l-2.658,1.772v1.772l-2.658,1.772v1.772l-2.658,1.772v1.772l-2.658,1.772v3.543l-2.658,1.772v3.544l-2.658,1.772v3.544
					l-2.658,1.772v5.316l-2.658,1.772v5.315l-2.658,1.772v5.316l-2.658,1.772v10.632l-2.658,1.771v19.492l-2.658,1.772v12.403
					l2.658,1.771v19.492l2.658,1.771v10.632l2.658,1.772v5.314l2.658,1.772v5.315l2.658,1.772v5.315l2.658,1.772v3.544l2.658,1.771
					v3.544l2.658,1.772v3.543l2.658,1.772v1.772l2.658,1.771v1.771l2.658,1.772v1.772l2.658,1.771v1.771l2.658,1.772v1.771
					l2.658,1.772v1.771l2.658,1.771v1.772l5.316,3.544v1.771l7.974,5.316v1.771l30.566,20.378h2.658l5.315,3.544h2.658l2.658,1.771
					h2.658l2.658,1.771h2.658l2.658,1.772h2.658l2.658,1.771h2.658l2.658,1.772h7.974l2.658,1.771h13.29L187.884,341.175
					L187.884,341.175"/>
			</g>
		</g>
		<g id="LineCollection_3">
			<g>
				<defs>
					<rect id="SVGID_13_" x="7.2" y="7.2" width="550.08" height="366.72"/>
				</defs>
				<clipPath id="SVGID_14_">
					<use xlink:href="#SVGID_13_"  overflow="visible"/>
				</clipPath>
				<path clip-path="url(#SVGID_14_)" fill="none" stroke="#FFFFFF" stroke-linejoin="round" stroke-miterlimit="10" d="
					M187.884,341.175h10.632l2.658-1.772h15.947l2.658-1.771h5.316l2.658-1.772h5.316l2.658-1.771h2.658l2.658-1.772h2.658
					l2.658-1.771h2.658l5.316-3.544h2.658l5.316-3.544h2.658l17.276-11.518l-7.974-5.315v-1.772l-7.974-5.315v-1.772l-5.316-3.543
					v-1.772l-2.658-1.772v-1.771l-5.316-3.544v-1.771l-2.658-1.772v-1.771l-2.658-1.771v-3.545l-2.658-1.771v-1.771l-2.658-1.772
					v-1.772l-2.658-1.771v-3.544l-2.658-1.772v-3.543l-2.658-1.771v-3.545l-2.658-1.771v-5.316l-2.658-1.771v-5.316l-2.658-1.771
					v-7.088l-2.658-1.771V214.48l-2.658-1.771v-44.298l2.658-1.772v-12.403l2.658-1.772v-7.088l2.658-1.772v-5.315l2.658-1.772
					V131.2l2.658-1.772v-3.544l2.658-1.772v-3.544l2.658-1.772v-3.543l2.658-1.772v-1.772l2.658-1.772v-1.772l2.658-1.772v-3.544
					l2.658-1.772v-1.772l2.658-1.772v-1.772l5.316-3.543v-1.772l2.658-1.771v-1.772l5.316-3.544v-1.772l7.974-5.316v-1.772
					l7.974-5.315l-17.276-11.518h-2.658l-5.316-3.543h-2.658l-5.316-3.544h-2.658l-2.658-1.772h-2.658l-2.658-1.772h-2.658
					l-2.658-1.772h-5.316l-2.658-1.772h-5.316l-2.658-1.772h-15.947l-2.658-1.772h-10.632l-2.658,1.772h-13.29l-2.658,1.772h-7.974
					l-2.658,1.772h-2.658l-2.658,1.772h-2.658l-2.658,1.772h-2.658l-2.658,1.772h-2.658l-2.658,1.772h-2.658l-5.315,3.543h-2.658
					L96.187,76.27v1.772l-7.974,5.316v1.772l-5.316,3.544v1.771l-2.658,1.772v1.771l-2.658,1.772v1.772l-2.658,1.772v1.772
					l-2.658,1.772v1.772l-2.658,1.772v1.772l-2.658,1.772v1.772l-2.658,1.772v3.543l-2.658,1.772v3.544l-2.658,1.772v3.544
					l-2.658,1.772v5.316l-2.658,1.772v5.315l-2.658,1.772v5.316l-2.658,1.772v10.632l-2.658,1.771v19.492l-2.658,1.772v12.403
					l2.658,1.771v19.492l2.658,1.771v10.632l2.658,1.772v5.314l2.658,1.772v5.315l2.658,1.772v5.315l2.658,1.772v3.544l2.658,1.771
					v3.544l2.658,1.772v3.543l2.658,1.772v1.772l2.658,1.771v1.771l2.658,1.772v1.772l2.658,1.771v1.771l2.658,1.772v1.771
					l2.658,1.772v1.771l2.658,1.771v1.772l5.316,3.544v1.771l7.974,5.316v1.771l30.566,20.378h2.658l5.315,3.544h2.658l2.658,1.771
					h2.658l2.658,1.771h2.658l2.658,1.772h2.658l2.658,1.771h2.658l2.658,1.772h7.974l2.658,1.771h13.29L187.884,341.175
					L187.884,341.175"/>
			</g>
		</g>
		<g id="line2d_1">
			<g>
				<defs>
					<rect id="SVGID_15_" x="7.2" y="7.2" width="550.08" height="366.72"/>
				</defs>
				<clipPath id="SVGID_16_">
					<use xlink:href="#SVGID_15_"  overflow="visible"/>
				</clipPath>
				
					<path clip-path="url(#SVGID_16_)" fill="none" stroke="#000000" stroke-linecap="square" stroke-linejoin="round" stroke-miterlimit="10" d="
					M17.778,366.868h528.923V14.252H17.778V366.868"/>
			</g>
		</g>
		<g id="matplotlib.axis_1">
		</g>
		<g id="matplotlib.axis_2">
		</g>
		<g id="patch_3">
			<g>
				<defs>
					<rect id="SVGID_17_" x="7.2" y="7.2" width="550.08" height="366.72"/>
				</defs>
				<clipPath id="SVGID_18_">
					<use xlink:href="#SVGID_17_"  overflow="visible"/>
				</clipPath>
				<path clip-path="url(#SVGID_18_)" fill="none" stroke="#0000FF" stroke-miterlimit="10" d="M370.395,340.422
					c39.743,0,77.864-15.791,105.968-43.894c28.103-28.104,43.894-66.225,43.894-105.968s-15.791-77.865-43.894-105.968
					c-28.104-28.103-66.225-43.894-105.968-43.894c-39.744,0-77.865,15.791-105.969,43.894
					c-28.103,28.103-43.894,66.225-43.894,105.968s15.791,77.865,43.894,105.968C292.529,324.631,330.65,340.422,370.395,340.422
					L370.395,340.422z"/>
			</g>
		</g>
		<g id="patch_4">
			<g>
				<defs>
					<rect id="SVGID_19_" x="7.2" y="7.2" width="550.08" height="366.72"/>
				</defs>
				<clipPath id="SVGID_20_">
					<use xlink:href="#SVGID_19_"  overflow="visible"/>
				</clipPath>
				<path clip-path="url(#SVGID_20_)" fill="none" stroke="#0000FF" stroke-miterlimit="10" d="M194.086,340.422
					c39.744,0,77.865-15.791,105.969-43.894c28.103-28.104,43.893-66.225,43.893-105.968s-15.79-77.865-43.893-105.968
					c-28.104-28.103-66.225-43.894-105.969-43.894c-39.744,0-77.865,15.791-105.968,43.894S44.225,150.816,44.225,190.56
					s15.791,77.865,43.894,105.968C116.221,324.631,154.342,340.422,194.086,340.422L194.086,340.422z"/>
			</g>
		</g>
		<g id="patch_5">
			<g>
				<defs>
					<rect id="SVGID_21_" x="7.2" y="7.2" width="550.08" height="366.72"/>
				</defs>
				<clipPath id="SVGID_22_">
					<use xlink:href="#SVGID_21_"  overflow="visible"/>
				</clipPath>
				<path clip-path="url(#SVGID_22_)" fill="none" stroke="#0000FF" stroke-miterlimit="10" d="M370.395,340.422
					c39.743,0,77.864-15.791,105.968-43.894c28.103-28.104,43.894-66.225,43.894-105.968s-15.791-77.865-43.894-105.968
					c-28.104-28.103-66.225-43.894-105.968-43.894c-39.744,0-77.865,15.791-105.969,43.894
					c-28.103,28.103-43.894,66.225-43.894,105.968s15.791,77.865,43.894,105.968C292.529,324.631,330.65,340.422,370.395,340.422
					L370.395,340.422z"/>
			</g>
		</g>
		<g id="patch_6">
			<g>
				<defs>
					<rect id="SVGID_23_" x="7.2" y="7.2" width="550.08" height="366.72"/>
				</defs>
				<clipPath id="SVGID_24_">
					<use xlink:href="#SVGID_23_"  overflow="visible"/>
				</clipPath>
				<path clip-path="url(#SVGID_24_)" fill="none" stroke="#0000FF" stroke-miterlimit="10" d="M194.086,340.422
					c39.744,0,77.865-15.791,105.969-43.894c28.103-28.104,43.893-66.225,43.893-105.968s-15.79-77.865-43.893-105.968
					c-28.104-28.103-66.225-43.894-105.969-43.894c-39.744,0-77.865,15.791-105.968,43.894S44.225,150.816,44.225,190.56
					s15.791,77.865,43.894,105.968C116.221,324.631,154.342,340.422,194.086,340.422L194.086,340.422z"/>
			</g>
		</g>
	</g>
</g>
<text transform="matrix(1 0 0 1 114.5 182)"><tspan x="0" y="0" font-family="'Times-Italic'" font-size="24">T</tspan><tspan x="13.348" y="3" font-family="'Times-Italic'" font-size="24">p</tspan></text>
<text transform="matrix(1 0 0 1 388.5 185)" font-family="'Times-Italic'" font-size="24">Tq</text>
</svg>
