<?xml version="1.0" encoding="utf-8" standalone="no"?>
<!DOCTYPE svg PUBLIC "-//W3C//DTD SVG 1.1//EN"
  "http://www.w3.org/Graphics/SVG/1.1/DTD/svg11.dtd">
<!-- Created with matplotlib (http://matplotlib.org/) -->
<svg height="381pt" version="1.1" viewBox="0 0 564 381" width="564pt" xmlns="http://www.w3.org/2000/svg" xmlns:xlink="http://www.w3.org/1999/xlink">
 <defs>
  <style type="text/css">
*{stroke-linecap:butt;stroke-linejoin:round;stroke-miterlimit:100000;}
  </style>
 </defs>
 <g id="figure_1">
  <g id="patch_1">
   <path d="M 0 381.12 
L 564.48 381.12 
L 564.48 0 
L 0 0 
z
" style="fill:#ffffff;"/>
  </g>
  <g id="axes_1">
   <g id="patch_2">
    <path d="M 7.2 373.92 
L 557.28 373.92 
L 557.28 7.2 
L 7.2 7.2 
z
" style="fill:#ffffff;"/>
   </g>
   <g id="PathCollection_1">
    <path clip-path="url(#pb37adf30be)" d="M 280.911048 311.051689 
L 283.568952 311.051689 
L 284.897905 310.165721 
L 286.226857 309.279753 
L 287.55581 308.393784 
L 288.884762 307.507816 
L 290.213715 306.621848 
L 290.213715 304.849911 
L 291.542667 303.963943 
L 292.87162 303.077974 
L 294.200572 302.192006 
L 295.529525 301.306038 
L 296.858477 300.42007 
L 298.187429 299.534101 
L 298.187429 297.762165 
L 299.516382 296.876196 
L 300.845334 295.990228 
L 302.174287 295.10426 
L 303.503239 294.218291 
L 303.503239 292.446355 
L 304.832192 291.560387 
L 306.161144 290.674418 
L 306.161144 288.902482 
L 307.490097 288.016513 
L 308.819049 287.130545 
L 310.148002 286.244577 
L 311.476954 285.358608 
L 311.476954 283.586672 
L 312.805906 282.700704 
L 314.134859 281.814735 
L 314.134859 280.042799 
L 315.463811 279.15683 
L 316.792764 278.270862 
L 316.792764 276.498925 
L 316.792764 274.726989 
L 318.121716 273.84102 
L 319.450669 272.955052 
L 319.450669 271.183116 
L 320.779621 270.297147 
L 322.108574 269.411179 
L 322.108574 267.639242 
L 323.437526 266.753274 
L 324.766479 265.867306 
L 324.766479 264.095369 
L 324.766479 262.323433 
L 326.095431 261.437464 
L 327.424383 260.551496 
L 327.424383 258.779559 
L 327.424383 257.007623 
L 328.753336 256.121654 
L 330.082288 255.235686 
L 330.082288 253.46375 
L 330.082288 251.691813 
L 331.411241 250.805845 
L 332.740193 249.919876 
L 332.740193 248.14794 
L 332.740193 246.376003 
L 332.740193 244.604066 
L 334.069146 243.718098 
L 335.398098 242.83213 
L 335.398098 241.060193 
L 335.398098 239.288257 
L 335.398098 237.51632 
L 336.727051 236.630352 
L 338.056003 235.744383 
L 338.056003 233.972447 
L 338.056003 232.20051 
L 338.056003 230.428574 
L 338.056003 228.656637 
L 339.384956 227.770669 
L 340.713908 226.8847 
L 340.713908 225.112764 
L 340.713908 223.340827 
L 340.713908 221.568891 
L 340.713908 219.796954 
L 340.713908 218.025017 
L 340.713908 216.253081 
L 340.713908 214.481144 
L 342.04286 213.595176 
L 343.371813 212.709208 
L 343.371813 210.937271 
L 343.371813 209.165334 
L 343.371813 207.393398 
L 343.371813 205.621461 
L 343.371813 203.849525 
L 343.371813 202.077588 
L 343.371813 200.305651 
L 343.371813 198.533715 
L 343.371813 196.761778 
L 343.371813 194.989842 
L 343.371813 193.217905 
L 343.371813 191.445968 
L 343.371813 189.674032 
L 343.371813 187.902095 
L 343.371813 186.130158 
L 343.371813 184.358222 
L 343.371813 182.586285 
L 343.371813 180.814349 
L 343.371813 179.042412 
L 343.371813 177.270475 
L 343.371813 175.498539 
L 343.371813 173.726602 
L 343.371813 171.954666 
L 343.371813 170.182729 
L 343.371813 168.410792 
L 342.04286 167.524824 
L 340.713908 166.638856 
L 340.713908 164.866919 
L 340.713908 163.094983 
L 340.713908 161.323046 
L 340.713908 159.551109 
L 340.713908 157.779173 
L 340.713908 156.007236 
L 340.713908 154.2353 
L 339.384956 153.349331 
L 338.056003 152.463363 
L 338.056003 150.691426 
L 338.056003 148.91949 
L 338.056003 147.147553 
L 338.056003 145.375617 
L 336.727051 144.489648 
L 335.398098 143.60368 
L 335.398098 141.831743 
L 335.398098 140.059807 
L 335.398098 138.28787 
L 334.069146 137.401902 
L 332.740193 136.515934 
L 332.740193 134.743997 
L 332.740193 132.97206 
L 332.740193 131.200124 
L 331.411241 130.314155 
L 330.082288 129.428187 
L 330.082288 127.65625 
L 330.082288 125.884314 
L 328.753336 124.998346 
L 327.424383 124.112377 
L 327.424383 122.340441 
L 327.424383 120.568504 
L 326.095431 119.682536 
L 324.766479 118.796567 
L 324.766479 117.024631 
L 324.766479 115.252694 
L 323.437526 114.366726 
L 322.108574 113.480758 
L 322.108574 111.708821 
L 320.779621 110.822853 
L 319.450669 109.936884 
L 319.450669 108.164948 
L 318.121716 107.27898 
L 316.792764 106.393011 
L 316.792764 104.621075 
L 316.792764 102.849138 
L 315.463811 101.96317 
L 314.134859 101.077201 
L 314.134859 99.305265 
L 312.805906 98.419296 
L 311.476954 97.533328 
L 311.476954 95.761392 
L 310.148002 94.875423 
L 308.819049 93.989455 
L 307.490097 93.103487 
L 306.161144 92.217518 
L 306.161144 90.445582 
L 304.832192 89.559613 
L 303.503239 88.673645 
L 303.503239 86.901709 
L 302.174287 86.01574 
L 300.845334 85.129772 
L 299.516382 84.243804 
L 298.187429 83.357835 
L 298.187429 81.585899 
L 296.858477 80.69993 
L 295.529525 79.813962 
L 294.200572 78.927994 
L 292.87162 78.042026 
L 291.542667 77.156057 
L 290.213715 76.270089 
L 290.213715 74.498152 
L 288.884762 73.612184 
L 287.55581 72.726216 
L 286.226857 71.840247 
L 284.897905 70.954279 
L 283.568952 70.068311 
L 280.911048 70.068311 
L 279.582095 70.954279 
L 278.253143 71.840247 
L 276.92419 72.726216 
L 275.595238 73.612184 
L 274.266285 74.498152 
L 274.266285 76.270089 
L 272.937333 77.156057 
L 271.60838 78.042026 
L 270.279428 78.927994 
L 268.950475 79.813962 
L 267.621523 80.69993 
L 266.292571 81.585899 
L 266.292571 83.357835 
L 264.963618 84.243804 
L 263.634666 85.129772 
L 262.305713 86.01574 
L 260.976761 86.901709 
L 260.976761 88.673645 
L 259.647808 89.559613 
L 258.318856 90.445582 
L 258.318856 92.217518 
L 256.989903 93.103487 
L 255.660951 93.989455 
L 254.331998 94.875423 
L 253.003046 95.761392 
L 253.003046 97.533328 
L 251.674094 98.419296 
L 250.345141 99.305265 
L 250.345141 101.077201 
L 249.016189 101.96317 
L 247.687236 102.849138 
L 247.687236 104.621075 
L 247.687236 106.393011 
L 246.358284 107.27898 
L 245.029331 108.164948 
L 245.029331 109.936884 
L 243.700379 110.822853 
L 242.371426 111.708821 
L 242.371426 113.480758 
L 241.042474 114.366726 
L 239.713521 115.252694 
L 239.713521 117.024631 
L 239.713521 118.796567 
L 238.384569 119.682536 
L 237.055617 120.568504 
L 237.055617 122.340441 
L 237.055617 124.112377 
L 235.726664 124.998346 
L 234.397712 125.884314 
L 234.397712 127.65625 
L 234.397712 129.428187 
L 233.068759 130.314155 
L 231.739807 131.200124 
L 231.739807 132.97206 
L 231.739807 134.743997 
L 231.739807 136.515934 
L 230.410854 137.401902 
L 229.081902 138.28787 
L 229.081902 140.059807 
L 229.081902 141.831743 
L 229.081902 143.60368 
L 227.752949 144.489648 
L 226.423997 145.375617 
L 226.423997 147.147553 
L 226.423997 148.91949 
L 226.423997 150.691426 
L 226.423997 152.463363 
L 225.095044 153.349331 
L 223.766092 154.2353 
L 223.766092 156.007236 
L 223.766092 157.779173 
L 223.766092 159.551109 
L 223.766092 161.323046 
L 223.766092 163.094983 
L 223.766092 164.866919 
L 223.766092 166.638856 
L 222.43714 167.524824 
L 221.108187 168.410792 
L 221.108187 170.182729 
L 221.108187 171.954666 
L 221.108187 173.726602 
L 221.108187 175.498539 
L 221.108187 177.270475 
L 221.108187 179.042412 
L 221.108187 180.814349 
L 221.108187 182.586285 
L 221.108187 184.358222 
L 221.108187 186.130158 
L 221.108187 187.902095 
L 221.108187 189.674032 
L 221.108187 191.445968 
L 221.108187 193.217905 
L 221.108187 194.989842 
L 221.108187 196.761778 
L 221.108187 198.533715 
L 221.108187 200.305651 
L 221.108187 202.077588 
L 221.108187 203.849525 
L 221.108187 205.621461 
L 221.108187 207.393398 
L 221.108187 209.165334 
L 221.108187 210.937271 
L 221.108187 212.709208 
L 222.43714 213.595176 
L 223.766092 214.481144 
L 223.766092 216.253081 
L 223.766092 218.025017 
L 223.766092 219.796954 
L 223.766092 221.568891 
L 223.766092 223.340827 
L 223.766092 225.112764 
L 223.766092 226.8847 
L 225.095044 227.770669 
L 226.423997 228.656637 
L 226.423997 230.428574 
L 226.423997 232.20051 
L 226.423997 233.972447 
L 226.423997 235.744383 
L 227.752949 236.630352 
L 229.081902 237.51632 
L 229.081902 239.288257 
L 229.081902 241.060193 
L 229.081902 242.83213 
L 230.410854 243.718098 
L 231.739807 244.604066 
L 231.739807 246.376003 
L 231.739807 248.14794 
L 231.739807 249.919876 
L 233.068759 250.805845 
L 234.397712 251.691813 
L 234.397712 253.46375 
L 234.397712 255.235686 
L 235.726664 256.121654 
L 237.055617 257.007623 
L 237.055617 258.779559 
L 237.055617 260.551496 
L 238.384569 261.437464 
L 239.713521 262.323433 
L 239.713521 264.095369 
L 239.713521 265.867306 
L 241.042474 266.753274 
L 242.371426 267.639242 
L 242.371426 269.411179 
L 243.700379 270.297147 
L 245.029331 271.183116 
L 245.029331 272.955052 
L 246.358284 273.84102 
L 247.687236 274.726989 
L 247.687236 276.498925 
L 247.687236 278.270862 
L 249.016189 279.15683 
L 250.345141 280.042799 
L 250.345141 281.814735 
L 251.674094 282.700704 
L 253.003046 283.586672 
L 253.003046 285.358608 
L 254.331998 286.244577 
L 255.660951 287.130545 
L 256.989903 288.016513 
L 258.318856 288.902482 
L 258.318856 290.674418 
L 259.647808 291.560387 
L 260.976761 292.446355 
L 260.976761 294.218291 
L 262.305713 295.10426 
L 263.634666 295.990228 
L 264.963618 296.876196 
L 266.292571 297.762165 
L 266.292571 299.534101 
L 267.621523 300.42007 
L 268.950475 301.306038 
L 270.279428 302.192006 
L 271.60838 303.077974 
L 272.937333 303.963943 
L 274.266285 304.849911 
L 274.266285 306.621848 
L 275.595238 307.507816 
L 276.92419 308.393784 
L 278.253143 309.279753 
L 279.582095 310.165721 
z
" style="fill:#add8e6;"/>
   </g>
   <g id="PathCollection_2">
    <path clip-path="url(#pb37adf30be)" d="M 280.911048 311.051689 
L 283.568952 311.051689 
L 284.897905 310.165721 
L 286.226857 309.279753 
L 287.55581 308.393784 
L 288.884762 307.507816 
L 290.213715 306.621848 
L 290.213715 304.849911 
L 291.542667 303.963943 
L 292.87162 303.077974 
L 294.200572 302.192006 
L 295.529525 301.306038 
L 296.858477 300.42007 
L 298.187429 299.534101 
L 298.187429 297.762165 
L 299.516382 296.876196 
L 300.845334 295.990228 
L 302.174287 295.10426 
L 303.503239 294.218291 
L 303.503239 292.446355 
L 304.832192 291.560387 
L 306.161144 290.674418 
L 306.161144 288.902482 
L 307.490097 288.016513 
L 308.819049 287.130545 
L 310.148002 286.244577 
L 311.476954 285.358608 
L 311.476954 283.586672 
L 312.805906 282.700704 
L 314.134859 281.814735 
L 314.134859 280.042799 
L 315.463811 279.15683 
L 316.792764 278.270862 
L 316.792764 276.498925 
L 316.792764 274.726989 
L 318.121716 273.84102 
L 319.450669 272.955052 
L 319.450669 271.183116 
L 320.779621 270.297147 
L 322.108574 269.411179 
L 322.108574 267.639242 
L 323.437526 266.753274 
L 324.766479 265.867306 
L 324.766479 264.095369 
L 324.766479 262.323433 
L 326.095431 261.437464 
L 327.424383 260.551496 
L 327.424383 258.779559 
L 327.424383 257.007623 
L 328.753336 256.121654 
L 330.082288 255.235686 
L 330.082288 253.46375 
L 330.082288 251.691813 
L 331.411241 250.805845 
L 332.740193 249.919876 
L 332.740193 248.14794 
L 332.740193 246.376003 
L 332.740193 244.604066 
L 334.069146 243.718098 
L 335.398098 242.83213 
L 335.398098 241.060193 
L 335.398098 239.288257 
L 335.398098 237.51632 
L 336.727051 236.630352 
L 338.056003 235.744383 
L 338.056003 233.972447 
L 338.056003 232.20051 
L 338.056003 230.428574 
L 338.056003 228.656637 
L 339.384956 227.770669 
L 340.713908 226.8847 
L 340.713908 225.112764 
L 340.713908 223.340827 
L 340.713908 221.568891 
L 340.713908 219.796954 
L 340.713908 218.025017 
L 340.713908 216.253081 
L 340.713908 214.481144 
L 342.04286 213.595176 
L 343.371813 212.709208 
L 343.371813 210.937271 
L 343.371813 209.165334 
L 343.371813 207.393398 
L 343.371813 205.621461 
L 343.371813 203.849525 
L 343.371813 202.077588 
L 343.371813 200.305651 
L 343.371813 198.533715 
L 343.371813 196.761778 
L 343.371813 194.989842 
L 343.371813 193.217905 
L 343.371813 191.445968 
L 343.371813 189.674032 
L 343.371813 187.902095 
L 343.371813 186.130158 
L 343.371813 184.358222 
L 343.371813 182.586285 
L 343.371813 180.814349 
L 343.371813 179.042412 
L 343.371813 177.270475 
L 343.371813 175.498539 
L 343.371813 173.726602 
L 343.371813 171.954666 
L 343.371813 170.182729 
L 343.371813 168.410792 
L 342.04286 167.524824 
L 340.713908 166.638856 
L 340.713908 164.866919 
L 340.713908 163.094983 
L 340.713908 161.323046 
L 340.713908 159.551109 
L 340.713908 157.779173 
L 340.713908 156.007236 
L 340.713908 154.2353 
L 339.384956 153.349331 
L 338.056003 152.463363 
L 338.056003 150.691426 
L 338.056003 148.91949 
L 338.056003 147.147553 
L 338.056003 145.375617 
L 336.727051 144.489648 
L 335.398098 143.60368 
L 335.398098 141.831743 
L 335.398098 140.059807 
L 335.398098 138.28787 
L 334.069146 137.401902 
L 332.740193 136.515934 
L 332.740193 134.743997 
L 332.740193 132.97206 
L 332.740193 131.200124 
L 331.411241 130.314155 
L 330.082288 129.428187 
L 330.082288 127.65625 
L 330.082288 125.884314 
L 328.753336 124.998346 
L 327.424383 124.112377 
L 327.424383 122.340441 
L 327.424383 120.568504 
L 326.095431 119.682536 
L 324.766479 118.796567 
L 324.766479 117.024631 
L 324.766479 115.252694 
L 323.437526 114.366726 
L 322.108574 113.480758 
L 322.108574 111.708821 
L 320.779621 110.822853 
L 319.450669 109.936884 
L 319.450669 108.164948 
L 318.121716 107.27898 
L 316.792764 106.393011 
L 316.792764 104.621075 
L 316.792764 102.849138 
L 315.463811 101.96317 
L 314.134859 101.077201 
L 314.134859 99.305265 
L 312.805906 98.419296 
L 311.476954 97.533328 
L 311.476954 95.761392 
L 310.148002 94.875423 
L 308.819049 93.989455 
L 307.490097 93.103487 
L 306.161144 92.217518 
L 306.161144 90.445582 
L 304.832192 89.559613 
L 303.503239 88.673645 
L 303.503239 86.901709 
L 302.174287 86.01574 
L 300.845334 85.129772 
L 299.516382 84.243804 
L 298.187429 83.357835 
L 298.187429 81.585899 
L 296.858477 80.69993 
L 295.529525 79.813962 
L 294.200572 78.927994 
L 292.87162 78.042026 
L 291.542667 77.156057 
L 290.213715 76.270089 
L 290.213715 74.498152 
L 288.884762 73.612184 
L 287.55581 72.726216 
L 286.226857 71.840247 
L 284.897905 70.954279 
L 283.568952 70.068311 
L 280.911048 70.068311 
L 279.582095 70.954279 
L 278.253143 71.840247 
L 276.92419 72.726216 
L 275.595238 73.612184 
L 274.266285 74.498152 
L 274.266285 76.270089 
L 272.937333 77.156057 
L 271.60838 78.042026 
L 270.279428 78.927994 
L 268.950475 79.813962 
L 267.621523 80.69993 
L 266.292571 81.585899 
L 266.292571 83.357835 
L 264.963618 84.243804 
L 263.634666 85.129772 
L 262.305713 86.01574 
L 260.976761 86.901709 
L 260.976761 88.673645 
L 259.647808 89.559613 
L 258.318856 90.445582 
L 258.318856 92.217518 
L 256.989903 93.103487 
L 255.660951 93.989455 
L 254.331998 94.875423 
L 253.003046 95.761392 
L 253.003046 97.533328 
L 251.674094 98.419296 
L 250.345141 99.305265 
L 250.345141 101.077201 
L 249.016189 101.96317 
L 247.687236 102.849138 
L 247.687236 104.621075 
L 247.687236 106.393011 
L 246.358284 107.27898 
L 245.029331 108.164948 
L 245.029331 109.936884 
L 243.700379 110.822853 
L 242.371426 111.708821 
L 242.371426 113.480758 
L 241.042474 114.366726 
L 239.713521 115.252694 
L 239.713521 117.024631 
L 239.713521 118.796567 
L 238.384569 119.682536 
L 237.055617 120.568504 
L 237.055617 122.340441 
L 237.055617 124.112377 
L 235.726664 124.998346 
L 234.397712 125.884314 
L 234.397712 127.65625 
L 234.397712 129.428187 
L 233.068759 130.314155 
L 231.739807 131.200124 
L 231.739807 132.97206 
L 231.739807 134.743997 
L 231.739807 136.515934 
L 230.410854 137.401902 
L 229.081902 138.28787 
L 229.081902 140.059807 
L 229.081902 141.831743 
L 229.081902 143.60368 
L 227.752949 144.489648 
L 226.423997 145.375617 
L 226.423997 147.147553 
L 226.423997 148.91949 
L 226.423997 150.691426 
L 226.423997 152.463363 
L 225.095044 153.349331 
L 223.766092 154.2353 
L 223.766092 156.007236 
L 223.766092 157.779173 
L 223.766092 159.551109 
L 223.766092 161.323046 
L 223.766092 163.094983 
L 223.766092 164.866919 
L 223.766092 166.638856 
L 222.43714 167.524824 
L 221.108187 168.410792 
L 221.108187 170.182729 
L 221.108187 171.954666 
L 221.108187 173.726602 
L 221.108187 175.498539 
L 221.108187 177.270475 
L 221.108187 179.042412 
L 221.108187 180.814349 
L 221.108187 182.586285 
L 221.108187 184.358222 
L 221.108187 186.130158 
L 221.108187 187.902095 
L 221.108187 189.674032 
L 221.108187 191.445968 
L 221.108187 193.217905 
L 221.108187 194.989842 
L 221.108187 196.761778 
L 221.108187 198.533715 
L 221.108187 200.305651 
L 221.108187 202.077588 
L 221.108187 203.849525 
L 221.108187 205.621461 
L 221.108187 207.393398 
L 221.108187 209.165334 
L 221.108187 210.937271 
L 221.108187 212.709208 
L 222.43714 213.595176 
L 223.766092 214.481144 
L 223.766092 216.253081 
L 223.766092 218.025017 
L 223.766092 219.796954 
L 223.766092 221.568891 
L 223.766092 223.340827 
L 223.766092 225.112764 
L 223.766092 226.8847 
L 225.095044 227.770669 
L 226.423997 228.656637 
L 226.423997 230.428574 
L 226.423997 232.20051 
L 226.423997 233.972447 
L 226.423997 235.744383 
L 227.752949 236.630352 
L 229.081902 237.51632 
L 229.081902 239.288257 
L 229.081902 241.060193 
L 229.081902 242.83213 
L 230.410854 243.718098 
L 231.739807 244.604066 
L 231.739807 246.376003 
L 231.739807 248.14794 
L 231.739807 249.919876 
L 233.068759 250.805845 
L 234.397712 251.691813 
L 234.397712 253.46375 
L 234.397712 255.235686 
L 235.726664 256.121654 
L 237.055617 257.007623 
L 237.055617 258.779559 
L 237.055617 260.551496 
L 238.384569 261.437464 
L 239.713521 262.323433 
L 239.713521 264.095369 
L 239.713521 265.867306 
L 241.042474 266.753274 
L 242.371426 267.639242 
L 242.371426 269.411179 
L 243.700379 270.297147 
L 245.029331 271.183116 
L 245.029331 272.955052 
L 246.358284 273.84102 
L 247.687236 274.726989 
L 247.687236 276.498925 
L 247.687236 278.270862 
L 249.016189 279.15683 
L 250.345141 280.042799 
L 250.345141 281.814735 
L 251.674094 282.700704 
L 253.003046 283.586672 
L 253.003046 285.358608 
L 254.331998 286.244577 
L 255.660951 287.130545 
L 256.989903 288.016513 
L 258.318856 288.902482 
L 258.318856 290.674418 
L 259.647808 291.560387 
L 260.976761 292.446355 
L 260.976761 294.218291 
L 262.305713 295.10426 
L 263.634666 295.990228 
L 264.963618 296.876196 
L 266.292571 297.762165 
L 266.292571 299.534101 
L 267.621523 300.42007 
L 268.950475 301.306038 
L 270.279428 302.192006 
L 271.60838 303.077974 
L 272.937333 303.963943 
L 274.266285 304.849911 
L 274.266285 306.621848 
L 275.595238 307.507816 
L 276.92419 308.393784 
L 278.253143 309.279753 
L 279.582095 310.165721 
z
M 279.582095 310.165721 
L 278.253143 309.279753 
L 276.92419 308.393784 
L 275.595238 307.507816 
L 274.266285 306.621848 
L 274.266285 304.849911 
L 272.937333 303.963943 
L 271.60838 303.077974 
L 270.279428 302.192006 
L 268.950475 301.306038 
L 267.621523 300.42007 
L 266.292571 299.534101 
L 266.292571 297.762165 
L 264.963618 296.876196 
L 263.634666 295.990228 
L 262.305713 295.10426 
L 260.976761 294.218291 
L 260.976761 292.446355 
L 259.647808 291.560387 
L 258.318856 290.674418 
L 258.318856 288.902482 
L 256.989903 288.016513 
L 255.660951 287.130545 
L 254.331998 286.244577 
L 253.003046 285.358608 
L 253.003046 283.586672 
L 251.674094 282.700704 
L 250.345141 281.814735 
L 250.345141 280.042799 
L 249.016189 279.15683 
L 247.687236 278.270862 
L 247.687236 276.498925 
L 247.687236 274.726989 
L 246.358284 273.84102 
L 245.029331 272.955052 
L 245.029331 271.183116 
L 243.700379 270.297147 
L 242.371426 269.411179 
L 242.371426 267.639242 
L 241.042474 266.753274 
L 239.713521 265.867306 
L 239.713521 264.095369 
L 239.713521 262.323433 
L 238.384569 261.437464 
L 237.055617 260.551496 
L 237.055617 258.779559 
L 237.055617 257.007623 
L 235.726664 256.121654 
L 234.397712 255.235686 
L 234.397712 253.46375 
L 234.397712 251.691813 
L 233.068759 250.805845 
L 231.739807 249.919876 
L 231.739807 248.14794 
L 231.739807 246.376003 
L 231.739807 244.604066 
L 230.410854 243.718098 
L 229.081902 242.83213 
L 229.081902 241.060193 
L 229.081902 239.288257 
L 229.081902 237.51632 
L 227.752949 236.630352 
L 226.423997 235.744383 
L 226.423997 233.972447 
L 226.423997 232.20051 
L 226.423997 230.428574 
L 226.423997 228.656637 
L 225.095044 227.770669 
L 223.766092 226.8847 
L 223.766092 225.112764 
L 223.766092 223.340827 
L 223.766092 221.568891 
L 223.766092 219.796954 
L 223.766092 218.025017 
L 223.766092 216.253081 
L 223.766092 214.481144 
L 222.43714 213.595176 
L 221.108187 212.709208 
L 221.108187 210.937271 
L 221.108187 209.165334 
L 221.108187 207.393398 
L 221.108187 205.621461 
L 221.108187 203.849525 
L 221.108187 202.077588 
L 221.108187 200.305651 
L 221.108187 198.533715 
L 221.108187 196.761778 
L 221.108187 194.989842 
L 221.108187 193.217905 
L 221.108187 191.445968 
L 221.108187 189.674032 
L 221.108187 187.902095 
L 221.108187 186.130158 
L 221.108187 184.358222 
L 221.108187 182.586285 
L 221.108187 180.814349 
L 221.108187 179.042412 
L 221.108187 177.270475 
L 221.108187 175.498539 
L 221.108187 173.726602 
L 221.108187 171.954666 
L 221.108187 170.182729 
L 221.108187 168.410792 
L 222.43714 167.524824 
L 223.766092 166.638856 
L 223.766092 164.866919 
L 223.766092 163.094983 
L 223.766092 161.323046 
L 223.766092 159.551109 
L 223.766092 157.779173 
L 223.766092 156.007236 
L 223.766092 154.2353 
L 225.095044 153.349331 
L 226.423997 152.463363 
L 226.423997 150.691426 
L 226.423997 148.91949 
L 226.423997 147.147553 
L 226.423997 145.375617 
L 227.752949 144.489648 
L 229.081902 143.60368 
L 229.081902 141.831743 
L 229.081902 140.059807 
L 229.081902 138.28787 
L 230.410854 137.401902 
L 231.739807 136.515934 
L 231.739807 134.743997 
L 231.739807 132.97206 
L 231.739807 131.200124 
L 233.068759 130.314155 
L 234.397712 129.428187 
L 234.397712 127.65625 
L 234.397712 125.884314 
L 235.726664 124.998346 
L 237.055617 124.112377 
L 237.055617 122.340441 
L 237.055617 120.568504 
L 238.384569 119.682536 
L 239.713521 118.796567 
L 239.713521 117.024631 
L 239.713521 115.252694 
L 241.042474 114.366726 
L 242.371426 113.480758 
L 242.371426 111.708821 
L 243.700379 110.822853 
L 245.029331 109.936884 
L 245.029331 108.164948 
L 246.358284 107.27898 
L 247.687236 106.393011 
L 247.687236 104.621075 
L 247.687236 102.849138 
L 249.016189 101.96317 
L 250.345141 101.077201 
L 250.345141 99.305265 
L 251.674094 98.419296 
L 253.003046 97.533328 
L 253.003046 95.761392 
L 254.331998 94.875423 
L 255.660951 93.989455 
L 256.989903 93.103487 
L 258.318856 92.217518 
L 258.318856 90.445582 
L 259.647808 89.559613 
L 260.976761 88.673645 
L 260.976761 86.901709 
L 262.305713 86.01574 
L 263.634666 85.129772 
L 264.963618 84.243804 
L 266.292571 83.357835 
L 266.292571 81.585899 
L 267.621523 80.69993 
L 268.950475 79.813962 
L 270.279428 78.927994 
L 271.60838 78.042026 
L 272.937333 77.156057 
L 274.266285 76.270089 
L 274.266285 74.498152 
L 275.595238 73.612184 
L 276.92419 72.726216 
L 278.253143 71.840247 
L 279.582095 70.954279 
L 280.911048 70.068311 
L 283.568952 70.068311 
L 284.897905 70.954279 
L 286.226857 71.840247 
L 287.55581 72.726216 
L 288.884762 73.612184 
L 290.213715 74.498152 
L 290.213715 76.270089 
L 291.542667 77.156057 
L 292.87162 78.042026 
L 294.200572 78.927994 
L 295.529525 79.813962 
L 296.858477 80.69993 
L 298.187429 81.585899 
L 298.187429 83.357835 
L 299.516382 84.243804 
L 300.845334 85.129772 
L 302.174287 86.01574 
L 303.503239 86.901709 
L 303.503239 88.673645 
L 304.832192 89.559613 
L 306.161144 90.445582 
L 306.161144 92.217518 
L 307.490097 93.103487 
L 308.819049 93.989455 
L 310.148002 94.875423 
L 311.476954 95.761392 
L 311.476954 97.533328 
L 312.805906 98.419296 
L 314.134859 99.305265 
L 314.134859 101.077201 
L 315.463811 101.96317 
L 316.792764 102.849138 
L 316.792764 104.621075 
L 316.792764 106.393011 
L 318.121716 107.27898 
L 319.450669 108.164948 
L 319.450669 109.936884 
L 320.779621 110.822853 
L 322.108574 111.708821 
L 322.108574 113.480758 
L 323.437526 114.366726 
L 324.766479 115.252694 
L 324.766479 117.024631 
L 324.766479 118.796567 
L 326.095431 119.682536 
L 327.424383 120.568504 
L 327.424383 122.340441 
L 327.424383 124.112377 
L 328.753336 124.998346 
L 330.082288 125.884314 
L 330.082288 127.65625 
L 330.082288 129.428187 
L 331.411241 130.314155 
L 332.740193 131.200124 
L 332.740193 132.97206 
L 332.740193 134.743997 
L 332.740193 136.515934 
L 334.069146 137.401902 
L 335.398098 138.28787 
L 335.398098 140.059807 
L 335.398098 141.831743 
L 335.398098 143.60368 
L 336.727051 144.489648 
L 338.056003 145.375617 
L 338.056003 147.147553 
L 338.056003 148.91949 
L 338.056003 150.691426 
L 338.056003 152.463363 
L 339.384956 153.349331 
L 340.713908 154.2353 
L 340.713908 156.007236 
L 340.713908 157.779173 
L 340.713908 159.551109 
L 340.713908 161.323046 
L 340.713908 163.094983 
L 340.713908 164.866919 
L 340.713908 166.638856 
L 342.04286 167.524824 
L 343.371813 168.410792 
L 343.371813 170.182729 
L 343.371813 171.954666 
L 343.371813 173.726602 
L 343.371813 175.498539 
L 343.371813 177.270475 
L 343.371813 179.042412 
L 343.371813 180.814349 
L 343.371813 182.586285 
L 343.371813 184.358222 
L 343.371813 186.130158 
L 343.371813 187.902095 
L 343.371813 189.674032 
L 343.371813 191.445968 
L 343.371813 193.217905 
L 343.371813 194.989842 
L 343.371813 196.761778 
L 343.371813 198.533715 
L 343.371813 200.305651 
L 343.371813 202.077588 
L 343.371813 203.849525 
L 343.371813 205.621461 
L 343.371813 207.393398 
L 343.371813 209.165334 
L 343.371813 210.937271 
L 343.371813 212.709208 
L 342.04286 213.595176 
L 340.713908 214.481144 
L 340.713908 216.253081 
L 340.713908 218.025017 
L 340.713908 219.796954 
L 340.713908 221.568891 
L 340.713908 223.340827 
L 340.713908 225.112764 
L 340.713908 226.8847 
L 339.384956 227.770669 
L 338.056003 228.656637 
L 338.056003 230.428574 
L 338.056003 232.20051 
L 338.056003 233.972447 
L 338.056003 235.744383 
L 336.727051 236.630352 
L 335.398098 237.51632 
L 335.398098 239.288257 
L 335.398098 241.060193 
L 335.398098 242.83213 
L 334.069146 243.718098 
L 332.740193 244.604066 
L 332.740193 246.376003 
L 332.740193 248.14794 
L 332.740193 249.919876 
L 331.411241 250.805845 
L 330.082288 251.691813 
L 330.082288 253.46375 
L 330.082288 255.235686 
L 328.753336 256.121654 
L 327.424383 257.007623 
L 327.424383 258.779559 
L 327.424383 260.551496 
L 326.095431 261.437464 
L 324.766479 262.323433 
L 324.766479 264.095369 
L 324.766479 265.867306 
L 323.437526 266.753274 
L 322.108574 267.639242 
L 322.108574 269.411179 
L 320.779621 270.297147 
L 319.450669 271.183116 
L 319.450669 272.955052 
L 318.121716 273.84102 
L 316.792764 274.726989 
L 316.792764 276.498925 
L 316.792764 278.270862 
L 315.463811 279.15683 
L 314.134859 280.042799 
L 314.134859 281.814735 
L 312.805906 282.700704 
L 311.476954 283.586672 
L 311.476954 285.358608 
L 310.148002 286.244577 
L 308.819049 287.130545 
L 307.490097 288.016513 
L 306.161144 288.902482 
L 306.161144 290.674418 
L 304.832192 291.560387 
L 303.503239 292.446355 
L 303.503239 294.218291 
L 302.174287 295.10426 
L 300.845334 295.990228 
L 299.516382 296.876196 
L 298.187429 297.762165 
L 298.187429 299.534101 
L 296.858477 300.42007 
L 295.529525 301.306038 
L 294.200572 302.192006 
L 292.87162 303.077974 
L 291.542667 303.963943 
L 290.213715 304.849911 
L 290.213715 306.621848 
L 288.884762 307.507816 
L 287.55581 308.393784 
L 286.226857 309.279753 
L 284.897905 310.165721 
L 283.568952 311.051689 
L 280.911048 311.051689 
z
" style="fill:#add8e6;"/>
   </g>
   <g id="PathCollection_3">
    <path clip-path="url(#pb37adf30be)" d="M 280.911048 311.051689 
L 283.568952 311.051689 
L 284.897905 310.165721 
L 286.226857 309.279753 
L 287.55581 308.393784 
L 288.884762 307.507816 
L 290.213715 306.621848 
L 290.213715 304.849911 
L 291.542667 303.963943 
L 292.87162 303.077974 
L 294.200572 302.192006 
L 295.529525 301.306038 
L 296.858477 300.42007 
L 298.187429 299.534101 
L 298.187429 297.762165 
L 299.516382 296.876196 
L 300.845334 295.990228 
L 302.174287 295.10426 
L 303.503239 294.218291 
L 303.503239 292.446355 
L 304.832192 291.560387 
L 306.161144 290.674418 
L 306.161144 288.902482 
L 307.490097 288.016513 
L 308.819049 287.130545 
L 310.148002 286.244577 
L 311.476954 285.358608 
L 311.476954 283.586672 
L 312.805906 282.700704 
L 314.134859 281.814735 
L 314.134859 280.042799 
L 315.463811 279.15683 
L 316.792764 278.270862 
L 316.792764 276.498925 
L 316.792764 274.726989 
L 318.121716 273.84102 
L 319.450669 272.955052 
L 319.450669 271.183116 
L 320.779621 270.297147 
L 322.108574 269.411179 
L 322.108574 267.639242 
L 323.437526 266.753274 
L 324.766479 265.867306 
L 324.766479 264.095369 
L 324.766479 262.323433 
L 326.095431 261.437464 
L 327.424383 260.551496 
L 327.424383 258.779559 
L 327.424383 257.007623 
L 328.753336 256.121654 
L 330.082288 255.235686 
L 330.082288 253.46375 
L 330.082288 251.691813 
L 331.411241 250.805845 
L 332.740193 249.919876 
L 332.740193 248.14794 
L 332.740193 246.376003 
L 332.740193 244.604066 
L 334.069146 243.718098 
L 335.398098 242.83213 
L 335.398098 241.060193 
L 335.398098 239.288257 
L 335.398098 237.51632 
L 336.727051 236.630352 
L 338.056003 235.744383 
L 338.056003 233.972447 
L 338.056003 232.20051 
L 338.056003 230.428574 
L 338.056003 228.656637 
L 339.384956 227.770669 
L 340.713908 226.8847 
L 340.713908 225.112764 
L 340.713908 223.340827 
L 340.713908 221.568891 
L 340.713908 219.796954 
L 340.713908 218.025017 
L 340.713908 216.253081 
L 340.713908 214.481144 
L 342.04286 213.595176 
L 343.371813 212.709208 
L 343.371813 210.937271 
L 343.371813 209.165334 
L 343.371813 207.393398 
L 343.371813 205.621461 
L 343.371813 203.849525 
L 343.371813 202.077588 
L 343.371813 200.305651 
L 343.371813 198.533715 
L 343.371813 196.761778 
L 343.371813 194.989842 
L 343.371813 193.217905 
L 343.371813 191.445968 
L 343.371813 189.674032 
L 343.371813 187.902095 
L 343.371813 186.130158 
L 343.371813 184.358222 
L 343.371813 182.586285 
L 343.371813 180.814349 
L 343.371813 179.042412 
L 343.371813 177.270475 
L 343.371813 175.498539 
L 343.371813 173.726602 
L 343.371813 171.954666 
L 343.371813 170.182729 
L 343.371813 168.410792 
L 342.04286 167.524824 
L 340.713908 166.638856 
L 340.713908 164.866919 
L 340.713908 163.094983 
L 340.713908 161.323046 
L 340.713908 159.551109 
L 340.713908 157.779173 
L 340.713908 156.007236 
L 340.713908 154.2353 
L 339.384956 153.349331 
L 338.056003 152.463363 
L 338.056003 150.691426 
L 338.056003 148.91949 
L 338.056003 147.147553 
L 338.056003 145.375617 
L 336.727051 144.489648 
L 335.398098 143.60368 
L 335.398098 141.831743 
L 335.398098 140.059807 
L 335.398098 138.28787 
L 334.069146 137.401902 
L 332.740193 136.515934 
L 332.740193 134.743997 
L 332.740193 132.97206 
L 332.740193 131.200124 
L 331.411241 130.314155 
L 330.082288 129.428187 
L 330.082288 127.65625 
L 330.082288 125.884314 
L 328.753336 124.998346 
L 327.424383 124.112377 
L 327.424383 122.340441 
L 327.424383 120.568504 
L 326.095431 119.682536 
L 324.766479 118.796567 
L 324.766479 117.024631 
L 324.766479 115.252694 
L 323.437526 114.366726 
L 322.108574 113.480758 
L 322.108574 111.708821 
L 320.779621 110.822853 
L 319.450669 109.936884 
L 319.450669 108.164948 
L 318.121716 107.27898 
L 316.792764 106.393011 
L 316.792764 104.621075 
L 316.792764 102.849138 
L 315.463811 101.96317 
L 314.134859 101.077201 
L 314.134859 99.305265 
L 312.805906 98.419296 
L 311.476954 97.533328 
L 311.476954 95.761392 
L 310.148002 94.875423 
L 308.819049 93.989455 
L 307.490097 93.103487 
L 306.161144 92.217518 
L 306.161144 90.445582 
L 304.832192 89.559613 
L 303.503239 88.673645 
L 303.503239 86.901709 
L 302.174287 86.01574 
L 300.845334 85.129772 
L 299.516382 84.243804 
L 298.187429 83.357835 
L 298.187429 81.585899 
L 296.858477 80.69993 
L 295.529525 79.813962 
L 294.200572 78.927994 
L 292.87162 78.042026 
L 291.542667 77.156057 
L 290.213715 76.270089 
L 290.213715 74.498152 
L 288.884762 73.612184 
L 287.55581 72.726216 
L 286.226857 71.840247 
L 284.897905 70.954279 
L 283.568952 70.068311 
L 280.911048 70.068311 
L 279.582095 70.954279 
L 278.253143 71.840247 
L 276.92419 72.726216 
L 275.595238 73.612184 
L 274.266285 74.498152 
L 274.266285 76.270089 
L 272.937333 77.156057 
L 271.60838 78.042026 
L 270.279428 78.927994 
L 268.950475 79.813962 
L 267.621523 80.69993 
L 266.292571 81.585899 
L 266.292571 83.357835 
L 264.963618 84.243804 
L 263.634666 85.129772 
L 262.305713 86.01574 
L 260.976761 86.901709 
L 260.976761 88.673645 
L 259.647808 89.559613 
L 258.318856 90.445582 
L 258.318856 92.217518 
L 256.989903 93.103487 
L 255.660951 93.989455 
L 254.331998 94.875423 
L 253.003046 95.761392 
L 253.003046 97.533328 
L 251.674094 98.419296 
L 250.345141 99.305265 
L 250.345141 101.077201 
L 249.016189 101.96317 
L 247.687236 102.849138 
L 247.687236 104.621075 
L 247.687236 106.393011 
L 246.358284 107.27898 
L 245.029331 108.164948 
L 245.029331 109.936884 
L 243.700379 110.822853 
L 242.371426 111.708821 
L 242.371426 113.480758 
L 241.042474 114.366726 
L 239.713521 115.252694 
L 239.713521 117.024631 
L 239.713521 118.796567 
L 238.384569 119.682536 
L 237.055617 120.568504 
L 237.055617 122.340441 
L 237.055617 124.112377 
L 235.726664 124.998346 
L 234.397712 125.884314 
L 234.397712 127.65625 
L 234.397712 129.428187 
L 233.068759 130.314155 
L 231.739807 131.200124 
L 231.739807 132.97206 
L 231.739807 134.743997 
L 231.739807 136.515934 
L 230.410854 137.401902 
L 229.081902 138.28787 
L 229.081902 140.059807 
L 229.081902 141.831743 
L 229.081902 143.60368 
L 227.752949 144.489648 
L 226.423997 145.375617 
L 226.423997 147.147553 
L 226.423997 148.91949 
L 226.423997 150.691426 
L 226.423997 152.463363 
L 225.095044 153.349331 
L 223.766092 154.2353 
L 223.766092 156.007236 
L 223.766092 157.779173 
L 223.766092 159.551109 
L 223.766092 161.323046 
L 223.766092 163.094983 
L 223.766092 164.866919 
L 223.766092 166.638856 
L 222.43714 167.524824 
L 221.108187 168.410792 
L 221.108187 170.182729 
L 221.108187 171.954666 
L 221.108187 173.726602 
L 221.108187 175.498539 
L 221.108187 177.270475 
L 221.108187 179.042412 
L 221.108187 180.814349 
L 221.108187 182.586285 
L 221.108187 184.358222 
L 221.108187 186.130158 
L 221.108187 187.902095 
L 221.108187 189.674032 
L 221.108187 191.445968 
L 221.108187 193.217905 
L 221.108187 194.989842 
L 221.108187 196.761778 
L 221.108187 198.533715 
L 221.108187 200.305651 
L 221.108187 202.077588 
L 221.108187 203.849525 
L 221.108187 205.621461 
L 221.108187 207.393398 
L 221.108187 209.165334 
L 221.108187 210.937271 
L 221.108187 212.709208 
L 222.43714 213.595176 
L 223.766092 214.481144 
L 223.766092 216.253081 
L 223.766092 218.025017 
L 223.766092 219.796954 
L 223.766092 221.568891 
L 223.766092 223.340827 
L 223.766092 225.112764 
L 223.766092 226.8847 
L 225.095044 227.770669 
L 226.423997 228.656637 
L 226.423997 230.428574 
L 226.423997 232.20051 
L 226.423997 233.972447 
L 226.423997 235.744383 
L 227.752949 236.630352 
L 229.081902 237.51632 
L 229.081902 239.288257 
L 229.081902 241.060193 
L 229.081902 242.83213 
L 230.410854 243.718098 
L 231.739807 244.604066 
L 231.739807 246.376003 
L 231.739807 248.14794 
L 231.739807 249.919876 
L 233.068759 250.805845 
L 234.397712 251.691813 
L 234.397712 253.46375 
L 234.397712 255.235686 
L 235.726664 256.121654 
L 237.055617 257.007623 
L 237.055617 258.779559 
L 237.055617 260.551496 
L 238.384569 261.437464 
L 239.713521 262.323433 
L 239.713521 264.095369 
L 239.713521 265.867306 
L 241.042474 266.753274 
L 242.371426 267.639242 
L 242.371426 269.411179 
L 243.700379 270.297147 
L 245.029331 271.183116 
L 245.029331 272.955052 
L 246.358284 273.84102 
L 247.687236 274.726989 
L 247.687236 276.498925 
L 247.687236 278.270862 
L 249.016189 279.15683 
L 250.345141 280.042799 
L 250.345141 281.814735 
L 251.674094 282.700704 
L 253.003046 283.586672 
L 253.003046 285.358608 
L 254.331998 286.244577 
L 255.660951 287.130545 
L 256.989903 288.016513 
L 258.318856 288.902482 
L 258.318856 290.674418 
L 259.647808 291.560387 
L 260.976761 292.446355 
L 260.976761 294.218291 
L 262.305713 295.10426 
L 263.634666 295.990228 
L 264.963618 296.876196 
L 266.292571 297.762165 
L 266.292571 299.534101 
L 267.621523 300.42007 
L 268.950475 301.306038 
L 270.279428 302.192006 
L 271.60838 303.077974 
L 272.937333 303.963943 
L 274.266285 304.849911 
L 274.266285 306.621848 
L 275.595238 307.507816 
L 276.92419 308.393784 
L 278.253143 309.279753 
L 279.582095 310.165721 
z
M 279.582095 310.165721 
L 278.253143 309.279753 
L 276.92419 308.393784 
L 275.595238 307.507816 
L 274.266285 306.621848 
L 274.266285 304.849911 
L 272.937333 303.963943 
L 271.60838 303.077974 
L 270.279428 302.192006 
L 268.950475 301.306038 
L 267.621523 300.42007 
L 266.292571 299.534101 
L 266.292571 297.762165 
L 264.963618 296.876196 
L 263.634666 295.990228 
L 262.305713 295.10426 
L 260.976761 294.218291 
L 260.976761 292.446355 
L 259.647808 291.560387 
L 258.318856 290.674418 
L 258.318856 288.902482 
L 256.989903 288.016513 
L 255.660951 287.130545 
L 254.331998 286.244577 
L 253.003046 285.358608 
L 253.003046 283.586672 
L 251.674094 282.700704 
L 250.345141 281.814735 
L 250.345141 280.042799 
L 249.016189 279.15683 
L 247.687236 278.270862 
L 247.687236 276.498925 
L 247.687236 274.726989 
L 246.358284 273.84102 
L 245.029331 272.955052 
L 245.029331 271.183116 
L 243.700379 270.297147 
L 242.371426 269.411179 
L 242.371426 267.639242 
L 241.042474 266.753274 
L 239.713521 265.867306 
L 239.713521 264.095369 
L 239.713521 262.323433 
L 238.384569 261.437464 
L 237.055617 260.551496 
L 237.055617 258.779559 
L 237.055617 257.007623 
L 235.726664 256.121654 
L 234.397712 255.235686 
L 234.397712 253.46375 
L 234.397712 251.691813 
L 233.068759 250.805845 
L 231.739807 249.919876 
L 231.739807 248.14794 
L 231.739807 246.376003 
L 231.739807 244.604066 
L 230.410854 243.718098 
L 229.081902 242.83213 
L 229.081902 241.060193 
L 229.081902 239.288257 
L 229.081902 237.51632 
L 227.752949 236.630352 
L 226.423997 235.744383 
L 226.423997 233.972447 
L 226.423997 232.20051 
L 226.423997 230.428574 
L 226.423997 228.656637 
L 225.095044 227.770669 
L 223.766092 226.8847 
L 223.766092 225.112764 
L 223.766092 223.340827 
L 223.766092 221.568891 
L 223.766092 219.796954 
L 223.766092 218.025017 
L 223.766092 216.253081 
L 223.766092 214.481144 
L 222.43714 213.595176 
L 221.108187 212.709208 
L 221.108187 210.937271 
L 221.108187 209.165334 
L 221.108187 207.393398 
L 221.108187 205.621461 
L 221.108187 203.849525 
L 221.108187 202.077588 
L 221.108187 200.305651 
L 221.108187 198.533715 
L 221.108187 196.761778 
L 221.108187 194.989842 
L 221.108187 193.217905 
L 221.108187 191.445968 
L 221.108187 189.674032 
L 221.108187 187.902095 
L 221.108187 186.130158 
L 221.108187 184.358222 
L 221.108187 182.586285 
L 221.108187 180.814349 
L 221.108187 179.042412 
L 221.108187 177.270475 
L 221.108187 175.498539 
L 221.108187 173.726602 
L 221.108187 171.954666 
L 221.108187 170.182729 
L 221.108187 168.410792 
L 222.43714 167.524824 
L 223.766092 166.638856 
L 223.766092 164.866919 
L 223.766092 163.094983 
L 223.766092 161.323046 
L 223.766092 159.551109 
L 223.766092 157.779173 
L 223.766092 156.007236 
L 223.766092 154.2353 
L 225.095044 153.349331 
L 226.423997 152.463363 
L 226.423997 150.691426 
L 226.423997 148.91949 
L 226.423997 147.147553 
L 226.423997 145.375617 
L 227.752949 144.489648 
L 229.081902 143.60368 
L 229.081902 141.831743 
L 229.081902 140.059807 
L 229.081902 138.28787 
L 230.410854 137.401902 
L 231.739807 136.515934 
L 231.739807 134.743997 
L 231.739807 132.97206 
L 231.739807 131.200124 
L 233.068759 130.314155 
L 234.397712 129.428187 
L 234.397712 127.65625 
L 234.397712 125.884314 
L 235.726664 124.998346 
L 237.055617 124.112377 
L 237.055617 122.340441 
L 237.055617 120.568504 
L 238.384569 119.682536 
L 239.713521 118.796567 
L 239.713521 117.024631 
L 239.713521 115.252694 
L 241.042474 114.366726 
L 242.371426 113.480758 
L 242.371426 111.708821 
L 243.700379 110.822853 
L 245.029331 109.936884 
L 245.029331 108.164948 
L 246.358284 107.27898 
L 247.687236 106.393011 
L 247.687236 104.621075 
L 247.687236 102.849138 
L 249.016189 101.96317 
L 250.345141 101.077201 
L 250.345141 99.305265 
L 251.674094 98.419296 
L 253.003046 97.533328 
L 253.003046 95.761392 
L 254.331998 94.875423 
L 255.660951 93.989455 
L 256.989903 93.103487 
L 258.318856 92.217518 
L 258.318856 90.445582 
L 259.647808 89.559613 
L 260.976761 88.673645 
L 260.976761 86.901709 
L 262.305713 86.01574 
L 263.634666 85.129772 
L 264.963618 84.243804 
L 266.292571 83.357835 
L 266.292571 81.585899 
L 267.621523 80.69993 
L 268.950475 79.813962 
L 270.279428 78.927994 
L 271.60838 78.042026 
L 272.937333 77.156057 
L 274.266285 76.270089 
L 274.266285 74.498152 
L 275.595238 73.612184 
L 276.92419 72.726216 
L 278.253143 71.840247 
L 279.582095 70.954279 
L 280.911048 70.068311 
L 283.568952 70.068311 
L 284.897905 70.954279 
L 286.226857 71.840247 
L 287.55581 72.726216 
L 288.884762 73.612184 
L 290.213715 74.498152 
L 290.213715 76.270089 
L 291.542667 77.156057 
L 292.87162 78.042026 
L 294.200572 78.927994 
L 295.529525 79.813962 
L 296.858477 80.69993 
L 298.187429 81.585899 
L 298.187429 83.357835 
L 299.516382 84.243804 
L 300.845334 85.129772 
L 302.174287 86.01574 
L 303.503239 86.901709 
L 303.503239 88.673645 
L 304.832192 89.559613 
L 306.161144 90.445582 
L 306.161144 92.217518 
L 307.490097 93.103487 
L 308.819049 93.989455 
L 310.148002 94.875423 
L 311.476954 95.761392 
L 311.476954 97.533328 
L 312.805906 98.419296 
L 314.134859 99.305265 
L 314.134859 101.077201 
L 315.463811 101.96317 
L 316.792764 102.849138 
L 316.792764 104.621075 
L 316.792764 106.393011 
L 318.121716 107.27898 
L 319.450669 108.164948 
L 319.450669 109.936884 
L 320.779621 110.822853 
L 322.108574 111.708821 
L 322.108574 113.480758 
L 323.437526 114.366726 
L 324.766479 115.252694 
L 324.766479 117.024631 
L 324.766479 118.796567 
L 326.095431 119.682536 
L 327.424383 120.568504 
L 327.424383 122.340441 
L 327.424383 124.112377 
L 328.753336 124.998346 
L 330.082288 125.884314 
L 330.082288 127.65625 
L 330.082288 129.428187 
L 331.411241 130.314155 
L 332.740193 131.200124 
L 332.740193 132.97206 
L 332.740193 134.743997 
L 332.740193 136.515934 
L 334.069146 137.401902 
L 335.398098 138.28787 
L 335.398098 140.059807 
L 335.398098 141.831743 
L 335.398098 143.60368 
L 336.727051 144.489648 
L 338.056003 145.375617 
L 338.056003 147.147553 
L 338.056003 148.91949 
L 338.056003 150.691426 
L 338.056003 152.463363 
L 339.384956 153.349331 
L 340.713908 154.2353 
L 340.713908 156.007236 
L 340.713908 157.779173 
L 340.713908 159.551109 
L 340.713908 161.323046 
L 340.713908 163.094983 
L 340.713908 164.866919 
L 340.713908 166.638856 
L 342.04286 167.524824 
L 343.371813 168.410792 
L 343.371813 170.182729 
L 343.371813 171.954666 
L 343.371813 173.726602 
L 343.371813 175.498539 
L 343.371813 177.270475 
L 343.371813 179.042412 
L 343.371813 180.814349 
L 343.371813 182.586285 
L 343.371813 184.358222 
L 343.371813 186.130158 
L 343.371813 187.902095 
L 343.371813 189.674032 
L 343.371813 191.445968 
L 343.371813 193.217905 
L 343.371813 194.989842 
L 343.371813 196.761778 
L 343.371813 198.533715 
L 343.371813 200.305651 
L 343.371813 202.077588 
L 343.371813 203.849525 
L 343.371813 205.621461 
L 343.371813 207.393398 
L 343.371813 209.165334 
L 343.371813 210.937271 
L 343.371813 212.709208 
L 342.04286 213.595176 
L 340.713908 214.481144 
L 340.713908 216.253081 
L 340.713908 218.025017 
L 340.713908 219.796954 
L 340.713908 221.568891 
L 340.713908 223.340827 
L 340.713908 225.112764 
L 340.713908 226.8847 
L 339.384956 227.770669 
L 338.056003 228.656637 
L 338.056003 230.428574 
L 338.056003 232.20051 
L 338.056003 233.972447 
L 338.056003 235.744383 
L 336.727051 236.630352 
L 335.398098 237.51632 
L 335.398098 239.288257 
L 335.398098 241.060193 
L 335.398098 242.83213 
L 334.069146 243.718098 
L 332.740193 244.604066 
L 332.740193 246.376003 
L 332.740193 248.14794 
L 332.740193 249.919876 
L 331.411241 250.805845 
L 330.082288 251.691813 
L 330.082288 253.46375 
L 330.082288 255.235686 
L 328.753336 256.121654 
L 327.424383 257.007623 
L 327.424383 258.779559 
L 327.424383 260.551496 
L 326.095431 261.437464 
L 324.766479 262.323433 
L 324.766479 264.095369 
L 324.766479 265.867306 
L 323.437526 266.753274 
L 322.108574 267.639242 
L 322.108574 269.411179 
L 320.779621 270.297147 
L 319.450669 271.183116 
L 319.450669 272.955052 
L 318.121716 273.84102 
L 316.792764 274.726989 
L 316.792764 276.498925 
L 316.792764 278.270862 
L 315.463811 279.15683 
L 314.134859 280.042799 
L 314.134859 281.814735 
L 312.805906 282.700704 
L 311.476954 283.586672 
L 311.476954 285.358608 
L 310.148002 286.244577 
L 308.819049 287.130545 
L 307.490097 288.016513 
L 306.161144 288.902482 
L 306.161144 290.674418 
L 304.832192 291.560387 
L 303.503239 292.446355 
L 303.503239 294.218291 
L 302.174287 295.10426 
L 300.845334 295.990228 
L 299.516382 296.876196 
L 298.187429 297.762165 
L 298.187429 299.534101 
L 296.858477 300.42007 
L 295.529525 301.306038 
L 294.200572 302.192006 
L 292.87162 303.077974 
L 291.542667 303.963943 
L 290.213715 304.849911 
L 290.213715 306.621848 
L 288.884762 307.507816 
L 287.55581 308.393784 
L 286.226857 309.279753 
L 284.897905 310.165721 
L 283.568952 311.051689 
L 280.911048 311.051689 
z
" style="fill:#ffffff;"/>
   </g>
   <g id="PathCollection_4">
    <path clip-path="url(#pb37adf30be)" d="M 20.436366 366.867692 
L 23.094271 366.867692 
L 25.752176 366.867692 
L 28.410081 366.867692 
L 31.067986 366.867692 
L 33.725891 366.867692 
L 36.383796 366.867692 
L 39.041701 366.867692 
L 41.699606 366.867692 
L 44.357511 366.867692 
L 47.015416 366.867692 
L 49.67332 366.867692 
L 52.331225 366.867692 
L 54.98913 366.867692 
L 57.647035 366.867692 
L 60.30494 366.867692 
L 62.962845 366.867692 
L 65.62075 366.867692 
L 68.278655 366.867692 
L 70.93656 366.867692 
L 73.594465 366.867692 
L 76.25237 366.867692 
L 78.910274 366.867692 
L 81.568179 366.867692 
L 84.226084 366.867692 
L 86.883989 366.867692 
L 89.541894 366.867692 
L 92.199799 366.867692 
L 94.857704 366.867692 
L 97.515609 366.867692 
L 100.173514 366.867692 
L 102.831419 366.867692 
L 105.489324 366.867692 
L 108.147228 366.867692 
L 110.805133 366.867692 
L 113.463038 366.867692 
L 116.120943 366.867692 
L 118.778848 366.867692 
L 121.436753 366.867692 
L 124.094658 366.867692 
L 126.752563 366.867692 
L 129.410468 366.867692 
L 132.068373 366.867692 
L 134.726278 366.867692 
L 137.384182 366.867692 
L 140.042087 366.867692 
L 142.699992 366.867692 
L 145.357897 366.867692 
L 148.015802 366.867692 
L 150.673707 366.867692 
L 153.331612 366.867692 
L 155.989517 366.867692 
L 158.647422 366.867692 
L 161.305327 366.867692 
L 163.963232 366.867692 
L 166.621136 366.867692 
L 169.279041 366.867692 
L 171.936946 366.867692 
L 174.594851 366.867692 
L 177.252756 366.867692 
L 179.910661 366.867692 
L 182.568566 366.867692 
L 185.226471 366.867692 
L 187.884376 366.867692 
L 190.542281 366.867692 
L 193.200186 366.867692 
L 195.85809 366.867692 
L 198.515995 366.867692 
L 201.1739 366.867692 
L 203.831805 366.867692 
L 206.48971 366.867692 
L 209.147615 366.867692 
L 211.80552 366.867692 
L 214.463425 366.867692 
L 217.12133 366.867692 
L 219.779235 366.867692 
L 222.43714 366.867692 
L 225.095044 366.867692 
L 227.752949 366.867692 
L 230.410854 366.867692 
L 233.068759 366.867692 
L 235.726664 366.867692 
L 238.384569 366.867692 
L 241.042474 366.867692 
L 243.700379 366.867692 
L 246.358284 366.867692 
L 249.016189 366.867692 
L 251.674094 366.867692 
L 254.331998 366.867692 
L 256.989903 366.867692 
L 259.647808 366.867692 
L 262.305713 366.867692 
L 264.963618 366.867692 
L 267.621523 366.867692 
L 270.279428 366.867692 
L 272.937333 366.867692 
L 275.595238 366.867692 
L 278.253143 366.867692 
L 280.911048 366.867692 
L 283.568952 366.867692 
L 286.226857 366.867692 
L 288.884762 366.867692 
L 291.542667 366.867692 
L 294.200572 366.867692 
L 296.858477 366.867692 
L 299.516382 366.867692 
L 302.174287 366.867692 
L 304.832192 366.867692 
L 307.490097 366.867692 
L 310.148002 366.867692 
L 312.805906 366.867692 
L 315.463811 366.867692 
L 318.121716 366.867692 
L 320.779621 366.867692 
L 323.437526 366.867692 
L 326.095431 366.867692 
L 328.753336 366.867692 
L 331.411241 366.867692 
L 334.069146 366.867692 
L 336.727051 366.867692 
L 339.384956 366.867692 
L 342.04286 366.867692 
L 344.700765 366.867692 
L 347.35867 366.867692 
L 350.016575 366.867692 
L 352.67448 366.867692 
L 355.332385 366.867692 
L 357.99029 366.867692 
L 360.648195 366.867692 
L 363.3061 366.867692 
L 365.964005 366.867692 
L 368.62191 366.867692 
L 371.279814 366.867692 
L 373.937719 366.867692 
L 376.595624 366.867692 
L 379.253529 366.867692 
L 381.911434 366.867692 
L 384.569339 366.867692 
L 387.227244 366.867692 
L 389.885149 366.867692 
L 392.543054 366.867692 
L 395.200959 366.867692 
L 397.858864 366.867692 
L 400.516768 366.867692 
L 403.174673 366.867692 
L 405.832578 366.867692 
L 408.490483 366.867692 
L 411.148388 366.867692 
L 413.806293 366.867692 
L 416.464198 366.867692 
L 419.122103 366.867692 
L 421.780008 366.867692 
L 424.437913 366.867692 
L 427.095818 366.867692 
L 429.753722 366.867692 
L 432.411627 366.867692 
L 435.069532 366.867692 
L 437.727437 366.867692 
L 440.385342 366.867692 
L 443.043247 366.867692 
L 445.701152 366.867692 
L 448.359057 366.867692 
L 451.016962 366.867692 
L 453.674867 366.867692 
L 456.332772 366.867692 
L 458.990676 366.867692 
L 461.648581 366.867692 
L 464.306486 366.867692 
L 466.964391 366.867692 
L 469.622296 366.867692 
L 472.280201 366.867692 
L 474.938106 366.867692 
L 477.596011 366.867692 
L 480.253916 366.867692 
L 482.911821 366.867692 
L 485.569726 366.867692 
L 488.22763 366.867692 
L 490.885535 366.867692 
L 493.54344 366.867692 
L 496.201345 366.867692 
L 498.85925 366.867692 
L 501.517155 366.867692 
L 504.17506 366.867692 
L 506.832965 366.867692 
L 509.49087 366.867692 
L 512.148775 366.867692 
L 514.80668 366.867692 
L 517.464584 366.867692 
L 520.122489 366.867692 
L 522.780394 366.867692 
L 525.438299 366.867692 
L 528.096204 366.867692 
L 530.754109 366.867692 
L 533.412014 366.867692 
L 536.069919 366.867692 
L 538.727824 366.867692 
L 541.385729 366.867692 
L 544.043634 366.867692 
L 546.701538 366.867692 
L 546.701538 365.095756 
L 546.701538 363.323819 
L 546.701538 361.551882 
L 546.701538 359.779946 
L 546.701538 358.008009 
L 546.701538 356.236073 
L 546.701538 354.464136 
L 546.701538 352.692199 
L 546.701538 350.920263 
L 546.701538 349.148326 
L 546.701538 347.37639 
L 546.701538 345.604453 
L 546.701538 343.832516 
L 546.701538 342.06058 
L 546.701538 340.288643 
L 546.701538 338.516707 
L 546.701538 336.74477 
L 546.701538 334.972833 
L 546.701538 333.200897 
L 546.701538 331.42896 
L 546.701538 329.657024 
L 546.701538 327.885087 
L 546.701538 326.11315 
L 546.701538 324.341214 
L 546.701538 322.569277 
L 546.701538 320.797341 
L 546.701538 319.025404 
L 546.701538 317.253467 
L 546.701538 315.481531 
L 546.701538 313.709594 
L 546.701538 311.937658 
L 546.701538 310.165721 
L 546.701538 308.393784 
L 546.701538 306.621848 
L 546.701538 304.849911 
L 546.701538 303.077974 
L 546.701538 301.306038 
L 546.701538 299.534101 
L 546.701538 297.762165 
L 546.701538 295.990228 
L 546.701538 294.218291 
L 546.701538 292.446355 
L 546.701538 290.674418 
L 546.701538 288.902482 
L 546.701538 287.130545 
L 546.701538 285.358608 
L 546.701538 283.586672 
L 546.701538 281.814735 
L 546.701538 280.042799 
L 546.701538 278.270862 
L 546.701538 276.498925 
L 546.701538 274.726989 
L 546.701538 272.955052 
L 546.701538 271.183116 
L 546.701538 269.411179 
L 546.701538 267.639242 
L 546.701538 265.867306 
L 546.701538 264.095369 
L 546.701538 262.323433 
L 546.701538 260.551496 
L 546.701538 258.779559 
L 546.701538 257.007623 
L 546.701538 255.235686 
L 546.701538 253.46375 
L 546.701538 251.691813 
L 546.701538 249.919876 
L 546.701538 248.14794 
L 546.701538 246.376003 
L 546.701538 244.604066 
L 546.701538 242.83213 
L 546.701538 241.060193 
L 546.701538 239.288257 
L 546.701538 237.51632 
L 546.701538 235.744383 
L 546.701538 233.972447 
L 546.701538 232.20051 
L 546.701538 230.428574 
L 546.701538 228.656637 
L 546.701538 226.8847 
L 546.701538 225.112764 
L 546.701538 223.340827 
L 546.701538 221.568891 
L 546.701538 219.796954 
L 546.701538 218.025017 
L 546.701538 216.253081 
L 546.701538 214.481144 
L 546.701538 212.709208 
L 546.701538 210.937271 
L 546.701538 209.165334 
L 546.701538 207.393398 
L 546.701538 205.621461 
L 546.701538 203.849525 
L 546.701538 202.077588 
L 546.701538 200.305651 
L 546.701538 198.533715 
L 546.701538 196.761778 
L 546.701538 194.989842 
L 546.701538 193.217905 
L 546.701538 191.445968 
L 546.701538 189.674032 
L 546.701538 187.902095 
L 546.701538 186.130158 
L 546.701538 184.358222 
L 546.701538 182.586285 
L 546.701538 180.814349 
L 546.701538 179.042412 
L 546.701538 177.270475 
L 546.701538 175.498539 
L 546.701538 173.726602 
L 546.701538 171.954666 
L 546.701538 170.182729 
L 546.701538 168.410792 
L 546.701538 166.638856 
L 546.701538 164.866919 
L 546.701538 163.094983 
L 546.701538 161.323046 
L 546.701538 159.551109 
L 546.701538 157.779173 
L 546.701538 156.007236 
L 546.701538 154.2353 
L 546.701538 152.463363 
L 546.701538 150.691426 
L 546.701538 148.91949 
L 546.701538 147.147553 
L 546.701538 145.375617 
L 546.701538 143.60368 
L 546.701538 141.831743 
L 546.701538 140.059807 
L 546.701538 138.28787 
L 546.701538 136.515934 
L 546.701538 134.743997 
L 546.701538 132.97206 
L 546.701538 131.200124 
L 546.701538 129.428187 
L 546.701538 127.65625 
L 546.701538 125.884314 
L 546.701538 124.112377 
L 546.701538 122.340441 
L 546.701538 120.568504 
L 546.701538 118.796567 
L 546.701538 117.024631 
L 546.701538 115.252694 
L 546.701538 113.480758 
L 546.701538 111.708821 
L 546.701538 109.936884 
L 546.701538 108.164948 
L 546.701538 106.393011 
L 546.701538 104.621075 
L 546.701538 102.849138 
L 546.701538 101.077201 
L 546.701538 99.305265 
L 546.701538 97.533328 
L 546.701538 95.761392 
L 546.701538 93.989455 
L 546.701538 92.217518 
L 546.701538 90.445582 
L 546.701538 88.673645 
L 546.701538 86.901709 
L 546.701538 85.129772 
L 546.701538 83.357835 
L 546.701538 81.585899 
L 546.701538 79.813962 
L 546.701538 78.042026 
L 546.701538 76.270089 
L 546.701538 74.498152 
L 546.701538 72.726216 
L 546.701538 70.954279 
L 546.701538 69.182342 
L 546.701538 67.410406 
L 546.701538 65.638469 
L 546.701538 63.866533 
L 546.701538 62.094596 
L 546.701538 60.322659 
L 546.701538 58.550723 
L 546.701538 56.778786 
L 546.701538 55.00685 
L 546.701538 53.234913 
L 546.701538 51.462976 
L 546.701538 49.69104 
L 546.701538 47.919103 
L 546.701538 46.147167 
L 546.701538 44.37523 
L 546.701538 42.603293 
L 546.701538 40.831357 
L 546.701538 39.05942 
L 546.701538 37.287484 
L 546.701538 35.515547 
L 546.701538 33.74361 
L 546.701538 31.971674 
L 546.701538 30.199737 
L 546.701538 28.427801 
L 546.701538 26.655864 
L 546.701538 24.883927 
L 546.701538 23.111991 
L 546.701538 21.340054 
L 546.701538 19.568118 
L 546.701538 17.796181 
L 546.701538 16.024244 
L 546.701538 14.252308 
L 544.043634 14.252308 
L 541.385729 14.252308 
L 538.727824 14.252308 
L 536.069919 14.252308 
L 533.412014 14.252308 
L 530.754109 14.252308 
L 528.096204 14.252308 
L 525.438299 14.252308 
L 522.780394 14.252308 
L 520.122489 14.252308 
L 517.464584 14.252308 
L 514.80668 14.252308 
L 512.148775 14.252308 
L 509.49087 14.252308 
L 506.832965 14.252308 
L 504.17506 14.252308 
L 501.517155 14.252308 
L 498.85925 14.252308 
L 496.201345 14.252308 
L 493.54344 14.252308 
L 490.885535 14.252308 
L 488.22763 14.252308 
L 485.569726 14.252308 
L 482.911821 14.252308 
L 480.253916 14.252308 
L 477.596011 14.252308 
L 474.938106 14.252308 
L 472.280201 14.252308 
L 469.622296 14.252308 
L 466.964391 14.252308 
L 464.306486 14.252308 
L 461.648581 14.252308 
L 458.990676 14.252308 
L 456.332772 14.252308 
L 453.674867 14.252308 
L 451.016962 14.252308 
L 448.359057 14.252308 
L 445.701152 14.252308 
L 443.043247 14.252308 
L 440.385342 14.252308 
L 437.727437 14.252308 
L 435.069532 14.252308 
L 432.411627 14.252308 
L 429.753722 14.252308 
L 427.095818 14.252308 
L 424.437913 14.252308 
L 421.780008 14.252308 
L 419.122103 14.252308 
L 416.464198 14.252308 
L 413.806293 14.252308 
L 411.148388 14.252308 
L 408.490483 14.252308 
L 405.832578 14.252308 
L 403.174673 14.252308 
L 400.516768 14.252308 
L 397.858864 14.252308 
L 395.200959 14.252308 
L 392.543054 14.252308 
L 389.885149 14.252308 
L 387.227244 14.252308 
L 384.569339 14.252308 
L 381.911434 14.252308 
L 379.253529 14.252308 
L 376.595624 14.252308 
L 373.937719 14.252308 
L 371.279814 14.252308 
L 368.62191 14.252308 
L 365.964005 14.252308 
L 363.3061 14.252308 
L 360.648195 14.252308 
L 357.99029 14.252308 
L 355.332385 14.252308 
L 352.67448 14.252308 
L 350.016575 14.252308 
L 347.35867 14.252308 
L 344.700765 14.252308 
L 342.04286 14.252308 
L 339.384956 14.252308 
L 336.727051 14.252308 
L 334.069146 14.252308 
L 331.411241 14.252308 
L 328.753336 14.252308 
L 326.095431 14.252308 
L 323.437526 14.252308 
L 320.779621 14.252308 
L 318.121716 14.252308 
L 315.463811 14.252308 
L 312.805906 14.252308 
L 310.148002 14.252308 
L 307.490097 14.252308 
L 304.832192 14.252308 
L 302.174287 14.252308 
L 299.516382 14.252308 
L 296.858477 14.252308 
L 294.200572 14.252308 
L 291.542667 14.252308 
L 288.884762 14.252308 
L 286.226857 14.252308 
L 283.568952 14.252308 
L 280.911048 14.252308 
L 278.253143 14.252308 
L 275.595238 14.252308 
L 272.937333 14.252308 
L 270.279428 14.252308 
L 267.621523 14.252308 
L 264.963618 14.252308 
L 262.305713 14.252308 
L 259.647808 14.252308 
L 256.989903 14.252308 
L 254.331998 14.252308 
L 251.674094 14.252308 
L 249.016189 14.252308 
L 246.358284 14.252308 
L 243.700379 14.252308 
L 241.042474 14.252308 
L 238.384569 14.252308 
L 235.726664 14.252308 
L 233.068759 14.252308 
L 230.410854 14.252308 
L 227.752949 14.252308 
L 225.095044 14.252308 
L 222.43714 14.252308 
L 219.779235 14.252308 
L 217.12133 14.252308 
L 214.463425 14.252308 
L 211.80552 14.252308 
L 209.147615 14.252308 
L 206.48971 14.252308 
L 203.831805 14.252308 
L 201.1739 14.252308 
L 198.515995 14.252308 
L 195.85809 14.252308 
L 193.200186 14.252308 
L 190.542281 14.252308 
L 187.884376 14.252308 
L 185.226471 14.252308 
L 182.568566 14.252308 
L 179.910661 14.252308 
L 177.252756 14.252308 
L 174.594851 14.252308 
L 171.936946 14.252308 
L 169.279041 14.252308 
L 166.621136 14.252308 
L 163.963232 14.252308 
L 161.305327 14.252308 
L 158.647422 14.252308 
L 155.989517 14.252308 
L 153.331612 14.252308 
L 150.673707 14.252308 
L 148.015802 14.252308 
L 145.357897 14.252308 
L 142.699992 14.252308 
L 140.042087 14.252308 
L 137.384182 14.252308 
L 134.726278 14.252308 
L 132.068373 14.252308 
L 129.410468 14.252308 
L 126.752563 14.252308 
L 124.094658 14.252308 
L 121.436753 14.252308 
L 118.778848 14.252308 
L 116.120943 14.252308 
L 113.463038 14.252308 
L 110.805133 14.252308 
L 108.147228 14.252308 
L 105.489324 14.252308 
L 102.831419 14.252308 
L 100.173514 14.252308 
L 97.515609 14.252308 
L 94.857704 14.252308 
L 92.199799 14.252308 
L 89.541894 14.252308 
L 86.883989 14.252308 
L 84.226084 14.252308 
L 81.568179 14.252308 
L 78.910274 14.252308 
L 76.25237 14.252308 
L 73.594465 14.252308 
L 70.93656 14.252308 
L 68.278655 14.252308 
L 65.62075 14.252308 
L 62.962845 14.252308 
L 60.30494 14.252308 
L 57.647035 14.252308 
L 54.98913 14.252308 
L 52.331225 14.252308 
L 49.67332 14.252308 
L 47.015416 14.252308 
L 44.357511 14.252308 
L 41.699606 14.252308 
L 39.041701 14.252308 
L 36.383796 14.252308 
L 33.725891 14.252308 
L 31.067986 14.252308 
L 28.410081 14.252308 
L 25.752176 14.252308 
L 23.094271 14.252308 
L 20.436366 14.252308 
L 17.778462 14.252308 
L 17.778462 16.024244 
L 17.778462 17.796181 
L 17.778462 19.568118 
L 17.778462 21.340054 
L 17.778462 23.111991 
L 17.778462 24.883927 
L 17.778462 26.655864 
L 17.778462 28.427801 
L 17.778462 30.199737 
L 17.778462 31.971674 
L 17.778462 33.74361 
L 17.778462 35.515547 
L 17.778462 37.287484 
L 17.778462 39.05942 
L 17.778462 40.831357 
L 17.778462 42.603293 
L 17.778462 44.37523 
L 17.778462 46.147167 
L 17.778462 47.919103 
L 17.778462 49.69104 
L 17.778462 51.462976 
L 17.778462 53.234913 
L 17.778462 55.00685 
L 17.778462 56.778786 
L 17.778462 58.550723 
L 17.778462 60.322659 
L 17.778462 62.094596 
L 17.778462 63.866533 
L 17.778462 65.638469 
L 17.778462 67.410406 
L 17.778462 69.182342 
L 17.778462 70.954279 
L 17.778462 72.726216 
L 17.778462 74.498152 
L 17.778462 76.270089 
L 17.778462 78.042026 
L 17.778462 79.813962 
L 17.778462 81.585899 
L 17.778462 83.357835 
L 17.778462 85.129772 
L 17.778462 86.901709 
L 17.778462 88.673645 
L 17.778462 90.445582 
L 17.778462 92.217518 
L 17.778462 93.989455 
L 17.778462 95.761392 
L 17.778462 97.533328 
L 17.778462 99.305265 
L 17.778462 101.077201 
L 17.778462 102.849138 
L 17.778462 104.621075 
L 17.778462 106.393011 
L 17.778462 108.164948 
L 17.778462 109.936884 
L 17.778462 111.708821 
L 17.778462 113.480758 
L 17.778462 115.252694 
L 17.778462 117.024631 
L 17.778462 118.796567 
L 17.778462 120.568504 
L 17.778462 122.340441 
L 17.778462 124.112377 
L 17.778462 125.884314 
L 17.778462 127.65625 
L 17.778462 129.428187 
L 17.778462 131.200124 
L 17.778462 132.97206 
L 17.778462 134.743997 
L 17.778462 136.515934 
L 17.778462 138.28787 
L 17.778462 140.059807 
L 17.778462 141.831743 
L 17.778462 143.60368 
L 17.778462 145.375617 
L 17.778462 147.147553 
L 17.778462 148.91949 
L 17.778462 150.691426 
L 17.778462 152.463363 
L 17.778462 154.2353 
L 17.778462 156.007236 
L 17.778462 157.779173 
L 17.778462 159.551109 
L 17.778462 161.323046 
L 17.778462 163.094983 
L 17.778462 164.866919 
L 17.778462 166.638856 
L 17.778462 168.410792 
L 17.778462 170.182729 
L 17.778462 171.954666 
L 17.778462 173.726602 
L 17.778462 175.498539 
L 17.778462 177.270475 
L 17.778462 179.042412 
L 17.778462 180.814349 
L 17.778462 182.586285 
L 17.778462 184.358222 
L 17.778462 186.130158 
L 17.778462 187.902095 
L 17.778462 189.674032 
L 17.778462 191.445968 
L 17.778462 193.217905 
L 17.778462 194.989842 
L 17.778462 196.761778 
L 17.778462 198.533715 
L 17.778462 200.305651 
L 17.778462 202.077588 
L 17.778462 203.849525 
L 17.778462 205.621461 
L 17.778462 207.393398 
L 17.778462 209.165334 
L 17.778462 210.937271 
L 17.778462 212.709208 
L 17.778462 214.481144 
L 17.778462 216.253081 
L 17.778462 218.025017 
L 17.778462 219.796954 
L 17.778462 221.568891 
L 17.778462 223.340827 
L 17.778462 225.112764 
L 17.778462 226.8847 
L 17.778462 228.656637 
L 17.778462 230.428574 
L 17.778462 232.20051 
L 17.778462 233.972447 
L 17.778462 235.744383 
L 17.778462 237.51632 
L 17.778462 239.288257 
L 17.778462 241.060193 
L 17.778462 242.83213 
L 17.778462 244.604066 
L 17.778462 246.376003 
L 17.778462 248.14794 
L 17.778462 249.919876 
L 17.778462 251.691813 
L 17.778462 253.46375 
L 17.778462 255.235686 
L 17.778462 257.007623 
L 17.778462 258.779559 
L 17.778462 260.551496 
L 17.778462 262.323433 
L 17.778462 264.095369 
L 17.778462 265.867306 
L 17.778462 267.639242 
L 17.778462 269.411179 
L 17.778462 271.183116 
L 17.778462 272.955052 
L 17.778462 274.726989 
L 17.778462 276.498925 
L 17.778462 278.270862 
L 17.778462 280.042799 
L 17.778462 281.814735 
L 17.778462 283.586672 
L 17.778462 285.358608 
L 17.778462 287.130545 
L 17.778462 288.902482 
L 17.778462 290.674418 
L 17.778462 292.446355 
L 17.778462 294.218291 
L 17.778462 295.990228 
L 17.778462 297.762165 
L 17.778462 299.534101 
L 17.778462 301.306038 
L 17.778462 303.077974 
L 17.778462 304.849911 
L 17.778462 306.621848 
L 17.778462 308.393784 
L 17.778462 310.165721 
L 17.778462 311.937658 
L 17.778462 313.709594 
L 17.778462 315.481531 
L 17.778462 317.253467 
L 17.778462 319.025404 
L 17.778462 320.797341 
L 17.778462 322.569277 
L 17.778462 324.341214 
L 17.778462 326.11315 
L 17.778462 327.885087 
L 17.778462 329.657024 
L 17.778462 331.42896 
L 17.778462 333.200897 
L 17.778462 334.972833 
L 17.778462 336.74477 
L 17.778462 338.516707 
L 17.778462 340.288643 
L 17.778462 342.06058 
L 17.778462 343.832516 
L 17.778462 345.604453 
L 17.778462 347.37639 
L 17.778462 349.148326 
L 17.778462 350.920263 
L 17.778462 352.692199 
L 17.778462 354.464136 
L 17.778462 356.236073 
L 17.778462 358.008009 
L 17.778462 359.779946 
L 17.778462 361.551882 
L 17.778462 363.323819 
L 17.778462 365.095756 
L 17.778462 366.867692 
L 20.436366 366.867692 
z
M 279.582095 310.165721 
L 278.253143 309.279753 
L 276.92419 308.393784 
L 275.595238 307.507816 
L 274.266285 306.621848 
L 274.266285 304.849911 
L 272.937333 303.963943 
L 271.60838 303.077974 
L 270.279428 302.192006 
L 268.950475 301.306038 
L 267.621523 300.42007 
L 266.292571 299.534101 
L 266.292571 297.762165 
L 264.963618 296.876196 
L 263.634666 295.990228 
L 262.305713 295.10426 
L 260.976761 294.218291 
L 260.976761 292.446355 
L 259.647808 291.560387 
L 258.318856 290.674418 
L 258.318856 288.902482 
L 256.989903 288.016513 
L 255.660951 287.130545 
L 254.331998 286.244577 
L 253.003046 285.358608 
L 253.003046 283.586672 
L 251.674094 282.700704 
L 250.345141 281.814735 
L 250.345141 280.042799 
L 249.016189 279.15683 
L 247.687236 278.270862 
L 247.687236 276.498925 
L 247.687236 274.726989 
L 246.358284 273.84102 
L 245.029331 272.955052 
L 245.029331 271.183116 
L 243.700379 270.297147 
L 242.371426 269.411179 
L 242.371426 267.639242 
L 241.042474 266.753274 
L 239.713521 265.867306 
L 239.713521 264.095369 
L 239.713521 262.323433 
L 238.384569 261.437464 
L 237.055617 260.551496 
L 237.055617 258.779559 
L 237.055617 257.007623 
L 235.726664 256.121654 
L 234.397712 255.235686 
L 234.397712 253.46375 
L 234.397712 251.691813 
L 233.068759 250.805845 
L 231.739807 249.919876 
L 231.739807 248.14794 
L 231.739807 246.376003 
L 231.739807 244.604066 
L 230.410854 243.718098 
L 229.081902 242.83213 
L 229.081902 241.060193 
L 229.081902 239.288257 
L 229.081902 237.51632 
L 227.752949 236.630352 
L 226.423997 235.744383 
L 226.423997 233.972447 
L 226.423997 232.20051 
L 226.423997 230.428574 
L 226.423997 228.656637 
L 225.095044 227.770669 
L 223.766092 226.8847 
L 223.766092 225.112764 
L 223.766092 223.340827 
L 223.766092 221.568891 
L 223.766092 219.796954 
L 223.766092 218.025017 
L 223.766092 216.253081 
L 223.766092 214.481144 
L 222.43714 213.595176 
L 221.108187 212.709208 
L 221.108187 210.937271 
L 221.108187 209.165334 
L 221.108187 207.393398 
L 221.108187 205.621461 
L 221.108187 203.849525 
L 221.108187 202.077588 
L 221.108187 200.305651 
L 221.108187 198.533715 
L 221.108187 196.761778 
L 221.108187 194.989842 
L 221.108187 193.217905 
L 221.108187 191.445968 
L 221.108187 189.674032 
L 221.108187 187.902095 
L 221.108187 186.130158 
L 221.108187 184.358222 
L 221.108187 182.586285 
L 221.108187 180.814349 
L 221.108187 179.042412 
L 221.108187 177.270475 
L 221.108187 175.498539 
L 221.108187 173.726602 
L 221.108187 171.954666 
L 221.108187 170.182729 
L 221.108187 168.410792 
L 222.43714 167.524824 
L 223.766092 166.638856 
L 223.766092 164.866919 
L 223.766092 163.094983 
L 223.766092 161.323046 
L 223.766092 159.551109 
L 223.766092 157.779173 
L 223.766092 156.007236 
L 223.766092 154.2353 
L 225.095044 153.349331 
L 226.423997 152.463363 
L 226.423997 150.691426 
L 226.423997 148.91949 
L 226.423997 147.147553 
L 226.423997 145.375617 
L 227.752949 144.489648 
L 229.081902 143.60368 
L 229.081902 141.831743 
L 229.081902 140.059807 
L 229.081902 138.28787 
L 230.410854 137.401902 
L 231.739807 136.515934 
L 231.739807 134.743997 
L 231.739807 132.97206 
L 231.739807 131.200124 
L 233.068759 130.314155 
L 234.397712 129.428187 
L 234.397712 127.65625 
L 234.397712 125.884314 
L 235.726664 124.998346 
L 237.055617 124.112377 
L 237.055617 122.340441 
L 237.055617 120.568504 
L 238.384569 119.682536 
L 239.713521 118.796567 
L 239.713521 117.024631 
L 239.713521 115.252694 
L 241.042474 114.366726 
L 242.371426 113.480758 
L 242.371426 111.708821 
L 243.700379 110.822853 
L 245.029331 109.936884 
L 245.029331 108.164948 
L 246.358284 107.27898 
L 247.687236 106.393011 
L 247.687236 104.621075 
L 247.687236 102.849138 
L 249.016189 101.96317 
L 250.345141 101.077201 
L 250.345141 99.305265 
L 251.674094 98.419296 
L 253.003046 97.533328 
L 253.003046 95.761392 
L 254.331998 94.875423 
L 255.660951 93.989455 
L 256.989903 93.103487 
L 258.318856 92.217518 
L 258.318856 90.445582 
L 259.647808 89.559613 
L 260.976761 88.673645 
L 260.976761 86.901709 
L 262.305713 86.01574 
L 263.634666 85.129772 
L 264.963618 84.243804 
L 266.292571 83.357835 
L 266.292571 81.585899 
L 267.621523 80.69993 
L 268.950475 79.813962 
L 270.279428 78.927994 
L 271.60838 78.042026 
L 272.937333 77.156057 
L 274.266285 76.270089 
L 274.266285 74.498152 
L 275.595238 73.612184 
L 276.92419 72.726216 
L 278.253143 71.840247 
L 279.582095 70.954279 
L 280.911048 70.068311 
L 283.568952 70.068311 
L 284.897905 70.954279 
L 286.226857 71.840247 
L 287.55581 72.726216 
L 288.884762 73.612184 
L 290.213715 74.498152 
L 290.213715 76.270089 
L 291.542667 77.156057 
L 292.87162 78.042026 
L 294.200572 78.927994 
L 295.529525 79.813962 
L 296.858477 80.69993 
L 298.187429 81.585899 
L 298.187429 83.357835 
L 299.516382 84.243804 
L 300.845334 85.129772 
L 302.174287 86.01574 
L 303.503239 86.901709 
L 303.503239 88.673645 
L 304.832192 89.559613 
L 306.161144 90.445582 
L 306.161144 92.217518 
L 307.490097 93.103487 
L 308.819049 93.989455 
L 310.148002 94.875423 
L 311.476954 95.761392 
L 311.476954 97.533328 
L 312.805906 98.419296 
L 314.134859 99.305265 
L 314.134859 101.077201 
L 315.463811 101.96317 
L 316.792764 102.849138 
L 316.792764 104.621075 
L 316.792764 106.393011 
L 318.121716 107.27898 
L 319.450669 108.164948 
L 319.450669 109.936884 
L 320.779621 110.822853 
L 322.108574 111.708821 
L 322.108574 113.480758 
L 323.437526 114.366726 
L 324.766479 115.252694 
L 324.766479 117.024631 
L 324.766479 118.796567 
L 326.095431 119.682536 
L 327.424383 120.568504 
L 327.424383 122.340441 
L 327.424383 124.112377 
L 328.753336 124.998346 
L 330.082288 125.884314 
L 330.082288 127.65625 
L 330.082288 129.428187 
L 331.411241 130.314155 
L 332.740193 131.200124 
L 332.740193 132.97206 
L 332.740193 134.743997 
L 332.740193 136.515934 
L 334.069146 137.401902 
L 335.398098 138.28787 
L 335.398098 140.059807 
L 335.398098 141.831743 
L 335.398098 143.60368 
L 336.727051 144.489648 
L 338.056003 145.375617 
L 338.056003 147.147553 
L 338.056003 148.91949 
L 338.056003 150.691426 
L 338.056003 152.463363 
L 339.384956 153.349331 
L 340.713908 154.2353 
L 340.713908 156.007236 
L 340.713908 157.779173 
L 340.713908 159.551109 
L 340.713908 161.323046 
L 340.713908 163.094983 
L 340.713908 164.866919 
L 340.713908 166.638856 
L 342.04286 167.524824 
L 343.371813 168.410792 
L 343.371813 170.182729 
L 343.371813 171.954666 
L 343.371813 173.726602 
L 343.371813 175.498539 
L 343.371813 177.270475 
L 343.371813 179.042412 
L 343.371813 180.814349 
L 343.371813 182.586285 
L 343.371813 184.358222 
L 343.371813 186.130158 
L 343.371813 187.902095 
L 343.371813 189.674032 
L 343.371813 191.445968 
L 343.371813 193.217905 
L 343.371813 194.989842 
L 343.371813 196.761778 
L 343.371813 198.533715 
L 343.371813 200.305651 
L 343.371813 202.077588 
L 343.371813 203.849525 
L 343.371813 205.621461 
L 343.371813 207.393398 
L 343.371813 209.165334 
L 343.371813 210.937271 
L 343.371813 212.709208 
L 342.04286 213.595176 
L 340.713908 214.481144 
L 340.713908 216.253081 
L 340.713908 218.025017 
L 340.713908 219.796954 
L 340.713908 221.568891 
L 340.713908 223.340827 
L 340.713908 225.112764 
L 340.713908 226.8847 
L 339.384956 227.770669 
L 338.056003 228.656637 
L 338.056003 230.428574 
L 338.056003 232.20051 
L 338.056003 233.972447 
L 338.056003 235.744383 
L 336.727051 236.630352 
L 335.398098 237.51632 
L 335.398098 239.288257 
L 335.398098 241.060193 
L 335.398098 242.83213 
L 334.069146 243.718098 
L 332.740193 244.604066 
L 332.740193 246.376003 
L 332.740193 248.14794 
L 332.740193 249.919876 
L 331.411241 250.805845 
L 330.082288 251.691813 
L 330.082288 253.46375 
L 330.082288 255.235686 
L 328.753336 256.121654 
L 327.424383 257.007623 
L 327.424383 258.779559 
L 327.424383 260.551496 
L 326.095431 261.437464 
L 324.766479 262.323433 
L 324.766479 264.095369 
L 324.766479 265.867306 
L 323.437526 266.753274 
L 322.108574 267.639242 
L 322.108574 269.411179 
L 320.779621 270.297147 
L 319.450669 271.183116 
L 319.450669 272.955052 
L 318.121716 273.84102 
L 316.792764 274.726989 
L 316.792764 276.498925 
L 316.792764 278.270862 
L 315.463811 279.15683 
L 314.134859 280.042799 
L 314.134859 281.814735 
L 312.805906 282.700704 
L 311.476954 283.586672 
L 311.476954 285.358608 
L 310.148002 286.244577 
L 308.819049 287.130545 
L 307.490097 288.016513 
L 306.161144 288.902482 
L 306.161144 290.674418 
L 304.832192 291.560387 
L 303.503239 292.446355 
L 303.503239 294.218291 
L 302.174287 295.10426 
L 300.845334 295.990228 
L 299.516382 296.876196 
L 298.187429 297.762165 
L 298.187429 299.534101 
L 296.858477 300.42007 
L 295.529525 301.306038 
L 294.200572 302.192006 
L 292.87162 303.077974 
L 291.542667 303.963943 
L 290.213715 304.849911 
L 290.213715 306.621848 
L 288.884762 307.507816 
L 287.55581 308.393784 
L 286.226857 309.279753 
L 284.897905 310.165721 
L 283.568952 311.051689 
L 280.911048 311.051689 
L 279.582095 310.165721 
z
" style="fill:none;"/>
   </g>
   <g id="LineCollection_1">
    <path clip-path="url(#pb37adf30be)" d="M 280.911048 311.051689 
L 274.266285 306.621848 
L 274.266285 304.849911 
L 266.292571 299.534101 
L 266.292571 297.762165 
L 260.976761 294.218291 
L 260.976761 292.446355 
L 258.318856 290.674418 
L 258.318856 288.902482 
L 253.003046 285.358608 
L 253.003046 283.586672 
L 250.345141 281.814735 
L 250.345141 280.042799 
L 247.687236 278.270862 
L 247.687236 274.726989 
L 245.029331 272.955052 
L 245.029331 271.183116 
L 242.371426 269.411179 
L 242.371426 267.639242 
L 239.713521 265.867306 
L 239.713521 262.323433 
L 237.055617 260.551496 
L 237.055617 257.007623 
L 234.397712 255.235686 
L 234.397712 251.691813 
L 231.739807 249.919876 
L 231.739807 244.604066 
L 229.081902 242.83213 
L 229.081902 237.51632 
L 226.423997 235.744383 
L 226.423997 228.656637 
L 223.766092 226.8847 
L 223.766092 214.481144 
L 221.108187 212.709208 
L 221.108187 168.410792 
L 223.766092 166.638856 
L 223.766092 154.2353 
L 226.423997 152.463363 
L 226.423997 145.375617 
L 229.081902 143.60368 
L 229.081902 138.28787 
L 231.739807 136.515934 
L 231.739807 131.200124 
L 234.397712 129.428187 
L 234.397712 125.884314 
L 237.055617 124.112377 
L 237.055617 120.568504 
L 239.713521 118.796567 
L 239.713521 115.252694 
L 242.371426 113.480758 
L 242.371426 111.708821 
L 245.029331 109.936884 
L 245.029331 108.164948 
L 247.687236 106.393011 
L 247.687236 102.849138 
L 250.345141 101.077201 
L 250.345141 99.305265 
L 253.003046 97.533328 
L 253.003046 95.761392 
L 258.318856 92.217518 
L 258.318856 90.445582 
L 260.976761 88.673645 
L 260.976761 86.901709 
L 266.292571 83.357835 
L 266.292571 81.585899 
L 274.266285 76.270089 
L 274.266285 74.498152 
L 280.911048 70.068311 
L 283.568952 70.068311 
L 290.213715 74.498152 
L 290.213715 76.270089 
L 298.187429 81.585899 
L 298.187429 83.357835 
L 303.503239 86.901709 
L 303.503239 88.673645 
L 306.161144 90.445582 
L 306.161144 92.217518 
L 311.476954 95.761392 
L 311.476954 97.533328 
L 314.134859 99.305265 
L 314.134859 101.077201 
L 316.792764 102.849138 
L 316.792764 106.393011 
L 319.450669 108.164948 
L 319.450669 109.936884 
L 322.108574 111.708821 
L 322.108574 113.480758 
L 324.766479 115.252694 
L 324.766479 118.796567 
L 327.424383 120.568504 
L 327.424383 124.112377 
L 330.082288 125.884314 
L 330.082288 129.428187 
L 332.740193 131.200124 
L 332.740193 136.515934 
L 335.398098 138.28787 
L 335.398098 143.60368 
L 338.056003 145.375617 
L 338.056003 152.463363 
L 340.713908 154.2353 
L 340.713908 166.638856 
L 343.371813 168.410792 
L 343.371813 212.709208 
L 340.713908 214.481144 
L 340.713908 226.8847 
L 338.056003 228.656637 
L 338.056003 235.744383 
L 335.398098 237.51632 
L 335.398098 242.83213 
L 332.740193 244.604066 
L 332.740193 249.919876 
L 330.082288 251.691813 
L 330.082288 255.235686 
L 327.424383 257.007623 
L 327.424383 260.551496 
L 324.766479 262.323433 
L 324.766479 265.867306 
L 322.108574 267.639242 
L 322.108574 269.411179 
L 319.450669 271.183116 
L 319.450669 272.955052 
L 316.792764 274.726989 
L 316.792764 278.270862 
L 314.134859 280.042799 
L 314.134859 281.814735 
L 311.476954 283.586672 
L 311.476954 285.358608 
L 306.161144 288.902482 
L 306.161144 290.674418 
L 303.503239 292.446355 
L 303.503239 294.218291 
L 298.187429 297.762165 
L 298.187429 299.534101 
L 290.213715 304.849911 
L 290.213715 306.621848 
L 283.568952 311.051689 
L 280.911048 311.051689 
L 280.911048 311.051689 
" style="fill:none;stroke:#add8e6;"/>
   </g>
   <g id="LineCollection_2">
    <path clip-path="url(#pb37adf30be)" d="M 280.911048 311.051689 
L 274.266285 306.621848 
L 274.266285 304.849911 
L 266.292571 299.534101 
L 266.292571 297.762165 
L 260.976761 294.218291 
L 260.976761 292.446355 
L 258.318856 290.674418 
L 258.318856 288.902482 
L 253.003046 285.358608 
L 253.003046 283.586672 
L 250.345141 281.814735 
L 250.345141 280.042799 
L 247.687236 278.270862 
L 247.687236 274.726989 
L 245.029331 272.955052 
L 245.029331 271.183116 
L 242.371426 269.411179 
L 242.371426 267.639242 
L 239.713521 265.867306 
L 239.713521 262.323433 
L 237.055617 260.551496 
L 237.055617 257.007623 
L 234.397712 255.235686 
L 234.397712 251.691813 
L 231.739807 249.919876 
L 231.739807 244.604066 
L 229.081902 242.83213 
L 229.081902 237.51632 
L 226.423997 235.744383 
L 226.423997 228.656637 
L 223.766092 226.8847 
L 223.766092 214.481144 
L 221.108187 212.709208 
L 221.108187 168.410792 
L 223.766092 166.638856 
L 223.766092 154.2353 
L 226.423997 152.463363 
L 226.423997 145.375617 
L 229.081902 143.60368 
L 229.081902 138.28787 
L 231.739807 136.515934 
L 231.739807 131.200124 
L 234.397712 129.428187 
L 234.397712 125.884314 
L 237.055617 124.112377 
L 237.055617 120.568504 
L 239.713521 118.796567 
L 239.713521 115.252694 
L 242.371426 113.480758 
L 242.371426 111.708821 
L 245.029331 109.936884 
L 245.029331 108.164948 
L 247.687236 106.393011 
L 247.687236 102.849138 
L 250.345141 101.077201 
L 250.345141 99.305265 
L 253.003046 97.533328 
L 253.003046 95.761392 
L 258.318856 92.217518 
L 258.318856 90.445582 
L 260.976761 88.673645 
L 260.976761 86.901709 
L 266.292571 83.357835 
L 266.292571 81.585899 
L 274.266285 76.270089 
L 274.266285 74.498152 
L 280.911048 70.068311 
L 283.568952 70.068311 
L 290.213715 74.498152 
L 290.213715 76.270089 
L 298.187429 81.585899 
L 298.187429 83.357835 
L 303.503239 86.901709 
L 303.503239 88.673645 
L 306.161144 90.445582 
L 306.161144 92.217518 
L 311.476954 95.761392 
L 311.476954 97.533328 
L 314.134859 99.305265 
L 314.134859 101.077201 
L 316.792764 102.849138 
L 316.792764 106.393011 
L 319.450669 108.164948 
L 319.450669 109.936884 
L 322.108574 111.708821 
L 322.108574 113.480758 
L 324.766479 115.252694 
L 324.766479 118.796567 
L 327.424383 120.568504 
L 327.424383 124.112377 
L 330.082288 125.884314 
L 330.082288 129.428187 
L 332.740193 131.200124 
L 332.740193 136.515934 
L 335.398098 138.28787 
L 335.398098 143.60368 
L 338.056003 145.375617 
L 338.056003 152.463363 
L 340.713908 154.2353 
L 340.713908 166.638856 
L 343.371813 168.410792 
L 343.371813 212.709208 
L 340.713908 214.481144 
L 340.713908 226.8847 
L 338.056003 228.656637 
L 338.056003 235.744383 
L 335.398098 237.51632 
L 335.398098 242.83213 
L 332.740193 244.604066 
L 332.740193 249.919876 
L 330.082288 251.691813 
L 330.082288 255.235686 
L 327.424383 257.007623 
L 327.424383 260.551496 
L 324.766479 262.323433 
L 324.766479 265.867306 
L 322.108574 267.639242 
L 322.108574 269.411179 
L 319.450669 271.183116 
L 319.450669 272.955052 
L 316.792764 274.726989 
L 316.792764 278.270862 
L 314.134859 280.042799 
L 314.134859 281.814735 
L 311.476954 283.586672 
L 311.476954 285.358608 
L 306.161144 288.902482 
L 306.161144 290.674418 
L 303.503239 292.446355 
L 303.503239 294.218291 
L 298.187429 297.762165 
L 298.187429 299.534101 
L 290.213715 304.849911 
L 290.213715 306.621848 
L 283.568952 311.051689 
L 280.911048 311.051689 
L 280.911048 311.051689 
" style="fill:none;stroke:#ffffff;"/>
   </g>
   <g id="LineCollection_3">
    <path clip-path="url(#pb37adf30be)" d="M 280.911048 311.051689 
L 274.266285 306.621848 
L 274.266285 304.849911 
L 266.292571 299.534101 
L 266.292571 297.762165 
L 260.976761 294.218291 
L 260.976761 292.446355 
L 258.318856 290.674418 
L 258.318856 288.902482 
L 253.003046 285.358608 
L 253.003046 283.586672 
L 250.345141 281.814735 
L 250.345141 280.042799 
L 247.687236 278.270862 
L 247.687236 274.726989 
L 245.029331 272.955052 
L 245.029331 271.183116 
L 242.371426 269.411179 
L 242.371426 267.639242 
L 239.713521 265.867306 
L 239.713521 262.323433 
L 237.055617 260.551496 
L 237.055617 257.007623 
L 234.397712 255.235686 
L 234.397712 251.691813 
L 231.739807 249.919876 
L 231.739807 244.604066 
L 229.081902 242.83213 
L 229.081902 237.51632 
L 226.423997 235.744383 
L 226.423997 228.656637 
L 223.766092 226.8847 
L 223.766092 214.481144 
L 221.108187 212.709208 
L 221.108187 168.410792 
L 223.766092 166.638856 
L 223.766092 154.2353 
L 226.423997 152.463363 
L 226.423997 145.375617 
L 229.081902 143.60368 
L 229.081902 138.28787 
L 231.739807 136.515934 
L 231.739807 131.200124 
L 234.397712 129.428187 
L 234.397712 125.884314 
L 237.055617 124.112377 
L 237.055617 120.568504 
L 239.713521 118.796567 
L 239.713521 115.252694 
L 242.371426 113.480758 
L 242.371426 111.708821 
L 245.029331 109.936884 
L 245.029331 108.164948 
L 247.687236 106.393011 
L 247.687236 102.849138 
L 250.345141 101.077201 
L 250.345141 99.305265 
L 253.003046 97.533328 
L 253.003046 95.761392 
L 258.318856 92.217518 
L 258.318856 90.445582 
L 260.976761 88.673645 
L 260.976761 86.901709 
L 266.292571 83.357835 
L 266.292571 81.585899 
L 274.266285 76.270089 
L 274.266285 74.498152 
L 280.911048 70.068311 
L 283.568952 70.068311 
L 290.213715 74.498152 
L 290.213715 76.270089 
L 298.187429 81.585899 
L 298.187429 83.357835 
L 303.503239 86.901709 
L 303.503239 88.673645 
L 306.161144 90.445582 
L 306.161144 92.217518 
L 311.476954 95.761392 
L 311.476954 97.533328 
L 314.134859 99.305265 
L 314.134859 101.077201 
L 316.792764 102.849138 
L 316.792764 106.393011 
L 319.450669 108.164948 
L 319.450669 109.936884 
L 322.108574 111.708821 
L 322.108574 113.480758 
L 324.766479 115.252694 
L 324.766479 118.796567 
L 327.424383 120.568504 
L 327.424383 124.112377 
L 330.082288 125.884314 
L 330.082288 129.428187 
L 332.740193 131.200124 
L 332.740193 136.515934 
L 335.398098 138.28787 
L 335.398098 143.60368 
L 338.056003 145.375617 
L 338.056003 152.463363 
L 340.713908 154.2353 
L 340.713908 166.638856 
L 343.371813 168.410792 
L 343.371813 212.709208 
L 340.713908 214.481144 
L 340.713908 226.8847 
L 338.056003 228.656637 
L 338.056003 235.744383 
L 335.398098 237.51632 
L 335.398098 242.83213 
L 332.740193 244.604066 
L 332.740193 249.919876 
L 330.082288 251.691813 
L 330.082288 255.235686 
L 327.424383 257.007623 
L 327.424383 260.551496 
L 324.766479 262.323433 
L 324.766479 265.867306 
L 322.108574 267.639242 
L 322.108574 269.411179 
L 319.450669 271.183116 
L 319.450669 272.955052 
L 316.792764 274.726989 
L 316.792764 278.270862 
L 314.134859 280.042799 
L 314.134859 281.814735 
L 311.476954 283.586672 
L 311.476954 285.358608 
L 306.161144 288.902482 
L 306.161144 290.674418 
L 303.503239 292.446355 
L 303.503239 294.218291 
L 298.187429 297.762165 
L 298.187429 299.534101 
L 290.213715 304.849911 
L 290.213715 306.621848 
L 283.568952 311.051689 
L 280.911048 311.051689 
L 280.911048 311.051689 
" style="fill:none;stroke:#ffffff;"/>
   </g>
   <g id="line2d_1">
    <path clip-path="url(#pb37adf30be)" d="M 17.778462 366.867692 
L 546.701538 366.867692 
L 546.701538 14.252308 
L 17.778462 14.252308 
L 17.778462 366.867692 
" style="fill:none;stroke:#000000;stroke-linecap:square;"/>
   </g>
   <g id="matplotlib.axis_1"/>
   <g id="matplotlib.axis_2"/>
   <g id="text_1">
    <!-- B -->
    <defs>
     <path d="M 19.671875 34.8125 
L 19.671875 8.109375 
L 35.5 8.109375 
Q 43.453125 8.109375 47.28125 11.40625 
Q 51.125 14.703125 51.125 21.484375 
Q 51.125 28.328125 47.28125 31.5625 
Q 43.453125 34.8125 35.5 34.8125 
z
M 19.671875 64.796875 
L 19.671875 42.828125 
L 34.28125 42.828125 
Q 41.5 42.828125 45.03125 45.53125 
Q 48.578125 48.25 48.578125 53.8125 
Q 48.578125 59.328125 45.03125 62.0625 
Q 41.5 64.796875 34.28125 64.796875 
z
M 9.8125 72.90625 
L 35.015625 72.90625 
Q 46.296875 72.90625 52.390625 68.21875 
Q 58.5 63.53125 58.5 54.890625 
Q 58.5 48.1875 55.375 44.234375 
Q 52.25 40.28125 46.1875 39.3125 
Q 53.46875 37.75 57.5 32.78125 
Q 61.53125 27.828125 61.53125 20.40625 
Q 61.53125 10.640625 54.890625 5.3125 
Q 48.25 0 35.984375 0 
L 9.8125 0 
z
" id="BitstreamVeraSans-Roman-42"/>
    </defs>
    <g style="fill:#0000ff;" transform="translate(364.465996154 195.3282)scale(0.1728 -0.1728)">
     <use xlink:href="#BitstreamVeraSans-Roman-42"/>
    </g>
   </g>
   <g id="text_2">
    <!-- A -->
    <defs>
     <path d="M 34.1875 63.1875 
L 20.796875 26.90625 
L 47.609375 26.90625 
z
M 28.609375 72.90625 
L 39.796875 72.90625 
L 67.578125 0 
L 57.328125 0 
L 50.6875 18.703125 
L 17.828125 18.703125 
L 11.1875 0 
L 0.78125 0 
z
" id="BitstreamVeraSans-Roman-41"/>
    </defs>
    <g style="fill:#0000ff;" transform="translate(188.175853846 195.3282)scale(0.1728 -0.1728)">
     <use xlink:href="#BitstreamVeraSans-Roman-41"/>
    </g>
   </g>
   <g id="patch_3">
    <path clip-path="url(#pb37adf30be)" d="M 370.393846 340.421538 
C 410.137591 340.421538 448.258885 324.631181 476.361956 296.52811 
C 504.465028 268.425039 520.255385 230.303745 520.255385 190.56 
C 520.255385 150.816255 504.465028 112.694961 476.361956 84.59189 
C 448.258885 56.488819 410.137591 40.698462 370.393846 40.698462 
C 330.650102 40.698462 292.528807 56.488819 264.425736 84.59189 
C 236.322665 112.694961 220.532308 150.816255 220.532308 190.56 
C 220.532308 230.303745 236.322665 268.425039 264.425736 296.52811 
C 292.528807 324.631181 330.650102 340.421538 370.393846 340.421538 
L 370.393846 340.421538 
z
" style="fill:none;stroke:#0000ff;stroke-linejoin:miter;"/>
   </g>
   <g id="patch_4">
    <path clip-path="url(#pb37adf30be)" d="M 194.086154 340.421538 
C 233.829898 340.421538 271.951193 324.631181 300.054264 296.52811 
C 328.157335 268.425039 343.947692 230.303745 343.947692 190.56 
C 343.947692 150.816255 328.157335 112.694961 300.054264 84.59189 
C 271.951193 56.488819 233.829898 40.698462 194.086154 40.698462 
C 154.342409 40.698462 116.221115 56.488819 88.118044 84.59189 
C 60.014972 112.694961 44.224615 150.816255 44.224615 190.56 
C 44.224615 230.303745 60.014972 268.425039 88.118044 296.52811 
C 116.221115 324.631181 154.342409 340.421538 194.086154 340.421538 
L 194.086154 340.421538 
z
" style="fill:none;stroke:#0000ff;stroke-linejoin:miter;"/>
   </g>
   <g id="patch_5">
    <path clip-path="url(#pb37adf30be)" d="M 370.393846 340.421538 
C 410.137591 340.421538 448.258885 324.631181 476.361956 296.52811 
C 504.465028 268.425039 520.255385 230.303745 520.255385 190.56 
C 520.255385 150.816255 504.465028 112.694961 476.361956 84.59189 
C 448.258885 56.488819 410.137591 40.698462 370.393846 40.698462 
C 330.650102 40.698462 292.528807 56.488819 264.425736 84.59189 
C 236.322665 112.694961 220.532308 150.816255 220.532308 190.56 
C 220.532308 230.303745 236.322665 268.425039 264.425736 296.52811 
C 292.528807 324.631181 330.650102 340.421538 370.393846 340.421538 
L 370.393846 340.421538 
z
" style="fill:none;stroke:#0000ff;stroke-linejoin:miter;"/>
   </g>
   <g id="patch_6">
    <path clip-path="url(#pb37adf30be)" d="M 194.086154 340.421538 
C 233.829898 340.421538 271.951193 324.631181 300.054264 296.52811 
C 328.157335 268.425039 343.947692 230.303745 343.947692 190.56 
C 343.947692 150.816255 328.157335 112.694961 300.054264 84.59189 
C 271.951193 56.488819 233.829898 40.698462 194.086154 40.698462 
C 154.342409 40.698462 116.221115 56.488819 88.118044 84.59189 
C 60.014972 112.694961 44.224615 150.816255 44.224615 190.56 
C 44.224615 230.303745 60.014972 268.425039 88.118044 296.52811 
C 116.221115 324.631181 154.342409 340.421538 194.086154 340.421538 
L 194.086154 340.421538 
z
" style="fill:none;stroke:#0000ff;stroke-linejoin:miter;"/>
   </g>
  </g>
 </g>
 <defs>
  <clipPath id="pb37adf30be">
   <rect height="366.72" width="550.08" x="7.2" y="7.2"/>
  </clipPath>
 </defs>
</svg>
