<?xml version="1.0" encoding="utf-8" standalone="no"?>
<!DOCTYPE svg PUBLIC "-//W3C//DTD SVG 1.1//EN"
  "http://www.w3.org/Graphics/SVG/1.1/DTD/svg11.dtd">
<!-- Created with matplotlib (http://matplotlib.org/) -->
<svg height="420pt" version="1.1" viewBox="0 0 461 420" width="461pt" xmlns="http://www.w3.org/2000/svg" xmlns:xlink="http://www.w3.org/1999/xlink">
 <defs>
  <style type="text/css">
*{stroke-linecap:butt;stroke-linejoin:round;stroke-miterlimit:100000;}
  </style>
 </defs>
 <g id="figure_1">
  <g id="patch_1">
   <path d="M 0 420.48 
L 461.261805 420.48 
L 461.261805 0 
L 0 0 
z
" style="fill:#ffffff;"/>
  </g>
  <g id="axes_1">
   <g id="patch_2">
    <path d="M 7.2 413.28 
L 454.061805 413.28 
L 454.061805 7.2 
L 7.2 7.2 
z
" style="fill:#ffffff;"/>
   </g>
   <g id="patch_3">
    <path clip-path="url(#pd8c31c54d2)" d="M 238.56832 36.920314 
Q 355.819664 177.517818 418.183861 347.260322 
" style="fill:none;stroke:#000000;stroke-linecap:round;stroke-width:2.0;"/>
    <path clip-path="url(#pd8c31c54d2)" d="M 419.428469 336.149474 
L 418.183861 347.260322 
L 410.041947 339.598127 
L 419.428469 336.149474 
z
" style="stroke:#000000;stroke-linecap:round;stroke-width:2.0;"/>
   </g>
   <g id="patch_4">
    <path clip-path="url(#pd8c31c54d2)" d="M 235.676039 41.134282 
Q 298.040236 210.876787 415.291579 351.474291 
" style="fill:none;stroke:#000000;stroke-linecap:round;stroke-width:2.0;"/>
    <path clip-path="url(#pd8c31c54d2)" d="M 234.43143 52.24513 
L 235.676039 41.134282 
L 243.817952 48.796478 
L 234.43143 52.24513 
z
" style="stroke:#000000;stroke-linecap:round;stroke-width:2.0;"/>
   </g>
   <g id="patch_5">
    <path clip-path="url(#pd8c31c54d2)" d="M 224.434288 38.135311 
Q 134.331856 194.197302 45.347457 348.322802 
" style="fill:none;stroke:#000000;stroke-linecap:round;stroke-width:2.0;"/>
    <path clip-path="url(#pd8c31c54d2)" d="M 54.677584 342.162548 
L 45.347457 348.322802 
L 46.01733 337.162548 
L 54.677584 342.162548 
z
" style="stroke:#000000;stroke-linecap:round;stroke-width:2.0;"/>
   </g>
   <g id="matplotlib.axis_1"/>
   <g id="matplotlib.axis_2"/>
   <g id="patch_6">
    <path clip-path="url(#pd8c31c54d2)" d="M 38.032809 405.470769 
C 43.930743 405.470769 49.587908 403.127495 53.758377 398.957025 
C 57.928847 394.786556 60.272121 389.129391 60.272121 383.231457 
C 60.272121 377.333522 57.928847 371.676358 53.758377 367.505888 
C 49.587908 363.335419 43.930743 360.992145 38.032809 360.992145 
C 32.134874 360.992145 26.47771 363.335419 22.30724 367.505888 
C 18.13677 371.676358 15.793496 377.333522 15.793496 383.231457 
C 15.793496 389.129391 18.13677 394.786556 22.30724 398.957025 
C 26.47771 403.127495 32.134874 405.470769 38.032809 405.470769 
L 38.032809 405.470769 
z
" style="fill:none;stroke:#000000;stroke-linejoin:miter;"/>
   </g>
   <g id="patch_7">
    <path clip-path="url(#pd8c31c54d2)" d="M 423.228997 405.470769 
C 429.126931 405.470769 434.784096 403.127495 438.954565 398.957025 
C 443.125035 394.786556 445.468309 389.129391 445.468309 383.231457 
C 445.468309 377.333522 443.125035 371.676358 438.954565 367.505888 
C 434.784096 363.335419 429.126931 360.992145 423.228997 360.992145 
C 417.331062 360.992145 411.673898 363.335419 407.503428 367.505888 
C 403.332959 371.676358 400.989685 377.333522 400.989685 383.231457 
C 400.989685 389.129391 403.332959 394.786556 407.503428 398.957025 
C 411.673898 403.127495 417.331062 405.470769 423.228997 405.470769 
L 423.228997 405.470769 
z
" style="fill:none;stroke:#000000;stroke-linejoin:miter;"/>
   </g>
   <g id="patch_8">
    <path d="M 230.630903 39.795689 
C 233.917626 39.795689 237.070175 38.489861 239.394239 36.165797 
C 241.718303 33.841733 243.024132 30.689183 243.024132 27.40246 
C 243.024132 24.115737 241.718303 20.963188 239.394239 18.639124 
C 237.070175 16.31506 233.917626 15.009231 230.630903 15.009231 
C 227.34418 15.009231 224.19163 16.31506 221.867566 18.639124 
C 219.543502 20.963188 218.237673 24.115737 218.237673 27.40246 
C 218.237673 30.689183 219.543502 33.841733 221.867566 36.165797 
C 224.19163 38.489861 227.34418 39.795689 230.630903 39.795689 
z
" style="fill:#fec7b8;stroke:#000000;stroke-linejoin:miter;"/>
   </g>
   <g id="patch_9">
    <path d="M 423.228997 373.385374 
C 426.51572 373.385374 429.668269 372.079545 431.992333 369.755481 
C 434.316397 367.431417 435.622226 364.278867 435.622226 360.992145 
C 435.622226 357.705422 434.316397 354.552872 431.992333 352.228808 
C 429.668269 349.904744 426.51572 348.598915 423.228997 348.598915 
C 419.942274 348.598915 416.789724 349.904744 414.46566 352.228808 
C 412.141596 354.552872 410.835768 357.705422 410.835768 360.992145 
C 410.835768 364.278867 412.141596 367.431417 414.46566 369.755481 
C 416.789724 372.079545 419.942274 373.385374 423.228997 373.385374 
z
" style="fill:#fec7b8;stroke:#000000;stroke-linejoin:miter;"/>
   </g>
   <g id="patch_10">
    <path d="M 38.032809 373.385374 
C 41.319531 373.385374 44.472081 372.079545 46.796145 369.755481 
C 49.120209 367.431417 50.426038 364.278867 50.426038 360.992145 
C 50.426038 357.705422 49.120209 354.552872 46.796145 352.228808 
C 44.472081 349.904744 41.319531 348.598915 38.032809 348.598915 
C 34.746086 348.598915 31.593536 349.904744 29.269472 352.228808 
C 26.945408 354.552872 25.639579 357.705422 25.639579 360.992145 
C 25.639579 364.278867 26.945408 367.431417 29.269472 369.755481 
C 31.593536 372.079545 34.746086 373.385374 38.032809 373.385374 
z
" style="fill:#fec7b8;stroke:#000000;stroke-linejoin:miter;"/>
   </g>
   <g id="text_1">
    <!-- a -->
    <defs>
     <path d="M 34.28125 27.484375 
Q 23.390625 27.484375 19.1875 25 
Q 14.984375 22.515625 14.984375 16.5 
Q 14.984375 11.71875 18.140625 8.90625 
Q 21.296875 6.109375 26.703125 6.109375 
Q 34.1875 6.109375 38.703125 11.40625 
Q 43.21875 16.703125 43.21875 25.484375 
L 43.21875 27.484375 
z
M 52.203125 31.203125 
L 52.203125 0 
L 43.21875 0 
L 43.21875 8.296875 
Q 40.140625 3.328125 35.546875 0.953125 
Q 30.953125 -1.421875 24.3125 -1.421875 
Q 15.921875 -1.421875 10.953125 3.296875 
Q 6 8.015625 6 15.921875 
Q 6 25.140625 12.171875 29.828125 
Q 18.359375 34.515625 30.609375 34.515625 
L 43.21875 34.515625 
L 43.21875 35.40625 
Q 43.21875 41.609375 39.140625 45 
Q 35.0625 48.390625 27.6875 48.390625 
Q 23 48.390625 18.546875 47.265625 
Q 14.109375 46.140625 10.015625 43.890625 
L 10.015625 52.203125 
Q 14.9375 54.109375 19.578125 55.046875 
Q 24.21875 56 28.609375 56 
Q 40.484375 56 46.34375 49.84375 
Q 52.203125 43.703125 52.203125 31.203125 
" id="BitstreamVeraSans-Roman-61"/>
    </defs>
    <g transform="translate(227.566840248 30.1618350547)scale(0.1 -0.1)">
     <use xlink:href="#BitstreamVeraSans-Roman-61"/>
    </g>
   </g>
   <g id="text_2">
    <!-- b -->
    <defs>
     <path d="M 48.6875 27.296875 
Q 48.6875 37.203125 44.609375 42.84375 
Q 40.53125 48.484375 33.40625 48.484375 
Q 26.265625 48.484375 22.1875 42.84375 
Q 18.109375 37.203125 18.109375 27.296875 
Q 18.109375 17.390625 22.1875 11.75 
Q 26.265625 6.109375 33.40625 6.109375 
Q 40.53125 6.109375 44.609375 11.75 
Q 48.6875 17.390625 48.6875 27.296875 
M 18.109375 46.390625 
Q 20.953125 51.265625 25.265625 53.625 
Q 29.59375 56 35.59375 56 
Q 45.5625 56 51.78125 48.09375 
Q 58.015625 40.1875 58.015625 27.296875 
Q 58.015625 14.40625 51.78125 6.484375 
Q 45.5625 -1.421875 35.59375 -1.421875 
Q 29.59375 -1.421875 25.265625 0.953125 
Q 20.953125 3.328125 18.109375 8.203125 
L 18.109375 0 
L 9.078125 0 
L 9.078125 75.984375 
L 18.109375 75.984375 
z
" id="BitstreamVeraSans-Roman-62"/>
    </defs>
    <g transform="translate(34.858589814 363.751519622)scale(0.1 -0.1)">
     <use xlink:href="#BitstreamVeraSans-Roman-62"/>
    </g>
   </g>
   <g id="text_3">
    <!-- c -->
    <defs>
     <path d="M 48.78125 52.59375 
L 48.78125 44.1875 
Q 44.96875 46.296875 41.140625 47.34375 
Q 37.3125 48.390625 33.40625 48.390625 
Q 24.65625 48.390625 19.8125 42.84375 
Q 14.984375 37.3125 14.984375 27.296875 
Q 14.984375 17.28125 19.8125 11.734375 
Q 24.65625 6.203125 33.40625 6.203125 
Q 37.3125 6.203125 41.140625 7.25 
Q 44.96875 8.296875 48.78125 10.40625 
L 48.78125 2.09375 
Q 45.015625 0.34375 40.984375 -0.53125 
Q 36.96875 -1.421875 32.421875 -1.421875 
Q 20.0625 -1.421875 12.78125 6.34375 
Q 5.515625 14.109375 5.515625 27.296875 
Q 5.515625 40.671875 12.859375 48.328125 
Q 20.21875 56 33.015625 56 
Q 37.15625 56 41.109375 55.140625 
Q 45.0625 54.296875 48.78125 52.59375 
" id="BitstreamVeraSans-Roman-63"/>
    </defs>
    <g transform="translate(420.479778181 363.751519622)scale(0.1 -0.1)">
     <use xlink:href="#BitstreamVeraSans-Roman-63"/>
    </g>
   </g>
  </g>
 </g>
 <defs>
  <clipPath id="pd8c31c54d2">
   <rect height="406.08" width="446.861805495" x="7.2" y="7.2"/>
  </clipPath>
 </defs>
</svg>
