<?xml version="1.0" encoding="utf-8" standalone="no"?>
<!DOCTYPE svg PUBLIC "-//W3C//DTD SVG 1.1//EN"
  "http://www.w3.org/Graphics/SVG/1.1/DTD/svg11.dtd">
<!-- Created with matplotlib (http://matplotlib.org/) -->
<svg height="420pt" version="1.1" viewBox="0 0 451 420" width="451pt" xmlns="http://www.w3.org/2000/svg" xmlns:xlink="http://www.w3.org/1999/xlink">
 <defs>
  <style type="text/css">
*{stroke-linecap:butt;stroke-linejoin:round;stroke-miterlimit:100000;}
  </style>
 </defs>
 <g id="figure_1">
  <g id="patch_1">
   <path d="M 0 420.48 
L 451.021879 420.48 
L 451.021879 0 
L 0 0 
z
" style="fill:#ffffff;"/>
  </g>
  <g id="axes_1">
   <g id="patch_2">
    <path d="M 7.2 413.28 
L 443.821879 413.28 
L 443.821879 7.2 
L 7.2 7.2 
z
" style="fill:#ffffff;"/>
   </g>
   <g id="patch_3">
    <path clip-path="url(#pbc23c52fbb)" d="M 216.313904 39.035392 
Q 153.178565 210.876787 37.359343 349.757017 
" style="fill:none;stroke:#000000;stroke-linecap:round;stroke-width:2.0;"/>
    <path clip-path="url(#pbc23c52fbb)" d="M 47.603924 345.279456 
L 37.359343 349.757017 
L 39.924042 338.874816 
L 47.603924 345.279456 
z
" style="stroke:#000000;stroke-linecap:round;stroke-width:2.0;"/>
   </g>
   <g id="patch_4">
    <path clip-path="url(#pbc23c52fbb)" d="M 211.218359 38.637587 
Q 95.399137 177.517818 32.263798 349.359213 
" style="fill:none;stroke:#000000;stroke-linecap:round;stroke-width:2.0;"/>
    <path clip-path="url(#pbc23c52fbb)" d="M 200.973778 43.115149 
L 211.218359 38.637587 
L 208.65366 49.519789 
L 200.973778 43.115149 
z
" style="stroke:#000000;stroke-linecap:round;stroke-width:2.0;"/>
   </g>
   <g id="patch_5">
    <path clip-path="url(#pbc23c52fbb)" d="M 228.525316 36.920314 
Q 345.776659 177.517818 408.140856 347.260322 
" style="fill:none;stroke:#000000;stroke-linecap:round;stroke-width:2.0;"/>
    <path clip-path="url(#pbc23c52fbb)" d="M 409.385465 336.149474 
L 408.140856 347.260322 
L 399.998943 339.598127 
L 409.385465 336.149474 
z
" style="stroke:#000000;stroke-linecap:round;stroke-width:2.0;"/>
   </g>
   <g id="patch_6">
    <path clip-path="url(#pbc23c52fbb)" d="M 225.633034 41.134282 
Q 287.997231 210.876787 405.248575 351.474291 
" style="fill:none;stroke:#000000;stroke-linecap:round;stroke-width:2.0;"/>
    <path clip-path="url(#pbc23c52fbb)" d="M 224.388426 52.24513 
L 225.633034 41.134282 
L 233.774948 48.796478 
L 224.388426 52.24513 
z
" style="stroke:#000000;stroke-linecap:round;stroke-width:2.0;"/>
   </g>
   <g id="patch_7">
    <path clip-path="url(#pbc23c52fbb)" d="M 40.383033 360.992145 
Q 220.587898 360.992145 398.556695 360.992145 
" style="fill:none;stroke:#000000;stroke-linecap:round;stroke-width:2.0;"/>
    <path clip-path="url(#pbc23c52fbb)" d="M 388.556695 355.992145 
L 398.556695 360.992145 
L 388.556695 365.992145 
L 388.556695 355.992145 
z
" style="stroke:#000000;stroke-linecap:round;stroke-width:2.0;"/>
   </g>
   <g id="matplotlib.axis_1"/>
   <g id="matplotlib.axis_2"/>
   <g id="patch_8">
    <path clip-path="url(#pbc23c52fbb)" d="M 413.185992 405.470769 
C 419.083927 405.470769 424.741091 403.127495 428.911561 398.957025 
C 433.08203 394.786556 435.425305 389.129391 435.425305 383.231457 
C 435.425305 377.333522 433.08203 371.676358 428.911561 367.505888 
C 424.741091 363.335419 419.083927 360.992145 413.185992 360.992145 
C 407.288058 360.992145 401.630893 363.335419 397.460424 367.505888 
C 393.289954 371.676358 390.94668 377.333522 390.94668 383.231457 
C 390.94668 389.129391 393.289954 394.786556 397.460424 398.957025 
C 401.630893 403.127495 407.288058 405.470769 413.185992 405.470769 
L 413.185992 405.470769 
z
" style="fill:none;stroke:#000000;stroke-linejoin:miter;"/>
   </g>
   <g id="patch_9">
    <path d="M 220.587898 39.795689 
C 223.874621 39.795689 227.027171 38.489861 229.351235 36.165797 
C 231.675299 33.841733 232.981127 30.689183 232.981127 27.40246 
C 232.981127 24.115737 231.675299 20.963188 229.351235 18.639124 
C 227.027171 16.31506 223.874621 15.009231 220.587898 15.009231 
C 217.301175 15.009231 214.148626 16.31506 211.824562 18.639124 
C 209.500498 20.963188 208.194669 24.115737 208.194669 27.40246 
C 208.194669 30.689183 209.500498 33.841733 211.824562 36.165797 
C 214.148626 38.489861 217.301175 39.795689 220.587898 39.795689 
z
" style="fill:#fec7b8;stroke:#000000;stroke-linejoin:miter;"/>
   </g>
   <g id="patch_10">
    <path d="M 27.989804 373.385374 
C 31.276527 373.385374 34.429076 372.079545 36.75314 369.755481 
C 39.077204 367.431417 40.383033 364.278867 40.383033 360.992145 
C 40.383033 357.705422 39.077204 354.552872 36.75314 352.228808 
C 34.429076 349.904744 31.276527 348.598915 27.989804 348.598915 
C 24.703081 348.598915 21.550531 349.904744 19.226467 352.228808 
C 16.902403 354.552872 15.596575 357.705422 15.596575 360.992145 
C 15.596575 364.278867 16.902403 367.431417 19.226467 369.755481 
C 21.550531 372.079545 24.703081 373.385374 27.989804 373.385374 
z
" style="fill:#fec7b8;stroke:#000000;stroke-linejoin:miter;"/>
   </g>
   <g id="patch_11">
    <path d="M 413.185992 373.385374 
C 416.472715 373.385374 419.625265 372.079545 421.949329 369.755481 
C 424.273393 367.431417 425.579222 364.278867 425.579222 360.992145 
C 425.579222 357.705422 424.273393 354.552872 421.949329 352.228808 
C 419.625265 349.904744 416.472715 348.598915 413.185992 348.598915 
C 409.899269 348.598915 406.74672 349.904744 404.422656 352.228808 
C 402.098592 354.552872 400.792763 357.705422 400.792763 360.992145 
C 400.792763 364.278867 402.098592 367.431417 404.422656 369.755481 
C 406.74672 372.079545 409.899269 373.385374 413.185992 373.385374 
z
" style="fill:#fec7b8;stroke:#000000;stroke-linejoin:miter;"/>
   </g>
   <g id="text_1">
    <!-- 1 -->
    <defs>
     <path d="M 12.40625 8.296875 
L 28.515625 8.296875 
L 28.515625 63.921875 
L 10.984375 60.40625 
L 10.984375 69.390625 
L 28.421875 72.90625 
L 38.28125 72.90625 
L 38.28125 8.296875 
L 54.390625 8.296875 
L 54.390625 0 
L 12.40625 0 
z
" id="BitstreamVeraSans-Roman-31"/>
    </defs>
    <g transform="translate(217.406648068 30.1618350547)scale(0.1 -0.1)">
     <use xlink:href="#BitstreamVeraSans-Roman-31"/>
    </g>
   </g>
   <g id="text_2">
    <!-- 2 -->
    <defs>
     <path d="M 19.1875 8.296875 
L 53.609375 8.296875 
L 53.609375 0 
L 7.328125 0 
L 7.328125 8.296875 
Q 12.9375 14.109375 22.625 23.890625 
Q 32.328125 33.6875 34.8125 36.53125 
Q 39.546875 41.84375 41.421875 45.53125 
Q 43.3125 49.21875 43.3125 52.78125 
Q 43.3125 58.59375 39.234375 62.25 
Q 35.15625 65.921875 28.609375 65.921875 
Q 23.96875 65.921875 18.8125 64.3125 
Q 13.671875 62.703125 7.8125 59.421875 
L 7.8125 69.390625 
Q 13.765625 71.78125 18.9375 73 
Q 24.125 74.21875 28.421875 74.21875 
Q 39.75 74.21875 46.484375 68.546875 
Q 53.21875 62.890625 53.21875 53.421875 
Q 53.21875 48.921875 51.53125 44.890625 
Q 49.859375 40.875 45.40625 35.40625 
Q 44.1875 33.984375 37.640625 27.21875 
Q 31.109375 20.453125 19.1875 8.296875 
" id="BitstreamVeraSans-Roman-32"/>
    </defs>
    <g transform="translate(24.8085538847 363.751519622)scale(0.1 -0.1)">
     <use xlink:href="#BitstreamVeraSans-Roman-32"/>
    </g>
   </g>
   <g id="text_3">
    <!-- 3 -->
    <defs>
     <path d="M 40.578125 39.3125 
Q 47.65625 37.796875 51.625 33 
Q 55.609375 28.21875 55.609375 21.1875 
Q 55.609375 10.40625 48.1875 4.484375 
Q 40.765625 -1.421875 27.09375 -1.421875 
Q 22.515625 -1.421875 17.65625 -0.515625 
Q 12.796875 0.390625 7.625 2.203125 
L 7.625 11.71875 
Q 11.71875 9.328125 16.59375 8.109375 
Q 21.484375 6.890625 26.8125 6.890625 
Q 36.078125 6.890625 40.9375 10.546875 
Q 45.796875 14.203125 45.796875 21.1875 
Q 45.796875 27.640625 41.28125 31.265625 
Q 36.765625 34.90625 28.71875 34.90625 
L 20.21875 34.90625 
L 20.21875 43.015625 
L 29.109375 43.015625 
Q 36.375 43.015625 40.234375 45.921875 
Q 44.09375 48.828125 44.09375 54.296875 
Q 44.09375 59.90625 40.109375 62.90625 
Q 36.140625 65.921875 28.71875 65.921875 
Q 24.65625 65.921875 20.015625 65.03125 
Q 15.375 64.15625 9.8125 62.3125 
L 9.8125 71.09375 
Q 15.4375 72.65625 20.34375 73.4375 
Q 25.25 74.21875 29.59375 74.21875 
Q 40.828125 74.21875 47.359375 69.109375 
Q 53.90625 64.015625 53.90625 55.328125 
Q 53.90625 49.265625 50.4375 45.09375 
Q 46.96875 40.921875 40.578125 39.3125 
" id="BitstreamVeraSans-Roman-33"/>
    </defs>
    <g transform="translate(410.004742252 363.751519622)scale(0.1 -0.1)">
     <use xlink:href="#BitstreamVeraSans-Roman-33"/>
    </g>
   </g>
  </g>
 </g>
 <defs>
  <clipPath id="pbc23c52fbb">
   <rect height="406.08" width="436.621879156" x="7.2" y="7.2"/>
  </clipPath>
 </defs>
</svg>
