<?xml version="1.0" encoding="utf-8" standalone="no"?>
<!DOCTYPE svg PUBLIC "-//W3C//DTD SVG 1.1//EN"
  "http://www.w3.org/Graphics/SVG/1.1/DTD/svg11.dtd">
<svg xmlns:xlink="http://www.w3.org/1999/xlink" width="336.922415pt" height="338.4pt" viewBox="0 0 336.922415 338.4" xmlns="http://www.w3.org/2000/svg" version="1.1">
 <metadata>
  <rdf:RDF xmlns:dc="http://purl.org/dc/elements/1.1/" xmlns:cc="http://creativecommons.org/ns#" xmlns:rdf="http://www.w3.org/1999/02/22-rdf-syntax-ns#">
   <cc:Work>
    <dc:type rdf:resource="http://purl.org/dc/dcmitype/StillImage"/>
    <dc:date>2023-08-25T12:36:25.253592</dc:date>
    <dc:format>image/svg+xml</dc:format>
    <dc:creator>
     <cc:Agent>
      <dc:title>Matplotlib v3.6.2, https://matplotlib.org/</dc:title>
     </cc:Agent>
    </dc:creator>
   </cc:Work>
  </rdf:RDF>
 </metadata>
 <defs>
  <style type="text/css">*{stroke-linejoin: round; stroke-linecap: butt}</style>
 </defs>
 <g id="figure_1">
  <g id="patch_1">
   <path d="M 0 338.4 
L 336.922415 338.4 
L 336.922415 0 
L 0 0 
z
" style="fill: #ffffff"/>
  </g>
  <g id="axes_1">
   <g id="patch_2">
    <path d="M 7.2 331.2 
L 329.722415 331.2 
L 329.722415 7.2 
L 7.2 7.2 
z
" style="fill: #ffffff"/>
   </g>
   <g id="patch_3">
    <path d="M 290.278654 262.108006 
Q 323.520061 151.303315 290.921183 42.640389 
" clip-path="url(#pbb680da4cf)" style="fill: none; stroke: #000000; stroke-width: 2; stroke-linecap: round"/>
    <path d="M 289.005531 53.655391 
L 290.921183 42.640389 
L 298.583793 50.781912 
L 289.005531 53.655391 
z
" clip-path="url(#pbb680da4cf)" style="stroke: #000000; stroke-width: 2; stroke-linecap: round"/>
   </g>
   <g id="patch_4">
    <path d="M 281.690689 259.966241 
Q 249.091811 151.303315 282.333219 40.498624 
" clip-path="url(#pbb680da4cf)" style="fill: none; stroke: #000000; stroke-width: 2; stroke-linecap: round"/>
    <path d="M 283.606342 248.951239 
L 281.690689 259.966241 
L 274.028079 251.824718 
L 283.606342 248.951239 
z
" clip-path="url(#pbb680da4cf)" style="stroke: #000000; stroke-width: 2; stroke-linecap: round"/>
   </g>
   <g id="matplotlib.axis_1"/>
   <g id="matplotlib.axis_2"/>
   <g id="patch_5">
    <path d="M 38.211771 261.524935 
Q 38.211771 151.303315 38.211771 43.317763 
" clip-path="url(#pbb680da4cf)" style="fill: none; stroke: #000000; stroke-width: 2; stroke-linecap: round"/>
    <path d="M 33.211771 53.317763 
L 38.211771 43.317763 
L 43.211771 53.317763 
L 33.211771 53.317763 
z
" clip-path="url(#pbb680da4cf)" style="stroke: #000000; stroke-width: 2; stroke-linecap: round"/>
   </g>
   <g id="patch_6">
    <path d="M 49.568988 263.99318 
Q 162.258853 151.303315 276.529858 37.032311 
" clip-path="url(#pbb680da4cf)" style="fill: none; stroke: #000000; stroke-width: 2; stroke-linecap: round"/>
    <path d="M 60.17559 260.457646 
L 49.568988 263.99318 
L 53.104522 253.386579 
L 60.17559 260.457646 
z
" clip-path="url(#pbb680da4cf)" style="stroke: #000000; stroke-width: 2; stroke-linecap: round"/>
   </g>
   <g id="patch_7">
    <path d="M 270.244405 27.256232 
Q 162.258853 27.256232 52.037234 27.256232 
" clip-path="url(#pbb680da4cf)" style="fill: none; stroke: #000000; stroke-width: 2; stroke-linecap: round"/>
    <path d="M 260.244405 22.256232 
L 270.244405 27.256232 
L 260.244405 32.256232 
L 260.244405 22.256232 
z
" clip-path="url(#pbb680da4cf)" style="stroke: #000000; stroke-width: 2; stroke-linecap: round"/>
   </g>
   <g id="patch_8">
    <path d="M 38.211771 289.175861 
C 41.878326 289.175861 45.395203 287.719123 47.987849 285.126476 
C 50.580496 282.53383 52.037234 279.016953 52.037234 275.350398 
C 52.037234 271.683842 50.580496 268.166965 47.987849 265.574319 
C 45.395203 262.981673 41.878326 261.524935 38.211771 261.524935 
C 34.545215 261.524935 31.028338 262.981673 28.435692 265.574319 
C 25.843046 268.166965 24.386308 271.683842 24.386308 275.350398 
C 24.386308 279.016953 25.843046 282.53383 28.435692 285.126476 
C 31.028338 287.719123 34.545215 289.175861 38.211771 289.175861 
z
" style="fill: #fec7b8; stroke: #000000; stroke-linejoin: miter"/>
   </g>
   <g id="patch_9">
    <path d="M 286.305936 289.175861 
C 289.972492 289.175861 293.489368 287.719123 296.082015 285.126476 
C 298.674661 282.53383 300.131399 279.016953 300.131399 275.350398 
C 300.131399 271.683842 298.674661 268.166965 296.082015 265.574319 
C 293.489368 262.981673 289.972492 261.524935 286.305936 261.524935 
C 282.639381 261.524935 279.122504 262.981673 276.529858 265.574319 
C 273.937211 268.166965 272.480473 271.683842 272.480473 275.350398 
C 272.480473 279.016953 273.937211 282.53383 276.529858 285.126476 
C 279.122504 287.719123 282.639381 289.175861 286.305936 289.175861 
z
" style="fill: #fec7b8; stroke: #000000; stroke-linejoin: miter"/>
   </g>
   <g id="patch_10">
    <path d="M 286.305936 41.081695 
C 289.972492 41.081695 293.489368 39.624957 296.082015 37.032311 
C 298.674661 34.439664 300.131399 30.922788 300.131399 27.256232 
C 300.131399 23.589677 298.674661 20.0728 296.082015 17.480154 
C 293.489368 14.887507 289.972492 13.430769 286.305936 13.430769 
C 282.639381 13.430769 279.122504 14.887507 276.529858 17.480154 
C 273.937211 20.0728 272.480473 23.589677 272.480473 27.256232 
C 272.480473 30.922788 273.937211 34.439664 276.529858 37.032311 
C 279.122504 39.624957 282.639381 41.081695 286.305936 41.081695 
z
" style="fill: #fec7b8; stroke: #000000; stroke-linejoin: miter"/>
   </g>
   <g id="patch_11">
    <path d="M 38.211771 41.081695 
C 41.878326 41.081695 45.395203 39.624957 47.987849 37.032311 
C 50.580496 34.439664 52.037234 30.922788 52.037234 27.256232 
C 52.037234 23.589677 50.580496 20.0728 47.987849 17.480154 
C 45.395203 14.887507 41.878326 13.430769 38.211771 13.430769 
C 34.545215 13.430769 31.028338 14.887507 28.435692 17.480154 
C 25.843046 20.0728 24.386308 23.589677 24.386308 27.256232 
C 24.386308 30.922788 25.843046 34.439664 28.435692 37.032311 
C 31.028338 39.624957 34.545215 41.081695 38.211771 41.081695 
z
" style="fill: #fec7b8; stroke: #000000; stroke-linejoin: miter"/>
   </g>
   <g id="patch_12">
    <path d="M 38.211771 324.969231 
C 44.791305 324.969231 51.102244 322.355154 55.754677 317.702721 
C 60.407111 313.050288 63.021187 306.739348 63.021187 300.159814 
C 63.021187 293.58028 60.407111 287.269341 55.754677 282.616908 
C 51.102244 277.964474 44.791305 275.350398 38.211771 275.350398 
C 31.632237 275.350398 25.321297 277.964474 20.668864 282.616908 
C 16.016431 287.269341 13.402354 293.58028 13.402354 300.159814 
C 13.402354 306.739348 16.016431 313.050288 20.668864 317.702721 
C 25.321297 322.355154 31.632237 324.969231 38.211771 324.969231 
L 38.211771 324.969231 
z
" clip-path="url(#pbb680da4cf)" style="fill: none; stroke: #000000; stroke-linejoin: miter"/>
   </g>
   <g id="text_1">
    <!-- 0 -->
    <g transform="translate(35.030521 278.109773) scale(0.1 -0.1)">
     <defs>
      <path id="DejaVuSans-30" d="M 2034 4250 
Q 1547 4250 1301 3770 
Q 1056 3291 1056 2328 
Q 1056 1369 1301 889 
Q 1547 409 2034 409 
Q 2525 409 2770 889 
Q 3016 1369 3016 2328 
Q 3016 3291 2770 3770 
Q 2525 4250 2034 4250 
z
M 2034 4750 
Q 2819 4750 3233 4129 
Q 3647 3509 3647 2328 
Q 3647 1150 3233 529 
Q 2819 -91 2034 -91 
Q 1250 -91 836 529 
Q 422 1150 422 2328 
Q 422 3509 836 4129 
Q 1250 4750 2034 4750 
z
" transform="scale(0.015625)"/>
     </defs>
     <use xlink:href="#DejaVuSans-30"/>
    </g>
   </g>
   <g id="text_2">
    <!-- 1 -->
    <g transform="translate(283.124686 278.109773) scale(0.1 -0.1)">
     <defs>
      <path id="DejaVuSans-31" d="M 794 531 
L 1825 531 
L 1825 4091 
L 703 3866 
L 703 4441 
L 1819 4666 
L 2450 4666 
L 2450 531 
L 3481 531 
L 3481 0 
L 794 0 
L 794 531 
z
" transform="scale(0.015625)"/>
     </defs>
     <use xlink:href="#DejaVuSans-31"/>
    </g>
   </g>
   <g id="text_3">
    <!-- 2 -->
    <g transform="translate(283.124686 30.015607) scale(0.1 -0.1)">
     <defs>
      <path id="DejaVuSans-32" d="M 1228 531 
L 3431 531 
L 3431 0 
L 469 0 
L 469 531 
Q 828 903 1448 1529 
Q 2069 2156 2228 2338 
Q 2531 2678 2651 2914 
Q 2772 3150 2772 3378 
Q 2772 3750 2511 3984 
Q 2250 4219 1831 4219 
Q 1534 4219 1204 4116 
Q 875 4013 500 3803 
L 500 4441 
Q 881 4594 1212 4672 
Q 1544 4750 1819 4750 
Q 2544 4750 2975 4387 
Q 3406 4025 3406 3419 
Q 3406 3131 3298 2873 
Q 3191 2616 2906 2266 
Q 2828 2175 2409 1742 
Q 1991 1309 1228 531 
z
" transform="scale(0.015625)"/>
     </defs>
     <use xlink:href="#DejaVuSans-32"/>
    </g>
   </g>
   <g id="text_4">
    <!-- 3 -->
    <g transform="translate(35.030521 30.015607) scale(0.1 -0.1)">
     <defs>
      <path id="DejaVuSans-33" d="M 2597 2516 
Q 3050 2419 3304 2112 
Q 3559 1806 3559 1356 
Q 3559 666 3084 287 
Q 2609 -91 1734 -91 
Q 1441 -91 1130 -33 
Q 819 25 488 141 
L 488 750 
Q 750 597 1062 519 
Q 1375 441 1716 441 
Q 2309 441 2620 675 
Q 2931 909 2931 1356 
Q 2931 1769 2642 2001 
Q 2353 2234 1838 2234 
L 1294 2234 
L 1294 2753 
L 1863 2753 
Q 2328 2753 2575 2939 
Q 2822 3125 2822 3475 
Q 2822 3834 2567 4026 
Q 2313 4219 1838 4219 
Q 1578 4219 1281 4162 
Q 984 4106 628 3988 
L 628 4550 
Q 988 4650 1302 4700 
Q 1616 4750 1894 4750 
Q 2613 4750 3031 4423 
Q 3450 4097 3450 3541 
Q 3450 3153 3228 2886 
Q 3006 2619 2597 2516 
z
" transform="scale(0.015625)"/>
     </defs>
     <use xlink:href="#DejaVuSans-33"/>
    </g>
   </g>
  </g>
 </g>
 <defs>
  <clipPath id="pbb680da4cf">
   <rect x="7.2" y="7.2" width="322.522415" height="324"/>
  </clipPath>
 </defs>
</svg>
