<?xml version="1.0" encoding="utf-8" standalone="no"?>
<!DOCTYPE svg PUBLIC "-//W3C//DTD SVG 1.1//EN"
  "http://www.w3.org/Graphics/SVG/1.1/DTD/svg11.dtd">
<svg xmlns:xlink="http://www.w3.org/1999/xlink" width="362.768521pt" height="338.4pt" viewBox="0 0 362.768521 338.4" xmlns="http://www.w3.org/2000/svg" version="1.1">
 <metadata>
  <rdf:RDF xmlns:dc="http://purl.org/dc/elements/1.1/" xmlns:cc="http://creativecommons.org/ns#" xmlns:rdf="http://www.w3.org/1999/02/22-rdf-syntax-ns#">
   <cc:Work>
    <dc:type rdf:resource="http://purl.org/dc/dcmitype/StillImage"/>
    <dc:date>2023-08-25T12:36:15.663725</dc:date>
    <dc:format>image/svg+xml</dc:format>
    <dc:creator>
     <cc:Agent>
      <dc:title>Matplotlib v3.6.2, https://matplotlib.org/</dc:title>
     </cc:Agent>
    </dc:creator>
   </cc:Work>
  </rdf:RDF>
 </metadata>
 <defs>
  <style type="text/css">*{stroke-linejoin: round; stroke-linecap: butt}</style>
 </defs>
 <g id="figure_1">
  <g id="patch_1">
   <path d="M 0 338.4 
L 362.768521 338.4 
L 362.768521 0 
L 0 0 
z
" style="fill: #ffffff"/>
  </g>
  <g id="axes_1">
   <g id="patch_2">
    <path d="M 7.2 331.2 
L 355.568521 331.2 
L 355.568521 7.2 
L 7.2 7.2 
z
" style="fill: #ffffff"/>
   </g>
   <g id="patch_3">
    <path d="M 174.0462 32.600579 
Q 123.672259 169.708074 31.552777 280.169661 
" clip-path="url(#pb461965b66)" style="fill: none; stroke: #000000; stroke-width: 2; stroke-linecap: round"/>
    <path d="M 41.797358 275.692099 
L 31.552777 280.169661 
L 34.117476 269.287459 
L 41.797358 275.692099 
z
" clip-path="url(#pb461965b66)" style="stroke: #000000; stroke-width: 2; stroke-linecap: round"/>
   </g>
   <g id="patch_4">
    <path d="M 169.691135 32.63029 
Q 77.571652 143.091876 27.197711 280.199372 
" clip-path="url(#pb461965b66)" style="fill: none; stroke: #000000; stroke-width: 2; stroke-linecap: round"/>
    <path d="M 159.446553 37.107851 
L 169.691135 32.63029 
L 167.126435 43.512492 
L 159.446553 37.107851 
z
" clip-path="url(#pb461965b66)" style="stroke: #000000; stroke-width: 2; stroke-linecap: round"/>
   </g>
   <g id="patch_5">
    <path d="M 183.789348 30.913016 
Q 277.340952 143.091876 326.94375 278.100482 
" clip-path="url(#pb461965b66)" style="fill: none; stroke: #000000; stroke-width: 2; stroke-linecap: round"/>
    <path d="M 328.188359 266.989633 
L 326.94375 278.100482 
L 318.801837 270.438286 
L 328.188359 266.989633 
z
" clip-path="url(#pb461965b66)" style="stroke: #000000; stroke-width: 2; stroke-linecap: round"/>
   </g>
   <g id="patch_6">
    <path d="M 181.637545 34.699469 
Q 231.240344 169.708074 324.791948 281.886934 
" clip-path="url(#pb461965b66)" style="fill: none; stroke: #000000; stroke-width: 2; stroke-linecap: round"/>
    <path d="M 180.392937 45.810317 
L 181.637545 34.699469 
L 189.779459 42.361665 
L 180.392937 45.810317 
z
" clip-path="url(#pb461965b66)" style="stroke: #000000; stroke-width: 2; stroke-linecap: round"/>
   </g>
   <g id="matplotlib.axis_1"/>
   <g id="matplotlib.axis_2"/>
   <g id="patch_7">
    <path d="M 33.675824 289.480966 
Q 177.456302 289.480966 319.000711 289.480966 
" clip-path="url(#pb461965b66)" style="fill: none; stroke: #000000; stroke-width: 2; stroke-linecap: round"/>
    <path d="M 309.000711 284.480966 
L 319.000711 289.480966 
L 309.000711 294.480966 
L 309.000711 284.480966 
z
" clip-path="url(#pb461965b66)" style="stroke: #000000; stroke-width: 2; stroke-linecap: round"/>
   </g>
   <g id="patch_8">
    <path d="M 177.456302 33.207199 
C 180.078687 33.207199 182.594019 32.165314 184.448325 30.311008 
C 186.302632 28.456701 187.344517 25.941369 187.344517 23.318984 
C 187.344517 20.696599 186.302632 18.181267 184.448325 16.32696 
C 182.594019 14.472654 180.078687 13.430769 177.456302 13.430769 
C 174.833916 13.430769 172.318584 14.472654 170.464278 16.32696 
C 168.609971 18.181267 167.568087 20.696599 167.568087 23.318984 
C 167.568087 25.941369 168.609971 28.456701 170.464278 30.311008 
C 172.318584 32.165314 174.833916 33.207199 177.456302 33.207199 
z
" style="fill: #fec7b8; stroke: #000000; stroke-linejoin: miter"/>
   </g>
   <g id="patch_9">
    <path d="M 23.787609 299.369181 
C 26.409995 299.369181 28.925327 298.327297 30.779633 296.47299 
C 32.63394 294.618684 33.675824 292.103352 33.675824 289.480966 
C 33.675824 286.858581 32.63394 284.343249 30.779633 282.488943 
C 28.925327 280.634636 26.409995 279.592752 23.787609 279.592752 
C 21.165224 279.592752 18.649892 280.634636 16.795586 282.488943 
C 14.941279 284.343249 13.899395 286.858581 13.899395 289.480966 
C 13.899395 292.103352 14.941279 294.618684 16.795586 296.47299 
C 18.649892 298.327297 21.165224 299.369181 23.787609 299.369181 
z
" style="fill: #fec7b8; stroke: #000000; stroke-linejoin: miter"/>
   </g>
   <g id="patch_10">
    <path d="M 331.124994 299.369181 
C 333.747379 299.369181 336.262711 298.327297 338.117018 296.47299 
C 339.971324 294.618684 341.013209 292.103352 341.013209 289.480966 
C 341.013209 286.858581 339.971324 284.343249 338.117018 282.488943 
C 336.262711 280.634636 333.747379 279.592752 331.124994 279.592752 
C 328.502609 279.592752 325.987276 280.634636 324.13297 282.488943 
C 322.278664 284.343249 321.236779 286.858581 321.236779 289.480966 
C 321.236779 292.103352 322.278664 294.618684 324.13297 296.47299 
C 325.987276 298.327297 328.502609 299.369181 331.124994 299.369181 
z
" style="fill: #fec7b8; stroke: #000000; stroke-linejoin: miter"/>
   </g>
   <g id="patch_11">
    <path d="M 331.124994 324.969231 
C 335.830793 324.969231 340.344488 323.099597 343.67199 319.772095 
C 346.999492 316.444593 348.869126 311.930897 348.869126 307.225099 
C 348.869126 302.5193 346.999492 298.005605 343.67199 294.678102 
C 340.344488 291.3506 335.830793 289.480966 331.124994 289.480966 
C 326.419195 289.480966 321.9055 291.3506 318.577998 294.678102 
C 315.250495 298.005605 313.380862 302.5193 313.380862 307.225099 
C 313.380862 311.930897 315.250495 316.444593 318.577998 319.772095 
C 321.9055 323.099597 326.419195 324.969231 331.124994 324.969231 
L 331.124994 324.969231 
z
" clip-path="url(#pb461965b66)" style="fill: none; stroke: #000000; stroke-linejoin: miter"/>
   </g>
   <g id="text_1">
    <!-- 1 -->
    <g transform="translate(174.275052 26.078359) scale(0.1 -0.1)">
     <defs>
      <path id="DejaVuSans-31" d="M 794 531 
L 1825 531 
L 1825 4091 
L 703 3866 
L 703 4441 
L 1819 4666 
L 2450 4666 
L 2450 531 
L 3481 531 
L 3481 0 
L 794 0 
L 794 531 
z
" transform="scale(0.015625)"/>
     </defs>
     <use xlink:href="#DejaVuSans-31"/>
    </g>
   </g>
   <g id="text_2">
    <!-- 2 -->
    <g transform="translate(20.606359 292.240341) scale(0.1 -0.1)">
     <defs>
      <path id="DejaVuSans-32" d="M 1228 531 
L 3431 531 
L 3431 0 
L 469 0 
L 469 531 
Q 828 903 1448 1529 
Q 2069 2156 2228 2338 
Q 2531 2678 2651 2914 
Q 2772 3150 2772 3378 
Q 2772 3750 2511 3984 
Q 2250 4219 1831 4219 
Q 1534 4219 1204 4116 
Q 875 4013 500 3803 
L 500 4441 
Q 881 4594 1212 4672 
Q 1544 4750 1819 4750 
Q 2544 4750 2975 4387 
Q 3406 4025 3406 3419 
Q 3406 3131 3298 2873 
Q 3191 2616 2906 2266 
Q 2828 2175 2409 1742 
Q 1991 1309 1228 531 
z
" transform="scale(0.015625)"/>
     </defs>
     <use xlink:href="#DejaVuSans-32"/>
    </g>
   </g>
   <g id="text_3">
    <!-- 3 -->
    <g transform="translate(327.943744 292.240341) scale(0.1 -0.1)">
     <defs>
      <path id="DejaVuSans-33" d="M 2597 2516 
Q 3050 2419 3304 2112 
Q 3559 1806 3559 1356 
Q 3559 666 3084 287 
Q 2609 -91 1734 -91 
Q 1441 -91 1130 -33 
Q 819 25 488 141 
L 488 750 
Q 750 597 1062 519 
Q 1375 441 1716 441 
Q 2309 441 2620 675 
Q 2931 909 2931 1356 
Q 2931 1769 2642 2001 
Q 2353 2234 1838 2234 
L 1294 2234 
L 1294 2753 
L 1863 2753 
Q 2328 2753 2575 2939 
Q 2822 3125 2822 3475 
Q 2822 3834 2567 4026 
Q 2313 4219 1838 4219 
Q 1578 4219 1281 4162 
Q 984 4106 628 3988 
L 628 4550 
Q 988 4650 1302 4700 
Q 1616 4750 1894 4750 
Q 2613 4750 3031 4423 
Q 3450 4097 3450 3541 
Q 3450 3153 3228 2886 
Q 3006 2619 2597 2516 
z
" transform="scale(0.015625)"/>
     </defs>
     <use xlink:href="#DejaVuSans-33"/>
    </g>
   </g>
  </g>
 </g>
 <defs>
  <clipPath id="pb461965b66">
   <rect x="7.2" y="7.2" width="348.368521" height="324"/>
  </clipPath>
 </defs>
</svg>
