<?xml version="1.0" encoding="utf-8" standalone="no"?>
<!DOCTYPE svg PUBLIC "-//W3C//DTD SVG 1.1//EN"
  "http://www.w3.org/Graphics/SVG/1.1/DTD/svg11.dtd">
<svg xmlns:xlink="http://www.w3.org/1999/xlink" width="370.938675pt" height="338.4pt" viewBox="0 0 370.938675 338.4" xmlns="http://www.w3.org/2000/svg" version="1.1">
 <metadata>
  <rdf:RDF xmlns:dc="http://purl.org/dc/elements/1.1/" xmlns:cc="http://creativecommons.org/ns#" xmlns:rdf="http://www.w3.org/1999/02/22-rdf-syntax-ns#">
   <cc:Work>
    <dc:type rdf:resource="http://purl.org/dc/dcmitype/StillImage"/>
    <dc:date>2023-08-25T12:36:06.556674</dc:date>
    <dc:format>image/svg+xml</dc:format>
    <dc:creator>
     <cc:Agent>
      <dc:title>Matplotlib v3.6.2, https://matplotlib.org/</dc:title>
     </cc:Agent>
    </dc:creator>
   </cc:Work>
  </rdf:RDF>
 </metadata>
 <defs>
  <style type="text/css">*{stroke-linejoin: round; stroke-linecap: butt}</style>
 </defs>
 <g id="figure_1">
  <g id="patch_1">
   <path d="M -0 338.4 
L 370.938675 338.4 
L 370.938675 0 
L -0 0 
z
" style="fill: #ffffff"/>
  </g>
  <g id="axes_1">
   <g id="patch_2">
    <path d="M 7.2 331.2 
L 363.738675 331.2 
L 363.738675 7.2 
L 7.2 7.2 
z
" style="fill: #ffffff"/>
   </g>
   <g id="patch_3">
    <path d="M 335.727928 280.199372 
Q 285.353987 143.091876 193.234504 32.63029 
" clip-path="url(#pac30597eb4)" style="fill: none; stroke: #000000; stroke-width: 2; stroke-linecap: round"/>
    <path d="M 195.799204 43.512492 
L 193.234504 32.63029 
L 203.479086 37.107851 
L 195.799204 43.512492 
z
" clip-path="url(#pac30597eb4)" style="stroke: #000000; stroke-width: 2; stroke-linecap: round"/>
   </g>
   <g id="patch_4">
    <path d="M 331.372862 280.169661 
Q 239.25338 169.708074 188.879439 32.600579 
" clip-path="url(#pac30597eb4)" style="fill: none; stroke: #000000; stroke-width: 2; stroke-linecap: round"/>
    <path d="M 328.808163 269.287459 
L 331.372862 280.169661 
L 321.128281 275.692099 
L 328.808163 269.287459 
z
" clip-path="url(#pac30597eb4)" style="stroke: #000000; stroke-width: 2; stroke-linecap: round"/>
   </g>
   <g id="matplotlib.axis_1"/>
   <g id="matplotlib.axis_2"/>
   <g id="patch_5">
    <path d="M 37.862787 278.98103 
Q 108.634991 156.399975 180.52523 31.882429 
" clip-path="url(#pac30597eb4)" style="fill: none; stroke: #000000; stroke-width: 2; stroke-linecap: round"/>
    <path d="M 47.192914 272.820775 
L 37.862787 278.98103 
L 38.53266 267.820775 
L 47.192914 272.820775 
z
" clip-path="url(#pac30597eb4)" style="stroke: #000000; stroke-width: 2; stroke-linecap: round"/>
   </g>
   <g id="patch_6">
    <path d="M 185.469337 33.207199 
C 188.091723 33.207199 190.607055 32.165314 192.461361 30.311008 
C 194.315667 28.456701 195.357552 25.941369 195.357552 23.318984 
C 195.357552 20.696599 194.315667 18.181267 192.461361 16.32696 
C 190.607055 14.472654 188.091723 13.430769 185.469337 13.430769 
C 182.846952 13.430769 180.33162 14.472654 178.477314 16.32696 
C 176.623007 18.181267 175.581122 20.696599 175.581122 23.318984 
C 175.581122 25.941369 176.623007 28.456701 178.477314 30.311008 
C 180.33162 32.165314 182.846952 33.207199 185.469337 33.207199 
z
" style="fill: #fec7b8; stroke: #000000; stroke-linejoin: miter"/>
   </g>
   <g id="patch_7">
    <path d="M 31.800645 299.369181 
C 34.42303 299.369181 36.938363 298.327297 38.792669 296.47299 
C 40.646975 294.618684 41.68886 292.103352 41.68886 289.480966 
C 41.68886 286.858581 40.646975 284.343249 38.792669 282.488943 
C 36.938363 280.634636 34.42303 279.592752 31.800645 279.592752 
C 29.17826 279.592752 26.662928 280.634636 24.808621 282.488943 
C 22.954315 284.343249 21.91243 286.858581 21.91243 289.480966 
C 21.91243 292.103352 22.954315 294.618684 24.808621 296.47299 
C 26.662928 298.327297 29.17826 299.369181 31.800645 299.369181 
z
" style="fill: #fec7b8; stroke: #000000; stroke-linejoin: miter"/>
   </g>
   <g id="patch_8">
    <path d="M 339.138029 299.369181 
C 341.760415 299.369181 344.275747 298.327297 346.130053 296.47299 
C 347.98436 294.618684 349.026244 292.103352 349.026244 289.480966 
C 349.026244 286.858581 347.98436 284.343249 346.130053 282.488943 
C 344.275747 280.634636 341.760415 279.592752 339.138029 279.592752 
C 336.515644 279.592752 334.000312 280.634636 332.146006 282.488943 
C 330.291699 284.343249 329.249815 286.858581 329.249815 289.480966 
C 329.249815 292.103352 330.291699 294.618684 332.146006 296.47299 
C 334.000312 298.327297 336.515644 299.369181 339.138029 299.369181 
z
" style="fill: #fec7b8; stroke: #000000; stroke-linejoin: miter"/>
   </g>
   <g id="patch_9">
    <path d="M 339.138029 324.969231 
C 343.843828 324.969231 348.357523 323.099597 351.685026 319.772095 
C 355.012528 316.444593 356.882162 311.930897 356.882162 307.225099 
C 356.882162 302.5193 355.012528 298.005605 351.685026 294.678102 
C 348.357523 291.3506 343.843828 289.480966 339.138029 289.480966 
C 334.432231 289.480966 329.918536 291.3506 326.591033 294.678102 
C 323.263531 298.005605 321.393897 302.5193 321.393897 307.225099 
C 321.393897 311.930897 323.263531 316.444593 326.591033 319.772095 
C 329.918536 323.099597 334.432231 324.969231 339.138029 324.969231 
L 339.138029 324.969231 
z
" clip-path="url(#pac30597eb4)" style="fill: none; stroke: #000000; stroke-linejoin: miter"/>
   </g>
   <g id="patch_10">
    <path d="M 31.800645 324.969231 
C 36.506444 324.969231 41.020139 323.099597 44.347641 319.772095 
C 47.675144 316.444593 49.544777 311.930897 49.544777 307.225099 
C 49.544777 302.5193 47.675144 298.005605 44.347641 294.678102 
C 41.020139 291.3506 36.506444 289.480966 31.800645 289.480966 
C 27.094846 289.480966 22.581151 291.3506 19.253649 294.678102 
C 15.926147 298.005605 14.056513 302.5193 14.056513 307.225099 
C 14.056513 311.930897 15.926147 316.444593 19.253649 319.772095 
C 22.581151 323.099597 27.094846 324.969231 31.800645 324.969231 
L 31.800645 324.969231 
z
" clip-path="url(#pac30597eb4)" style="fill: none; stroke: #000000; stroke-linejoin: miter"/>
   </g>
   <g id="text_1">
    <!-- c -->
    <g transform="translate(336.388811 292.240341) scale(0.1 -0.1)">
     <defs>
      <path id="DejaVuSans-63" d="M 3122 3366 
L 3122 2828 
Q 2878 2963 2633 3030 
Q 2388 3097 2138 3097 
Q 1578 3097 1268 2742 
Q 959 2388 959 1747 
Q 959 1106 1268 751 
Q 1578 397 2138 397 
Q 2388 397 2633 464 
Q 2878 531 3122 666 
L 3122 134 
Q 2881 22 2623 -34 
Q 2366 -91 2075 -91 
Q 1284 -91 818 406 
Q 353 903 353 1747 
Q 353 2603 823 3093 
Q 1294 3584 2113 3584 
Q 2378 3584 2631 3529 
Q 2884 3475 3122 3366 
z
" transform="scale(0.015625)"/>
     </defs>
     <use xlink:href="#DejaVuSans-63"/>
    </g>
   </g>
   <g id="text_2">
    <!-- b -->
    <g transform="translate(28.626426 292.240341) scale(0.1 -0.1)">
     <defs>
      <path id="DejaVuSans-62" d="M 3116 1747 
Q 3116 2381 2855 2742 
Q 2594 3103 2138 3103 
Q 1681 3103 1420 2742 
Q 1159 2381 1159 1747 
Q 1159 1113 1420 752 
Q 1681 391 2138 391 
Q 2594 391 2855 752 
Q 3116 1113 3116 1747 
z
M 1159 2969 
Q 1341 3281 1617 3432 
Q 1894 3584 2278 3584 
Q 2916 3584 3314 3078 
Q 3713 2572 3713 1747 
Q 3713 922 3314 415 
Q 2916 -91 2278 -91 
Q 1894 -91 1617 61 
Q 1341 213 1159 525 
L 1159 0 
L 581 0 
L 581 4863 
L 1159 4863 
L 1159 2969 
z
" transform="scale(0.015625)"/>
     </defs>
     <use xlink:href="#DejaVuSans-62"/>
    </g>
   </g>
   <g id="text_3">
    <!-- a -->
    <g transform="translate(182.405275 26.078359) scale(0.1 -0.1)">
     <defs>
      <path id="DejaVuSans-61" d="M 2194 1759 
Q 1497 1759 1228 1600 
Q 959 1441 959 1056 
Q 959 750 1161 570 
Q 1363 391 1709 391 
Q 2188 391 2477 730 
Q 2766 1069 2766 1631 
L 2766 1759 
L 2194 1759 
z
M 3341 1997 
L 3341 0 
L 2766 0 
L 2766 531 
Q 2569 213 2275 61 
Q 1981 -91 1556 -91 
Q 1019 -91 701 211 
Q 384 513 384 1019 
Q 384 1609 779 1909 
Q 1175 2209 1959 2209 
L 2766 2209 
L 2766 2266 
Q 2766 2663 2505 2880 
Q 2244 3097 1772 3097 
Q 1472 3097 1187 3025 
Q 903 2953 641 2809 
L 641 3341 
Q 956 3463 1253 3523 
Q 1550 3584 1831 3584 
Q 2591 3584 2966 3190 
Q 3341 2797 3341 1997 
z
" transform="scale(0.015625)"/>
     </defs>
     <use xlink:href="#DejaVuSans-61"/>
    </g>
   </g>
  </g>
 </g>
 <defs>
  <clipPath id="pac30597eb4">
   <rect x="7.2" y="7.2" width="356.538675" height="324"/>
  </clipPath>
 </defs>
</svg>
