<?xml version="1.0" encoding="utf-8" standalone="no"?>
<!DOCTYPE svg PUBLIC "-//W3C//DTD SVG 1.1//EN"
  "http://www.w3.org/Graphics/SVG/1.1/DTD/svg11.dtd">
<svg xmlns:xlink="http://www.w3.org/1999/xlink" width="258.202242pt" height="338.4pt" viewBox="0 0 258.202242 338.4" xmlns="http://www.w3.org/2000/svg" version="1.1">
 <metadata>
  <rdf:RDF xmlns:dc="http://purl.org/dc/elements/1.1/" xmlns:cc="http://creativecommons.org/ns#" xmlns:rdf="http://www.w3.org/1999/02/22-rdf-syntax-ns#">
   <cc:Work>
    <dc:type rdf:resource="http://purl.org/dc/dcmitype/StillImage"/>
    <dc:date>2023-08-25T12:36:34.780041</dc:date>
    <dc:format>image/svg+xml</dc:format>
    <dc:creator>
     <cc:Agent>
      <dc:title>Matplotlib v3.6.2, https://matplotlib.org/</dc:title>
     </cc:Agent>
    </dc:creator>
   </cc:Work>
  </rdf:RDF>
 </metadata>
 <defs>
  <style type="text/css">*{stroke-linejoin: round; stroke-linecap: butt}</style>
 </defs>
 <g id="figure_1">
  <g id="patch_1">
   <path d="M 0 338.4 
L 258.202242 338.4 
L 258.202242 0 
L 0 0 
z
" style="fill: #ffffff"/>
  </g>
  <g id="axes_1">
   <g id="patch_2">
    <path d="M 7.2 331.2 
L 251.002242 331.2 
L 251.002242 7.2 
L 7.2 7.2 
z
" style="fill: #ffffff"/>
   </g>
   <g id="patch_3">
    <path d="M 233.246929 33.328004 
Q 212.588075 102.5449 154.976101 142.301492 
" clip-path="url(#p6ecf70c482)" style="fill: none; stroke: #000000; stroke-width: 2; stroke-linecap: round"/>
    <path d="M 166.046449 140.737077 
L 154.976101 142.301492 
L 160.366777 132.506565 
L 166.046449 140.737077 
z
" clip-path="url(#p6ecf70c482)" style="stroke: #000000; stroke-width: 2; stroke-linecap: round"/>
   </g>
   <g id="patch_4">
    <path d="M 225.949633 30.632624 
Q 168.337658 70.389216 147.678804 139.606113 
" clip-path="url(#p6ecf70c482)" style="fill: none; stroke: #000000; stroke-width: 2; stroke-linecap: round"/>
    <path d="M 214.879285 32.19704 
L 225.949633 30.632624 
L 220.558957 40.427552 
L 214.879285 32.19704 
z
" clip-path="url(#p6ecf70c482)" style="stroke: #000000; stroke-width: 2; stroke-linecap: round"/>
   </g>
   <g id="matplotlib.axis_1"/>
   <g id="matplotlib.axis_2"/>
   <g id="patch_5">
    <path d="M 102.559318 282.362518 
Q 66.352226 254.90214 31.926757 228.79299 
" clip-path="url(#p6ecf70c482)" style="fill: none; stroke: #000000; stroke-width: 2; stroke-linecap: round"/>
    <path d="M 36.87298 238.819698 
L 31.926757 228.79299 
L 42.915857 230.852036 
L 36.87298 238.819698 
z
" clip-path="url(#p6ecf70c482)" style="stroke: #000000; stroke-width: 2; stroke-linecap: round"/>
   </g>
   <g id="patch_6">
    <path d="M 113.60703 276.462264 
Q 127.713972 218.922551 142.353358 159.211087 
" clip-path="url(#p6ecf70c482)" style="fill: none; stroke: #000000; stroke-width: 2; stroke-linecap: round"/>
    <path d="M 120.844382 267.940483 
L 113.60703 276.462264 
L 111.132017 265.559315 
L 120.844382 267.940483 
z
" clip-path="url(#p6ecf70c482)" style="stroke: #000000; stroke-width: 2; stroke-linecap: round"/>
   </g>
   <g id="patch_7">
    <path d="M 134.078725 155.613028 
Q 83.411077 185.32211 30.814499 216.162224 
" clip-path="url(#p6ecf70c482)" style="fill: none; stroke: #000000; stroke-width: 2; stroke-linecap: round"/>
    <path d="M 122.923228 156.357939 
L 134.078725 155.613028 
L 127.981355 164.984372 
L 122.923228 156.357939 
z
" clip-path="url(#p6ecf70c482)" style="stroke: #000000; stroke-width: 2; stroke-linecap: round"/>
   </g>
   <g id="patch_8">
    <path d="M 110.655121 298.663406 
C 113.349803 298.663406 115.934482 297.592797 117.83991 295.687369 
C 119.745338 293.781941 120.815947 291.197263 120.815947 288.50258 
C 120.815947 285.807897 119.745338 283.223219 117.83991 281.317791 
C 115.934482 279.412363 113.349803 278.341754 110.655121 278.341754 
C 107.960438 278.341754 105.37576 279.412363 103.470332 281.317791 
C 101.564904 283.223219 100.494295 285.807897 100.494295 288.50258 
C 100.494295 291.197263 101.564904 293.781941 103.470332 295.687369 
C 105.37576 297.592797 107.960438 298.663406 110.655121 298.663406 
z
" style="fill: #fec7b8; stroke: #000000; stroke-linejoin: miter"/>
   </g>
   <g id="patch_9">
    <path d="M 236.152911 33.752421 
C 238.847594 33.752421 241.432272 32.681812 243.3377 30.776384 
C 245.243128 28.870956 246.313737 26.286278 246.313737 23.591595 
C 246.313737 20.896913 245.243128 18.312235 243.3377 16.406806 
C 241.432272 14.501378 238.847594 13.430769 236.152911 13.430769 
C 233.458229 13.430769 230.873551 14.501378 228.968122 16.406806 
C 227.062694 18.312235 225.992085 20.896913 225.992085 23.591595 
C 225.992085 26.286278 227.062694 28.870956 228.968122 30.776384 
C 230.873551 32.681812 233.458229 33.752421 236.152911 33.752421 
z
" style="fill: #fec7b8; stroke: #000000; stroke-linejoin: miter"/>
   </g>
   <g id="patch_10">
    <path d="M 144.772822 159.503347 
C 147.467505 159.503347 150.052183 158.432739 151.957611 156.52731 
C 153.86304 154.621882 154.933648 152.037204 154.933648 149.342521 
C 154.933648 146.647839 153.86304 144.063161 151.957611 142.157732 
C 150.052183 140.252304 147.467505 139.181695 144.772822 139.181695 
C 142.07814 139.181695 139.493462 140.252304 137.588034 142.157732 
C 135.682605 144.063161 134.611996 146.647839 134.611996 149.342521 
C 134.611996 152.037204 135.682605 154.621882 137.588034 156.52731 
C 139.493462 158.432739 142.07814 159.503347 144.772822 159.503347 
z
" style="fill: #fec7b8; stroke: #000000; stroke-linejoin: miter"/>
   </g>
   <g id="patch_11">
    <path d="M 22.049331 231.462525 
C 24.744013 231.462525 27.328691 230.391917 29.23412 228.486488 
C 31.139548 226.58106 32.210157 223.996382 32.210157 221.301699 
C 32.210157 218.607017 31.139548 216.022339 29.23412 214.11691 
C 27.328691 212.211482 24.744013 211.140873 22.049331 211.140873 
C 19.354648 211.140873 16.76997 212.211482 14.864542 214.11691 
C 12.959113 216.022339 11.888505 218.607017 11.888505 221.301699 
C 11.888505 223.996382 12.959113 226.58106 14.864542 228.486488 
C 16.76997 230.391917 19.354648 231.462525 22.049331 231.462525 
z
" style="fill: #fec7b8; stroke: #000000; stroke-linejoin: miter"/>
   </g>
   <g id="patch_12">
    <path d="M 110.655121 324.969231 
C 115.490655 324.969231 120.12879 323.048053 123.548029 319.628813 
C 126.967268 316.209574 128.888446 311.57144 128.888446 306.735905 
C 128.888446 301.900371 126.967268 297.262237 123.548029 293.842997 
C 120.12879 290.423758 115.490655 288.50258 110.655121 288.50258 
C 105.819586 288.50258 101.181452 290.423758 97.762213 293.842997 
C 94.342974 297.262237 92.421796 301.900371 92.421796 306.735905 
C 92.421796 311.57144 94.342974 316.209574 97.762213 319.628813 
C 101.181452 323.048053 105.819586 324.969231 110.655121 324.969231 
L 110.655121 324.969231 
z
" clip-path="url(#p6ecf70c482)" style="fill: none; stroke: #000000; stroke-linejoin: miter"/>
   </g>
   <g id="text_1">
    <!-- 0 -->
    <g transform="translate(107.473871 291.261955) scale(0.1 -0.1)">
     <defs>
      <path id="DejaVuSans-30" d="M 2034 4250 
Q 1547 4250 1301 3770 
Q 1056 3291 1056 2328 
Q 1056 1369 1301 889 
Q 1547 409 2034 409 
Q 2525 409 2770 889 
Q 3016 1369 3016 2328 
Q 3016 3291 2770 3770 
Q 2525 4250 2034 4250 
z
M 2034 4750 
Q 2819 4750 3233 4129 
Q 3647 3509 3647 2328 
Q 3647 1150 3233 529 
Q 2819 -91 2034 -91 
Q 1250 -91 836 529 
Q 422 1150 422 2328 
Q 422 3509 836 4129 
Q 1250 4750 2034 4750 
z
" transform="scale(0.015625)"/>
     </defs>
     <use xlink:href="#DejaVuSans-30"/>
    </g>
   </g>
   <g id="text_2">
    <!-- 1 -->
    <g transform="translate(232.971661 26.35097) scale(0.1 -0.1)">
     <defs>
      <path id="DejaVuSans-31" d="M 794 531 
L 1825 531 
L 1825 4091 
L 703 3866 
L 703 4441 
L 1819 4666 
L 2450 4666 
L 2450 531 
L 3481 531 
L 3481 0 
L 794 0 
L 794 531 
z
" transform="scale(0.015625)"/>
     </defs>
     <use xlink:href="#DejaVuSans-31"/>
    </g>
   </g>
   <g id="text_3">
    <!-- 2 -->
    <g transform="translate(141.591572 152.101896) scale(0.1 -0.1)">
     <defs>
      <path id="DejaVuSans-32" d="M 1228 531 
L 3431 531 
L 3431 0 
L 469 0 
L 469 531 
Q 828 903 1448 1529 
Q 2069 2156 2228 2338 
Q 2531 2678 2651 2914 
Q 2772 3150 2772 3378 
Q 2772 3750 2511 3984 
Q 2250 4219 1831 4219 
Q 1534 4219 1204 4116 
Q 875 4013 500 3803 
L 500 4441 
Q 881 4594 1212 4672 
Q 1544 4750 1819 4750 
Q 2544 4750 2975 4387 
Q 3406 4025 3406 3419 
Q 3406 3131 3298 2873 
Q 3191 2616 2906 2266 
Q 2828 2175 2409 1742 
Q 1991 1309 1228 531 
z
" transform="scale(0.015625)"/>
     </defs>
     <use xlink:href="#DejaVuSans-32"/>
    </g>
   </g>
   <g id="text_4">
    <!-- 3 -->
    <g transform="translate(18.868081 224.061074) scale(0.1 -0.1)">
     <defs>
      <path id="DejaVuSans-33" d="M 2597 2516 
Q 3050 2419 3304 2112 
Q 3559 1806 3559 1356 
Q 3559 666 3084 287 
Q 2609 -91 1734 -91 
Q 1441 -91 1130 -33 
Q 819 25 488 141 
L 488 750 
Q 750 597 1062 519 
Q 1375 441 1716 441 
Q 2309 441 2620 675 
Q 2931 909 2931 1356 
Q 2931 1769 2642 2001 
Q 2353 2234 1838 2234 
L 1294 2234 
L 1294 2753 
L 1863 2753 
Q 2328 2753 2575 2939 
Q 2822 3125 2822 3475 
Q 2822 3834 2567 4026 
Q 2313 4219 1838 4219 
Q 1578 4219 1281 4162 
Q 984 4106 628 3988 
L 628 4550 
Q 988 4650 1302 4700 
Q 1616 4750 1894 4750 
Q 2613 4750 3031 4423 
Q 3450 4097 3450 3541 
Q 3450 3153 3228 2886 
Q 3006 2619 2597 2516 
z
" transform="scale(0.015625)"/>
     </defs>
     <use xlink:href="#DejaVuSans-33"/>
    </g>
   </g>
  </g>
 </g>
 <defs>
  <clipPath id="p6ecf70c482">
   <rect x="7.2" y="7.2" width="243.802242" height="324"/>
  </clipPath>
 </defs>
</svg>
