<?xml version="1.0" encoding="utf-8" standalone="no"?>
<!DOCTYPE svg PUBLIC "-//W3C//DTD SVG 1.1//EN"
  "http://www.w3.org/Graphics/SVG/1.1/DTD/svg11.dtd">
<!-- Created with matplotlib (http://matplotlib.org/) -->
<svg height="420pt" version="1.1" viewBox="0 0 418 420" width="418pt" xmlns="http://www.w3.org/2000/svg" xmlns:xlink="http://www.w3.org/1999/xlink">
 <defs>
  <style type="text/css">
*{stroke-linecap:butt;stroke-linejoin:round;stroke-miterlimit:100000;}
  </style>
 </defs>
 <g id="figure_1">
  <g id="patch_1">
   <path d="M 0 420.48 
L 418.628094 420.48 
L 418.628094 0 
L 0 0 
z
" style="fill:#ffffff;"/>
  </g>
  <g id="axes_1">
   <g id="patch_2">
    <path d="M 7.2 413.28 
L 411.428094 413.28 
L 411.428094 7.2 
L 7.2 7.2 
z
" style="fill:#ffffff;"/>
   </g>
   <g id="patch_3">
    <path clip-path="url(#p50ae55bf96)" d="M 361.991913 326.684701 
Q 403.654476 187.809488 362.634442 51.07604 
" style="fill:none;stroke:#000000;stroke-linecap:round;stroke-width:2.0;"/>
    <path clip-path="url(#p50ae55bf96)" d="M 360.71879 62.091042 
L 362.634442 51.07604 
L 370.297052 59.217563 
L 360.71879 62.091042 
z
" style="stroke:#000000;stroke-linecap:round;stroke-width:2.0;"/>
   </g>
   <g id="patch_4">
    <path clip-path="url(#p50ae55bf96)" d="M 351.391105 324.542936 
Q 310.37107 187.809488 352.033634 48.934275 
" style="fill:none;stroke:#000000;stroke-linecap:round;stroke-width:2.0;"/>
    <path clip-path="url(#p50ae55bf96)" d="M 353.306757 313.527934 
L 351.391105 324.542936 
L 343.728494 316.401413 
L 353.306757 313.527934 
z
" style="stroke:#000000;stroke-linecap:round;stroke-width:2.0;"/>
   </g>
   <g id="patch_5">
    <path clip-path="url(#p50ae55bf96)" d="M 46.068086 325.953918 
Q 46.068086 187.809488 46.068086 51.901126 
" style="fill:none;stroke:#000000;stroke-linecap:round;stroke-width:2.0;"/>
    <path clip-path="url(#p50ae55bf96)" d="M 41.068086 61.901126 
L 46.068086 51.901126 
L 51.068086 61.901126 
L 41.068086 61.901126 
z
" style="stroke:#000000;stroke-linecap:round;stroke-width:2.0;"/>
   </g>
   <g id="patch_6">
    <path clip-path="url(#p50ae55bf96)" d="M 337.448792 32.337144 
Q 201.54043 32.337144 63.395999 32.337144 
" style="fill:none;stroke:#000000;stroke-linecap:round;stroke-width:2.0;"/>
    <path clip-path="url(#p50ae55bf96)" d="M 327.448792 27.337144 
L 337.448792 32.337144 
L 327.448792 37.337144 
L 327.448792 27.337144 
z
" style="stroke:#000000;stroke-linecap:round;stroke-width:2.0;"/>
   </g>
   <g id="patch_7">
    <path clip-path="url(#p50ae55bf96)" d="M 59.90191 329.448008 
Q 201.54043 187.809488 344.760088 44.589829 
" style="fill:none;stroke:#000000;stroke-linecap:round;stroke-width:2.0;"/>
    <path clip-path="url(#p50ae55bf96)" d="M 70.508512 325.912474 
L 59.90191 329.448008 
L 63.437444 318.841406 
L 70.508512 325.912474 
z
" style="stroke:#000000;stroke-linecap:round;stroke-width:2.0;"/>
   </g>
   <g id="matplotlib.axis_1"/>
   <g id="matplotlib.axis_2"/>
   <g id="patch_8">
    <path clip-path="url(#p50ae55bf96)" d="M 46.068086 405.470769 
C 54.314435 405.470769 62.224146 402.19446 68.055196 396.36341 
C 73.886245 390.532361 77.162555 382.62265 77.162555 374.3763 
C 77.162555 366.129951 73.886245 358.22024 68.055196 352.389191 
C 62.224146 346.558141 54.314435 343.281832 46.068086 343.281832 
C 37.821736 343.281832 29.912026 346.558141 24.080976 352.389191 
C 18.249927 358.22024 14.973617 366.129951 14.973617 374.3763 
C 14.973617 382.62265 18.249927 390.532361 24.080976 396.36341 
C 29.912026 402.19446 37.821736 405.470769 46.068086 405.470769 
L 46.068086 405.470769 
z
" style="fill:none;stroke:#000000;stroke-linejoin:miter;"/>
   </g>
   <g id="patch_9">
    <path d="M 46.068086 360.609745 
C 50.663502 360.609745 55.071321 358.783967 58.320771 355.534517 
C 61.570221 352.285067 63.395999 347.877248 63.395999 343.281832 
C 63.395999 338.686415 61.570221 334.278597 58.320771 331.029147 
C 55.071321 327.779696 50.663502 325.953918 46.068086 325.953918 
C 41.47267 325.953918 37.064851 327.779696 33.815401 331.029147 
C 30.565951 334.278597 28.740172 338.686415 28.740172 343.281832 
C 28.740172 347.877248 30.565951 352.285067 33.815401 355.534517 
C 37.064851 358.783967 41.47267 360.609745 46.068086 360.609745 
z
" style="fill:#fec7b8;stroke:#000000;stroke-linejoin:miter;"/>
   </g>
   <g id="patch_10">
    <path d="M 357.012773 360.609745 
C 361.60819 360.609745 366.016008 358.783967 369.265459 355.534517 
C 372.514909 352.285067 374.340687 347.877248 374.340687 343.281832 
C 374.340687 338.686415 372.514909 334.278597 369.265459 331.029147 
C 366.016008 327.779696 361.60819 325.953918 357.012773 325.953918 
C 352.417357 325.953918 348.009538 327.779696 344.760088 331.029147 
C 341.510638 334.278597 339.68486 338.686415 339.68486 343.281832 
C 339.68486 347.877248 341.510638 352.285067 344.760088 355.534517 
C 348.009538 358.783967 352.417357 360.609745 357.012773 360.609745 
z
" style="fill:#fec7b8;stroke:#000000;stroke-linejoin:miter;"/>
   </g>
   <g id="patch_11">
    <path d="M 357.012773 49.665058 
C 361.60819 49.665058 366.016008 47.83928 369.265459 44.589829 
C 372.514909 41.340379 374.340687 36.932561 374.340687 32.337144 
C 374.340687 27.741728 372.514909 23.333909 369.265459 20.084459 
C 366.016008 16.835009 361.60819 15.009231 357.012773 15.009231 
C 352.417357 15.009231 348.009538 16.835009 344.760088 20.084459 
C 341.510638 23.333909 339.68486 27.741728 339.68486 32.337144 
C 339.68486 36.932561 341.510638 41.340379 344.760088 44.589829 
C 348.009538 47.83928 352.417357 49.665058 357.012773 49.665058 
z
" style="fill:#fec7b8;stroke:#000000;stroke-linejoin:miter;"/>
   </g>
   <g id="patch_12">
    <path d="M 46.068086 49.665058 
C 50.663502 49.665058 55.071321 47.83928 58.320771 44.589829 
C 61.570221 41.340379 63.395999 36.932561 63.395999 32.337144 
C 63.395999 27.741728 61.570221 23.333909 58.320771 20.084459 
C 55.071321 16.835009 50.663502 15.009231 46.068086 15.009231 
C 41.47267 15.009231 37.064851 16.835009 33.815401 20.084459 
C 30.565951 23.333909 28.740172 27.741728 28.740172 32.337144 
C 28.740172 36.932561 30.565951 41.340379 33.815401 44.589829 
C 37.064851 47.83928 41.47267 49.665058 46.068086 49.665058 
z
" style="fill:#fec7b8;stroke:#000000;stroke-linejoin:miter;"/>
   </g>
   <g id="text_1">
    <!-- 0 -->
    <defs>
     <path d="M 31.78125 66.40625 
Q 24.171875 66.40625 20.328125 58.90625 
Q 16.5 51.421875 16.5 36.375 
Q 16.5 21.390625 20.328125 13.890625 
Q 24.171875 6.390625 31.78125 6.390625 
Q 39.453125 6.390625 43.28125 13.890625 
Q 47.125 21.390625 47.125 36.375 
Q 47.125 51.421875 43.28125 58.90625 
Q 39.453125 66.40625 31.78125 66.40625 
M 31.78125 74.21875 
Q 44.046875 74.21875 50.515625 64.515625 
Q 56.984375 54.828125 56.984375 36.375 
Q 56.984375 17.96875 50.515625 8.265625 
Q 44.046875 -1.421875 31.78125 -1.421875 
Q 19.53125 -1.421875 13.0625 8.265625 
Q 6.59375 17.96875 6.59375 36.375 
Q 6.59375 54.828125 13.0625 64.515625 
Q 19.53125 74.21875 31.78125 74.21875 
" id="BitstreamVeraSans-Roman-30"/>
    </defs>
    <g transform="translate(42.88683593 346.041206743)scale(0.1 -0.1)">
     <use xlink:href="#BitstreamVeraSans-Roman-30"/>
    </g>
   </g>
   <g id="text_2">
    <!-- 1 -->
    <defs>
     <path d="M 12.40625 8.296875 
L 28.515625 8.296875 
L 28.515625 63.921875 
L 10.984375 60.40625 
L 10.984375 69.390625 
L 28.421875 72.90625 
L 38.28125 72.90625 
L 38.28125 8.296875 
L 54.390625 8.296875 
L 54.390625 0 
L 12.40625 0 
z
" id="BitstreamVeraSans-Roman-31"/>
    </defs>
    <g transform="translate(353.83152337 346.041206743)scale(0.1 -0.1)">
     <use xlink:href="#BitstreamVeraSans-Roman-31"/>
    </g>
   </g>
   <g id="text_3">
    <!-- 2 -->
    <defs>
     <path d="M 19.1875 8.296875 
L 53.609375 8.296875 
L 53.609375 0 
L 7.328125 0 
L 7.328125 8.296875 
Q 12.9375 14.109375 22.625 23.890625 
Q 32.328125 33.6875 34.8125 36.53125 
Q 39.546875 41.84375 41.421875 45.53125 
Q 43.3125 49.21875 43.3125 52.78125 
Q 43.3125 58.59375 39.234375 62.25 
Q 35.15625 65.921875 28.609375 65.921875 
Q 23.96875 65.921875 18.8125 64.3125 
Q 13.671875 62.703125 7.8125 59.421875 
L 7.8125 69.390625 
Q 13.765625 71.78125 18.9375 73 
Q 24.125 74.21875 28.421875 74.21875 
Q 39.75 74.21875 46.484375 68.546875 
Q 53.21875 62.890625 53.21875 53.421875 
Q 53.21875 48.921875 51.53125 44.890625 
Q 49.859375 40.875 45.40625 35.40625 
Q 44.1875 33.984375 37.640625 27.21875 
Q 31.109375 20.453125 19.1875 8.296875 
" id="BitstreamVeraSans-Roman-32"/>
    </defs>
    <g transform="translate(353.83152337 35.0965193027)scale(0.1 -0.1)">
     <use xlink:href="#BitstreamVeraSans-Roman-32"/>
    </g>
   </g>
   <g id="text_4">
    <!-- 3 -->
    <defs>
     <path d="M 40.578125 39.3125 
Q 47.65625 37.796875 51.625 33 
Q 55.609375 28.21875 55.609375 21.1875 
Q 55.609375 10.40625 48.1875 4.484375 
Q 40.765625 -1.421875 27.09375 -1.421875 
Q 22.515625 -1.421875 17.65625 -0.515625 
Q 12.796875 0.390625 7.625 2.203125 
L 7.625 11.71875 
Q 11.71875 9.328125 16.59375 8.109375 
Q 21.484375 6.890625 26.8125 6.890625 
Q 36.078125 6.890625 40.9375 10.546875 
Q 45.796875 14.203125 45.796875 21.1875 
Q 45.796875 27.640625 41.28125 31.265625 
Q 36.765625 34.90625 28.71875 34.90625 
L 20.21875 34.90625 
L 20.21875 43.015625 
L 29.109375 43.015625 
Q 36.375 43.015625 40.234375 45.921875 
Q 44.09375 48.828125 44.09375 54.296875 
Q 44.09375 59.90625 40.109375 62.90625 
Q 36.140625 65.921875 28.71875 65.921875 
Q 24.65625 65.921875 20.015625 65.03125 
Q 15.375 64.15625 9.8125 62.3125 
L 9.8125 71.09375 
Q 15.4375 72.65625 20.34375 73.4375 
Q 25.25 74.21875 29.59375 74.21875 
Q 40.828125 74.21875 47.359375 69.109375 
Q 53.90625 64.015625 53.90625 55.328125 
Q 53.90625 49.265625 50.4375 45.09375 
Q 46.96875 40.921875 40.578125 39.3125 
" id="BitstreamVeraSans-Roman-33"/>
    </defs>
    <g transform="translate(42.88683593 35.0965193027)scale(0.1 -0.1)">
     <use xlink:href="#BitstreamVeraSans-Roman-33"/>
    </g>
   </g>
  </g>
 </g>
 <defs>
  <clipPath id="p50ae55bf96">
   <rect height="406.08" width="404.228093672" x="7.2" y="7.2"/>
  </clipPath>
 </defs>
</svg>
