<?xml version="1.0" encoding="utf-8" standalone="no"?>
<!DOCTYPE svg PUBLIC "-//W3C//DTD SVG 1.1//EN"
  "http://www.w3.org/Graphics/SVG/1.1/DTD/svg11.dtd">
<!-- Created with matplotlib (http://matplotlib.org/) -->
<svg height="276pt" version="1.1" viewBox="0 0 281 276" width="281pt" xmlns="http://www.w3.org/2000/svg" xmlns:xlink="http://www.w3.org/1999/xlink">
 <defs>
  <style type="text/css">
*{stroke-linecap:butt;stroke-linejoin:round;stroke-miterlimit:100000;}
  </style>
 </defs>
 <g id="figure_1">
  <g id="patch_1">
   <path d="M 0 276.48 
L 281.341047 276.48 
L 281.341047 0 
L 0 0 
z
" style="fill:#ffffff;"/>
  </g>
  <g id="axes_1">
   <g id="patch_2">
    <path d="M 7.2 269.28 
L 274.141047 269.28 
L 274.141047 7.2 
L 7.2 7.2 
z
" style="fill:#ffffff;"/>
   </g>
   <g id="patch_3">
    <path clip-path="url(#pc0dc4e16ca)" d="M 27.922747 108.805337 
Q 128.979757 160.379083 207.675474 238.972735 
" style="fill:none;stroke:#000000;stroke-linecap:round;stroke-width:2.0;"/>
    <path clip-path="url(#pc0dc4e16ca)" d="M 204.133058 228.368429 
L 207.675474 238.972735 
L 197.06658 235.444084 
L 204.133058 228.368429 
z
" style="stroke:#000000;stroke-linecap:round;stroke-width:2.0;"/>
   </g>
   <g id="patch_4">
    <path clip-path="url(#pc0dc4e16ca)" d="M 28.228349 112.142487 
Q 106.924066 190.736138 207.981076 242.309884 
" style="fill:none;stroke:#000000;stroke-linecap:round;stroke-width:2.0;"/>
    <path clip-path="url(#pc0dc4e16ca)" d="M 31.770765 122.746792 
L 28.228349 112.142487 
L 38.837243 115.671137 
L 31.770765 122.746792 
z
" style="stroke:#000000;stroke-linecap:round;stroke-width:2.0;"/>
   </g>
   <g id="patch_5">
    <path clip-path="url(#pc0dc4e16ca)" d="M 28.599397 104.551005 
Q 140.670523 86.875221 250.532884 104.20264 
" style="fill:none;stroke:#000000;stroke-linecap:round;stroke-width:2.0;"/>
    <path clip-path="url(#pc0dc4e16ca)" d="M 241.433956 97.705756 
L 250.532884 104.20264 
L 239.87602 107.583653 
L 241.433956 97.705756 
z
" style="stroke:#000000;stroke-linecap:round;stroke-width:2.0;"/>
   </g>
   <g id="patch_6">
    <path clip-path="url(#pc0dc4e16ca)" d="M 30.808162 107.071187 
Q 140.670523 124.398605 252.741649 106.722822 
" style="fill:none;stroke:#000000;stroke-linecap:round;stroke-width:2.0;"/>
    <path clip-path="url(#pc0dc4e16ca)" d="M 39.907091 113.56807 
L 30.808162 107.071187 
L 41.465026 103.690174 
L 39.907091 113.56807 
z
" style="stroke:#000000;stroke-linecap:round;stroke-width:2.0;"/>
   </g>
   <g id="patch_7">
    <path clip-path="url(#pc0dc4e16ca)" d="M 217.915677 239.587727 
Q 254.751536 181.355292 259.035193 114.824136 
" style="fill:none;stroke:#000000;stroke-linecap:round;stroke-width:2.0;"/>
    <path clip-path="url(#pc0dc4e16ca)" d="M 253.402998 124.482209 
L 259.035193 114.824136 
L 263.382334 125.124736 
L 253.402998 124.482209 
z
" style="stroke:#000000;stroke-linecap:round;stroke-width:2.0;"/>
   </g>
   <g id="patch_8">
    <path clip-path="url(#pc0dc4e16ca)" d="M 214.781021 236.291085 
Q 219.064678 169.759929 255.900537 111.527495 
" style="fill:none;stroke:#000000;stroke-linecap:round;stroke-width:2.0;"/>
    <path clip-path="url(#pc0dc4e16ca)" d="M 220.413216 226.633012 
L 214.781021 236.291085 
L 210.43388 225.990485 
L 220.413216 226.633012 
z
" style="stroke:#000000;stroke-linecap:round;stroke-width:2.0;"/>
   </g>
   <g id="patch_9">
    <path clip-path="url(#pc0dc4e16ca)" d="M 135.031531 23.307146 
Q 81.192425 62.423546 29.162337 100.225618 
" style="fill:none;stroke:#000000;stroke-linecap:round;stroke-width:2.0;"/>
    <path clip-path="url(#pc0dc4e16ca)" d="M 40.191433 98.39285 
L 29.162337 100.225618 
L 34.313581 90.30268 
L 40.191433 98.39285 
z
" style="stroke:#000000;stroke-linecap:round;stroke-width:2.0;"/>
   </g>
   <g id="patch_10">
    <path clip-path="url(#pc0dc4e16ca)" d="M 24.559214 114.392573 
Q 44.432939 175.557611 64.997648 238.849275 
" style="fill:none;stroke:#000000;stroke-linecap:round;stroke-width:2.0;"/>
    <path clip-path="url(#pc0dc4e16ca)" d="M 22.894101 125.448224 
L 24.559214 114.392573 
L 32.404667 122.358054 
L 22.894101 125.448224 
z
" style="stroke:#000000;stroke-linecap:round;stroke-width:2.0;"/>
   </g>
   <g id="patch_11">
    <path clip-path="url(#pc0dc4e16ca)" d="M 72.790544 241.38134 
Q 163.389135 175.557611 252.178709 111.048209 
" style="fill:none;stroke:#000000;stroke-linecap:round;stroke-width:2.0;"/>
    <path clip-path="url(#pc0dc4e16ca)" d="M 241.149613 112.880976 
L 252.178709 111.048209 
L 247.027466 120.971146 
L 241.149613 112.880976 
z
" style="stroke:#000000;stroke-linecap:round;stroke-width:2.0;"/>
   </g>
   <g id="patch_12">
    <path clip-path="url(#pc0dc4e16ca)" d="M 74.121729 245.478308 
Q 140.670523 245.478308 204.983249 245.478308 
" style="fill:none;stroke:#000000;stroke-linecap:round;stroke-width:2.0;"/>
    <path clip-path="url(#pc0dc4e16ca)" d="M 194.983249 240.478308 
L 204.983249 245.478308 
L 194.983249 250.478308 
L 194.983249 240.478308 
z
" style="stroke:#000000;stroke-linecap:round;stroke-width:2.0;"/>
   </g>
   <g id="patch_13">
    <path clip-path="url(#pc0dc4e16ca)" d="M 146.309516 23.307146 
Q 200.148621 62.423546 252.178709 100.225618 
" style="fill:none;stroke:#000000;stroke-linecap:round;stroke-width:2.0;"/>
    <path clip-path="url(#pc0dc4e16ca)" d="M 247.027466 90.30268 
L 252.178709 100.225618 
L 241.149613 98.39285 
L 247.027466 90.30268 
z
" style="stroke:#000000;stroke-linecap:round;stroke-width:2.0;"/>
   </g>
   <g id="patch_14">
    <path clip-path="url(#pc0dc4e16ca)" d="M 142.824427 25.839211 
Q 177.430009 132.344243 211.344609 236.722648 
" style="fill:none;stroke:#000000;stroke-linecap:round;stroke-width:2.0;"/>
    <path clip-path="url(#pc0dc4e16ca)" d="M 213.009722 225.666998 
L 211.344609 236.722648 
L 203.499156 228.757168 
L 213.009722 225.666998 
z
" style="stroke:#000000;stroke-linecap:round;stroke-width:2.0;"/>
   </g>
   <g id="matplotlib.axis_1"/>
   <g id="matplotlib.axis_2"/>
   <g id="patch_15">
    <path clip-path="url(#pc0dc4e16ca)" d="M 214.189495 264.24 
C 216.677325 264.24 219.063594 263.251575 220.822755 261.492414 
C 222.581916 259.733253 223.570341 257.346983 223.570341 254.859154 
C 223.570341 252.371325 222.581916 249.985055 220.822755 248.225894 
C 219.063594 246.466733 216.677325 245.478308 214.189495 245.478308 
C 211.701666 245.478308 209.315397 246.466733 207.556236 248.225894 
C 205.797074 249.985055 204.808649 252.371325 204.808649 254.859154 
C 204.808649 257.346983 205.797074 259.733253 207.556236 261.492414 
C 209.315397 263.251575 211.701666 264.24 214.189495 264.24 
L 214.189495 264.24 
z
" style="fill:none;stroke:#000000;stroke-linejoin:miter;"/>
   </g>
   <g id="patch_16">
    <path clip-path="url(#pc0dc4e16ca)" d="M 259.626719 124.398605 
C 262.114548 124.398605 264.500818 123.41018 266.259979 121.651019 
C 268.01914 119.891858 269.007565 117.505589 269.007565 115.017759 
C 269.007565 112.52993 268.01914 110.14366 266.259979 108.384499 
C 264.500818 106.625338 262.114548 105.636913 259.626719 105.636913 
C 257.138889 105.636913 254.75262 106.625338 252.993459 108.384499 
C 251.234298 110.14366 250.245873 112.52993 250.245873 115.017759 
C 250.245873 117.505589 251.234298 119.891858 252.993459 121.651019 
C 254.75262 123.41018 257.138889 124.398605 259.626719 124.398605 
L 259.626719 124.398605 
z
" style="fill:none;stroke:#000000;stroke-linejoin:miter;"/>
   </g>
   <g id="patch_17">
    <path clip-path="url(#pc0dc4e16ca)" d="M 21.714328 124.398605 
C 24.202157 124.398605 26.588426 123.41018 28.347587 121.651019 
C 30.106748 119.891858 31.095174 117.505589 31.095174 115.017759 
C 31.095174 112.52993 30.106748 110.14366 28.347587 108.384499 
C 26.588426 106.625338 24.202157 105.636913 21.714328 105.636913 
C 19.226498 105.636913 16.840229 106.625338 15.081068 108.384499 
C 13.321907 110.14366 12.333482 112.52993 12.333482 115.017759 
C 12.333482 117.505589 13.321907 119.891858 15.081068 121.651019 
C 16.840229 123.41018 19.226498 124.398605 21.714328 124.398605 
L 21.714328 124.398605 
z
" style="fill:none;stroke:#000000;stroke-linejoin:miter;"/>
   </g>
   <g id="patch_18">
    <path d="M 140.670523 26.180356 
C 142.519036 26.180356 144.292087 25.445934 145.599183 24.138838 
C 146.906279 22.831742 147.640701 21.058691 147.640701 19.210178 
C 147.640701 17.361665 146.906279 15.588614 145.599183 14.281518 
C 144.292087 12.974422 142.519036 12.24 140.670523 12.24 
C 138.82201 12.24 137.048959 12.974422 135.741863 14.281518 
C 134.434767 15.588614 133.700345 17.361665 133.700345 19.210178 
C 133.700345 21.058691 134.434767 22.831742 135.741863 24.138838 
C 137.048959 25.445934 138.82201 26.180356 140.670523 26.180356 
z
" style="fill:#fec7b8;stroke:#000000;stroke-linejoin:miter;"/>
   </g>
   <g id="patch_19">
    <path d="M 21.714328 112.607091 
C 23.56284 112.607091 25.335892 111.872669 26.642988 110.565573 
C 27.950084 109.258477 28.684506 107.485426 28.684506 105.636913 
C 28.684506 103.7884 27.950084 102.015349 26.642988 100.708253 
C 25.335892 99.401157 23.56284 98.666735 21.714328 98.666735 
C 19.865815 98.666735 18.092763 99.401157 16.785667 100.708253 
C 15.478572 102.015349 14.74415 103.7884 14.74415 105.636913 
C 14.74415 107.485426 15.478572 109.258477 16.785667 110.565573 
C 18.092763 111.872669 19.865815 112.607091 21.714328 112.607091 
z
" style="fill:#fec7b8;stroke:#000000;stroke-linejoin:miter;"/>
   </g>
   <g id="patch_20">
    <path d="M 67.151551 252.448486 
C 69.000064 252.448486 70.773115 251.714064 72.080211 250.406968 
C 73.387307 249.099872 74.121729 247.326821 74.121729 245.478308 
C 74.121729 243.629795 73.387307 241.856744 72.080211 240.549648 
C 70.773115 239.242552 69.000064 238.50813 67.151551 238.50813 
C 65.303038 238.50813 63.529987 239.242552 62.222891 240.549648 
C 60.915795 241.856744 60.181373 243.629795 60.181373 245.478308 
C 60.181373 247.326821 60.915795 249.099872 62.222891 250.406968 
C 63.529987 251.714064 65.303038 252.448486 67.151551 252.448486 
z
" style="fill:#fec7b8;stroke:#000000;stroke-linejoin:miter;"/>
   </g>
   <g id="patch_21">
    <path d="M 214.189495 252.448486 
C 216.038008 252.448486 217.81106 251.714064 219.118156 250.406968 
C 220.425251 249.099872 221.159673 247.326821 221.159673 245.478308 
C 221.159673 243.629795 220.425251 241.856744 219.118156 240.549648 
C 217.81106 239.242552 216.038008 238.50813 214.189495 238.50813 
C 212.340983 238.50813 210.567931 239.242552 209.260835 240.549648 
C 207.953739 241.856744 207.219317 243.629795 207.219317 245.478308 
C 207.219317 247.326821 207.953739 249.099872 209.260835 250.406968 
C 210.567931 251.714064 212.340983 252.448486 214.189495 252.448486 
z
" style="fill:#fec7b8;stroke:#000000;stroke-linejoin:miter;"/>
   </g>
   <g id="patch_22">
    <path d="M 259.626719 112.607091 
C 261.475232 112.607091 263.248283 111.872669 264.555379 110.565573 
C 265.862475 109.258477 266.596897 107.485426 266.596897 105.636913 
C 266.596897 103.7884 265.862475 102.015349 264.555379 100.708253 
C 263.248283 99.401157 261.475232 98.666735 259.626719 98.666735 
C 257.778206 98.666735 256.005155 99.401157 254.698059 100.708253 
C 253.390963 102.015349 252.656541 103.7884 252.656541 105.636913 
C 252.656541 107.485426 253.390963 109.258477 254.698059 110.565573 
C 256.005155 111.872669 257.778206 112.607091 259.626719 112.607091 
z
" style="fill:#fec7b8;stroke:#000000;stroke-linejoin:miter;"/>
   </g>
   <g id="text_1">
    <!-- 0 -->
    <defs>
     <path d="M 31.78125 66.40625 
Q 24.171875 66.40625 20.328125 58.90625 
Q 16.5 51.421875 16.5 36.375 
Q 16.5 21.390625 20.328125 13.890625 
Q 24.171875 6.390625 31.78125 6.390625 
Q 39.453125 6.390625 43.28125 13.890625 
Q 47.125 21.390625 47.125 36.375 
Q 47.125 51.421875 43.28125 58.90625 
Q 39.453125 66.40625 31.78125 66.40625 
M 31.78125 74.21875 
Q 44.046875 74.21875 50.515625 64.515625 
Q 56.984375 54.828125 56.984375 36.375 
Q 56.984375 17.96875 50.515625 8.265625 
Q 44.046875 -1.421875 31.78125 -1.421875 
Q 19.53125 -1.421875 13.0625 8.265625 
Q 6.59375 17.96875 6.59375 36.375 
Q 6.59375 54.828125 13.0625 64.515625 
Q 19.53125 74.21875 31.78125 74.21875 
" id="BitstreamVeraSans-Roman-30"/>
    </defs>
    <g transform="translate(137.489273264 21.9695530471)scale(0.1 -0.1)">
     <use xlink:href="#BitstreamVeraSans-Roman-30"/>
    </g>
   </g>
   <g id="text_2">
    <!-- 1 -->
    <defs>
     <path d="M 12.40625 8.296875 
L 28.515625 8.296875 
L 28.515625 63.921875 
L 10.984375 60.40625 
L 10.984375 69.390625 
L 28.421875 72.90625 
L 38.28125 72.90625 
L 38.28125 8.296875 
L 54.390625 8.296875 
L 54.390625 0 
L 12.40625 0 
z
" id="BitstreamVeraSans-Roman-31"/>
    </defs>
    <g transform="translate(18.5330776185 108.396288153)scale(0.1 -0.1)">
     <use xlink:href="#BitstreamVeraSans-Roman-31"/>
    </g>
   </g>
   <g id="text_3">
    <!-- 2 -->
    <defs>
     <path d="M 19.1875 8.296875 
L 53.609375 8.296875 
L 53.609375 0 
L 7.328125 0 
L 7.328125 8.296875 
Q 12.9375 14.109375 22.625 23.890625 
Q 32.328125 33.6875 34.8125 36.53125 
Q 39.546875 41.84375 41.421875 45.53125 
Q 43.3125 49.21875 43.3125 52.78125 
Q 43.3125 58.59375 39.234375 62.25 
Q 35.15625 65.921875 28.609375 65.921875 
Q 23.96875 65.921875 18.8125 64.3125 
Q 13.671875 62.703125 7.8125 59.421875 
L 7.8125 69.390625 
Q 13.765625 71.78125 18.9375 73 
Q 24.125 74.21875 28.421875 74.21875 
Q 39.75 74.21875 46.484375 68.546875 
Q 53.21875 62.890625 53.21875 53.421875 
Q 53.21875 48.921875 51.53125 44.890625 
Q 49.859375 40.875 45.40625 35.40625 
Q 44.1875 33.984375 37.640625 27.21875 
Q 31.109375 20.453125 19.1875 8.296875 
" id="BitstreamVeraSans-Roman-32"/>
    </defs>
    <g transform="translate(63.9703011825 248.237683091)scale(0.1 -0.1)">
     <use xlink:href="#BitstreamVeraSans-Roman-32"/>
    </g>
   </g>
   <g id="text_4">
    <!-- 3 -->
    <defs>
     <path d="M 40.578125 39.3125 
Q 47.65625 37.796875 51.625 33 
Q 55.609375 28.21875 55.609375 21.1875 
Q 55.609375 10.40625 48.1875 4.484375 
Q 40.765625 -1.421875 27.09375 -1.421875 
Q 22.515625 -1.421875 17.65625 -0.515625 
Q 12.796875 0.390625 7.625 2.203125 
L 7.625 11.71875 
Q 11.71875 9.328125 16.59375 8.109375 
Q 21.484375 6.890625 26.8125 6.890625 
Q 36.078125 6.890625 40.9375 10.546875 
Q 45.796875 14.203125 45.796875 21.1875 
Q 45.796875 27.640625 41.28125 31.265625 
Q 36.765625 34.90625 28.71875 34.90625 
L 20.21875 34.90625 
L 20.21875 43.015625 
L 29.109375 43.015625 
Q 36.375 43.015625 40.234375 45.921875 
Q 44.09375 48.828125 44.09375 54.296875 
Q 44.09375 59.90625 40.109375 62.90625 
Q 36.140625 65.921875 28.71875 65.921875 
Q 24.65625 65.921875 20.015625 65.03125 
Q 15.375 64.15625 9.8125 62.3125 
L 9.8125 71.09375 
Q 15.4375 72.65625 20.34375 73.4375 
Q 25.25 74.21875 29.59375 74.21875 
Q 40.828125 74.21875 47.359375 69.109375 
Q 53.90625 64.015625 53.90625 55.328125 
Q 53.90625 49.265625 50.4375 45.09375 
Q 46.96875 40.921875 40.578125 39.3125 
" id="BitstreamVeraSans-Roman-33"/>
    </defs>
    <g transform="translate(211.008245345 248.237683091)scale(0.1 -0.1)">
     <use xlink:href="#BitstreamVeraSans-Roman-33"/>
    </g>
   </g>
   <g id="text_5">
    <!-- 4 -->
    <defs>
     <path d="M 37.796875 64.3125 
L 12.890625 25.390625 
L 37.796875 25.390625 
z
M 35.203125 72.90625 
L 47.609375 72.90625 
L 47.609375 25.390625 
L 58.015625 25.390625 
L 58.015625 17.1875 
L 47.609375 17.1875 
L 47.609375 0 
L 37.796875 0 
L 37.796875 17.1875 
L 4.890625 17.1875 
L 4.890625 26.703125 
z
" id="BitstreamVeraSans-Roman-34"/>
    </defs>
    <g transform="translate(256.445468909 108.396288153)scale(0.1 -0.1)">
     <use xlink:href="#BitstreamVeraSans-Roman-34"/>
    </g>
   </g>
  </g>
 </g>
 <defs>
  <clipPath id="pc0dc4e16ca">
   <rect height="262.08" width="266.941046527" x="7.2" y="7.2"/>
  </clipPath>
 </defs>
</svg>
