<?xml version="1.0" encoding="UTF-8"?>
<svg  xmlns="http://www.w3.org/2000/svg" xmlns:xlink="http://www.w3.org/1999/xlink" width="360pt" height="339pt" viewBox="0 0 360 339" version="1.1">
<!-- ***Exported Comment***
Created by Mathematica
***Exported Comment*** -->
<g id="surface123">
<path style=" stroke:none;fill-rule:evenodd;fill:rgb(0%,0%,0%);fill-opacity:1;" d="M 91.1875 47.664062 C 90.851562 47.777344 90.574219 47.902344 90.355469 48.039062 C 89.933594 48.304688 89.722656 48.605469 89.722656 48.945312 C 89.722656 49.21875 89.808594 49.417969 89.984375 49.546875 C 90.097656 49.628906 90.226562 49.671875 90.367188 49.671875 C 90.558594 49.671875 90.746094 49.617188 90.921875 49.503906 C 91.101562 49.394531 91.1875 49.253906 91.1875 49.082031 Z M 88.9375 49.25 C 88.9375 48.816406 89.152344 48.457031 89.578125 48.167969 C 89.855469 47.992188 90.390625 47.746094 91.1875 47.441406 L 91.1875 47.078125 C 91.1875 46.792969 91.160156 46.589844 91.101562 46.476562 C 91.003906 46.289062 90.800781 46.195312 90.488281 46.195312 C 90.339844 46.195312 90.199219 46.230469 90.066406 46.304688 C 89.933594 46.378906 89.867188 46.484375 89.867188 46.617188 C 89.867188 46.648438 89.871094 46.707031 89.886719 46.785156 C 89.902344 46.867188 89.910156 46.917969 89.910156 46.9375 C 89.910156 47.097656 89.855469 47.207031 89.746094 47.269531 C 89.683594 47.304688 89.613281 47.324219 89.527344 47.324219 C 89.394531 47.324219 89.292969 47.28125 89.222656 47.199219 C 89.152344 47.113281 89.117188 47.023438 89.117188 46.917969 C 89.117188 46.722656 89.246094 46.515625 89.496094 46.300781 C 89.746094 46.082031 90.117188 45.972656 90.605469 45.972656 C 91.167969 45.972656 91.550781 46.152344 91.75 46.515625 C 91.863281 46.707031 91.917969 46.992188 91.917969 47.363281 L 91.917969 49.160156 C 91.917969 49.335938 91.929688 49.453125 91.953125 49.519531 C 91.988281 49.621094 92.066406 49.671875 92.183594 49.671875 C 92.25 49.671875 92.304688 49.664062 92.347656 49.652344 C 92.390625 49.636719 92.464844 49.589844 92.566406 49.511719 L 92.566406 49.722656 C 92.472656 49.84375 92.371094 49.945312 92.265625 50.023438 C 92.097656 50.144531 91.929688 50.203125 91.757812 50.203125 C 91.558594 50.203125 91.414062 50.132812 91.324219 49.996094 C 91.234375 49.859375 91.1875 49.703125 91.1875 49.53125 C 90.976562 49.71875 90.792969 49.859375 90.632812 49.957031 C 90.367188 50.121094 90.113281 50.203125 89.871094 50.203125 C 89.621094 50.203125 89.402344 50.113281 89.214844 49.933594 C 89.03125 49.753906 88.9375 49.523438 88.9375 49.25 Z M 90.582031 45.945312 Z M 90.582031 45.945312 "/>
<path style=" stroke:none;fill-rule:evenodd;fill:rgb(0%,0%,0%);fill-opacity:1;" d="M 88.363281 167.484375 L 88.363281 167.332031 C 88.695312 167.253906 88.996094 167.164062 89.261719 167.070312 C 89.53125 166.972656 89.671875 166.921875 89.695312 166.921875 C 89.699219 166.941406 89.703125 166.960938 89.703125 166.976562 L 89.703125 169.632812 C 89.78125 169.492188 89.894531 169.359375 90.046875 169.234375 C 90.320312 169.011719 90.632812 168.902344 90.984375 168.902344 C 91.417969 168.902344 91.789062 169.085938 92.097656 169.449219 C 92.402344 169.8125 92.554688 170.285156 92.554688 170.867188 C 92.554688 171.492188 92.355469 172.023438 91.960938 172.46875 C 91.5625 172.910156 91.039062 173.132812 90.390625 173.132812 C 90.0625 173.132812 89.742188 173.070312 89.429688 172.941406 C 89.113281 172.8125 88.957031 172.679688 88.957031 172.550781 L 88.957031 167.921875 C 88.957031 167.753906 88.933594 167.636719 88.886719 167.570312 C 88.839844 167.5 88.730469 167.464844 88.5625 167.464844 Z M 89.6875 172.40625 C 89.710938 172.558594 89.828125 172.667969 90.03125 172.738281 C 90.234375 172.800781 90.414062 172.835938 90.566406 172.835938 C 90.980469 172.835938 91.289062 172.679688 91.488281 172.371094 C 91.6875 172.0625 91.785156 171.691406 91.785156 171.25 C 91.785156 170.8125 91.695312 170.410156 91.507812 170.039062 C 91.320312 169.664062 91.019531 169.480469 90.601562 169.480469 C 90.394531 169.480469 90.1875 169.542969 89.988281 169.671875 C 89.785156 169.800781 89.6875 169.960938 89.6875 170.160156 Z M 89.6875 172.40625 "/>
<path style=" stroke:none;fill-rule:evenodd;fill:rgb(0%,0%,0%);fill-opacity:1;" d="M 90.816406 291.832031 C 91.1875 291.832031 91.507812 291.925781 91.773438 292.105469 C 92.042969 292.289062 92.179688 292.492188 92.179688 292.710938 C 92.179688 292.804688 92.144531 292.890625 92.074219 292.972656 C 92.007812 293.050781 91.902344 293.09375 91.757812 293.09375 C 91.652344 293.09375 91.5625 293.058594 91.484375 292.992188 C 91.40625 292.925781 91.347656 292.824219 91.3125 292.695312 L 91.257812 292.492188 C 91.21875 292.34375 91.152344 292.238281 91.054688 292.175781 C 90.957031 292.117188 90.828125 292.085938 90.667969 292.085938 C 90.328125 292.085938 90.042969 292.234375 89.808594 292.527344 C 89.574219 292.816406 89.457031 293.207031 89.457031 293.6875 C 89.457031 294.132812 89.585938 294.527344 89.84375 294.882812 C 90.101562 295.234375 90.449219 295.410156 90.886719 295.410156 C 91.195312 295.410156 91.472656 295.308594 91.714844 295.105469 C 91.851562 294.988281 92.007812 294.800781 92.179688 294.546875 L 92.300781 294.625 C 92.132812 294.980469 91.953125 295.261719 91.765625 295.46875 C 91.40625 295.863281 90.992188 296.0625 90.519531 296.0625 C 90.058594 296.0625 89.648438 295.882812 89.292969 295.523438 C 88.9375 295.160156 88.757812 294.671875 88.757812 294.054688 C 88.757812 293.445312 88.953125 292.925781 89.34375 292.488281 C 89.730469 292.050781 90.222656 291.832031 90.816406 291.832031 Z M 90.621094 291.828125 Z M 90.621094 291.828125 "/>
<path style=" stroke:none;fill-rule:evenodd;fill:rgb(0%,0%,0%);fill-opacity:1;" d="M 170.316406 3.578125 L 170.316406 3.425781 C 170.648438 3.347656 170.949219 3.257812 171.214844 3.164062 C 171.484375 3.066406 171.628906 3.015625 171.648438 3.015625 C 171.652344 3.035156 171.65625 3.050781 171.65625 3.070312 L 171.65625 5.726562 C 171.734375 5.585938 171.847656 5.453125 172.003906 5.328125 C 172.273438 5.105469 172.585938 4.996094 172.9375 4.996094 C 173.371094 4.996094 173.742188 5.179688 174.050781 5.542969 C 174.355469 5.90625 174.507812 6.378906 174.507812 6.960938 C 174.507812 7.585938 174.3125 8.117188 173.914062 8.5625 C 173.515625 9.003906 172.992188 9.226562 172.34375 9.226562 C 172.015625 9.226562 171.695312 9.164062 171.382812 9.035156 C 171.066406 8.90625 170.910156 8.773438 170.910156 8.644531 L 170.910156 4.015625 C 170.910156 3.847656 170.886719 3.730469 170.839844 3.660156 C 170.792969 3.589844 170.683594 3.554688 170.515625 3.554688 Z M 171.640625 8.5 C 171.664062 8.652344 171.78125 8.761719 171.984375 8.828125 C 172.1875 8.894531 172.367188 8.929688 172.519531 8.929688 C 172.933594 8.929688 173.242188 8.773438 173.441406 8.464844 C 173.640625 8.15625 173.738281 7.785156 173.738281 7.34375 C 173.738281 6.90625 173.648438 6.503906 173.460938 6.132812 C 173.273438 5.757812 172.972656 5.574219 172.554688 5.574219 C 172.347656 5.574219 172.140625 5.636719 171.941406 5.765625 C 171.738281 5.894531 171.640625 6.054688 171.640625 6.253906 Z M 171.640625 8.5 "/>
<path style=" stroke:none;fill-rule:evenodd;fill:rgb(0%,0%,0%);fill-opacity:1;" d="M 172.769531 86.949219 C 173.140625 86.949219 173.460938 87.042969 173.726562 87.222656 C 173.996094 87.40625 174.132812 87.609375 174.132812 87.828125 C 174.132812 87.921875 174.097656 88.007812 174.027344 88.089844 C 173.960938 88.167969 173.855469 88.210938 173.710938 88.210938 C 173.605469 88.210938 173.515625 88.175781 173.4375 88.109375 C 173.359375 88.039062 173.300781 87.941406 173.265625 87.8125 L 173.210938 87.609375 C 173.171875 87.460938 173.105469 87.355469 173.007812 87.292969 C 172.910156 87.234375 172.78125 87.203125 172.621094 87.203125 C 172.28125 87.203125 171.996094 87.351562 171.761719 87.644531 C 171.527344 87.933594 171.410156 88.320312 171.410156 88.804688 C 171.410156 89.25 171.539062 89.644531 171.796875 90 C 172.054688 90.351562 172.402344 90.527344 172.839844 90.527344 C 173.148438 90.527344 173.425781 90.425781 173.667969 90.21875 C 173.804688 90.105469 173.960938 89.917969 174.132812 89.664062 L 174.253906 89.742188 C 174.085938 90.097656 173.90625 90.378906 173.71875 90.585938 C 173.359375 90.980469 172.945312 91.179688 172.472656 91.179688 C 172.011719 91.179688 171.601562 91 171.246094 90.640625 C 170.890625 90.277344 170.710938 89.789062 170.710938 89.171875 C 170.710938 88.5625 170.90625 88.042969 171.296875 87.605469 C 171.683594 87.167969 172.175781 86.949219 172.769531 86.949219 Z M 172.574219 86.945312 Z M 172.574219 86.945312 "/>
<path style=" stroke:none;fill-rule:evenodd;fill:rgb(0%,0%,0%);fill-opacity:1;" d="M 173.140625 129.617188 C 172.804688 129.730469 172.527344 129.855469 172.308594 129.992188 C 171.886719 130.257812 171.675781 130.558594 171.675781 130.898438 C 171.675781 131.171875 171.761719 131.371094 171.9375 131.5 C 172.050781 131.582031 172.179688 131.625 172.320312 131.625 C 172.515625 131.625 172.699219 131.570312 172.875 131.457031 C 173.054688 131.347656 173.140625 131.207031 173.140625 131.035156 Z M 170.890625 131.203125 C 170.890625 130.769531 171.105469 130.410156 171.53125 130.121094 C 171.808594 129.945312 172.34375 129.699219 173.140625 129.394531 L 173.140625 129.03125 C 173.140625 128.746094 173.113281 128.542969 173.054688 128.429688 C 172.957031 128.242188 172.753906 128.148438 172.441406 128.148438 C 172.292969 128.148438 172.152344 128.183594 172.019531 128.257812 C 171.886719 128.332031 171.820312 128.4375 171.820312 128.570312 C 171.820312 128.601562 171.824219 128.660156 171.839844 128.738281 C 171.855469 128.820312 171.863281 128.871094 171.863281 128.890625 C 171.863281 129.050781 171.808594 129.160156 171.699219 129.222656 C 171.636719 129.257812 171.566406 129.277344 171.480469 129.277344 C 171.347656 129.277344 171.246094 129.234375 171.175781 129.152344 C 171.105469 129.066406 171.070312 128.976562 171.070312 128.871094 C 171.070312 128.675781 171.199219 128.46875 171.449219 128.253906 C 171.699219 128.035156 172.070312 127.925781 172.558594 127.925781 C 173.121094 127.925781 173.503906 128.105469 173.703125 128.46875 C 173.816406 128.660156 173.871094 128.945312 173.871094 129.316406 L 173.871094 131.113281 C 173.871094 131.289062 173.882812 131.40625 173.90625 131.472656 C 173.941406 131.574219 174.019531 131.625 174.136719 131.625 C 174.203125 131.625 174.257812 131.617188 174.300781 131.605469 C 174.34375 131.589844 174.417969 131.542969 174.519531 131.464844 L 174.519531 131.675781 C 174.425781 131.796875 174.324219 131.898438 174.21875 131.976562 C 174.050781 132.097656 173.882812 132.15625 173.710938 132.15625 C 173.511719 132.15625 173.367188 132.085938 173.277344 131.949219 C 173.1875 131.8125 173.140625 131.65625 173.140625 131.484375 C 172.929688 131.671875 172.746094 131.8125 172.585938 131.910156 C 172.320312 132.074219 172.066406 132.15625 171.824219 132.15625 C 171.574219 132.15625 171.355469 132.066406 171.167969 131.886719 C 170.984375 131.707031 170.890625 131.476562 170.890625 131.203125 Z M 172.535156 127.898438 Z M 172.535156 127.898438 "/>
<path style=" stroke:none;fill-rule:evenodd;fill:rgb(0%,0%,0%);fill-opacity:1;" d="M 172.769531 209.878906 C 173.140625 209.878906 173.460938 209.972656 173.726562 210.152344 C 173.996094 210.335938 174.132812 210.539062 174.132812 210.757812 C 174.132812 210.851562 174.097656 210.9375 174.027344 211.019531 C 173.960938 211.097656 173.855469 211.140625 173.710938 211.140625 C 173.605469 211.140625 173.515625 211.105469 173.4375 211.039062 C 173.359375 210.972656 173.300781 210.871094 173.265625 210.742188 L 173.210938 210.539062 C 173.171875 210.390625 173.105469 210.285156 173.007812 210.222656 C 172.910156 210.164062 172.78125 210.132812 172.621094 210.132812 C 172.28125 210.132812 171.996094 210.28125 171.761719 210.574219 C 171.527344 210.863281 171.410156 211.253906 171.410156 211.734375 C 171.410156 212.179688 171.539062 212.574219 171.796875 212.929688 C 172.054688 213.28125 172.402344 213.457031 172.839844 213.457031 C 173.148438 213.457031 173.425781 213.355469 173.667969 213.152344 C 173.804688 213.035156 173.960938 212.847656 174.132812 212.59375 L 174.253906 212.671875 C 174.085938 213.027344 173.90625 213.308594 173.71875 213.515625 C 173.359375 213.910156 172.945312 214.109375 172.472656 214.109375 C 172.011719 214.109375 171.601562 213.929688 171.246094 213.570312 C 170.890625 213.207031 170.710938 212.71875 170.710938 212.101562 C 170.710938 211.492188 170.90625 210.972656 171.296875 210.535156 C 171.683594 210.097656 172.175781 209.878906 172.769531 209.878906 Z M 172.574219 209.875 Z M 172.574219 209.875 "/>
<path style=" stroke:none;fill-rule:evenodd;fill:rgb(0%,0%,0%);fill-opacity:1;" d="M 173.140625 252.546875 C 172.804688 252.660156 172.527344 252.785156 172.308594 252.921875 C 171.886719 253.1875 171.675781 253.488281 171.675781 253.828125 C 171.675781 254.101562 171.761719 254.300781 171.9375 254.429688 C 172.050781 254.511719 172.179688 254.554688 172.320312 254.554688 C 172.515625 254.554688 172.699219 254.5 172.875 254.390625 C 173.054688 254.277344 173.140625 254.136719 173.140625 253.96875 Z M 170.890625 254.132812 C 170.890625 253.699219 171.105469 253.339844 171.53125 253.054688 C 171.808594 252.875 172.34375 252.628906 173.140625 252.324219 L 173.140625 251.964844 C 173.140625 251.675781 173.113281 251.472656 173.054688 251.359375 C 172.957031 251.171875 172.753906 251.078125 172.441406 251.078125 C 172.292969 251.078125 172.152344 251.113281 172.019531 251.1875 C 171.886719 251.261719 171.820312 251.367188 171.820312 251.5 C 171.820312 251.53125 171.824219 251.589844 171.839844 251.667969 C 171.855469 251.75 171.863281 251.800781 171.863281 251.824219 C 171.863281 251.980469 171.808594 252.089844 171.699219 252.152344 C 171.636719 252.1875 171.566406 252.207031 171.480469 252.207031 C 171.347656 252.207031 171.246094 252.164062 171.175781 252.082031 C 171.105469 251.996094 171.070312 251.90625 171.070312 251.800781 C 171.070312 251.605469 171.199219 251.398438 171.449219 251.183594 C 171.699219 250.964844 172.070312 250.855469 172.558594 250.855469 C 173.121094 250.855469 173.503906 251.035156 173.703125 251.398438 C 173.816406 251.589844 173.871094 251.875 173.871094 252.246094 L 173.871094 254.042969 C 173.871094 254.21875 173.882812 254.335938 173.90625 254.402344 C 173.941406 254.503906 174.019531 254.554688 174.136719 254.554688 C 174.203125 254.554688 174.257812 254.546875 174.300781 254.535156 C 174.34375 254.519531 174.417969 254.472656 174.519531 254.394531 L 174.519531 254.605469 C 174.425781 254.730469 174.324219 254.828125 174.21875 254.90625 C 174.050781 255.027344 173.882812 255.085938 173.710938 255.085938 C 173.511719 255.085938 173.367188 255.015625 173.277344 254.878906 C 173.1875 254.742188 173.140625 254.585938 173.140625 254.414062 C 172.929688 254.601562 172.746094 254.742188 172.585938 254.839844 C 172.320312 255.003906 172.066406 255.085938 171.824219 255.085938 C 171.574219 255.085938 171.355469 254.996094 171.167969 254.816406 C 170.984375 254.636719 170.890625 254.40625 170.890625 254.132812 Z M 172.535156 250.828125 Z M 172.535156 250.828125 "/>
<path style=" stroke:none;fill-rule:evenodd;fill:rgb(0%,0%,0%);fill-opacity:1;" d="M 170.316406 331.390625 L 170.316406 331.238281 C 170.648438 331.160156 170.949219 331.074219 171.214844 330.976562 C 171.484375 330.878906 171.628906 330.828125 171.648438 330.828125 C 171.652344 330.847656 171.65625 330.867188 171.65625 330.882812 L 171.65625 333.539062 C 171.734375 333.398438 171.847656 333.265625 172.003906 333.140625 C 172.273438 332.917969 172.585938 332.808594 172.9375 332.808594 C 173.371094 332.808594 173.742188 332.992188 174.050781 333.355469 C 174.355469 333.71875 174.507812 334.191406 174.507812 334.777344 C 174.507812 335.398438 174.3125 335.929688 173.914062 336.375 C 173.515625 336.816406 172.992188 337.039062 172.34375 337.039062 C 172.015625 337.039062 171.695312 336.976562 171.382812 336.847656 C 171.066406 336.71875 170.910156 336.589844 170.910156 336.457031 L 170.910156 331.828125 C 170.910156 331.660156 170.886719 331.542969 170.839844 331.476562 C 170.792969 331.40625 170.683594 331.371094 170.515625 331.371094 Z M 171.640625 336.3125 C 171.664062 336.464844 171.78125 336.578125 171.984375 336.644531 C 172.1875 336.707031 172.367188 336.742188 172.519531 336.742188 C 172.933594 336.742188 173.242188 336.585938 173.441406 336.277344 C 173.640625 335.96875 173.738281 335.597656 173.738281 335.15625 C 173.738281 334.71875 173.648438 334.316406 173.460938 333.945312 C 173.273438 333.570312 172.972656 333.386719 172.554688 333.386719 C 172.347656 333.386719 172.140625 333.449219 171.941406 333.578125 C 171.738281 333.707031 171.640625 333.867188 171.640625 334.066406 Z M 171.640625 336.3125 "/>
<path style=" stroke:none;fill-rule:evenodd;fill:rgb(0%,0%,0%);fill-opacity:1;" d="M 254.722656 4.996094 C 255.09375 4.996094 255.414062 5.089844 255.679688 5.269531 C 255.949219 5.453125 256.085938 5.65625 256.085938 5.875 C 256.085938 5.96875 256.050781 6.054688 255.984375 6.136719 C 255.914062 6.214844 255.808594 6.257812 255.664062 6.257812 C 255.5625 6.257812 255.46875 6.222656 255.390625 6.15625 C 255.3125 6.085938 255.253906 5.988281 255.21875 5.859375 L 255.164062 5.65625 C 255.125 5.507812 255.058594 5.402344 254.964844 5.339844 C 254.863281 5.28125 254.734375 5.25 254.574219 5.25 C 254.234375 5.25 253.949219 5.398438 253.714844 5.691406 C 253.480469 5.980469 253.363281 6.367188 253.363281 6.851562 C 253.363281 7.296875 253.492188 7.691406 253.75 8.046875 C 254.007812 8.398438 254.355469 8.574219 254.792969 8.574219 C 255.105469 8.574219 255.378906 8.472656 255.621094 8.265625 C 255.757812 8.152344 255.914062 7.964844 256.085938 7.710938 L 256.207031 7.789062 C 256.039062 8.144531 255.859375 8.425781 255.671875 8.632812 C 255.3125 9.027344 254.898438 9.226562 254.425781 9.226562 C 253.964844 9.226562 253.554688 9.046875 253.199219 8.6875 C 252.84375 8.324219 252.664062 7.835938 252.664062 7.21875 C 252.664062 6.609375 252.859375 6.089844 253.25 5.652344 C 253.636719 5.214844 254.128906 4.996094 254.722656 4.996094 Z M 254.527344 4.992188 Z M 254.527344 4.992188 "/>
<path style=" stroke:none;fill-rule:evenodd;fill:rgb(0%,0%,0%);fill-opacity:1;" d="M 252.269531 85.53125 L 252.269531 85.378906 C 252.601562 85.300781 252.902344 85.210938 253.167969 85.117188 C 253.4375 85.019531 253.582031 84.96875 253.601562 84.96875 C 253.605469 84.988281 253.609375 85.003906 253.609375 85.023438 L 253.609375 87.679688 C 253.6875 87.539062 253.800781 87.40625 253.957031 87.28125 C 254.226562 87.058594 254.539062 86.949219 254.890625 86.949219 C 255.324219 86.949219 255.695312 87.132812 256.003906 87.496094 C 256.308594 87.859375 256.460938 88.332031 256.460938 88.914062 C 256.460938 89.539062 256.265625 90.070312 255.867188 90.515625 C 255.46875 90.957031 254.945312 91.179688 254.296875 91.179688 C 253.972656 91.179688 253.648438 91.117188 253.335938 90.988281 C 253.019531 90.859375 252.863281 90.726562 252.863281 90.597656 L 252.863281 85.96875 C 252.863281 85.800781 252.839844 85.683594 252.792969 85.613281 C 252.746094 85.542969 252.636719 85.507812 252.46875 85.507812 Z M 253.59375 90.453125 C 253.617188 90.605469 253.734375 90.714844 253.9375 90.78125 C 254.140625 90.847656 254.320312 90.882812 254.472656 90.882812 C 254.886719 90.882812 255.195312 90.726562 255.394531 90.417969 C 255.59375 90.109375 255.695312 89.738281 255.695312 89.296875 C 255.695312 88.859375 255.601562 88.457031 255.414062 88.085938 C 255.226562 87.710938 254.925781 87.527344 254.507812 87.527344 C 254.300781 87.527344 254.09375 87.589844 253.894531 87.71875 C 253.691406 87.847656 253.59375 88.007812 253.59375 88.207031 Z M 253.59375 90.453125 "/>
<path style=" stroke:none;fill-rule:evenodd;fill:rgb(0%,0%,0%);fill-opacity:1;" d="M 254.722656 127.925781 C 255.09375 127.925781 255.414062 128.019531 255.679688 128.199219 C 255.949219 128.382812 256.085938 128.585938 256.085938 128.804688 C 256.085938 128.898438 256.050781 128.984375 255.984375 129.066406 C 255.914062 129.144531 255.808594 129.1875 255.664062 129.1875 C 255.5625 129.1875 255.46875 129.152344 255.390625 129.085938 C 255.3125 129.019531 255.253906 128.917969 255.21875 128.789062 L 255.164062 128.585938 C 255.125 128.4375 255.058594 128.332031 254.964844 128.269531 C 254.863281 128.210938 254.734375 128.179688 254.574219 128.179688 C 254.234375 128.179688 253.949219 128.328125 253.714844 128.621094 C 253.480469 128.910156 253.363281 129.300781 253.363281 129.78125 C 253.363281 130.226562 253.492188 130.621094 253.75 130.976562 C 254.007812 131.328125 254.355469 131.503906 254.792969 131.503906 C 255.105469 131.503906 255.378906 131.402344 255.621094 131.199219 C 255.757812 131.082031 255.914062 130.894531 256.085938 130.640625 L 256.207031 130.71875 C 256.039062 131.074219 255.859375 131.355469 255.671875 131.5625 C 255.3125 131.957031 254.898438 132.15625 254.425781 132.15625 C 253.964844 132.15625 253.554688 131.976562 253.199219 131.617188 C 252.84375 131.253906 252.664062 130.765625 252.664062 130.148438 C 252.664062 129.539062 252.859375 129.019531 253.25 128.582031 C 253.636719 128.144531 254.128906 127.925781 254.722656 127.925781 Z M 254.527344 127.921875 Z M 254.527344 127.921875 "/>
<path style=" stroke:none;fill-rule:evenodd;fill:rgb(0%,0%,0%);fill-opacity:1;" d="M 255.09375 211.570312 C 254.757812 211.683594 254.480469 211.808594 254.261719 211.945312 C 253.839844 212.210938 253.628906 212.511719 253.628906 212.851562 C 253.628906 213.125 253.714844 213.324219 253.890625 213.453125 C 254.003906 213.535156 254.132812 213.578125 254.273438 213.578125 C 254.46875 213.578125 254.652344 213.523438 254.828125 213.414062 C 255.007812 213.300781 255.09375 213.160156 255.09375 212.992188 Z M 252.84375 213.15625 C 252.84375 212.722656 253.058594 212.363281 253.488281 212.078125 C 253.761719 211.898438 254.296875 211.652344 255.09375 211.347656 L 255.09375 210.988281 C 255.09375 210.699219 255.066406 210.496094 255.007812 210.382812 C 254.910156 210.195312 254.707031 210.101562 254.394531 210.101562 C 254.246094 210.101562 254.105469 210.136719 253.972656 210.210938 C 253.839844 210.285156 253.773438 210.390625 253.773438 210.523438 C 253.773438 210.554688 253.78125 210.613281 253.792969 210.691406 C 253.808594 210.773438 253.816406 210.824219 253.816406 210.847656 C 253.816406 211.003906 253.761719 211.113281 253.652344 211.175781 C 253.59375 211.210938 253.519531 211.230469 253.433594 211.230469 C 253.300781 211.230469 253.199219 211.1875 253.128906 211.105469 C 253.058594 211.019531 253.023438 210.929688 253.023438 210.824219 C 253.023438 210.628906 253.152344 210.421875 253.402344 210.207031 C 253.652344 209.988281 254.023438 209.878906 254.511719 209.878906 C 255.074219 209.878906 255.457031 210.058594 255.65625 210.421875 C 255.769531 210.613281 255.824219 210.898438 255.824219 211.269531 L 255.824219 213.066406 C 255.824219 213.242188 255.835938 213.359375 255.859375 213.425781 C 255.894531 213.527344 255.972656 213.578125 256.089844 213.578125 C 256.15625 213.578125 256.210938 213.570312 256.253906 213.558594 C 256.296875 213.542969 256.371094 213.496094 256.476562 213.417969 L 256.476562 213.628906 C 256.378906 213.753906 256.277344 213.851562 256.171875 213.929688 C 256.007812 214.050781 255.835938 214.109375 255.664062 214.109375 C 255.464844 214.109375 255.320312 214.039062 255.230469 213.902344 C 255.140625 213.765625 255.09375 213.609375 255.09375 213.4375 C 254.882812 213.625 254.699219 213.765625 254.542969 213.863281 C 254.273438 214.027344 254.019531 214.109375 253.777344 214.109375 C 253.527344 214.109375 253.308594 214.019531 253.121094 213.839844 C 252.9375 213.660156 252.84375 213.429688 252.84375 213.15625 Z M 254.488281 209.851562 Z M 254.488281 209.851562 "/>
<path style=" stroke:none;fill-rule:evenodd;fill:rgb(0%,0%,0%);fill-opacity:1;" d="M 252.269531 249.4375 L 252.269531 249.285156 C 252.601562 249.207031 252.902344 249.117188 253.167969 249.023438 C 253.4375 248.925781 253.582031 248.875 253.601562 248.875 C 253.605469 248.894531 253.609375 248.914062 253.609375 248.929688 L 253.609375 251.585938 C 253.6875 251.445312 253.800781 251.3125 253.957031 251.1875 C 254.226562 250.964844 254.539062 250.855469 254.890625 250.855469 C 255.324219 250.855469 255.695312 251.039062 256.003906 251.402344 C 256.308594 251.765625 256.460938 252.238281 256.460938 252.820312 C 256.460938 253.445312 256.265625 253.976562 255.867188 254.421875 C 255.46875 254.863281 254.945312 255.085938 254.296875 255.085938 C 253.972656 255.085938 253.648438 255.023438 253.335938 254.894531 C 253.019531 254.765625 252.863281 254.636719 252.863281 254.503906 L 252.863281 249.875 C 252.863281 249.707031 252.839844 249.589844 252.792969 249.523438 C 252.746094 249.453125 252.636719 249.417969 252.46875 249.417969 Z M 253.59375 254.359375 C 253.617188 254.511719 253.734375 254.625 253.9375 254.691406 C 254.140625 254.753906 254.320312 254.789062 254.472656 254.789062 C 254.886719 254.789062 255.195312 254.632812 255.394531 254.324219 C 255.59375 254.015625 255.695312 253.644531 255.695312 253.203125 C 255.695312 252.765625 255.601562 252.363281 255.414062 251.992188 C 255.226562 251.617188 254.925781 251.433594 254.507812 251.433594 C 254.300781 251.433594 254.09375 251.496094 253.894531 251.625 C 253.691406 251.753906 253.59375 251.914062 253.59375 252.113281 Z M 253.59375 254.359375 "/>
<path style=" stroke:none;fill-rule:evenodd;fill:rgb(0%,0%,0%);fill-opacity:1;" d="M 255.09375 334.5 C 254.757812 334.613281 254.480469 334.738281 254.261719 334.875 C 253.839844 335.140625 253.628906 335.445312 253.628906 335.78125 C 253.628906 336.054688 253.714844 336.253906 253.890625 336.382812 C 254.003906 336.464844 254.132812 336.507812 254.273438 336.507812 C 254.46875 336.507812 254.652344 336.453125 254.828125 336.34375 C 255.007812 336.230469 255.09375 336.089844 255.09375 335.921875 Z M 252.84375 336.085938 C 252.84375 335.652344 253.058594 335.292969 253.488281 335.007812 C 253.761719 334.828125 254.296875 334.582031 255.09375 334.277344 L 255.09375 333.917969 C 255.09375 333.628906 255.066406 333.425781 255.007812 333.3125 C 254.910156 333.125 254.707031 333.03125 254.394531 333.03125 C 254.246094 333.03125 254.105469 333.066406 253.972656 333.140625 C 253.839844 333.214844 253.773438 333.320312 253.773438 333.453125 C 253.773438 333.484375 253.78125 333.542969 253.792969 333.621094 C 253.808594 333.703125 253.816406 333.753906 253.816406 333.777344 C 253.816406 333.933594 253.761719 334.042969 253.652344 334.105469 C 253.59375 334.140625 253.519531 334.160156 253.433594 334.160156 C 253.300781 334.160156 253.199219 334.117188 253.128906 334.035156 C 253.058594 333.949219 253.023438 333.859375 253.023438 333.757812 C 253.023438 333.558594 253.152344 333.351562 253.402344 333.136719 C 253.652344 332.917969 254.023438 332.808594 254.511719 332.808594 C 255.074219 332.808594 255.457031 332.988281 255.65625 333.351562 C 255.769531 333.542969 255.824219 333.828125 255.824219 334.199219 L 255.824219 335.996094 C 255.824219 336.171875 255.835938 336.289062 255.859375 336.355469 C 255.894531 336.457031 255.972656 336.507812 256.089844 336.507812 C 256.15625 336.507812 256.210938 336.5 256.253906 336.488281 C 256.296875 336.472656 256.371094 336.425781 256.476562 336.347656 L 256.476562 336.558594 C 256.378906 336.683594 256.277344 336.78125 256.171875 336.859375 C 256.007812 336.980469 255.835938 337.039062 255.664062 337.039062 C 255.464844 337.039062 255.320312 336.96875 255.230469 336.832031 C 255.140625 336.695312 255.09375 336.539062 255.09375 336.367188 C 254.882812 336.554688 254.699219 336.695312 254.542969 336.792969 C 254.273438 336.957031 254.019531 337.039062 253.777344 337.039062 C 253.527344 337.039062 253.308594 336.949219 253.121094 336.769531 C 252.9375 336.589844 252.84375 336.359375 252.84375 336.085938 Z M 254.488281 332.78125 Z M 254.488281 332.78125 "/>
<path style="fill:none;stroke-width:0.5;stroke-linecap:butt;stroke-linejoin:miter;stroke:rgb(0%,0%,0%);stroke-opacity:1;stroke-miterlimit:3.25;" d="M 90.816406 171.5 L 149.15625 83.992188 " transform="matrix(1,0,0,1,-74,-13)"/>
<path style="fill-rule:evenodd;fill:rgb(0%,0%,0%);fill-opacity:1;stroke-width:0.03;stroke-linecap:square;stroke-linejoin:miter;stroke:rgb(0%,0%,0%);stroke-opacity:1;stroke-miterlimit:3.25;" d="M 145.28125 83 L 145.753906 83.0625 L 146.867188 83.25 L 147.519531 83.390625 L 148.15625 83.5625 L 148.722656 83.761719 L 149.15625 83.992188 L 149.5 84.28125 L 149.894531 84.71875 L 150.3125 85.253906 L 150.726562 85.824219 L 151.40625 86.832031 L 151.691406 87.273438 L 156.378906 73.15625 Z M 145.28125 83 " transform="matrix(1,0,0,1,-74,-13)"/>
<path style="fill:none;stroke-width:0.5;stroke-linecap:butt;stroke-linejoin:miter;stroke:rgb(0%,0%,0%);stroke-opacity:1;stroke-miterlimit:3.25;" d="M 90.816406 183.792969 L 143.359375 183.792969 " transform="matrix(1,0,0,1,-74,-13)"/>
<path style="fill-rule:evenodd;fill:rgb(0%,0%,0%);fill-opacity:1;stroke-width:0.03;stroke-linecap:square;stroke-linejoin:miter;stroke:rgb(0%,0%,0%);stroke-opacity:1;stroke-miterlimit:3.25;" d="M 142.035156 180.015625 L 142.246094 180.445312 L 142.703125 181.476562 L 142.949219 182.097656 L 143.160156 182.722656 L 143.308594 183.304688 L 143.359375 183.792969 L 143.308594 184.238281 L 143.160156 184.808594 L 142.949219 185.457031 L 142.703125 186.113281 L 142.246094 187.242188 L 142.035156 187.71875 L 156.378906 183.792969 Z M 142.035156 180.015625 " transform="matrix(1,0,0,1,-74,-13)"/>
<path style="fill:none;stroke-width:0.5;stroke-linecap:butt;stroke-linejoin:miter;stroke:rgb(0%,0%,0%);stroke-opacity:1;stroke-miterlimit:3.25;" d="M 90.816406 196.085938 L 149.15625 283.59375 " transform="matrix(1,0,0,1,-74,-13)"/>
<path style="fill-rule:evenodd;fill:rgb(0%,0%,0%);fill-opacity:1;stroke-width:0.03;stroke-linecap:square;stroke-linejoin:miter;stroke:rgb(0%,0%,0%);stroke-opacity:1;stroke-miterlimit:3.25;" d="M 151.5625 280.398438 L 151.324219 280.8125 L 150.722656 281.765625 L 150.339844 282.3125 L 149.9375 282.835938 L 149.535156 283.28125 L 149.15625 283.59375 L 148.761719 283.796875 L 148.199219 283.996094 L 147.546875 284.175781 L 146.863281 284.339844 L 145.671875 284.578125 L 145.15625 284.671875 L 156.378906 294.429688 Z M 151.5625 280.398438 " transform="matrix(1,0,0,1,-74,-13)"/>
<path style="fill:none;stroke-width:0.5;stroke-linecap:butt;stroke-linejoin:miter;stroke:rgb(0%,0%,0%);stroke-opacity:1;stroke-miterlimit:3.25;" d="M 168.675781 58.8125 L 230.785156 27.757812 " transform="matrix(1,0,0,1,-74,-13)"/>
<path style="fill-rule:evenodd;fill:rgb(0%,0%,0%);fill-opacity:1;stroke-width:0.03;stroke-linecap:square;stroke-linejoin:miter;stroke:rgb(0%,0%,0%);stroke-opacity:1;stroke-miterlimit:3.25;" d="M 227.910156 24.972656 L 228.292969 25.265625 L 229.164062 25.980469 L 229.660156 26.425781 L 230.128906 26.890625 L 230.519531 27.34375 L 230.785156 27.757812 L 230.9375 28.179688 L 231.0625 28.757812 L 231.160156 29.429688 L 231.238281 30.128906 L 231.328125 31.339844 L 231.355469 31.863281 L 242.433594 21.933594 Z M 227.910156 24.972656 " transform="matrix(1,0,0,1,-74,-13)"/>
<path style="fill:none;stroke-width:0.5;stroke-linecap:butt;stroke-linejoin:miter;stroke:rgb(0%,0%,0%);stroke-opacity:1;stroke-miterlimit:3.25;" d="M 168.675781 62.910156 L 230.785156 93.96875 " transform="matrix(1,0,0,1,-74,-13)"/>
<path style="fill-rule:evenodd;fill:rgb(0%,0%,0%);fill-opacity:1;stroke-width:0.03;stroke-linecap:square;stroke-linejoin:miter;stroke:rgb(0%,0%,0%);stroke-opacity:1;stroke-miterlimit:3.25;" d="M 231.289062 89.996094 L 231.285156 90.476562 L 231.234375 91.601562 L 231.175781 92.265625 L 231.085938 92.921875 L 230.957031 93.507812 L 230.785156 93.96875 L 230.539062 94.339844 L 230.152344 94.789062 L 229.675781 95.273438 L 229.160156 95.75 L 228.246094 96.550781 L 227.84375 96.886719 L 242.433594 99.789062 Z M 231.289062 89.996094 " transform="matrix(1,0,0,1,-74,-13)"/>
<path style="fill:none;stroke-width:0.5;stroke-linecap:butt;stroke-linejoin:miter;stroke:rgb(0%,0%,0%);stroke-opacity:1;stroke-miterlimit:3.25;" d="M 168.675781 181.746094 L 230.785156 150.6875 " transform="matrix(1,0,0,1,-74,-13)"/>
<path style="fill-rule:evenodd;fill:rgb(0%,0%,0%);fill-opacity:1;stroke-width:0.03;stroke-linecap:square;stroke-linejoin:miter;stroke:rgb(0%,0%,0%);stroke-opacity:1;stroke-miterlimit:3.25;" d="M 227.910156 147.90625 L 228.292969 148.195312 L 229.164062 148.910156 L 229.660156 149.355469 L 230.128906 149.820312 L 230.519531 150.273438 L 230.785156 150.6875 L 230.9375 151.109375 L 231.0625 151.6875 L 231.160156 152.359375 L 231.238281 153.058594 L 231.328125 154.269531 L 231.355469 154.792969 L 242.433594 144.863281 Z M 227.910156 147.90625 " transform="matrix(1,0,0,1,-74,-13)"/>
<path style="fill:none;stroke-width:0.5;stroke-linecap:butt;stroke-linejoin:miter;stroke:rgb(0%,0%,0%);stroke-opacity:1;stroke-miterlimit:3.25;" d="M 168.675781 185.84375 L 230.785156 216.898438 " transform="matrix(1,0,0,1,-74,-13)"/>
<path style="fill-rule:evenodd;fill:rgb(0%,0%,0%);fill-opacity:1;stroke-width:0.03;stroke-linecap:square;stroke-linejoin:miter;stroke:rgb(0%,0%,0%);stroke-opacity:1;stroke-miterlimit:3.25;" d="M 231.289062 212.925781 L 231.285156 213.40625 L 231.234375 214.53125 L 231.175781 215.195312 L 231.085938 215.851562 L 230.957031 216.4375 L 230.785156 216.898438 L 230.539062 217.269531 L 230.152344 217.71875 L 229.675781 218.203125 L 229.160156 218.679688 L 228.246094 219.484375 L 227.84375 219.816406 L 242.433594 222.722656 Z M 231.289062 212.925781 " transform="matrix(1,0,0,1,-74,-13)"/>
<path style="fill:none;stroke-width:0.5;stroke-linecap:butt;stroke-linejoin:miter;stroke:rgb(0%,0%,0%);stroke-opacity:1;stroke-miterlimit:3.25;" d="M 168.675781 304.675781 L 230.785156 273.617188 " transform="matrix(1,0,0,1,-74,-13)"/>
<path style="fill-rule:evenodd;fill:rgb(0%,0%,0%);fill-opacity:1;stroke-width:0.03;stroke-linecap:square;stroke-linejoin:miter;stroke:rgb(0%,0%,0%);stroke-opacity:1;stroke-miterlimit:3.25;" d="M 227.910156 270.835938 L 228.292969 271.125 L 229.164062 271.839844 L 229.660156 272.285156 L 230.128906 272.75 L 230.519531 273.203125 L 230.785156 273.617188 L 230.9375 274.039062 L 231.0625 274.617188 L 231.160156 275.289062 L 231.238281 275.988281 L 231.328125 277.199219 L 231.355469 277.722656 L 242.433594 267.796875 Z M 227.910156 270.835938 " transform="matrix(1,0,0,1,-74,-13)"/>
<path style="fill:none;stroke-width:0.5;stroke-linecap:butt;stroke-linejoin:miter;stroke:rgb(0%,0%,0%);stroke-opacity:1;stroke-miterlimit:3.25;" d="M 168.675781 308.773438 L 230.785156 339.828125 " transform="matrix(1,0,0,1,-74,-13)"/>
<path style="fill-rule:evenodd;fill:rgb(0%,0%,0%);fill-opacity:1;stroke-width:0.03;stroke-linecap:square;stroke-linejoin:miter;stroke:rgb(0%,0%,0%);stroke-opacity:1;stroke-miterlimit:3.25;" d="M 231.289062 335.859375 L 231.285156 336.335938 L 231.234375 337.464844 L 231.175781 338.125 L 231.085938 338.78125 L 230.957031 339.367188 L 230.785156 339.828125 L 230.539062 340.199219 L 230.152344 340.648438 L 229.675781 341.132812 L 229.160156 341.613281 L 228.246094 342.414062 L 227.84375 342.746094 L 242.433594 345.652344 Z M 231.289062 335.859375 " transform="matrix(1,0,0,1,-74,-13)"/>
<path style="fill:none;stroke-width:0.5;stroke-linecap:butt;stroke-linejoin:miter;stroke:rgb(0%,0%,0%);stroke-opacity:1;stroke-miterlimit:3.25;" d="M 250.628906 19.886719 L 311.363281 19.886719 " transform="matrix(1,0,0,1,-74,-13)"/>
<path style="fill-rule:evenodd;fill:rgb(0%,0%,0%);fill-opacity:1;stroke-width:0.03;stroke-linecap:square;stroke-linejoin:miter;stroke:rgb(0%,0%,0%);stroke-opacity:1;stroke-miterlimit:3.25;" d="M 310.039062 16.109375 L 310.25 16.539062 L 310.707031 17.570312 L 310.953125 18.191406 L 311.164062 18.816406 L 311.3125 19.394531 L 311.363281 19.886719 L 311.3125 20.332031 L 311.164062 20.902344 L 310.953125 21.550781 L 310.707031 22.207031 L 310.25 23.335938 L 310.039062 23.8125 L 324.386719 19.886719 Z M 310.039062 16.109375 " transform="matrix(1,0,0,1,-74,-13)"/>
<path style="fill:none;stroke-width:0.5;stroke-linecap:butt;stroke-linejoin:miter;stroke:rgb(0%,0%,0%);stroke-opacity:1;stroke-miterlimit:3.25;" d="M 250.628906 101.839844 L 311.363281 101.839844 " transform="matrix(1,0,0,1,-74,-13)"/>
<path style="fill-rule:evenodd;fill:rgb(0%,0%,0%);fill-opacity:1;stroke-width:0.03;stroke-linecap:square;stroke-linejoin:miter;stroke:rgb(0%,0%,0%);stroke-opacity:1;stroke-miterlimit:3.25;" d="M 310.039062 98.0625 L 310.25 98.492188 L 310.707031 99.523438 L 310.953125 100.144531 L 311.164062 100.769531 L 311.3125 101.351562 L 311.363281 101.839844 L 311.3125 102.285156 L 311.164062 102.855469 L 310.953125 103.503906 L 310.707031 104.160156 L 310.25 105.289062 L 310.039062 105.765625 L 324.386719 101.839844 Z M 310.039062 98.0625 " transform="matrix(1,0,0,1,-74,-13)"/>
<path style="fill:none;stroke-width:0.5;stroke-linecap:butt;stroke-linejoin:miter;stroke:rgb(0%,0%,0%);stroke-opacity:1;stroke-miterlimit:3.25;" d="M 250.628906 142.816406 L 311.363281 142.816406 " transform="matrix(1,0,0,1,-74,-13)"/>
<path style="fill-rule:evenodd;fill:rgb(0%,0%,0%);fill-opacity:1;stroke-width:0.03;stroke-linecap:square;stroke-linejoin:miter;stroke:rgb(0%,0%,0%);stroke-opacity:1;stroke-miterlimit:3.25;" d="M 310.039062 139.039062 L 310.25 139.46875 L 310.707031 140.5 L 310.953125 141.121094 L 311.164062 141.746094 L 311.3125 142.328125 L 311.363281 142.816406 L 311.3125 143.261719 L 311.164062 143.832031 L 310.953125 144.480469 L 310.707031 145.136719 L 310.25 146.265625 L 310.039062 146.742188 L 324.386719 142.816406 Z M 310.039062 139.039062 " transform="matrix(1,0,0,1,-74,-13)"/>
<path style="fill:none;stroke-width:0.5;stroke-linecap:butt;stroke-linejoin:miter;stroke:rgb(0%,0%,0%);stroke-opacity:1;stroke-miterlimit:3.25;" d="M 250.628906 224.769531 L 311.363281 224.769531 " transform="matrix(1,0,0,1,-74,-13)"/>
<path style="fill-rule:evenodd;fill:rgb(0%,0%,0%);fill-opacity:1;stroke-width:0.03;stroke-linecap:square;stroke-linejoin:miter;stroke:rgb(0%,0%,0%);stroke-opacity:1;stroke-miterlimit:3.25;" d="M 310.039062 220.992188 L 310.25 221.421875 L 310.707031 222.453125 L 310.953125 223.074219 L 311.164062 223.699219 L 311.3125 224.28125 L 311.363281 224.769531 L 311.3125 225.214844 L 311.164062 225.785156 L 310.953125 226.433594 L 310.707031 227.09375 L 310.25 228.21875 L 310.039062 228.695312 L 324.386719 224.769531 Z M 310.039062 220.992188 " transform="matrix(1,0,0,1,-74,-13)"/>
<path style="fill:none;stroke-width:0.5;stroke-linecap:butt;stroke-linejoin:miter;stroke:rgb(0%,0%,0%);stroke-opacity:1;stroke-miterlimit:3.25;" d="M 250.628906 265.746094 L 311.363281 265.746094 " transform="matrix(1,0,0,1,-74,-13)"/>
<path style="fill-rule:evenodd;fill:rgb(0%,0%,0%);fill-opacity:1;stroke-width:0.03;stroke-linecap:square;stroke-linejoin:miter;stroke:rgb(0%,0%,0%);stroke-opacity:1;stroke-miterlimit:3.25;" d="M 310.039062 261.972656 L 310.25 262.398438 L 310.707031 263.429688 L 310.953125 264.050781 L 311.164062 264.675781 L 311.3125 265.257812 L 311.363281 265.746094 L 311.3125 266.191406 L 311.164062 266.765625 L 310.953125 267.410156 L 310.707031 268.070312 L 310.25 269.195312 L 310.039062 269.671875 L 324.386719 265.746094 Z M 310.039062 261.972656 " transform="matrix(1,0,0,1,-74,-13)"/>
<path style="fill:none;stroke-width:0.5;stroke-linecap:butt;stroke-linejoin:miter;stroke:rgb(0%,0%,0%);stroke-opacity:1;stroke-miterlimit:3.25;" d="M 250.628906 347.699219 L 311.363281 347.699219 " transform="matrix(1,0,0,1,-74,-13)"/>
<path style="fill-rule:evenodd;fill:rgb(0%,0%,0%);fill-opacity:1;stroke-width:0.03;stroke-linecap:square;stroke-linejoin:miter;stroke:rgb(0%,0%,0%);stroke-opacity:1;stroke-miterlimit:3.25;" d="M 310.039062 343.925781 L 310.25 344.351562 L 310.707031 345.382812 L 310.953125 346.003906 L 311.164062 346.628906 L 311.3125 347.210938 L 311.363281 347.699219 L 311.3125 348.144531 L 311.164062 348.71875 L 310.953125 349.363281 L 310.707031 350.023438 L 310.25 351.148438 L 310.039062 351.625 L 324.386719 347.699219 Z M 310.039062 343.925781 " transform="matrix(1,0,0,1,-74,-13)"/>
<path style="fill:none;stroke-width:0.5;stroke-linecap:butt;stroke-linejoin:miter;stroke:rgb(0%,0%,0%);stroke-opacity:1;stroke-dasharray:4,4;stroke-miterlimit:3.25;" d="M 332.582031 19.886719 L 393.316406 19.886719 " transform="matrix(1,0,0,1,-74,-13)"/>
<path style="fill-rule:evenodd;fill:rgb(0%,0%,0%);fill-opacity:1;stroke-width:0.03;stroke-linecap:square;stroke-linejoin:miter;stroke:rgb(0%,0%,0%);stroke-opacity:1;stroke-dasharray:4,4;stroke-miterlimit:3.25;" d="M 391.992188 16.109375 L 392.203125 16.539062 L 392.660156 17.570312 L 392.90625 18.191406 L 393.117188 18.816406 L 393.265625 19.394531 L 393.316406 19.886719 L 393.265625 20.332031 L 393.117188 20.902344 L 392.90625 21.550781 L 392.660156 22.207031 L 392.203125 23.335938 L 391.992188 23.8125 L 406.339844 19.886719 Z M 391.992188 16.109375 " transform="matrix(1,0,0,1,-74,-13)"/>
<path style="fill:none;stroke-width:0.5;stroke-linecap:butt;stroke-linejoin:miter;stroke:rgb(0%,0%,0%);stroke-opacity:1;stroke-dasharray:4,4;stroke-miterlimit:3.25;" d="M 332.582031 101.839844 L 393.316406 101.839844 " transform="matrix(1,0,0,1,-74,-13)"/>
<path style="fill-rule:evenodd;fill:rgb(0%,0%,0%);fill-opacity:1;stroke-width:0.03;stroke-linecap:square;stroke-linejoin:miter;stroke:rgb(0%,0%,0%);stroke-opacity:1;stroke-dasharray:4,4;stroke-miterlimit:3.25;" d="M 391.992188 98.0625 L 392.203125 98.492188 L 392.660156 99.523438 L 392.90625 100.144531 L 393.117188 100.769531 L 393.265625 101.351562 L 393.316406 101.839844 L 393.265625 102.285156 L 393.117188 102.855469 L 392.90625 103.503906 L 392.660156 104.160156 L 392.203125 105.289062 L 391.992188 105.765625 L 406.339844 101.839844 Z M 391.992188 98.0625 " transform="matrix(1,0,0,1,-74,-13)"/>
<path style="fill:none;stroke-width:0.5;stroke-linecap:butt;stroke-linejoin:miter;stroke:rgb(0%,0%,0%);stroke-opacity:1;stroke-dasharray:4,4;stroke-miterlimit:3.25;" d="M 332.582031 142.816406 L 393.316406 142.816406 " transform="matrix(1,0,0,1,-74,-13)"/>
<path style="fill-rule:evenodd;fill:rgb(0%,0%,0%);fill-opacity:1;stroke-width:0.03;stroke-linecap:square;stroke-linejoin:miter;stroke:rgb(0%,0%,0%);stroke-opacity:1;stroke-dasharray:4,4;stroke-miterlimit:3.25;" d="M 391.992188 139.039062 L 392.203125 139.46875 L 392.660156 140.5 L 392.90625 141.121094 L 393.117188 141.746094 L 393.265625 142.328125 L 393.316406 142.816406 L 393.265625 143.261719 L 393.117188 143.832031 L 392.90625 144.480469 L 392.660156 145.136719 L 392.203125 146.265625 L 391.992188 146.742188 L 406.339844 142.816406 Z M 391.992188 139.039062 " transform="matrix(1,0,0,1,-74,-13)"/>
<path style="fill:none;stroke-width:0.5;stroke-linecap:butt;stroke-linejoin:miter;stroke:rgb(0%,0%,0%);stroke-opacity:1;stroke-dasharray:4,4;stroke-miterlimit:3.25;" d="M 332.582031 224.769531 L 393.316406 224.769531 " transform="matrix(1,0,0,1,-74,-13)"/>
<path style="fill-rule:evenodd;fill:rgb(0%,0%,0%);fill-opacity:1;stroke-width:0.03;stroke-linecap:square;stroke-linejoin:miter;stroke:rgb(0%,0%,0%);stroke-opacity:1;stroke-dasharray:4,4;stroke-miterlimit:3.25;" d="M 391.992188 220.992188 L 392.203125 221.421875 L 392.660156 222.453125 L 392.90625 223.074219 L 393.117188 223.699219 L 393.265625 224.28125 L 393.316406 224.769531 L 393.265625 225.214844 L 393.117188 225.785156 L 392.90625 226.433594 L 392.660156 227.09375 L 392.203125 228.21875 L 391.992188 228.695312 L 406.339844 224.769531 Z M 391.992188 220.992188 " transform="matrix(1,0,0,1,-74,-13)"/>
<path style="fill:none;stroke-width:0.5;stroke-linecap:butt;stroke-linejoin:miter;stroke:rgb(0%,0%,0%);stroke-opacity:1;stroke-dasharray:4,4;stroke-miterlimit:3.25;" d="M 332.582031 265.746094 L 393.316406 265.746094 " transform="matrix(1,0,0,1,-74,-13)"/>
<path style="fill-rule:evenodd;fill:rgb(0%,0%,0%);fill-opacity:1;stroke-width:0.03;stroke-linecap:square;stroke-linejoin:miter;stroke:rgb(0%,0%,0%);stroke-opacity:1;stroke-dasharray:4,4;stroke-miterlimit:3.25;" d="M 391.992188 261.972656 L 392.203125 262.398438 L 392.660156 263.429688 L 392.90625 264.050781 L 393.117188 264.675781 L 393.265625 265.257812 L 393.316406 265.746094 L 393.265625 266.191406 L 393.117188 266.765625 L 392.90625 267.410156 L 392.660156 268.070312 L 392.203125 269.195312 L 391.992188 269.671875 L 406.339844 265.746094 Z M 391.992188 261.972656 " transform="matrix(1,0,0,1,-74,-13)"/>
<path style="fill:none;stroke-width:0.5;stroke-linecap:butt;stroke-linejoin:miter;stroke:rgb(0%,0%,0%);stroke-opacity:1;stroke-dasharray:4,4;stroke-miterlimit:3.25;" d="M 332.582031 347.699219 L 393.316406 347.699219 " transform="matrix(1,0,0,1,-74,-13)"/>
<path style="fill-rule:evenodd;fill:rgb(0%,0%,0%);fill-opacity:1;stroke-width:0.03;stroke-linecap:square;stroke-linejoin:miter;stroke:rgb(0%,0%,0%);stroke-opacity:1;stroke-dasharray:4,4;stroke-miterlimit:3.25;" d="M 391.992188 343.925781 L 392.203125 344.351562 L 392.660156 345.382812 L 392.90625 346.003906 L 393.117188 346.628906 L 393.265625 347.210938 L 393.316406 347.699219 L 393.265625 348.144531 L 393.117188 348.71875 L 392.90625 349.363281 L 392.660156 350.023438 L 392.203125 351.148438 L 391.992188 351.625 L 406.339844 347.699219 Z M 391.992188 343.925781 " transform="matrix(1,0,0,1,-74,-13)"/>
<path style=" stroke:none;fill-rule:evenodd;fill:rgb(0%,0%,0%);fill-opacity:1;" d="M 349.191406 6.6875 C 348.855469 6.800781 348.578125 6.925781 348.359375 7.0625 C 347.9375 7.328125 347.726562 7.628906 347.726562 7.96875 C 347.726562 8.242188 347.8125 8.441406 347.988281 8.570312 C 348.101562 8.652344 348.230469 8.695312 348.371094 8.695312 C 348.5625 8.695312 348.75 8.640625 348.925781 8.527344 C 349.101562 8.417969 349.191406 8.277344 349.191406 8.105469 Z M 346.941406 8.273438 C 346.941406 7.839844 347.15625 7.480469 347.582031 7.191406 C 347.859375 7.015625 348.394531 6.769531 349.191406 6.464844 L 349.191406 6.101562 C 349.191406 5.816406 349.164062 5.613281 349.105469 5.5 C 349.007812 5.3125 348.800781 5.21875 348.492188 5.21875 C 348.34375 5.21875 348.203125 5.253906 348.070312 5.328125 C 347.933594 5.402344 347.867188 5.507812 347.867188 5.640625 C 347.867188 5.671875 347.875 5.730469 347.890625 5.808594 C 347.90625 5.890625 347.914062 5.941406 347.914062 5.960938 C 347.914062 6.121094 347.859375 6.230469 347.75 6.292969 C 347.6875 6.328125 347.613281 6.347656 347.53125 6.347656 C 347.398438 6.347656 347.296875 6.304688 347.226562 6.222656 C 347.15625 6.136719 347.121094 6.046875 347.121094 5.941406 C 347.121094 5.746094 347.246094 5.539062 347.5 5.324219 C 347.75 5.105469 348.121094 4.996094 348.605469 4.996094 C 349.167969 4.996094 349.550781 5.175781 349.753906 5.539062 C 349.867188 5.730469 349.921875 6.015625 349.921875 6.386719 L 349.921875 8.183594 C 349.921875 8.359375 349.933594 8.476562 349.953125 8.542969 C 349.992188 8.644531 350.070312 8.695312 350.1875 8.695312 C 350.253906 8.695312 350.304688 8.6875 350.347656 8.675781 C 350.390625 8.660156 350.464844 8.613281 350.570312 8.535156 L 350.570312 8.746094 C 350.476562 8.867188 350.375 8.96875 350.265625 9.046875 C 350.101562 9.167969 349.933594 9.226562 349.761719 9.226562 C 349.5625 9.226562 349.417969 9.15625 349.328125 9.019531 C 349.238281 8.882812 349.191406 8.726562 349.191406 8.554688 C 348.980469 8.742188 348.792969 8.882812 348.636719 8.980469 C 348.371094 9.144531 348.113281 9.226562 347.875 9.226562 C 347.621094 9.226562 347.402344 9.136719 347.21875 8.957031 C 347.035156 8.777344 346.941406 8.546875 346.941406 8.273438 Z M 348.585938 4.96875 Z M 350.667969 3.578125 L 350.667969 3.425781 C 351 3.347656 351.300781 3.257812 351.566406 3.164062 C 351.835938 3.066406 351.980469 3.015625 352 3.015625 C 352.003906 3.035156 352.007812 3.050781 352.007812 3.070312 L 352.007812 5.726562 C 352.085938 5.585938 352.199219 5.453125 352.355469 5.328125 C 352.625 5.105469 352.9375 4.996094 353.289062 4.996094 C 353.726562 4.996094 354.09375 5.179688 354.402344 5.542969 C 354.707031 5.90625 354.863281 6.378906 354.863281 6.960938 C 354.863281 7.585938 354.664062 8.117188 354.265625 8.5625 C 353.867188 9.003906 353.34375 9.226562 352.695312 9.226562 C 352.371094 9.226562 352.050781 9.164062 351.734375 9.035156 C 351.417969 8.90625 351.261719 8.773438 351.261719 8.644531 L 351.261719 4.015625 C 351.261719 3.847656 351.238281 3.730469 351.191406 3.660156 C 351.144531 3.589844 351.035156 3.554688 350.867188 3.554688 Z M 351.992188 8.5 C 352.015625 8.652344 352.132812 8.761719 352.335938 8.828125 C 352.539062 8.894531 352.71875 8.929688 352.871094 8.929688 C 353.285156 8.929688 353.59375 8.773438 353.792969 8.464844 C 353.992188 8.15625 354.09375 7.785156 354.09375 7.34375 C 354.09375 6.90625 354 6.503906 353.8125 6.132812 C 353.625 5.757812 353.324219 5.574219 352.90625 5.574219 C 352.699219 5.574219 352.492188 5.636719 352.292969 5.765625 C 352.089844 5.894531 351.992188 6.054688 351.992188 6.253906 Z M 357.367188 4.996094 C 357.738281 4.996094 358.058594 5.089844 358.328125 5.269531 C 358.597656 5.453125 358.730469 5.65625 358.730469 5.875 C 358.730469 5.96875 358.695312 6.054688 358.628906 6.136719 C 358.558594 6.214844 358.453125 6.257812 358.3125 6.257812 C 358.207031 6.257812 358.117188 6.222656 358.035156 6.15625 C 357.957031 6.085938 357.902344 5.988281 357.863281 5.859375 L 357.808594 5.65625 C 357.773438 5.507812 357.703125 5.402344 357.609375 5.339844 C 357.511719 5.28125 357.378906 5.25 357.222656 5.25 C 356.878906 5.25 356.59375 5.398438 356.359375 5.691406 C 356.128906 5.980469 356.011719 6.367188 356.011719 6.851562 C 356.011719 7.296875 356.140625 7.691406 356.394531 8.046875 C 356.652344 8.398438 357 8.574219 357.441406 8.574219 C 357.75 8.574219 358.027344 8.472656 358.265625 8.265625 C 358.402344 8.152344 358.558594 7.964844 358.730469 7.710938 L 358.855469 7.789062 C 358.683594 8.144531 358.507812 8.425781 358.320312 8.632812 C 357.960938 9.027344 357.546875 9.226562 357.074219 9.226562 C 356.609375 9.226562 356.203125 9.046875 355.847656 8.6875 C 355.488281 8.324219 355.3125 7.835938 355.3125 7.21875 C 355.3125 6.609375 355.507812 6.089844 355.894531 5.652344 C 356.285156 5.214844 356.773438 4.996094 357.367188 4.996094 Z M 357.175781 4.992188 Z M 357.175781 4.992188 "/>
<path style=" stroke:none;fill-rule:evenodd;fill:rgb(0%,0%,0%);fill-opacity:1;" d="M 349.191406 88.640625 C 348.855469 88.753906 348.578125 88.878906 348.359375 89.015625 C 347.9375 89.28125 347.726562 89.582031 347.726562 89.921875 C 347.726562 90.195312 347.8125 90.394531 347.988281 90.523438 C 348.101562 90.605469 348.230469 90.648438 348.371094 90.648438 C 348.5625 90.648438 348.75 90.59375 348.925781 90.480469 C 349.101562 90.371094 349.191406 90.230469 349.191406 90.058594 Z M 346.941406 90.226562 C 346.941406 89.792969 347.15625 89.433594 347.582031 89.144531 C 347.859375 88.96875 348.394531 88.722656 349.191406 88.417969 L 349.191406 88.054688 C 349.191406 87.769531 349.164062 87.566406 349.105469 87.453125 C 349.007812 87.265625 348.800781 87.171875 348.492188 87.171875 C 348.34375 87.171875 348.203125 87.207031 348.070312 87.28125 C 347.933594 87.355469 347.867188 87.460938 347.867188 87.59375 C 347.867188 87.625 347.875 87.683594 347.890625 87.761719 C 347.90625 87.84375 347.914062 87.894531 347.914062 87.914062 C 347.914062 88.074219 347.859375 88.183594 347.75 88.246094 C 347.6875 88.28125 347.613281 88.300781 347.53125 88.300781 C 347.398438 88.300781 347.296875 88.257812 347.226562 88.175781 C 347.15625 88.089844 347.121094 88 347.121094 87.894531 C 347.121094 87.699219 347.246094 87.492188 347.5 87.277344 C 347.75 87.058594 348.121094 86.949219 348.605469 86.949219 C 349.167969 86.949219 349.550781 87.128906 349.753906 87.492188 C 349.867188 87.683594 349.921875 87.96875 349.921875 88.339844 L 349.921875 90.136719 C 349.921875 90.3125 349.933594 90.429688 349.953125 90.496094 C 349.992188 90.597656 350.070312 90.648438 350.1875 90.648438 C 350.253906 90.648438 350.304688 90.640625 350.347656 90.628906 C 350.390625 90.613281 350.464844 90.566406 350.570312 90.488281 L 350.570312 90.699219 C 350.476562 90.820312 350.375 90.921875 350.265625 91 C 350.101562 91.121094 349.933594 91.179688 349.761719 91.179688 C 349.5625 91.179688 349.417969 91.109375 349.328125 90.972656 C 349.238281 90.835938 349.191406 90.679688 349.191406 90.507812 C 348.980469 90.695312 348.792969 90.835938 348.636719 90.933594 C 348.371094 91.097656 348.113281 91.179688 347.875 91.179688 C 347.621094 91.179688 347.402344 91.089844 347.21875 90.910156 C 347.035156 90.730469 346.941406 90.5 346.941406 90.226562 Z M 348.585938 86.921875 Z M 352.867188 86.949219 C 353.238281 86.949219 353.558594 87.042969 353.828125 87.222656 C 354.097656 87.40625 354.230469 87.609375 354.230469 87.828125 C 354.230469 87.921875 354.195312 88.007812 354.128906 88.089844 C 354.058594 88.167969 353.953125 88.210938 353.8125 88.210938 C 353.707031 88.210938 353.617188 88.175781 353.535156 88.109375 C 353.457031 88.042969 353.402344 87.941406 353.363281 87.8125 L 353.308594 87.609375 C 353.273438 87.460938 353.203125 87.355469 353.109375 87.292969 C 353.011719 87.234375 352.878906 87.203125 352.722656 87.203125 C 352.378906 87.203125 352.09375 87.351562 351.859375 87.644531 C 351.628906 87.933594 351.511719 88.324219 351.511719 88.804688 C 351.511719 89.25 351.640625 89.644531 351.894531 90 C 352.152344 90.351562 352.5 90.527344 352.941406 90.527344 C 353.25 90.527344 353.527344 90.425781 353.765625 90.222656 C 353.902344 90.105469 354.058594 89.917969 354.230469 89.664062 L 354.355469 89.742188 C 354.183594 90.097656 354.007812 90.378906 353.820312 90.585938 C 353.460938 90.980469 353.046875 91.179688 352.574219 91.179688 C 352.109375 91.179688 351.703125 91 351.347656 90.640625 C 350.988281 90.277344 350.8125 89.789062 350.8125 89.171875 C 350.8125 88.5625 351.007812 88.042969 351.394531 87.605469 C 351.785156 87.167969 352.273438 86.949219 352.867188 86.949219 Z M 352.675781 86.945312 Z M 354.71875 85.53125 L 354.71875 85.378906 C 355.050781 85.300781 355.351562 85.210938 355.617188 85.117188 C 355.886719 85.019531 356.027344 84.96875 356.050781 84.96875 C 356.054688 84.988281 356.058594 85.007812 356.058594 85.023438 L 356.058594 87.679688 C 356.136719 87.539062 356.25 87.40625 356.402344 87.28125 C 356.675781 87.058594 356.988281 86.949219 357.339844 86.949219 C 357.773438 86.949219 358.144531 87.132812 358.453125 87.496094 C 358.757812 87.859375 358.910156 88.332031 358.910156 88.914062 C 358.910156 89.539062 358.710938 90.070312 358.316406 90.515625 C 357.917969 90.957031 357.394531 91.179688 356.746094 91.179688 C 356.417969 91.179688 356.097656 91.117188 355.785156 90.988281 C 355.46875 90.859375 355.3125 90.726562 355.3125 90.597656 L 355.3125 85.96875 C 355.3125 85.800781 355.289062 85.683594 355.242188 85.617188 C 355.195312 85.546875 355.085938 85.511719 354.917969 85.511719 Z M 356.042969 90.453125 C 356.066406 90.605469 356.183594 90.714844 356.386719 90.785156 C 356.589844 90.847656 356.769531 90.882812 356.921875 90.882812 C 357.335938 90.882812 357.644531 90.726562 357.84375 90.417969 C 358.042969 90.109375 358.140625 89.738281 358.140625 89.296875 C 358.140625 88.859375 358.050781 88.457031 357.863281 88.085938 C 357.675781 87.710938 357.375 87.527344 356.957031 87.527344 C 356.75 87.527344 356.542969 87.589844 356.34375 87.71875 C 356.140625 87.847656 356.042969 88.007812 356.042969 88.207031 Z M 356.042969 90.453125 "/>
<path style=" stroke:none;fill-rule:evenodd;fill:rgb(0%,0%,0%);fill-opacity:1;" d="M 346.617188 126.507812 L 346.617188 126.355469 C 346.953125 126.277344 347.25 126.1875 347.519531 126.09375 C 347.785156 125.996094 347.929688 125.945312 347.949219 125.945312 C 347.957031 125.964844 347.957031 125.984375 347.957031 126 L 347.957031 128.65625 C 348.035156 128.515625 348.148438 128.382812 348.304688 128.257812 C 348.574219 128.035156 348.886719 127.925781 349.242188 127.925781 C 349.675781 127.925781 350.046875 128.109375 350.351562 128.472656 C 350.65625 128.835938 350.8125 129.308594 350.8125 129.890625 C 350.8125 130.515625 350.613281 131.046875 350.214844 131.492188 C 349.816406 131.933594 349.292969 132.15625 348.644531 132.15625 C 348.320312 132.15625 348 132.09375 347.683594 131.964844 C 347.367188 131.835938 347.210938 131.703125 347.210938 131.574219 L 347.210938 126.945312 C 347.210938 126.777344 347.1875 126.660156 347.140625 126.59375 C 347.09375 126.523438 346.984375 126.488281 346.816406 126.488281 Z M 347.941406 131.429688 C 347.96875 131.582031 348.082031 131.691406 348.285156 131.761719 C 348.488281 131.824219 348.667969 131.859375 348.820312 131.859375 C 349.234375 131.859375 349.542969 131.703125 349.742188 131.394531 C 349.941406 131.085938 350.042969 130.714844 350.042969 130.273438 C 350.042969 129.835938 349.949219 129.433594 349.761719 129.0625 C 349.578125 128.6875 349.273438 128.503906 348.859375 128.503906 C 348.648438 128.503906 348.445312 128.566406 348.242188 128.695312 C 348.042969 128.824219 347.941406 128.984375 347.941406 129.183594 Z M 353.691406 129.617188 C 353.355469 129.730469 353.078125 129.855469 352.859375 129.992188 C 352.4375 130.257812 352.226562 130.558594 352.226562 130.898438 C 352.226562 131.171875 352.3125 131.371094 352.488281 131.5 C 352.601562 131.582031 352.730469 131.625 352.871094 131.625 C 353.0625 131.625 353.25 131.570312 353.425781 131.457031 C 353.601562 131.347656 353.691406 131.207031 353.691406 131.035156 Z M 351.441406 131.203125 C 351.441406 130.769531 351.65625 130.410156 352.082031 130.121094 C 352.359375 129.945312 352.894531 129.699219 353.691406 129.394531 L 353.691406 129.03125 C 353.691406 128.746094 353.664062 128.542969 353.605469 128.429688 C 353.507812 128.242188 353.300781 128.148438 352.992188 128.148438 C 352.84375 128.148438 352.703125 128.183594 352.570312 128.257812 C 352.433594 128.332031 352.367188 128.4375 352.367188 128.570312 C 352.367188 128.601562 352.375 128.660156 352.390625 128.738281 C 352.40625 128.820312 352.414062 128.871094 352.414062 128.890625 C 352.414062 129.050781 352.359375 129.160156 352.25 129.222656 C 352.1875 129.257812 352.113281 129.277344 352.03125 129.277344 C 351.898438 129.277344 351.796875 129.234375 351.726562 129.152344 C 351.65625 129.066406 351.621094 128.976562 351.621094 128.871094 C 351.621094 128.675781 351.746094 128.46875 352 128.253906 C 352.25 128.035156 352.621094 127.925781 353.105469 127.925781 C 353.667969 127.925781 354.050781 128.105469 354.253906 128.46875 C 354.367188 128.660156 354.421875 128.945312 354.421875 129.316406 L 354.421875 131.113281 C 354.421875 131.289062 354.433594 131.40625 354.453125 131.472656 C 354.492188 131.574219 354.570312 131.625 354.6875 131.625 C 354.753906 131.625 354.804688 131.617188 354.847656 131.605469 C 354.890625 131.589844 354.964844 131.542969 355.070312 131.464844 L 355.070312 131.675781 C 354.976562 131.796875 354.875 131.898438 354.765625 131.976562 C 354.601562 132.097656 354.433594 132.15625 354.261719 132.15625 C 354.0625 132.15625 353.917969 132.085938 353.828125 131.949219 C 353.738281 131.8125 353.691406 131.65625 353.691406 131.484375 C 353.480469 131.671875 353.292969 131.8125 353.136719 131.910156 C 352.871094 132.074219 352.613281 132.15625 352.375 132.15625 C 352.121094 132.15625 351.902344 132.066406 351.71875 131.886719 C 351.535156 131.707031 351.441406 131.476562 351.441406 131.203125 Z M 353.085938 127.898438 Z M 357.367188 127.925781 C 357.738281 127.925781 358.058594 128.019531 358.328125 128.199219 C 358.597656 128.382812 358.730469 128.585938 358.730469 128.804688 C 358.730469 128.898438 358.695312 128.984375 358.628906 129.066406 C 358.558594 129.144531 358.453125 129.1875 358.3125 129.1875 C 358.207031 129.1875 358.117188 129.152344 358.035156 129.085938 C 357.957031 129.019531 357.902344 128.917969 357.863281 128.789062 L 357.808594 128.585938 C 357.773438 128.4375 357.703125 128.332031 357.609375 128.269531 C 357.511719 128.210938 357.378906 128.179688 357.222656 128.179688 C 356.878906 128.179688 356.59375 128.328125 356.359375 128.621094 C 356.128906 128.910156 356.011719 129.300781 356.011719 129.78125 C 356.011719 130.226562 356.140625 130.621094 356.394531 130.976562 C 356.652344 131.328125 357 131.503906 357.441406 131.503906 C 357.75 131.503906 358.027344 131.402344 358.265625 131.199219 C 358.402344 131.082031 358.558594 130.894531 358.730469 130.640625 L 358.855469 130.71875 C 358.683594 131.074219 358.507812 131.355469 358.320312 131.5625 C 357.960938 131.957031 357.546875 132.15625 357.074219 132.15625 C 356.609375 132.15625 356.203125 131.976562 355.847656 131.617188 C 355.488281 131.253906 355.3125 130.765625 355.3125 130.148438 C 355.3125 129.539062 355.507812 129.019531 355.894531 128.582031 C 356.285156 128.144531 356.773438 127.925781 357.367188 127.925781 Z M 357.175781 127.921875 Z M 357.175781 127.921875 "/>
<path style=" stroke:none;fill-rule:evenodd;fill:rgb(0%,0%,0%);fill-opacity:1;" d="M 346.617188 208.460938 L 346.617188 208.308594 C 346.953125 208.230469 347.25 208.140625 347.519531 208.046875 C 347.785156 207.949219 347.929688 207.898438 347.949219 207.898438 C 347.957031 207.917969 347.957031 207.9375 347.957031 207.953125 L 347.957031 210.609375 C 348.035156 210.46875 348.148438 210.335938 348.304688 210.210938 C 348.574219 209.988281 348.886719 209.878906 349.242188 209.878906 C 349.675781 209.878906 350.046875 210.0625 350.351562 210.425781 C 350.65625 210.789062 350.8125 211.261719 350.8125 211.84375 C 350.8125 212.46875 350.613281 213 350.214844 213.445312 C 349.816406 213.886719 349.292969 214.109375 348.644531 214.109375 C 348.320312 214.109375 348 214.046875 347.683594 213.917969 C 347.367188 213.789062 347.210938 213.660156 347.210938 213.527344 L 347.210938 208.898438 C 347.210938 208.730469 347.1875 208.613281 347.140625 208.546875 C 347.09375 208.476562 346.984375 208.441406 346.816406 208.441406 Z M 347.941406 213.382812 C 347.96875 213.535156 348.082031 213.648438 348.285156 213.714844 C 348.488281 213.777344 348.667969 213.8125 348.820312 213.8125 C 349.234375 213.8125 349.542969 213.65625 349.742188 213.347656 C 349.941406 213.039062 350.042969 212.667969 350.042969 212.226562 C 350.042969 211.789062 349.949219 211.386719 349.761719 211.015625 C 349.578125 210.640625 349.273438 210.457031 348.859375 210.457031 C 348.648438 210.457031 348.445312 210.519531 348.242188 210.648438 C 348.042969 210.777344 347.941406 210.9375 347.941406 211.136719 Z M 353.320312 209.878906 C 353.6875 209.878906 354.007812 209.972656 354.277344 210.152344 C 354.546875 210.335938 354.679688 210.539062 354.679688 210.757812 C 354.679688 210.851562 354.648438 210.9375 354.578125 211.019531 C 354.511719 211.097656 354.40625 211.140625 354.261719 211.140625 C 354.15625 211.140625 354.066406 211.105469 353.988281 211.039062 C 353.90625 210.972656 353.851562 210.871094 353.816406 210.742188 L 353.761719 210.539062 C 353.722656 210.390625 353.65625 210.285156 353.558594 210.222656 C 353.460938 210.164062 353.332031 210.132812 353.171875 210.132812 C 352.832031 210.132812 352.542969 210.28125 352.308594 210.574219 C 352.078125 210.863281 351.960938 211.253906 351.960938 211.734375 C 351.960938 212.179688 352.089844 212.574219 352.34375 212.929688 C 352.601562 213.28125 352.953125 213.457031 353.390625 213.457031 C 353.699219 213.457031 353.976562 213.355469 354.21875 213.152344 C 354.355469 213.035156 354.507812 212.847656 354.679688 212.59375 L 354.804688 212.671875 C 354.636719 213.027344 354.457031 213.308594 354.269531 213.515625 C 353.910156 213.910156 353.496094 214.109375 353.023438 214.109375 C 352.5625 214.109375 352.152344 213.929688 351.796875 213.570312 C 351.441406 213.207031 351.261719 212.71875 351.261719 212.101562 C 351.261719 211.492188 351.457031 210.972656 351.84375 210.535156 C 352.234375 210.097656 352.726562 209.878906 353.320312 209.878906 Z M 353.125 209.875 Z M 357.742188 211.570312 C 357.40625 211.683594 357.125 211.808594 356.90625 211.945312 C 356.484375 212.210938 356.273438 212.511719 356.273438 212.851562 C 356.273438 213.125 356.363281 213.324219 356.539062 213.453125 C 356.652344 213.535156 356.78125 213.578125 356.921875 213.578125 C 357.113281 213.578125 357.296875 213.523438 357.476562 213.414062 C 357.652344 213.300781 357.742188 213.160156 357.742188 212.992188 Z M 355.492188 213.15625 C 355.492188 212.722656 355.707031 212.363281 356.132812 212.078125 C 356.410156 211.898438 356.945312 211.652344 357.742188 211.347656 L 357.742188 210.988281 C 357.742188 210.699219 357.710938 210.496094 357.65625 210.382812 C 357.558594 210.195312 357.351562 210.101562 357.042969 210.101562 C 356.894531 210.101562 356.753906 210.136719 356.621094 210.210938 C 356.484375 210.285156 356.417969 210.390625 356.417969 210.523438 C 356.417969 210.554688 356.425781 210.613281 356.441406 210.691406 C 356.457031 210.773438 356.464844 210.824219 356.464844 210.847656 C 356.464844 211.003906 356.410156 211.113281 356.300781 211.175781 C 356.238281 211.210938 356.164062 211.230469 356.082031 211.230469 C 355.949219 211.230469 355.847656 211.1875 355.777344 211.105469 C 355.707031 211.019531 355.671875 210.929688 355.671875 210.824219 C 355.671875 210.628906 355.796875 210.421875 356.046875 210.207031 C 356.300781 209.988281 356.667969 209.878906 357.15625 209.878906 C 357.71875 209.878906 358.101562 210.058594 358.304688 210.421875 C 358.414062 210.613281 358.472656 210.898438 358.472656 211.269531 L 358.472656 213.066406 C 358.472656 213.242188 358.484375 213.359375 358.503906 213.425781 C 358.542969 213.527344 358.621094 213.578125 358.738281 213.578125 C 358.800781 213.578125 358.855469 213.570312 358.898438 213.558594 C 358.941406 213.542969 359.015625 213.496094 359.121094 213.417969 L 359.121094 213.628906 C 359.027344 213.753906 358.925781 213.851562 358.816406 213.929688 C 358.652344 214.050781 358.484375 214.109375 358.3125 214.109375 C 358.109375 214.109375 357.964844 214.039062 357.875 213.902344 C 357.785156 213.765625 357.742188 213.609375 357.742188 213.4375 C 357.53125 213.625 357.34375 213.765625 357.1875 213.863281 C 356.917969 214.027344 356.664062 214.109375 356.425781 214.109375 C 356.171875 214.109375 355.953125 214.019531 355.769531 213.839844 C 355.582031 213.660156 355.492188 213.429688 355.492188 213.15625 Z M 357.136719 209.851562 Z M 357.136719 209.851562 "/>
<path style=" stroke:none;fill-rule:evenodd;fill:rgb(0%,0%,0%);fill-opacity:1;" d="M 348.820312 250.855469 C 349.1875 250.855469 349.507812 250.949219 349.777344 251.128906 C 350.046875 251.3125 350.179688 251.515625 350.179688 251.734375 C 350.179688 251.828125 350.148438 251.914062 350.078125 251.996094 C 350.011719 252.074219 349.90625 252.117188 349.761719 252.117188 C 349.65625 252.117188 349.566406 252.082031 349.488281 252.015625 C 349.40625 251.949219 349.351562 251.847656 349.316406 251.71875 L 349.261719 251.515625 C 349.222656 251.367188 349.15625 251.261719 349.058594 251.199219 C 348.960938 251.140625 348.832031 251.109375 348.671875 251.109375 C 348.332031 251.109375 348.042969 251.257812 347.808594 251.550781 C 347.578125 251.839844 347.460938 252.230469 347.460938 252.710938 C 347.460938 253.15625 347.589844 253.550781 347.84375 253.90625 C 348.101562 254.257812 348.453125 254.433594 348.890625 254.433594 C 349.199219 254.433594 349.476562 254.332031 349.71875 254.128906 C 349.855469 254.011719 350.007812 253.824219 350.179688 253.570312 L 350.304688 253.648438 C 350.136719 254.003906 349.957031 254.285156 349.769531 254.492188 C 349.410156 254.886719 348.996094 255.085938 348.523438 255.085938 C 348.0625 255.085938 347.652344 254.90625 347.296875 254.546875 C 346.941406 254.183594 346.761719 253.695312 346.761719 253.078125 C 346.761719 252.46875 346.957031 251.949219 347.34375 251.511719 C 347.734375 251.074219 348.226562 250.855469 348.820312 250.855469 Z M 348.625 250.851562 Z M 353.242188 252.546875 C 352.90625 252.660156 352.625 252.785156 352.40625 252.921875 C 351.984375 253.1875 351.773438 253.488281 351.773438 253.828125 C 351.773438 254.101562 351.863281 254.300781 352.039062 254.429688 C 352.152344 254.511719 352.28125 254.554688 352.421875 254.554688 C 352.613281 254.554688 352.796875 254.5 352.976562 254.390625 C 353.152344 254.277344 353.242188 254.136719 353.242188 253.96875 Z M 350.992188 254.132812 C 350.992188 253.699219 351.207031 253.339844 351.632812 253.054688 C 351.910156 252.875 352.445312 252.628906 353.242188 252.324219 L 353.242188 251.964844 C 353.242188 251.675781 353.210938 251.472656 353.15625 251.359375 C 353.058594 251.171875 352.851562 251.078125 352.542969 251.078125 C 352.394531 251.078125 352.253906 251.113281 352.121094 251.1875 C 351.984375 251.261719 351.917969 251.367188 351.917969 251.5 C 351.917969 251.53125 351.925781 251.589844 351.941406 251.667969 C 351.957031 251.75 351.964844 251.800781 351.964844 251.824219 C 351.964844 251.980469 351.910156 252.089844 351.800781 252.152344 C 351.738281 252.1875 351.664062 252.207031 351.582031 252.207031 C 351.449219 252.207031 351.347656 252.164062 351.277344 252.082031 C 351.207031 251.996094 351.171875 251.90625 351.171875 251.800781 C 351.171875 251.605469 351.296875 251.398438 351.546875 251.183594 C 351.800781 250.964844 352.167969 250.855469 352.65625 250.855469 C 353.21875 250.855469 353.601562 251.035156 353.804688 251.398438 C 353.914062 251.589844 353.972656 251.875 353.972656 252.246094 L 353.972656 254.042969 C 353.972656 254.21875 353.984375 254.335938 354.003906 254.402344 C 354.042969 254.503906 354.121094 254.554688 354.238281 254.554688 C 354.300781 254.554688 354.355469 254.546875 354.398438 254.535156 C 354.441406 254.519531 354.515625 254.472656 354.621094 254.394531 L 354.621094 254.605469 C 354.527344 254.730469 354.425781 254.828125 354.316406 254.90625 C 354.152344 255.027344 353.984375 255.085938 353.8125 255.085938 C 353.609375 255.085938 353.464844 255.015625 353.375 254.878906 C 353.285156 254.742188 353.242188 254.585938 353.242188 254.414062 C 353.03125 254.601562 352.84375 254.742188 352.6875 254.839844 C 352.417969 255.003906 352.164062 255.085938 351.925781 255.085938 C 351.671875 255.085938 351.453125 254.996094 351.269531 254.816406 C 351.082031 254.636719 350.992188 254.40625 350.992188 254.132812 Z M 352.636719 250.828125 Z M 354.71875 249.4375 L 354.71875 249.285156 C 355.050781 249.207031 355.351562 249.117188 355.617188 249.023438 C 355.886719 248.925781 356.027344 248.875 356.050781 248.875 C 356.054688 248.894531 356.058594 248.914062 356.058594 248.929688 L 356.058594 251.585938 C 356.136719 251.445312 356.25 251.3125 356.402344 251.1875 C 356.675781 250.964844 356.988281 250.855469 357.339844 250.855469 C 357.773438 250.855469 358.144531 251.039062 358.453125 251.402344 C 358.757812 251.765625 358.910156 252.238281 358.910156 252.820312 C 358.910156 253.445312 358.710938 253.976562 358.316406 254.421875 C 357.917969 254.863281 357.394531 255.085938 356.746094 255.085938 C 356.417969 255.085938 356.097656 255.023438 355.785156 254.894531 C 355.46875 254.765625 355.3125 254.636719 355.3125 254.503906 L 355.3125 249.875 C 355.3125 249.707031 355.289062 249.589844 355.242188 249.523438 C 355.195312 249.453125 355.085938 249.417969 354.917969 249.417969 Z M 356.042969 254.359375 C 356.066406 254.511719 356.183594 254.625 356.386719 254.691406 C 356.589844 254.753906 356.769531 254.789062 356.921875 254.789062 C 357.335938 254.789062 357.644531 254.632812 357.84375 254.324219 C 358.042969 254.015625 358.140625 253.644531 358.140625 253.203125 C 358.140625 252.765625 358.050781 252.363281 357.863281 251.992188 C 357.675781 251.617188 357.375 251.433594 356.957031 251.433594 C 356.75 251.433594 356.542969 251.496094 356.34375 251.625 C 356.140625 251.753906 356.042969 251.914062 356.042969 252.113281 Z M 356.042969 254.359375 "/>
<path style=" stroke:none;fill-rule:evenodd;fill:rgb(0%,0%,0%);fill-opacity:1;" d="M 348.820312 332.808594 C 349.1875 332.808594 349.507812 332.902344 349.777344 333.082031 C 350.046875 333.265625 350.179688 333.46875 350.179688 333.6875 C 350.179688 333.78125 350.148438 333.867188 350.078125 333.949219 C 350.011719 334.027344 349.90625 334.070312 349.761719 334.070312 C 349.65625 334.070312 349.566406 334.035156 349.488281 333.96875 C 349.40625 333.902344 349.351562 333.800781 349.316406 333.671875 L 349.261719 333.46875 C 349.222656 333.320312 349.15625 333.214844 349.058594 333.152344 C 348.960938 333.09375 348.832031 333.0625 348.671875 333.0625 C 348.332031 333.0625 348.042969 333.210938 347.808594 333.503906 C 347.578125 333.792969 347.460938 334.183594 347.460938 334.664062 C 347.460938 335.109375 347.589844 335.503906 347.84375 335.859375 C 348.101562 336.210938 348.453125 336.386719 348.890625 336.386719 C 349.199219 336.386719 349.476562 336.285156 349.71875 336.082031 C 349.855469 335.964844 350.007812 335.777344 350.179688 335.523438 L 350.304688 335.601562 C 350.136719 335.957031 349.957031 336.238281 349.769531 336.445312 C 349.410156 336.839844 348.996094 337.039062 348.523438 337.039062 C 348.0625 337.039062 347.652344 336.859375 347.296875 336.5 C 346.941406 336.136719 346.761719 335.648438 346.761719 335.03125 C 346.761719 334.421875 346.957031 333.902344 347.34375 333.464844 C 347.734375 333.027344 348.226562 332.808594 348.820312 332.808594 Z M 348.625 332.804688 Z M 350.667969 331.390625 L 350.667969 331.238281 C 351 331.160156 351.300781 331.074219 351.566406 330.976562 C 351.835938 330.878906 351.980469 330.828125 352 330.828125 C 352.003906 330.847656 352.007812 330.867188 352.007812 330.882812 L 352.007812 333.539062 C 352.085938 333.398438 352.199219 333.265625 352.355469 333.140625 C 352.625 332.917969 352.9375 332.808594 353.289062 332.808594 C 353.726562 332.808594 354.09375 332.992188 354.402344 333.355469 C 354.707031 333.71875 354.863281 334.191406 354.863281 334.777344 C 354.863281 335.398438 354.664062 335.929688 354.265625 336.375 C 353.867188 336.816406 353.34375 337.039062 352.695312 337.039062 C 352.371094 337.039062 352.050781 336.976562 351.734375 336.847656 C 351.417969 336.71875 351.261719 336.589844 351.261719 336.457031 L 351.261719 331.828125 C 351.261719 331.660156 351.238281 331.542969 351.191406 331.476562 C 351.144531 331.40625 351.035156 331.371094 350.867188 331.371094 Z M 351.992188 336.3125 C 352.015625 336.464844 352.132812 336.578125 352.335938 336.644531 C 352.539062 336.707031 352.71875 336.742188 352.871094 336.742188 C 353.285156 336.742188 353.59375 336.585938 353.792969 336.277344 C 353.992188 335.96875 354.09375 335.597656 354.09375 335.15625 C 354.09375 334.71875 354 334.316406 353.8125 333.945312 C 353.625 333.570312 353.324219 333.386719 352.90625 333.386719 C 352.699219 333.386719 352.492188 333.449219 352.292969 333.578125 C 352.089844 333.707031 351.992188 333.867188 351.992188 334.066406 Z M 357.742188 334.5 C 357.40625 334.613281 357.125 334.738281 356.90625 334.875 C 356.484375 335.140625 356.273438 335.445312 356.273438 335.78125 C 356.273438 336.054688 356.363281 336.253906 356.539062 336.382812 C 356.652344 336.464844 356.78125 336.507812 356.921875 336.507812 C 357.113281 336.507812 357.296875 336.453125 357.476562 336.34375 C 357.652344 336.230469 357.742188 336.089844 357.742188 335.921875 Z M 355.492188 336.085938 C 355.492188 335.652344 355.707031 335.292969 356.132812 335.007812 C 356.410156 334.828125 356.945312 334.582031 357.742188 334.277344 L 357.742188 333.917969 C 357.742188 333.628906 357.710938 333.425781 357.65625 333.3125 C 357.558594 333.125 357.351562 333.03125 357.042969 333.03125 C 356.894531 333.03125 356.753906 333.066406 356.621094 333.140625 C 356.484375 333.214844 356.417969 333.320312 356.417969 333.453125 C 356.417969 333.484375 356.425781 333.542969 356.441406 333.621094 C 356.457031 333.703125 356.464844 333.753906 356.464844 333.777344 C 356.464844 333.933594 356.410156 334.042969 356.300781 334.105469 C 356.238281 334.140625 356.164062 334.160156 356.082031 334.160156 C 355.949219 334.160156 355.847656 334.117188 355.777344 334.035156 C 355.707031 333.949219 355.671875 333.859375 355.671875 333.757812 C 355.671875 333.558594 355.796875 333.351562 356.046875 333.136719 C 356.300781 332.917969 356.667969 332.808594 357.15625 332.808594 C 357.71875 332.808594 358.101562 332.988281 358.304688 333.351562 C 358.414062 333.542969 358.472656 333.828125 358.472656 334.199219 L 358.472656 335.996094 C 358.472656 336.171875 358.484375 336.289062 358.503906 336.355469 C 358.542969 336.457031 358.621094 336.507812 358.738281 336.507812 C 358.800781 336.507812 358.855469 336.5 358.898438 336.488281 C 358.941406 336.472656 359.015625 336.425781 359.121094 336.347656 L 359.121094 336.558594 C 359.027344 336.683594 358.925781 336.78125 358.816406 336.859375 C 358.652344 336.980469 358.484375 337.039062 358.3125 337.039062 C 358.109375 337.039062 357.964844 336.96875 357.875 336.832031 C 357.785156 336.695312 357.742188 336.539062 357.742188 336.367188 C 357.53125 336.554688 357.34375 336.695312 357.1875 336.792969 C 356.917969 336.957031 356.664062 337.039062 356.425781 337.039062 C 356.171875 337.039062 355.953125 336.949219 355.769531 336.769531 C 355.582031 336.589844 355.492188 336.359375 355.492188 336.085938 Z M 357.136719 332.78125 Z M 357.136719 332.78125 "/>
<path style=" stroke:none;fill-rule:evenodd;fill:rgb(0%,0%,0%);fill-opacity:1;" d="M 0.59375 171.242188 C 0.746094 171.636719 0.925781 171.953125 1.128906 172.1875 C 1.484375 172.59375 1.925781 172.800781 2.457031 172.800781 C 2.742188 172.800781 2.988281 172.710938 3.195312 172.53125 C 3.40625 172.351562 3.511719 172.105469 3.511719 171.785156 C 3.511719 171.496094 3.40625 171.246094 3.195312 171.035156 C 3.058594 170.890625 2.769531 170.679688 2.332031 170.394531 L 1.5625 169.902344 C 1.332031 169.75 1.148438 169.597656 1.011719 169.441406 C 0.757812 169.160156 0.628906 168.847656 0.628906 168.503906 C 0.628906 168.050781 0.78125 167.675781 1.078125 167.375 C 1.382812 167.074219 1.78125 166.921875 2.277344 166.921875 C 2.480469 166.921875 2.726562 166.96875 3.011719 167.058594 C 3.300781 167.148438 3.464844 167.191406 3.503906 167.191406 C 3.617188 167.191406 3.691406 167.167969 3.734375 167.121094 C 3.777344 167.074219 3.8125 167.007812 3.835938 166.921875 L 4.019531 166.921875 L 4.21875 168.8125 L 4.003906 168.8125 C 3.855469 168.246094 3.621094 167.847656 3.300781 167.625 C 2.976562 167.398438 2.65625 167.289062 2.34375 167.289062 C 2.097656 167.289062 1.882812 167.359375 1.703125 167.503906 C 1.519531 167.644531 1.429688 167.84375 1.429688 168.097656 C 1.429688 168.328125 1.5 168.523438 1.636719 168.683594 C 1.777344 168.847656 1.996094 169.023438 2.289062 169.210938 L 3.078125 169.714844 C 3.570312 170.03125 3.917969 170.3125 4.121094 170.566406 C 4.320312 170.824219 4.417969 171.128906 4.417969 171.480469 C 4.417969 171.953125 4.242188 172.34375 3.886719 172.660156 C 3.53125 172.976562 3.078125 173.132812 2.527344 173.132812 C 2.25 173.132812 1.960938 173.078125 1.65625 172.96875 C 1.355469 172.855469 1.183594 172.800781 1.140625 172.800781 C 1.035156 172.800781 0.964844 172.835938 0.925781 172.90625 C 0.890625 172.976562 0.867188 173.050781 0.855469 173.132812 L 0.65625 173.132812 L 0.386719 171.242188 Z M 2.503906 166.960938 Z M 7.308594 168.992188 L 7.308594 169.308594 L 6.425781 169.308594 L 6.425781 171.84375 C 6.425781 172.066406 6.441406 172.238281 6.464844 172.351562 C 6.535156 172.554688 6.671875 172.65625 6.875 172.65625 C 6.980469 172.65625 7.074219 172.628906 7.148438 172.582031 C 7.226562 172.53125 7.316406 172.453125 7.414062 172.34375 L 7.527344 172.441406 L 7.433594 172.570312 C 7.28125 172.777344 7.121094 172.921875 6.953125 173.007812 C 6.785156 173.089844 6.625 173.132812 6.46875 173.132812 C 6.125 173.132812 5.890625 172.980469 5.769531 172.671875 C 5.703125 172.503906 5.671875 172.273438 5.671875 171.976562 L 5.671875 169.308594 L 5.175781 169.308594 C 5.160156 169.300781 5.148438 169.292969 5.140625 169.28125 C 5.132812 169.273438 5.128906 169.261719 5.128906 169.246094 C 5.128906 169.21875 5.136719 169.199219 5.148438 169.179688 C 5.164062 169.164062 5.207031 169.125 5.277344 169.066406 C 5.488281 168.902344 5.636719 168.765625 5.726562 168.664062 C 5.820312 168.558594 6.03125 168.285156 6.359375 167.84375 C 6.390625 167.84375 6.410156 167.84375 6.417969 167.851562 C 6.421875 167.855469 6.425781 167.878906 6.425781 167.917969 L 6.425781 168.992188 Z M 10.171875 170.59375 C 9.832031 170.707031 9.554688 170.832031 9.335938 170.96875 C 8.914062 171.234375 8.703125 171.535156 8.703125 171.875 C 8.703125 172.148438 8.789062 172.347656 8.964844 172.476562 C 9.082031 172.558594 9.207031 172.601562 9.347656 172.601562 C 9.542969 172.601562 9.726562 172.546875 9.902344 172.433594 C 10.082031 172.324219 10.171875 172.183594 10.171875 172.011719 Z M 7.921875 172.179688 C 7.921875 171.746094 8.132812 171.386719 8.5625 171.097656 C 8.835938 170.921875 9.375 170.675781 10.171875 170.371094 L 10.171875 170.007812 C 10.171875 169.722656 10.140625 169.519531 10.085938 169.40625 C 9.984375 169.21875 9.78125 169.125 9.46875 169.125 C 9.324219 169.125 9.183594 169.160156 9.046875 169.234375 C 8.914062 169.308594 8.847656 169.414062 8.847656 169.546875 C 8.847656 169.578125 8.855469 169.636719 8.871094 169.714844 C 8.882812 169.796875 8.890625 169.847656 8.890625 169.867188 C 8.890625 170.027344 8.835938 170.136719 8.730469 170.199219 C 8.667969 170.234375 8.59375 170.253906 8.507812 170.253906 C 8.378906 170.253906 8.277344 170.210938 8.207031 170.128906 C 8.136719 170.042969 8.101562 169.953125 8.101562 169.847656 C 8.101562 169.652344 8.226562 169.445312 8.476562 169.230469 C 8.730469 169.011719 9.097656 168.902344 9.585938 168.902344 C 10.148438 168.902344 10.53125 169.082031 10.734375 169.445312 C 10.84375 169.636719 10.898438 169.921875 10.898438 170.292969 L 10.898438 172.089844 C 10.898438 172.265625 10.910156 172.382812 10.933594 172.449219 C 10.972656 172.550781 11.046875 172.601562 11.164062 172.601562 C 11.230469 172.601562 11.285156 172.59375 11.328125 172.582031 C 11.371094 172.566406 11.445312 172.519531 11.550781 172.441406 L 11.550781 172.652344 C 11.453125 172.773438 11.355469 172.875 11.246094 172.953125 C 11.082031 173.074219 10.910156 173.132812 10.738281 173.132812 C 10.539062 173.132812 10.394531 173.0625 10.304688 172.925781 C 10.214844 172.789062 10.171875 172.632812 10.171875 172.460938 C 9.957031 172.648438 9.773438 172.789062 9.617188 172.886719 C 9.347656 173.050781 9.09375 173.132812 8.855469 173.132812 C 8.601562 173.132812 8.382812 173.042969 8.195312 172.863281 C 8.011719 172.683594 7.921875 172.453125 7.921875 172.179688 Z M 9.5625 168.875 Z M 11.609375 172.898438 C 11.886719 172.875 12.074219 172.828125 12.167969 172.757812 C 12.265625 172.683594 12.3125 172.53125 12.3125 172.300781 L 12.3125 170.335938 C 12.3125 170.046875 12.28125 169.84375 12.222656 169.71875 C 12.164062 169.59375 12.058594 169.53125 11.902344 169.53125 C 11.871094 169.53125 11.828125 169.535156 11.773438 169.542969 C 11.722656 169.550781 11.667969 169.558594 11.609375 169.570312 L 11.609375 169.433594 C 11.789062 169.371094 11.972656 169.308594 12.15625 169.242188 C 12.339844 169.175781 12.464844 169.128906 12.527344 169.101562 C 12.660156 169.039062 12.800781 168.976562 12.945312 168.902344 C 12.964844 168.902344 12.976562 168.910156 12.980469 168.925781 C 12.984375 168.9375 12.984375 168.96875 12.984375 169.019531 L 12.984375 169.738281 C 13.203125 169.496094 13.394531 169.292969 13.5625 169.136719 C 13.730469 168.980469 13.90625 168.902344 14.085938 168.902344 C 14.230469 168.902344 14.347656 168.949219 14.4375 169.039062 C 14.53125 169.128906 14.574219 169.238281 14.574219 169.375 C 14.574219 169.492188 14.539062 169.59375 14.46875 169.679688 C 14.402344 169.757812 14.3125 169.800781 14.207031 169.800781 C 14.097656 169.800781 13.992188 169.753906 13.882812 169.667969 C 13.773438 169.578125 13.6875 169.53125 13.625 169.53125 C 13.527344 169.53125 13.40625 169.613281 13.265625 169.777344 C 13.121094 169.941406 13.050781 170.109375 13.050781 170.285156 L 13.050781 172.238281 C 13.050781 172.488281 13.105469 172.660156 13.21875 172.757812 C 13.328125 172.855469 13.515625 172.902344 13.777344 172.902344 L 13.777344 173.042969 L 11.609375 173.042969 Z M 16.851562 168.992188 L 16.851562 169.308594 L 15.964844 169.308594 L 15.964844 171.84375 C 15.964844 172.066406 15.980469 172.238281 16.007812 172.351562 C 16.078125 172.554688 16.214844 172.65625 16.417969 172.65625 C 16.523438 172.65625 16.613281 172.628906 16.6875 172.582031 C 16.765625 172.53125 16.855469 172.453125 16.957031 172.34375 L 17.070312 172.441406 L 16.976562 172.570312 C 16.824219 172.777344 16.664062 172.921875 16.492188 173.007812 C 16.324219 173.089844 16.164062 173.132812 16.007812 173.132812 C 15.664062 173.132812 15.433594 172.980469 15.308594 172.671875 C 15.242188 172.503906 15.210938 172.273438 15.210938 171.976562 L 15.210938 169.308594 L 14.714844 169.308594 C 14.699219 169.300781 14.691406 169.292969 14.679688 169.28125 C 14.671875 169.273438 14.671875 169.261719 14.671875 169.246094 C 14.671875 169.21875 14.675781 169.199219 14.691406 169.179688 C 14.703125 169.164062 14.746094 169.125 14.820312 169.066406 C 15.027344 168.902344 15.175781 168.765625 15.269531 168.664062 C 15.359375 168.558594 15.570312 168.285156 15.902344 167.84375 C 15.933594 167.84375 15.949219 167.84375 15.957031 167.851562 C 15.964844 167.855469 15.964844 167.878906 15.964844 167.917969 L 15.964844 168.992188 Z M 16.851562 168.992188 "/>
</g>
</svg>
